<?xml version="1.0" encoding="iso-8859-1"?>
<!-- Generator: Adobe Illustrator 16.0.0, SVG Export Plug-In . SVG Version: 6.00 Build 0)  -->
<!DOCTYPE svg PUBLIC "-//W3C//DTD SVG 1.1//EN" "http://www.w3.org/Graphics/SVG/1.1/DTD/svg11.dtd">
<svg version="1.1" id="Capa_1" xmlns="http://www.w3.org/2000/svg" xmlns:xlink="http://www.w3.org/1999/xlink" x="0px" y="0px"
	 width="188.143px" height="188.143px" viewBox="0 0 188.143 188.143" style="enable-background:new 0 0 188.143 188.143;"
	 xml:space="preserve">
<g>
	<g>
		<path d="M31.763,1.935c-57.709,9.796-25.19,87.908,6.604,78.774C61.928,85.515,79.28,67.804,81.636,44.23
			C84.562,14.928,58.907-2.673,31.763,1.935z M46.803,74.046c-0.433-0.763-1.282-1.287-2.187-0.932
			c-0.896,0.353-1.777,0.622-2.654,0.871c-1.867-0.161-3.765-0.427-5.717-0.928c-1.84-0.471-3.172,0.447-3.823,1.733
			C5.896,71.306-5.197,20.06,28.214,10.295c22.801-6.664,44.931,4.978,46.146,29.503C75.279,58.315,63.484,72.923,46.803,74.046z"/>
		<path d="M185.301,177.201c-0.064,0.001-0.127,0.005-0.191,0.006c1.246-11.865,1.09-23.896,1.403-35.807
			c0.326-12.409,1.714-25.354-0.069-37.67c-0.367-2.538-4.702-2.521-5.087,0c-0.79,5.169-1.048,10.438-1.155,15.723
			c-1.144-1.451-2.427-2.817-3.596-4.155c-1.2-1.372-2.477-2.661-3.799-3.9c2.508-2.569,5.07-5.058,7.575-7.682
			c2.45-2.566-0.619-5.956-3.58-4.64c-3.679,1.635-6.726,4.79-9.432,7.969c-1.109-0.243-2.203,1.121-1.803,2.161
			c-0.275,0.335-0.554,0.673-0.825,0.999c-3.171,3.822-5.993,8.007-8.731,12.193c-0.239-0.191-0.46-0.402-0.701-0.593
			c-0.954-0.752-2.208,0.125-2.044,1.052c-1.461-1.926-3.319-3.679-4.701-5.256c-5.471-6.247-11.31-12.151-17.269-17.93
			c-4.018-3.895-19.438-21.203-26.164-18.139c-0.236,0.108-0.286,0.391-0.25,0.616c0.51,3.264,5.364,5.83,7.63,7.907
			c5.53,5.072,10.834,10.355,16.091,15.708c4.79,4.877,9.432,9.913,13.994,15.005c0.52,0.58,1.043,1.245,1.571,1.936
			c-14.476-11.615-29.438-22.593-43.61-34.581c1.101-1.137,2.79-2.222,3.056-3.882c0.224-1.395-0.336-2.987-1.891-3.33
			c-3.916-0.865-7.888,5.047-10.156,7.537c-2.689,2.954-5.521,6.07-7.886,9.391c-0.747-0.627-1.917,0.128-1.913,1.021
			c-0.116,0.04-0.239,0.053-0.348,0.112c-0.423,0.231-0.726,0.638-0.983,1.085c0.073-0.512-0.069-0.071-0.121,0.194
			c-0.219,0.421-0.395,0.857-0.554,1.275c-0.058,0.111-0.112,0.228-0.17,0.339c-0.058,0.112-0.053,0.216-0.092,0.326
			c-0.305,0.733-0.627,1.544-0.806,2.362c-0.501,0.543-0.709,1.364-0.261,2.3c5.16,10.757,13.74,20.315,22.257,28.533
			c5.846,5.643,14.494,14.678,22.925,18.021c-2.795,2.981-5.564,5.993-8.391,8.939c-3.616,3.772-8.018,7.913-10.268,12.701
			c-0.404,0.859-0.349,1.686,0.18,2.428c0.004,0.034-0.002,0.07,0.004,0.105c-0.56-0.432-0.614,0.716-0.645,1.137
			c-0.076,1.034,1.52,1.223,1.783,0.26c0.024,0.009,0.039,0.026,0.064,0.034c23.282,7.91,56.061,11.101,79.736,3.924
			C189.195,181.99,188.658,177.161,185.301,177.201z M155.407,129.059c0.71,0.169,1.487,0.059,2.113-0.548
			c0.21-0.202,0.402-0.424,0.609-0.63c3.236,3.202,6.424,6.458,9.686,9.635c3.21,3.128,7.342,7.845,11.857,9.793
			c-0.105,3.123-0.208,6.254-0.271,9.384c-6-10.269-15.729-18.532-25.33-26.15C154.676,130.238,155.177,129.705,155.407,129.059z
			 M95.478,93.512c1.242-1.37,2.523-2.7,3.801-4.034c12.259,11.793,25.407,22.523,38.468,33.424
			c13.611,11.36,25.683,24.919,39.503,35.836c0.701,0.554,1.61,0.399,2.13-0.104c-0.064,4.684-0.055,9.365,0.221,14.019
			c-18.715-32.209-59.211-52.577-87.051-75.867C93.529,95.687,94.508,94.582,95.478,93.512z M119.53,142.869
			c-5.041-3.664-9.732-7.796-14.304-12.021c-8.505-7.859-15.971-16.329-22.931-25.56c0.507-0.131,0.971-0.464,1.271-1.096
			c0.02-0.04,0.043-0.085,0.062-0.125c0.522,0.163,1.046,0.069,1.527-0.136c12.752,17.344,28.872,31.879,45.727,45.572
			c-0.781-0.471-1.734-0.672-2.625-0.408C125.647,146.699,122.399,144.953,119.53,142.869z M110.84,175.659
			c2.229-1.965,4.349-4.081,6.444-6.207c0.548,2.417,1.525,4.705,3.13,6.753c0.002,0.004,0.006,0.008,0.009,0.011
			C117.23,175.969,114.035,175.768,110.84,175.659z M148.788,178.334c-1.771-0.052-3.54-0.138-5.309-0.239
			c-6.51-4.668-12.9-9.532-19.266-14.396c-1.046-0.799-2.415,0.984-1.406,1.823c4.906,4.086,9.913,8.067,14.808,12.175
			c-3.92-0.306-7.837-0.671-11.755-1.016c-0.648-0.45-1.29-0.909-1.85-1.449c-2.319-2.235-3.729-5.098-4.361-8.182
			c0.353-0.358,0.713-0.725,1.065-1.08c2.636-2.661,5.494-5.345,8.038-8.222c4.189,5.117,8.887,9.772,13.902,14.095
			c2.062,1.776,4.989,4.569,8.074,6.5C150.082,178.333,149.438,178.354,148.788,178.334z M158.873,178.291
			c-0.073-0.291-0.203-0.566-0.387-0.791c-1.408-1.736-3.801-2.355-5.744-3.396c-2.756-1.477-5.303-3.355-7.808-5.214
			c-5.226-3.876-10.071-8.356-14.613-13.034c0.569-0.714,1.154-1.417,1.663-2.161c0.868-1.271,0.564-2.59-0.262-3.51
			c11.626,9.414,23.552,18.468,34.941,27.781C164.067,178.088,161.474,178.217,158.873,178.291z M173.44,177.667
			c-0.126-0.212-0.26-0.423-0.49-0.615c-29.116-24.33-60.791-45.9-85.57-74.876c1.212-1.121,2.354-2.345,3.486-3.572
			c28.693,26.271,59.279,48.91,85.947,77.39c0.965,1.03,2.295,0.674,3.024-0.191c0.043,0.522,0.067,1.047,0.118,1.568
			C177.78,177.448,175.611,177.562,173.44,177.667z M180.013,136.369c-0.046,1.861-0.115,3.737-0.176,5.607
			c-3.099-2.394-6.508-4.544-9.409-7.072c-3.454-3.01-6.864-6.066-10.334-9.055c1.643-1.782,3.209-3.639,4.765-5.503
			c1.93,2.203,3.975,4.31,6.03,6.386c2.748,2.775,5.634,6.496,9.146,8.349C180.025,135.509,180.023,135.941,180.013,136.369z
			 M174.15,124.86c-2.476-2.227-4.966-4.49-7.279-6.906c0.497-0.592,0.988-1.19,1.493-1.775c0.67-0.776,1.362-1.517,2.052-2.261
			c0.992,1.036,1.972,2.088,2.9,3.198c2.174,2.595,3.895,6.053,6.585,8.132c0.065,0.05,0.146,0.077,0.217,0.116
			c-0.008,1.533-0.015,3.066-0.022,4.595C178.25,128.095,175.961,126.487,174.15,124.86z"/>
	</g>
</g>
<g>
</g>
<g>
</g>
<g>
</g>
<g>
</g>
<g>
</g>
<g>
</g>
<g>
</g>
<g>
</g>
<g>
</g>
<g>
</g>
<g>
</g>
<g>
</g>
<g>
</g>
<g>
</g>
<g>
</g>
</svg>
