<svg width="174" height="40" fill="none" xmlns="http://www.w3.org/2000/svg"><g clip-path="url(#clip0)"><path d="M5.572 16.783v1.427l4.982 2.967v-4.394H5.572zM14.8 23.702l8.335 4.949 8.143-4.926v-5.096l-8.312 4.926L14.8 18.64v5.062zM35.524 16.783v4.371l4.983-3.012v-1.36h-4.983z" fill="#296DFF"/><path d="M45.977 16.783v-4.36H43.01L23.192 0 2.865 12.423H0v4.36h1.325v18.855H0v4.36h45.977v-4.36h-1.223V16.783h1.223zm-14.7 0v18.855H14.802V16.783h16.477zM22.91 5.096l12.514 7.327H10.996l11.913-7.327zM5.572 16.783h4.982v18.855H5.572V16.783zm34.935 18.855h-4.982V16.783h4.982v18.855z" fill="#C9D2DC"/></g><path d="M53.407 33.793l-.24-1.682 1.354-.262V20.56l-1.332-.132v-1.725h9.521l.415 4.215h-1.441l-.874-2.206h-3.909v4.412h3.407v1.965h-3.407v4.674l3.582.524-.131 1.507h-6.945zM64.342 33.793l-.284-1.245 1.289-.327v-7.295l-1.136.066-.218-1.332 2.73-.503.698 1.049a2.77 2.77 0 011.049-.787c.407-.189.793-.283 1.157-.283.64 0 1.201.16 1.682.48.48.306.83.728 1.048 1.267l-2.293 1.179-.699-1.07c-.204 0-.451.08-.742.24-.277.146-.525.393-.743.743-.218.334-.327.793-.327 1.375v4.543l2.795.655v1.245h-6.006zM76.312 33.88c-.64 0-1.201-.123-1.682-.37a2.87 2.87 0 01-1.135-1.027c-.262-.437-.393-.94-.393-1.507 0-.67.174-1.223.524-1.66.35-.451.8-.808 1.354-1.07a6.574 6.574 0 011.79-.546 11.86 11.86 0 011.813-.197v-1.616c0-.262-.138-.487-.415-.677-.262-.189-.655-.284-1.18-.284-.145 0-.312.015-.501.044-.175.015-.32.051-.437.11l-.48 1.44-2.403-.873c.291-.728.794-1.325 1.507-1.79.728-.467 1.55-.7 2.468-.7.684 0 1.296.117 1.834.35.553.233.99.597 1.31 1.092.335.495.503 1.143.503 1.944v5.154c0 .174.036.313.11.414a.444.444 0 00.327.132c.073 0 .145-.008.218-.022a2.3 2.3 0 00.153-.066l.328 1.092c-.117.117-.313.255-.59.415a2.033 2.033 0 01-.961.218c-.422 0-.757-.094-1.005-.284a1.814 1.814 0 01-.567-.742c-.306.306-.67.553-1.092.742-.423.19-.888.284-1.398.284zm.393-1.79c.422 0 .8-.11 1.136-.328.35-.233.597-.488.742-.764v-1.879a9.938 9.938 0 00-1.026.11 4.991 4.991 0 00-1.049.24 2.152 2.152 0 00-.83.502c-.203.219-.305.503-.305.852 0 .335.109.633.327.895.233.248.568.372 1.005.372zM87.037 39.69c-.816 0-1.544-.146-2.184-.437-.64-.277-1.143-.67-1.507-1.18-.364-.495-.546-1.07-.546-1.725 0-.713.182-1.31.546-1.79.364-.466.779-.83 1.245-1.093-.175-.16-.32-.349-.437-.567A2 2 0 0184 32.09c0-.35.08-.663.24-.94.16-.29.35-.545.568-.764a3.917 3.917 0 01-1.201-1.288c-.306-.539-.459-1.172-.459-1.9 0-.845.197-1.566.59-2.162a3.928 3.928 0 011.55-1.376 4.368 4.368 0 012.053-.503c.51 0 .998.08 1.464.24.48.16.91.387 1.288.678l2.228-1.114.48.065.24 1.922-1.987.24a4.072 4.072 0 01.502 1.988c0 .844-.204 1.558-.611 2.14a3.884 3.884 0 01-1.55 1.31 4.615 4.615 0 01-2.054.459h-.393a2.802 2.802 0 01-.371-.066l-.415.634.044.35 2.25.502c.713.16 1.324.378 1.834.655.524.262.924.59 1.2.983.277.407.416.917.416 1.528 0 .845-.226 1.565-.677 2.162-.437.612-1.027 1.07-1.77 1.376-.742.32-1.55.48-2.423.48zm.393-2.206c.451 0 .88-.058 1.288-.175.408-.116.743-.291 1.005-.524.262-.233.393-.51.393-.83 0-.276-.124-.502-.371-.677-.248-.175-.576-.32-.983-.437a22.602 22.602 0 00-1.31-.284 13.099 13.099 0 01-1.355-.327c-.393.19-.706.422-.939.699a1.566 1.566 0 00-.327.96c0 .306.102.576.306.809.218.247.516.436.895.568.393.145.859.218 1.398.218zm-.088-8.168c.656 0 1.143-.218 1.464-.655.32-.437.48-.954.48-1.55 0-.598-.16-1.107-.48-1.53-.32-.436-.808-.655-1.464-.655-.64 0-1.12.219-1.441.656-.32.422-.48.931-.48 1.528s.16 1.114.48 1.55c.32.438.8.656 1.441.656zM94.185 33.793l-.24-1.682 1.353-.283v-11.27l-1.332-.152v-1.704h3.626c1.674 0 3.13.277 4.367.83 1.238.539 2.192 1.354 2.861 2.446.685 1.077 1.027 2.453 1.027 4.128 0 1.66-.292 3.064-.874 4.215a5.952 5.952 0 01-2.555 2.598c-1.121.583-2.497.874-4.128.874h-4.105zm4.105-1.987c.903 0 1.675-.139 2.315-.415a4.107 4.107 0 001.573-1.158 4.94 4.94 0 00.895-1.79 8.766 8.766 0 00.284-2.294c0-1.15-.211-2.125-.633-2.926a4.115 4.115 0 00-1.835-1.856c-.801-.423-1.776-.641-2.926-.655h-.284v11.072l.611.022zM112.267 33.88c-.917 0-1.747-.203-2.49-.611-.728-.408-1.31-1.005-1.747-1.79-.437-.787-.655-1.74-.655-2.862 0-1.18.218-2.17.655-2.97.451-.815 1.041-1.434 1.769-1.856a4.62 4.62 0 012.359-.634c.597 0 1.164.11 1.703.328a3.22 3.22 0 011.332.983c.35.437.524.983.524 1.638 0 .67-.152 1.23-.458 1.681a3.13 3.13 0 01-1.201 1.049 5.869 5.869 0 01-1.682.567 10.13 10.13 0 01-1.9.175h-.786c.116.713.393 1.318.83 1.813.437.48 1.121.72 2.053.72.611 0 1.128-.109 1.55-.327a5.027 5.027 0 001.048-.699l.459 1.66c-.175.175-.429.357-.764.546a5.54 5.54 0 01-1.18.437 6.23 6.23 0 01-1.419.152zm-2.577-5.962l.589.022c.321 0 .663-.022 1.027-.065a4.604 4.604 0 001.048-.24c.321-.132.583-.314.786-.547.219-.233.328-.538.328-.917 0-.422-.131-.728-.393-.917a1.42 1.42 0 00-.895-.306c-.466 0-.881.139-1.245.415a2.783 2.783 0 00-.874 1.07 4.458 4.458 0 00-.371 1.485zM117.425 33.793l-.196-1.245 1.201-.284v-7.338l-1.136.044-.218-1.332 2.882-.502.656.83c.32-.233.713-.423 1.179-.568.466-.16.939-.24 1.419-.24.627 0 1.187.109 1.682.327.495.218.881.546 1.158.983.291.437.436.997.436 1.681v6.159l1.245.24-.022 1.245h-4.564l-.022-1.245 1.158-.262v-5.7c0-.538-.131-.939-.393-1.201-.263-.262-.641-.393-1.136-.393-.437 0-.852.095-1.245.284-.393.19-.684.378-.874.568v6.442l1.289.284-.022 1.223h-4.477zM133.413 33.88a9.601 9.601 0 01-2.249-.262 11.727 11.727 0 01-1.944-.633l.197-3.91 1.638.088.327 2.337c.219.073.502.153.852.24.349.088.713.131 1.092.131.48 0 .924-.073 1.332-.218a2.403 2.403 0 001.026-.655c.263-.306.394-.7.394-1.18 0-.393-.088-.728-.262-1.004-.161-.277-.423-.532-.787-.765-.349-.247-.815-.502-1.397-.764-.568-.277-1.114-.546-1.638-.808a7.44 7.44 0 01-1.398-.895 3.922 3.922 0 01-.983-1.202c-.247-.465-.371-1.04-.371-1.725 0-.815.218-1.514.655-2.096.451-.597 1.048-1.056 1.791-1.376.742-.335 1.558-.503 2.446-.503.699 0 1.376.066 2.031.197.67.116 1.281.262 1.834.437l.306 3.887h-1.594l-1.027-2.315a3.5 3.5 0 00-.742-.153 7.93 7.93 0 00-.83-.043c-.48 0-.903.08-1.267.24a1.917 1.917 0 00-.829.633c-.19.262-.284.575-.284.94 0 .363.094.676.284.938.203.262.465.495.786.7.32.189.669.363 1.048.523.379.16.743.328 1.092.503.874.407 1.572.822 2.097 1.244.538.423.924.889 1.157 1.398.247.495.371 1.056.371 1.682 0 .771-.145 1.434-.437 1.987-.291.539-.684.99-1.179 1.354a5.173 5.173 0 01-1.66.808c-.611.16-1.237.24-1.878.24zM143.997 33.88a2.79 2.79 0 01-1.266-.284c-.379-.189-.677-.494-.896-.917-.218-.422-.327-.975-.327-1.66l.044-6.136h-1.704l-.306-1.485.153-.24h1.878l.022-3.67 1.966-.436.174.327-.021 3.778h2.249c.073 0 .109.044.109.131v1.595h-2.358v6.158c0 .437.065.721.196.852.131.117.328.175.59.175.262 0 .531-.08.808-.24.291-.16.495-.284.611-.372l.481 1.529c-.175.19-.481.386-.917.59-.423.203-.918.305-1.486.305zM150.595 33.88c-.641 0-1.202-.123-1.682-.37a2.877 2.877 0 01-1.136-1.027c-.262-.437-.393-.94-.393-1.507 0-.67.175-1.223.524-1.66a3.67 3.67 0 011.354-1.07 6.589 6.589 0 011.791-.546 11.868 11.868 0 011.813-.197v-1.616c0-.262-.138-.487-.415-.677-.262-.189-.655-.284-1.179-.284-.146 0-.313.015-.503.044-.174.015-.32.051-.436.11l-.481 1.44-2.402-.873c.291-.728.793-1.325 1.507-1.79.728-.467 1.55-.7 2.467-.7.685 0 1.296.117 1.835.35.553.233.99.597 1.31 1.092.335.495.503 1.143.503 1.944v5.154a.7.7 0 00.109.414.443.443 0 00.327.132c.073 0 .146-.008.219-.022.073-.03.124-.051.153-.066l.327 1.092c-.116.117-.313.255-.589.415a2.035 2.035 0 01-.961.218c-.423 0-.757-.094-1.005-.284a1.819 1.819 0 01-.568-.742 3.604 3.604 0 01-1.092.742c-.422.19-.888.284-1.397.284zm.393-1.79c.422 0 .8-.11 1.135-.328.35-.233.597-.488.743-.764v-1.879a9.952 9.952 0 00-1.027.11 4.99 4.99 0 00-1.048.24 2.156 2.156 0 00-.83.502c-.204.219-.305.503-.305.852 0 .335.109.633.327.895.233.248.568.372 1.005.372zM160.597 33.88c-.641 0-1.201-.123-1.682-.37a2.867 2.867 0 01-1.135-1.027c-.262-.437-.393-.94-.393-1.507 0-.67.174-1.223.524-1.66a3.661 3.661 0 011.354-1.07 6.568 6.568 0 011.791-.546c.64-.116 1.245-.182 1.812-.197v-1.616c0-.262-.138-.487-.415-.677-.262-.189-.655-.284-1.179-.284a3.34 3.34 0 00-.502.044c-.175.015-.321.051-.437.11l-.48 1.44-2.403-.873c.291-.728.794-1.325 1.507-1.79.728-.467 1.551-.7 2.468-.7.684 0 1.296.117 1.834.35.554.233.99.597 1.311 1.092.335.495.502 1.143.502 1.944v5.154a.7.7 0 00.109.414.446.446 0 00.328.132c.073 0 .145-.008.218-.022.073-.03.124-.051.153-.066l.328 1.092c-.117.117-.313.255-.59.415a2.035 2.035 0 01-.961.218c-.422 0-.757-.094-1.004-.284a1.81 1.81 0 01-.568-.742c-.306.306-.67.553-1.092.742-.422.19-.888.284-1.398.284zm.393-1.79c.422 0 .801-.11 1.136-.328.349-.233.597-.488.742-.764v-1.879a9.935 9.935 0 00-1.026.11 4.976 4.976 0 00-1.048.24 2.148 2.148 0 00-.83.502c-.204.219-.306.503-.306.852 0 .335.109.633.328.895.233.248.567.372 1.004.372zM171.04 33.88c-.466 0-.888-.094-1.266-.284-.379-.189-.677-.494-.896-.917-.218-.422-.327-.975-.327-1.66l.043-6.136h-1.703l-.306-1.485.153-.24h1.878l.022-3.67 1.966-.436.174.327-.022 3.778h2.25c.073 0 .109.044.109.131v1.595h-2.359v6.158c0 .437.066.721.197.852.131.117.328.175.59.175.262 0 .531-.08.808-.24.291-.16.495-.284.611-.372l.481 1.529c-.175.19-.481.386-.918.59-.422.203-.917.305-1.485.305z" fill="#001C5A"/><defs><clipPath id="clip0"><path d="M0 0h45.977v40H0V0z" fill="#fff"/></clipPath></defs></svg>