<?xml version="1.0" encoding="utf-8"?>
<!-- Generator: Adobe Illustrator 16.0.0, SVG Export Plug-In . SVG Version: 6.00 Build 0)  -->
<!DOCTYPE svg PUBLIC "-//W3C//DTD SVG 1.1//EN" "http://www.w3.org/Graphics/SVG/1.1/DTD/svg11.dtd">
<svg version="1.1" id="Ebene_1" xmlns="http://www.w3.org/2000/svg" xmlns:xlink="http://www.w3.org/1999/xlink" x="0px" y="0px"
	 width="82.5px" height="174.586px" viewBox="0 0 82.5 174.586" enable-background="new 0 0 82.5 174.586" xml:space="preserve">
<polygon fill="#D9EEF7" points="41.002,125.917 82.5,174.586 82.5,0 0,0 0,174.004 "/>
<g>
	<g>
		<path fill="#020304" d="M47.75,44.124c-7.828,0.427-16.231,2.849-19.693,10.586c-2.931,6.551-1.179,14.022,1.587,20.295
			c4.302,9.754,19.772,26.349,29.874,13.386c1.957-2.511-1.555-6.077-3.535-3.535c-7.343,9.422-18.07-4.623-21.361-10.995
			c-2.488-4.817-3.979-10.679-2.439-16.007c1.919-6.642,9.558-8.402,15.568-8.73C50.956,48.949,50.973,43.948,47.75,44.124
			L47.75,44.124z"/>
	</g>
</g>
<g>
	<g>
		<path fill="#020304" d="M21.748,75.701c6.095-1.726,12.238-3.274,18.333-5c3.097-0.877,1.78-5.702-1.329-4.821
			c-6.095,1.726-12.238,3.274-18.333,5C17.322,71.757,18.639,76.582,21.748,75.701L21.748,75.701z"/>
	</g>
</g>
<g>
	<g>
		<path fill="#020304" d="M27.582,84.868c4.358-1.667,8.975-2.5,13.333-4.167c2.98-1.14,1.688-5.975-1.329-4.821
			c-4.358,1.667-8.975,2.5-13.333,4.167C23.272,81.186,24.565,86.021,27.582,84.868L27.582,84.868z"/>
	</g>
</g>
</svg>
