<?xml version="1.0" encoding="iso-8859-1"?>
<!-- Generator: Adobe Illustrator 16.0.0, SVG Export Plug-In . SVG Version: 6.00 Build 0)  -->
<!DOCTYPE svg PUBLIC "-//W3C//DTD SVG 1.1//EN" "http://www.w3.org/Graphics/SVG/1.1/DTD/svg11.dtd">
<svg version="1.1" id="Capa_1" xmlns="http://www.w3.org/2000/svg" xmlns:xlink="http://www.w3.org/1999/xlink" x="0px" y="0px"
	 width="190.45px" height="190.45px" viewBox="0 0 190.45 190.45" style="enable-background:new 0 0 190.45 190.45;"
	 xml:space="preserve">
<g>
	<g>
		<path d="M145.529,98.409c-4.795-6.01-15.353-4.808-22.368-3.486c-1.029-8.889-2.61-16.657-4.439-22.258
			c-0.464-1.422-2.024-1.587-2.98-0.965c-0.256-0.163-0.558-0.28-0.963-0.268c-23.906,0.722-46.41,2.393-70.28-0.919
			c-1.498-0.208-2.129,1.628-0.902,2.311C42.491,112.75,18.477,189.426,82.32,190.445c23.921,0.382,35.431-20.784,39.839-45.936
			c1.913,6.582,11.644,6.427,17.058,5.045c9.326-2.381,11.586-14.612,12.56-22.58C152.958,117.289,151.763,106.221,145.529,98.409z
			 M77.908,186.581c-55.954-0.896-30.515-79.368-31.762-112.96c14.573,4.252,30.833,4.467,46.604,3.396
			c-1.782,2.915-1.461,8.734-1.538,11.189c-0.184,5.881,0.29,11.955,1.645,17.714c-3.032,0.072-6.07,0.329-9.155,0.668
			c-1.121,0.124-1.763,0.776-1.893,1.894c-0.771,6.64-1.708,13.244-1.822,19.939c-0.061,3.556-0.018,7.242,2.348,9.279
			c-0.226,0.628-0.101,1.367,0.618,1.722c3.215,1.585,6.553,2.284,10.104,2.619c2.637,0.249,6.348,0.61,8.058-1.802
			c0.282-0.396,0.207-0.969-0.056-1.406c0.178-0.316,0.287-0.682,0.222-1.059c0.099,0.57,0.263-2.66,0.295-3.34
			c0.133-2.699,0.484-5.395,0.804-8.076c0.074-0.632,0.169-1.262,0.249-1.895c0.112-0.193,0.137-0.424,0.086-0.65
			c0.121-0.939,0.249-1.877,0.374-2.815c0.274-0.163,0.444-0.49,0.234-0.836c-0.03-0.051-0.072-0.094-0.104-0.145
			c0.516-3.842,1.039-7.684,1.447-11.538c0.082-0.776-0.635-1.687-1.393-1.828c-2.645-0.493-5.26-0.667-7.873-0.712
			c-0.361-5.381-0.503-10.782-0.466-16.173c0.021-3.08,0.184-6.167,0.725-9.202c0.244-1.369,0.771-2.467,0.693-3.802
			c6.294-0.504,12.488-1.17,18.424-1.86c0.231-0.027,0.426-0.103,0.61-0.191C125.653,107.764,125.863,187.35,77.908,186.581z
			 M99.94,115.893c-1.769-1.898-3.678-3.705-5.315-5.621c-0.34-0.396-1.044,0.143-0.726,0.559c1.834,2.396,3.719,4.957,5.758,7.296
			c-0.073,0.565-0.141,1.133-0.215,1.697c-2.867-3.353-5.748-6.703-8.629-10.037c3.286-0.174,6.562-0.146,9.862,0.323
			C100.453,112.041,100.191,113.965,99.94,115.893z M86.565,134.754c-1.059-1.336-2.085-2.696-3.118-4.053
			c0.039-1.685,0.159-3.309,0.259-4.552c1.677,2.844,3.52,5.596,5.515,8.22c0.866,1.14,1.913,2.671,3.142,3.889
			c-1.038-0.085-2.077-0.146-3.115-0.321c-0.138-0.186-0.262-0.354-0.348-0.446C88.091,136.608,87.308,135.694,86.565,134.754z
			 M87.192,137.474c-1.041-0.237-2.098-0.447-3.095-0.762c-0.004-0.001-0.007,0-0.01-0.001c-0.462-1.008-0.63-2.696-0.655-4.515
			c0.972,1.322,1.95,2.64,2.901,3.975C86.577,136.514,86.873,136.983,87.192,137.474z M89.858,132.871
			c-2.185-2.685-4.172-5.55-6.019-8.48c0.097-1.605,0.278-3.202,0.445-4.802c3.141,4.902,6.662,9.6,10.299,14.14
			c0.133,0.166,1.685,2.021,3.175,3.337c0.093,0.406,0.216,0.786,0.392,1.115c-1.014,0.047-2.034,0.142-3.057,0.192
			C93.058,136.959,91.34,134.69,89.858,132.871z M84.365,118.726c0.129-1.179,0.281-2.354,0.421-3.531
			c4.364,5.564,8.504,11.36,13.037,16.791c-0.128,0.913-0.24,1.885-0.257,2.836c-0.064-0.069-0.132-0.135-0.197-0.205
			c-1.611-1.741-3.127-3.573-4.631-5.408c-2.755-3.362-5.464-6.794-7.987-10.336C84.648,118.731,84.504,118.708,84.365,118.726z
			 M97.952,129.686c-4.169-5.061-7.991-10.442-12.492-15.192c-0.197-0.208-0.42-0.169-0.584-0.042
			c0.171-1.415,0.332-2.831,0.506-4.245c0.17-0.017,0.339-0.028,0.51-0.046c2.152,3.756,4.423,7.483,7.015,10.946
			c1.25,1.669,3.356,4.569,5.69,5.376c-0.102,0.817-0.218,1.633-0.312,2.451c-0.005,0.049-0.02,0.126-0.025,0.178
			C98.058,129.223,97.958,129.438,97.952,129.686z M93.407,119.536c-2.424-2.975-4.384-6.27-6.487-9.466
			c0.851-0.079,1.698-0.138,2.547-0.197c-0.013,0.157,0.021,0.323,0.14,0.474c2.244,2.825,4.395,5.725,6.611,8.57
			c0.879,1.129,1.808,2.491,2.872,3.668c-0.082,0.63-0.159,1.261-0.24,1.891C96.946,122.944,95.065,121.57,93.407,119.536z
			 M124.131,107.139c2.015-0.155,3.653-1.33,5.786-1.254c2.09,0.074,3.924,1.556,5.318,2.96c3.63,3.655,5.287,9.191,6.105,14.136
			c0.715,4.32,0.664,9.944-2.164,13.56c-3.886,4.97-11.445,1.375-15.88-0.746C124.361,126.196,124.598,116.391,124.131,107.139z
			 M146.75,133.971c-2.178,9.532-14.596,19.058-22.219,8.366c-0.547-0.767-1.335-0.824-1.931-0.486
			c0.173-1.121,0.245-2.278,0.391-3.41c5.019,3.391,12.252,6.325,17.508,1.982c4.89-4.039,5.365-11.286,4.684-17.132
			c-0.744-6.374-3.172-12.997-7.762-17.609c-3.023-3.039-9.848-5.251-13.547-2.139c-0.132-1.886-0.221-3.822-0.4-5.638
			c3.709,0.315,7.382-0.053,11.14-0.036c8.582,0.04,11.699,7.663,13.077,15.005C148.98,119.749,148.291,127.227,146.75,133.971z"/>
		<path d="M66.047,58.58c-19.101-0.723-5.046-27.543-1.688-38.06c1.393-4.358,5.93-24.157-5.771-19.413
			c-1.323,0.536-1.506,2.402,0,2.873c7.286,2.276,3.951,9.534,2.114,15.532c-2.427,7.93-5.566,15.628-7.389,23.738
			c-2.299,10.233,0.591,20.513,13.043,17.627C67.685,60.569,67.332,58.628,66.047,58.58z"/>
		<path d="M84.41,58.542c-30.262-3.707,16.854-55.471-1.005-58.185c-1.312-0.199-2.849,1.492-1.493,2.565
			c11.074,8.763-33.092,59.738,2.498,58.034C86.001,60.879,85.921,58.728,84.41,58.542z"/>
		<path d="M107.583,0.558c-1.665-1.679-4.058,0.807-2.561,2.56c9.073,10.619-8.009,31.282-11.081,42.863
			c-2.369,8.931,1.16,15.933,10.949,14.878c1.415-0.152,1.442-2.101,0-2.22c-16.328-1.351-3.019-23.413,1.125-31.052
			C110.346,19.605,114.963,8,107.583,0.558z"/>
	</g>
</g>
<g>
</g>
<g>
</g>
<g>
</g>
<g>
</g>
<g>
</g>
<g>
</g>
<g>
</g>
<g>
</g>
<g>
</g>
<g>
</g>
<g>
</g>
<g>
</g>
<g>
</g>
<g>
</g>
<g>
</g>
</svg>
