<?xml version="1.0" encoding="iso-8859-1"?>
<!-- Generator: Adobe Illustrator 16.0.0, SVG Export Plug-In . SVG Version: 6.00 Build 0)  -->
<!DOCTYPE svg PUBLIC "-//W3C//DTD SVG 1.1//EN" "http://www.w3.org/Graphics/SVG/1.1/DTD/svg11.dtd">
<svg version="1.1" id="Capa_1" xmlns="http://www.w3.org/2000/svg" xmlns:xlink="http://www.w3.org/1999/xlink" x="0px" y="0px"
	 width="188.581px" height="188.581px" viewBox="0 0 188.581 188.581" style="enable-background:new 0 0 188.581 188.581;"
	 xml:space="preserve">
<g>
	<path d="M188.113,86.183c-0.565-1.339-2.209-1.86-3.628-1.598c-0.219-1.752-1.422-3.451-3.66-3.679
		c-10.443-1.059-19.727-4.783-22.276-15.842c-2.082-9.025,3.134-17.93,8.526-24.988c0.231,0.039,0.462,0.113,0.694,0.124
		c1.667,0.076,3.434-1.552,3.277-3.276c-0.433-4.738-6.297-7.345-9.998-9.519c-4.053-2.381-8.375-4.653-12.866-6.086
		c-0.975-0.311-2.311,0.002-2.991,0.79c-0.048,0.056-0.087,0.107-0.133,0.16c-0.154-3.224-4.318-4.449-6.405-1.611
		c-3.562,4.846-5.662,12.705-11.984,14.785c-4.281,1.408-8.693-4.555-10.756-7.393c-3.126-4.301-5.525-9.288-7.54-14.189
		c-1.084-2.638-1.583-5.335-3.285-7.365c0.374-0.223,0.754-0.438,1.073-0.718c1.912-1.676,0.679-4.528-1.39-5.264
		c-4.072-1.448-10.841,1.326-15.076,1.974C85.673,3.104,80.094,2.78,76.79,5.424c-0.806,0.644-0.375,1.781,0.295,2.287
		c0.635,0.479,1.393,0.78,2.196,1.012c-0.229,3.89,1.232,7.492,0.395,11.514c-1.019,4.893-4.926,8.111-9.108,10.316
		c-10.573,5.575-22.729,0.93-31.596-5.506c1.169-3.225-3.567-6.812-6.243-2.948c-2.153,3.108-4.545,6.093-6.61,9.227
		c-1.216-0.517-2.594,1.084-1.494,2.207c0.027,0.027,0.056,0.055,0.083,0.081c-1.532,2.643-2.76,5.426-3.339,8.521
		c-3.546-1.522-7.524,2.999-4.335,6.245c5.583,5.684,10.28,12.197,10.371,20.467c0.111,10.041-12.299,7.716-18.483,6.012
		c-2.126-0.586-3.349,0.954-3.342,2.577c-1.376-0.093-2.835,0.591-3.32,2.178c-2.25,7.372-2.278,16.326-1.053,24.187
		c-2.214,2.303-1.404,7.001,2.622,6.766c25.21-1.467,35.07,24.807,15.582,40.594c-0.979,0.793-0.985,1.885-0.516,2.787
		c-0.408,0.737,0.292,1.896,1.178,1.528c-0.078,0.032,5.536,5.162,6.19,5.723c3.308,2.836,6.855,5.672,9.823,8.86
		c3.559,3.824,9.016-2.97,4.39-5.689c-4.91-2.887-9.081-6.949-14.066-9.753c-0.477-0.269-1.037-0.561-1.635-0.828
		c1.767-1.225,3.367-2.59,4.813-4.056c2.314,1.276,4.61,2.573,6.843,4.022c3.258,2.113,6.411,4.952,10.082,6.283
		c-2.267,2.858-3.821,6.363-4.302,10.361c-0.261,2.17,3.302,3.13,4.172,1.13c3.953-9.084,11.503-13.826,21.442-11.332
		c3.985,1,7.358,3.58,9.537,7.015c2.971,4.681,0.148,9.53,2.018,14.112c0.479,1.174,1.392,1.888,2.413,2.036
		c0.301,0.632,0.963,1.164,1.591,1.317c4.375,1.061,9.04,1.188,13.503,1.687c4.787,0.535,9.538,1.582,14.299,2.094
		c4.215,0.452,4.481-5.717,0.944-6.972c-2.645-0.938-5.914-1.042-9.013-1.095c-0.875-0.866-2.042-1.374-3.132-2.036
		c-1.914-1.165-3.744-2.482-5.516-3.851c-2.403-1.857-5.208-4.009-7.137-6.365c-0.385-0.47-0.987-0.41-1.428-0.108
		c-0.401-1.299-0.865-2.512-1.339-3.556c-2.676-5.892-8.793-9.693-14.756-11.483c-4.143-1.244-8.326-1.21-12.157-0.182
		c-0.032-0.354-0.162-0.707-0.414-1.004c-2.183-2.572-5.961-4.091-8.82-5.774c-4.029-2.373-8.03-4.8-11.904-7.419
		c-0.013-0.008-0.025-0.007-0.037-0.015c1.499-4.564,1.689-9.571,0.467-14.754c23.454,19.26,49.162,36.81,74.598,52.779
		c0.688,0.433,1.388,0.366,1.971,0.062c0.522,2.813,1.42,5.581,2.631,8.115c1.32,2.762,5.671,0.798,4.857-2.049
		c-2.075-7.262-3.084-17.917,5.501-21.464c7.384-3.051,13.521,2.167,15.525,9.046c0.769,2.634,3.286,3.213,5.22,2.407
		c1.317,0.876,3.27,0.852,4.221-0.843c2.542-4.529,5.304-8.802,8.378-12.995c1.883-2.568,4.407-4.784,5.101-7.991
		c0.266-1.222-0.144-2.278-0.877-2.983c0.43-0.961,0.261-2.128-0.948-2.722c-11.224-5.501-14.664-14.932-7.96-25.796
		c2.557-4.143,6.565-7.459,11.211-8.931c5.079-1.611,8.327,2.318,13.002,1.971c1.146-0.084,2.044-0.717,2.543-1.597
		c0.85-0.212,1.566-0.828,1.787-2.045c0.732-4.074,1.727-8.063,2.821-12.056C187.431,93.458,189.506,89.476,188.113,86.183z
		 M86.804,171.85c1.381,1.967,3.304,3.586,5.153,5.168c1.269,1.084,2.623,2.065,3.969,3.054c-3.225-0.217-6.475-0.438-9.695-0.381
		C87.199,177.393,87.237,174.588,86.804,171.85z M144.483,25.307c0.244,0.684,0.707,1.311,1.329,1.633
		c3.621,1.872,7.15,3.923,10.587,6.112c1.678,1.068,3.485,2.789,5.379,4.276c-2.221,2.075-4.116,4.413-5.721,6.92
		c-4.083-4.409-10.059-7.854-15.605-10.596C142.22,31.065,143.624,28.203,144.483,25.307z M138.183,36.562
		c2.328,1.396,4.589,2.887,6.788,4.49c2.9,2.113,5.539,4.636,8.766,6.243c0.165,0.083,0.327,0.109,0.49,0.146
		c-0.528,1.053-1.023,2.121-1.44,3.221c-0.936-0.51-1.874-0.966-2.565-1.407c-3.571-2.288-7.07-4.686-10.693-6.892
		c-0.764-0.466-2.744-1.713-4.767-2.553C135.983,38.869,137.117,37.761,138.183,36.562z M100.075,8.073
		c-0.542,3.025,0.688,6.574,1.978,9.697c-0.183-0.142-0.374-0.278-0.555-0.422c-3.449-2.735-6.687-5.715-9.785-8.837
		C94.225,8.419,97.257,8.463,100.075,8.073z M88.356,8.765c4.805,5.703,10.593,11.143,16.656,15.843
		c2.511,5.453,5.785,10.737,10.229,14.716c5.567,4.985,11.436,5.003,16.514,2.381c2.715,1.565,11.033,6.962,11.804,7.542
		c1.791,1.347,4.889,4.508,7.866,5.969c-0.872,3.847-1.102,7.877-0.551,11.965c0.085,0.635,0.228,1.233,0.362,1.838
		c-9.367-9.135-21.534-16.249-32.016-23.927c-3.091-2.265-31.67-20.688-30.686-23.971c0.138-0.459-0.333-0.795-0.714-0.715
		c1.068-3.936,0.946-7.959-1.175-11.451C87.232,8.892,87.8,8.826,88.356,8.765z M35.465,28.487c0.002,0.002,0.002,0.004,0.002,0.004
		c7.718,7.916,19.623,12.854,30.741,11.186c9.681,6.897,19.485,13.567,29.3,20.198c-4.643-0.186-9.4,0.419-14.026,1.924
		c-0.703,0.229-1.331,0.558-2.004,0.825c-0.04-0.148-0.094-0.299-0.184-0.447c-3.564-5.931-12.853-10.082-18.408-14.063
		c-8.247-5.911-16.417-11.931-24.574-17.966c-1.029-0.761-2.357,0.966-1.368,1.773c7.862,6.415,15.751,12.795,23.657,19.155
		c4.843,3.896,11.101,10.958,17.327,13.139c-1.265,0.672-2.506,1.375-3.665,2.166c-6.385-5.115-13.896-9.097-20.551-13.87
		c-7.652-5.488-14.919-11.505-21.86-17.869C31.521,32.388,33.37,30.27,35.465,28.487z M105.895,114.758
		c1.195,0.939,2.421,1.841,3.638,2.754c-2.644,2.1-5.822,3.9-9.635,5.256c-1.246,0.443-2.062,1.233-2.521,2.154
		c-14.261,0.758-26.362-2.704-31.6-17.771c-4.833-13.901,2.003-28.297,14.365-35.254c30.457-17.14,51.692,23.557,31.779,43.485
		c-1.473-0.904-2.942-1.816-4.416-2.712C106.24,111.901,104.691,113.811,105.895,114.758z M26.907,47.452
		c-0.836-1.019-1.707-1.985-2.602-2.89c1.002-2.574,2.342-5.106,3.882-7.521c6.721,6.552,13.804,12.691,21.114,18.591
		c5.931,4.785,12.204,10.27,19.083,13.829c-1.669,1.516-3.238,3.121-4.592,4.895c-0.04-0.387-0.217-0.763-0.585-1.063
		c-5.452-4.449-11.689-8.027-17.472-12.048C39.35,56.805,33.207,52.02,26.907,47.452z M32.184,55.769
		c3.277,2.497,6.568,4.979,9.857,7.455c5.885,4.431,12.144,11.065,19.309,13.265c0.312,0.097,0.613,0.069,0.9-0.004
		c-2.394,3.647-4.18,7.688-5.236,11.974c-7.42-5.272-15.263-10.081-22.959-14.97C35.936,67.662,34.829,61.419,32.184,55.769z
		 M32.594,76.707c7.671,5.698,15.569,11.225,23.518,16.495c-0.394,3.226-0.411,6.532-0.022,9.849
		c-3.567-2.665-7.449-5.084-10.665-7.563c-6.129-4.723-12.3-9.553-18.846-13.739C29,80.787,31.088,79.162,32.594,76.707z
		 M45.512,148.598c2.735,1.771,5.66,4.13,8.756,5.443c-2.119,0.969-4.086,2.232-5.772,3.825c-0.034-0.042-0.051-0.089-0.091-0.129
		c-2.858-2.823-6.97-4.608-10.446-6.601c-2.129-1.222-4.321-2.383-6.579-3.374c1.606-1.936,2.912-4.041,3.942-6.264
		C38.586,144.055,42.033,146.344,45.512,148.598z M113.029,172.186c-23.257-21.583-52.568-36.547-78.516-55.003
		c-5.526-10.033-17.437-14.939-28.702-14.705c-0.024-2.653,0.056-5.299,0.335-7.968c0.251-2.407,0.784-4.773,1.273-7.143
		c34.004,27.29,68.639,56.054,106.51,77.723C113.27,167.342,112.96,169.735,113.029,172.186z M116.363,159.996
		c-36.703-24.19-71.116-52.035-108.475-75.139c0.244-1.408,0.446-2.821,0.503-4.252c4.448,1.723,9.802,2.781,14.544,2.088
		c6.933,5.003,13.646,10.241,20.188,15.776c4.444,3.761,9.337,9.367,14.719,12.528c4.741,13.483,17.904,21.497,31.475,20.577
		c0.056,0.274,0.174,0.542,0.436,0.771c5.538,4.842,11.977,8.604,18.167,12.539c4.648,2.956,9.089,7.191,13.82,10.3
		C119.471,156.454,117.703,158.1,116.363,159.996z M127.766,153.079c-3.169-4.267-9.098-7.104-13.41-9.679
		c-6.938-4.14-13.884-8.26-20.807-12.421c1.489-0.309,2.973-0.691,4.441-1.229c0.842,0.985,2.158,1.549,3.819,1.271
		c11.635,7.379,22.959,15.257,34.536,22.726C133.648,152.875,130.745,152.575,127.766,153.079z M148.195,164.459
		c-1.023-2.251-2.449-4.224-4.121-5.913c1.851,1.139,3.679,2.311,5.552,3.411C149.144,162.79,148.631,163.606,148.195,164.459z
		 M153.719,151.786c1.415,0.931,3.433-0.607,2.888-2.22c-0.265-0.784-0.643-1.534-1.06-2.271c0.995,0.508,2.026,0.975,3.142,1.351
		c-2.068,1.802-3.43,4.451-4.928,6.698c-0.471,0.707-0.948,1.46-1.426,2.189c-15.683-9.3-31.463-18.467-47.376-27.371
		c4.781-1.536,8.917-3.944,12.361-6.98c4.253,3,8.544,5.952,12.766,8.984C138.32,138.088,145.384,146.303,153.719,151.786z
		 M128.984,100.435c2.975,2.041,5.951,4.08,8.916,6.135c3.621,2.509,7.145,5.896,11.147,7.897c-0.227,0.322-0.487,0.637-0.7,0.961
		c-1.646,2.501-2.74,5.111-3.404,7.73c-2.991-2.688-8.019-4.287-11.352-5.962c-2.466-1.24-4.95-2.442-7.425-3.667
		c-0.182-0.089-0.583-0.232-1.056-0.398C127.13,109.23,128.431,104.93,128.984,100.435z M127.851,118.291
		c2.9,1.719,5.856,3.348,8.777,5.029c2.238,1.288,4.838,3.546,7.429,3.913c0.064,0.009,0.131-0.002,0.196,0
		c-0.266,3.875,0.484,7.649,2.16,10.976c-2.533-1.818-5.109-3.464-7.23-4.979c-6.225-4.447-12.644-8.666-19.13-12.772
		c1.279-1.417,2.384-2.965,3.407-4.566C125.113,116.909,126.958,117.763,127.851,118.291z M151.558,111.277
		c-2.982-2.677-6.925-4.541-10.284-6.599c-4.055-2.482-8.034-5.093-12.018-7.689c0.13-3.63-0.211-7.35-1.081-11.064
		c-0.382-1.634-0.898-3.17-1.475-4.661c10.353,7.302,20.566,14.813,30.457,22.853c0.687,0.558,1.442,0.72,2.147,0.63
		C156.37,106.394,153.782,108.727,151.558,111.277z M165.402,102.471c-1.506,0.266-2.943,0.769-4.335,1.39
		c0.896-0.92,1.159-2.362-0.098-3.554c-26.611-25.225-59.634-42.413-90.637-61.585c1.379-0.432,2.741-0.945,4.064-1.612
		c2.594-1.308,5.206-3.429,7.474-5.997c10.73,13.378,24.141,24.229,37.754,34.569c16,12.156,33.776,27.589,51.913,36.478
		C169.331,102.012,167.152,102.16,165.402,102.471z M179.73,95.868c-0.558,2.44-1.327,5.173-1.712,7.86
		c-1.037-0.517-2.198-0.868-3.399-1.128c1.068-0.626,1.53-2.137,0.497-3.385c-9.955-12.026-27.406-20.122-40.312-28.649
		C116.43,58.425,98.294,45.618,83.208,29.484c1.699-2.21,3.103-4.679,4.045-7.224c0.629,6.225,17.866,17.202,20.762,19.513
		c13.539,10.797,27.015,22.047,41.038,32.202c1.383,1.002,2.823,0.195,3.468-1.047c4.651,10.439,17.306,15.258,28.304,15.768
		c0.133,0.006,0.221-0.047,0.345-0.051C180.449,91.021,180.197,93.824,179.73,95.868z"/>
</g>
<g>
</g>
<g>
</g>
<g>
</g>
<g>
</g>
<g>
</g>
<g>
</g>
<g>
</g>
<g>
</g>
<g>
</g>
<g>
</g>
<g>
</g>
<g>
</g>
<g>
</g>
<g>
</g>
<g>
</g>
</svg>
