<?xml version="1.0" encoding="iso-8859-1"?>
<!-- Generator: Adobe Illustrator 16.0.0, SVG Export Plug-In . SVG Version: 6.00 Build 0)  -->
<!DOCTYPE svg PUBLIC "-//W3C//DTD SVG 1.1//EN" "http://www.w3.org/Graphics/SVG/1.1/DTD/svg11.dtd">
<svg version="1.1" id="Capa_1" xmlns="http://www.w3.org/2000/svg" xmlns:xlink="http://www.w3.org/1999/xlink" x="0px" y="0px"
	 width="191.687px" height="191.687px" viewBox="0 0 191.687 191.687" style="enable-background:new 0 0 191.687 191.687;"
	 xml:space="preserve">
<g>
	<path d="M188.99,166.794c-0.147-0.188-0.323-0.291-0.49-0.424c0.401-0.872,0.467-1.915-0.067-3
		c-17.045-34.656-32.643-69.778-50.278-104.16c-4.226-8.238-9.4-16.012-13.237-24.415c-2.632-5.763-5.072-12.146-9.024-17.169
		c-3.943-5.013-10.695-10.685-17.498-6.383c-19.452,12.3-27.693,40.512-38.96,59.71c-9.443,16.091-16.896,33.881-27.956,48.917
		c-6.874,9.344-14.209,18.342-21.382,27.457c-3.33,4.231-8.081,8.623-9.596,13.889c-0.13,0.451-0.102,0.896-0.01,1.326
		c-3.227,10.492,9.91,15.363,26.194,17.518c0.365,0.198,0.74,0.226,1.105,0.145c19.593,2.424,43.251,1.066,48.573,0.813
		c27.911-1.33,55.708,0.115,83.609,0.886C167.196,182.101,201.431,182.747,188.99,166.794z M108.806,19.467
		c3.736,3.301,6.246,9.149,8.397,14.307c-1.863-1.929-3.732-3.852-5.594-5.781c-2.672-2.768-5.355-5.523-8.101-8.218
		c-0.614-0.603-1.424-1.433-2.279-2.087C103.63,16.865,106.204,17.168,108.806,19.467z M89.315,30.534
		c0.877-1.525,2.224-3.787,3.897-6.014c4.557,8.272,10.539,15.691,16.567,22.932c7.358,8.84,14.873,18.684,23.559,26.219
		c1.417,1.229,3.79-0.348,2.701-2.084c-5.044-8.035-12.486-14.637-18.961-21.523c-8.157-8.675-15.468-17.769-22.293-27.492
		c1.531-1.761,3.261-3.331,5.117-4.299c-0.956,1.553,9.734,12.054,11.368,13.908c2.697,3.066,5.395,6.132,8.111,9.182
		c0.921,1.034,1.863,2.3,2.892,3.47c5.598,11.228,12.151,22.188,17.904,33.289c4.405,8.499,8.57,17.097,12.669,25.724
		c-18.604-26.015-41.221-49.367-65.157-70.41C88.23,32.467,88.764,31.493,89.315,30.534z M86.802,35.015
		c25.462,24.183,46.964,51.7,68.515,79.321c0.702,0.899,1.799,0.766,2.57,0.172c6.273,13.458,12.418,26.974,18.806,40.396
		c-30.154-39.236-57.657-80.506-91.768-116.541C85.55,37.247,86.179,36.134,86.802,35.015z M83.682,40.578
		c8.283,9.982,16.324,20.152,24.198,30.451c-0.529,0.098-1.031,0.329-1.419,0.739c-0.183,0.194-0.308,0.44-0.47,0.653
		c-0.211-0.102-0.384-0.234-0.645-0.294c-0.962-0.221-1.934-0.384-2.907-0.524c0.202-0.574,0.127-1.23-0.485-1.786
		c-7.797-7.077-14.321-15.428-21.996-22.601C81.185,44.992,82.446,42.795,83.682,40.578z M103.462,89.003
		c-0.222,9.544,0.502,19.106,0.959,28.635c-5.22-0.135-10.52-0.001-15.742,0.343c-0.452-4.595-0.548-15.825-0.52-17.793
		c0.104-7.637,1.846-15.286,2.239-22.851c4.452-0.511,8.951-0.341,13.332,0.665c0.04,0.009,0.071-0.005,0.111,0.003
		C103.25,81.732,103.533,85.932,103.462,89.003z M78.693,49.522c6.623,7.065,12.128,15.189,19.269,21.727
		c-2.005-0.04-4.013,0.056-6.002,0.333c-2.409-2.669-5.725-4.985-8.198-7.235c-2.907-2.644-5.978-5.085-9.147-7.398
		C75.968,54.467,77.334,51.997,78.693,49.522z M73.416,59.149c2.889,2.272,5.689,4.65,8.382,7.163
		c1.622,1.513,3.173,3.404,4.795,5.196c-0.798,0.143-1.537,0.6-1.991,1.482c-0.533,1.034-0.95,2.176-1.335,3.343
		c-1.76-1.457-3.622-2.816-5.317-4.221c-2.723-2.255-5.301-4.63-7.664-7.225C71.322,62.97,72.375,61.064,73.416,59.149z
		 M69.162,66.956c1.805,2.223,3.772,4.311,5.836,6.327c2.347,2.291,4.718,4.835,7.235,7.087c-0.642,3.304-0.947,6.853-1.026,10.426
		c-2.05-2.431-4.385-4.693-6.469-6.88c-3.102-3.256-6.382-6.342-9.671-9.413C66.425,71.984,67.801,69.474,69.162,66.956z
		 M63.937,76.592c2.509,2.71,5.033,5.406,7.464,8.188c3.394,3.883,6.291,8.406,9.814,12.173c0.077,3.265,0.219,6.396,0.292,9.129
		c0.018,0.639,0.033,1.302,0.051,1.974c-6.355-8.721-13.599-17.182-21.164-24.916C61.571,80.959,62.76,78.776,63.937,76.592z
		 M59.209,85.337c6.634,8.714,13.835,17.003,20.311,25.857c0.589,0.805,1.507,0.888,2.244,0.595c0.267,2.869,0.881,5.615,2.48,7.47
		c-0.616,0.891-0.613,2.118,0.002,2.999c-9.838-9.583-19.114-19.768-29.377-28.884C56.318,90.702,57.763,88.016,59.209,85.337z
		 M53.174,96.426c10.954,11.107,21.183,22.931,32.556,33.607c-1.087,0.318-1.806,1.295-1.981,2.31
		c-0.778,0.301-1.45,0.904-1.77,1.932c-0.6,1.926-0.876,4.022-0.935,6.165c-3.4-5.93-8.58-11.124-12.939-16.219
		c-6.011-7.026-12.453-13.771-19.253-20.047C50.308,101.628,51.74,99.029,53.174,96.426z M7.325,160.745
		c0.696-1.363,1.541-2.726,2.46-4.087c2.622,5.851,6.443,11.047,10.526,16.031C11.437,170.623,5.689,166.981,7.325,160.745z
		 M26.502,173.823c-5.425-6.315-10.822-12.438-14.839-19.777c0.92-1.214,1.913-2.421,2.931-3.623
		c-0.084,0.279-0.063,0.608,0.127,0.962c4.628,8.626,11.268,16.488,18.579,23.175C30.96,174.369,28.675,174.131,26.502,173.823z
		 M52.094,175.125c-3.143-4.434-9.143-7.835-13.113-11.391c-6.325-5.664-12.07-11.813-16.806-18.874
		c-0.965-1.439-3.098-0.196-2.319,1.354c3.624,7.213,9.371,13.279,15.001,18.965c2.902,2.932,6.274,6.898,9.934,9.913
		c-1.429-0.025-2.86-0.06-4.286-0.113c-8.642-7.848-16.58-15.461-23.636-24.85c-0.461-0.613-1.168-0.668-1.682-0.398
		c3.115-3.625,6.522-7.178,9.616-10.577c5.868,7.846,11.972,15.536,18.075,23.193c2.364,2.966,5.996,8.658,10.09,12.765
		C52.674,175.114,52.39,175.122,52.094,175.125z M73.894,174.285c-13.782-13.899-26.559-28.715-40.231-42.701
		c-1.17-1.196-2.846,0.563-1.806,1.806c11.69,13.964,23.508,28.042,36.108,41.229c-2.18,0.112-4.545,0.22-7.08,0.308
		c-4.783-5.264-10.536-9.999-15.348-15.238c-6.597-7.185-12.719-14.886-19.534-21.872c1.512-1.693,2.935-3.35,4.166-4.947
		c2.186-2.838,4.25-5.705,6.24-8.597c9.277,10.067,16.76,21.765,25.052,32.619c3.193,4.181,8.93,13.386,15.146,17.226
		C75.813,174.166,74.905,174.223,73.894,174.285z M83.818,173.787c-0.07-0.232-0.145-0.466-0.331-0.674
		c-2.583-2.895-6.22-4.909-9.047-7.646c-4.827-4.674-9.021-10.046-13.23-15.265c-7.554-9.368-14.86-19.253-23.839-27.335
		c1.904-2.816,3.716-5.671,5.492-8.547c8.995,11.594,18.217,23.031,27.514,34.383c6.467,7.894,13.507,17.732,21.692,24.826
		C89.318,173.604,86.567,173.669,83.818,173.787z M98.812,173.387c-6.751-8.647-15.663-16.196-22.944-24.33
		c-10.817-12.081-21.222-24.485-31.741-36.821c1.262-2.085,2.482-4.208,3.708-6.326c5.437,6.019,10.946,11.959,16.161,18.181
		c5.693,6.792,9.909,14.837,15.825,21.369c0.484,0.535,1.036,0.635,1.53,0.497c0.323,2.34,0.855,4.62,1.512,6.686
		c0.388,1.219,1.336,1.629,2.238,1.507c0.163,0.772,0.693,1.457,1.784,1.714c2.848,0.67,5.951,1.313,9.082,1.696
		c-0.165,0.224-0.29,0.5-0.422,0.759c-0.288,0.566-0.382,1.309,0,1.869c2.725,3.992,6.813,7.269,10.484,10.352
		c0.927,0.778,1.995,1.805,3.142,2.825C105.718,173.359,102.264,173.338,98.812,173.387z M104.634,151.627
		c-5.352-0.69-10.998,0.017-16.374-0.754c-0.457-0.064-0.867-0.006-1.246,0.112c-0.666-4.996-0.451-10.223,0.933-15.065
		c0.048-0.167,0.015-0.304,0.038-0.462c5.485,1.009,11.315,1.593,16.879,1.269C103.861,141.487,104.235,146.717,104.634,151.627z
		 M116.676,173.383c-2.729-2.779-6.312-5.026-9.275-7.506c-2.084-1.742-4.183-3.459-6.188-5.293
		c-0.918-0.839-2.002-2.195-3.127-2.819c2.914,0.229,5.812,0.189,8.51-0.361c0.48-0.099,0.846-0.342,1.155-0.636
		c0.359-0.096,0.685-0.289,0.962-0.551c2.349,2.854,4.776,5.646,7.316,8.312c3.024,3.173,6.696,7.155,10.898,9.049
		C123.511,173.501,120.094,173.422,116.676,173.383z M131.014,173.655c-0.157-0.005-0.315-0.005-0.473-0.009
		c0.29-0.513,0.285-1.197-0.2-1.711c-3.481-3.693-8.248-6.226-12.027-9.692c-3.133-2.872-5.931-6.054-8.775-9.195
		c0.258-3.671,0.521-7.337,0.933-10.988c4.466,5.728,9.937,11.016,14.675,16.213c4.106,4.505,10.104,12.509,16.532,15.927
		C136.078,173.95,131.92,173.681,131.014,173.655z M147.757,174.438c0.054-0.456-0.063-0.933-0.392-1.255
		c-6.663-6.551-14.345-12.179-21.054-18.815c-4.982-4.929-9.782-11.222-15.378-15.82c0.096-0.644,0.174-1.29,0.283-1.933
		c0.258-1.513-0.438-2.668-1.435-3.301c-0.197-1.134-1.047-2.166-2.633-2.338c-5.329-0.579-10.693-0.244-16.042-0.601
		c0.22-0.696,0.123-1.477-0.597-2.131c-1.908-1.734-3.74-3.551-5.592-5.345c0.364,0.235,0.806,0.403,1.349,0.445
		c6.457,0.495,13.104,0.729,19.576,0.491c0.002,0,0.004-0.001,0.006-0.002c7.344,9.491,15.832,17.832,24.644,26.003
		c8.681,8.051,16.925,16.675,25.521,24.783C153.201,174.589,150.404,174.524,147.757,174.438z M161.038,174.633
		c-6.324-9.725-16.758-17.415-25.338-24.939c-9.71-8.516-19.404-16.965-27.92-26.673c0.773-0.715,1.128-1.771,0.967-2.8
		c0.61-0.427,1.065-1.103,1.102-2.09c0.094-2.445,0.115-4.894,0.157-7.342c6.937,12.445,16.087,23.538,25.545,34.15
		c8.678,9.736,19.376,22.027,31.2,29.572C164.9,174.58,162.987,174.62,161.038,174.633z M174.604,173.972
		c-23.163-21.064-47.589-39.256-64.528-66.38c0.047-3.979,0.076-7.959,0.122-11.938c12.185,16.026,26.934,29.97,40.209,45.075
		c7.779,8.851,15.825,25.545,26.409,32.947C176.114,173.784,175.379,173.884,174.604,173.972z M182.24,172.168
		c-9.816-11.334-18.562-23.529-28.489-34.785c-13.726-15.562-29.472-29.223-43.228-44.812c-0.072-0.082-0.157-0.128-0.241-0.178
		c0.294-5.227,1.561-11.327,1.239-16.547c23.639,31.172,46.205,63.175,71.2,93.301c0.301,0.361,0.637,0.521,0.975,0.603
		c0.009,0.04,0.001,0.078,0.013,0.118C183.979,170.799,183.401,171.551,182.24,172.168z"/>
</g>
<g>
</g>
<g>
</g>
<g>
</g>
<g>
</g>
<g>
</g>
<g>
</g>
<g>
</g>
<g>
</g>
<g>
</g>
<g>
</g>
<g>
</g>
<g>
</g>
<g>
</g>
<g>
</g>
<g>
</g>
</svg>
