<?xml version="1.0" encoding="iso-8859-1"?>
<!-- Generator: Adobe Illustrator 16.0.0, SVG Export Plug-In . SVG Version: 6.00 Build 0)  -->
<!DOCTYPE svg PUBLIC "-//W3C//DTD SVG 1.1//EN" "http://www.w3.org/Graphics/SVG/1.1/DTD/svg11.dtd">
<svg version="1.1" id="Capa_1" xmlns="http://www.w3.org/2000/svg" xmlns:xlink="http://www.w3.org/1999/xlink" x="0px" y="0px"
	 width="186.965px" height="186.966px" viewBox="0 0 186.965 186.966" style="enable-background:new 0 0 186.965 186.966;"
	 xml:space="preserve">
<g>
	<g>
		<path d="M178.106,69.208c-0.832-1.254-2.632-1.802-4.065-1.421c-2.534-9.255-15.59-19.51-20.687-24.465
			C139.082,29.44,123.333,16.417,106.437,5.84C67.382-18.61,34.875,40.492,6.303,58.297c-2.39,1.49-1.759,4.118,0.005,5.239
			c0.044,0.609,0.09,1.217,0.139,1.825c0.002,0.152,0.004,0.299,0.035,0.453c2.855,36.991-7.745,77.139,1.934,112.962
			c0.789,2.919,4.482,3.357,6.398,1.787c0.216,0.11,0.408,0.246,0.672,0.303c25.214,5.52,51.129,5.77,76.829,5.617
			c25.845-0.153,53.044,1.611,78.709-0.789c2.039-0.19,3.389-1.928,3.617-3.675c0.322,0.331,0.61,0.698,0.961,1.001
			c0.807,0.696,2.196,0.497,2.478-0.654c1.933-7.92-0.748-16.642-1.016-24.801c-0.356-10.892,0.769-21.888,1.765-32.719
			C180.232,109.56,187.241,82.98,178.106,69.208z M165.192,70.517c-0.758,0.178-1.518,0.439-2.277,0.748
			c-1.096-0.827-2.179-1.649-3.133-2.5c-3.346-2.979-6.547-6.114-9.897-9.085c-0.896-0.794-1.934-0.612-2.594-0.013
			c-0.419-3.49-0.841-6.99-1.341-10.481C152.599,56.052,158.951,63.231,165.192,70.517z M158.181,73.875
			c-3.148,2.126-6.09,4.787-8.397,6.937c-0.011-5.263-1.218-10.884-1.832-15.73c-0.09-0.7-0.172-1.41-0.258-2.113
			c2.816,3.14,5.76,6.158,8.76,9.124C157.011,72.647,157.59,73.254,158.181,73.875z M140.309,65.082
			c0.393,7.152-0.115,15.387,2.102,22.178c0.05,0.151,0.142,0.262,0.206,0.399c-11.112,11.106-21.123,23.412-33.155,33.524
			c-1.676-0.213-2.994,1.11-3.256,2.651c-0.35,0.272-0.676,0.569-1.027,0.838c-17.309,13.153-38.197-7.924-51.118-18.954
			c-2.409-2.058-4.728-4.196-7.067-6.317c-0.232-15.187-7.845-56.644,9.086-58.711c28.234-3.446,55.005,0.075,82.986,3.045
			C139.25,50.853,139.921,57.997,140.309,65.082z M102.013,13.409c10.032,5.954,19.199,12.841,27.783,20.349
			c-4.586-0.827-9.227-1.414-13.877-1.906c-11.797-7.654-24.382-13.691-35.902-21.774C87.139,8.262,94.455,8.924,102.013,13.409z
			 M75.801,11.439c7.788,7.076,16.523,13.59,25.582,19.302c-4.047-0.187-8.091-0.317-12.111-0.351
			c-3.135-2.226-7.132-3.95-10.06-5.98c-3.986-2.764-7.782-5.81-11.599-8.815C70.316,13.923,73.044,12.514,75.801,11.439z
			 M65.036,17.269c4.329,3.865,8.715,7.657,13.219,11.321c0.628,0.511,1.283,1.067,1.951,1.631
			c-2.756-0.071-5.791-0.144-8.943-0.131c-1.627-0.789-3.587-1.315-4.82-1.914c-3.053-1.484-6.039-3.244-8.657-5.425
			C60.183,20.766,62.6,18.928,65.036,17.269z M55.325,24.836c2.289,2.151,4.872,3.949,7.568,5.558
			c-6.259,0.474-12.125,1.604-15.873,4.123c-7.314,4.915-9.667,14.814-9.82,25.82c-0.731-0.492-1.441-1.016-2.125-1.567
			c-2.234-1.8-4.376-3.838-6.136-6.109c-1.343-1.733-4.103,0.498-2.993,2.309c1.805,2.945,4.285,5.409,6.882,7.66
			c1.167,1.012,2.762,2.593,4.454,3.121c0.126,2.882,0.364,5.794,0.675,8.675c-3.81-1.17-7.714-4.538-10.465-6.689
			c-3.423-2.675-6.611-5.641-9.763-8.639C29.966,50.637,42.388,36.068,55.325,24.836z M12.987,64.983
			c-0.182-0.876-0.358-1.753-0.546-2.628c1.004-0.535,2.008-1.134,3.014-1.766c4.123,4.25,8.331,8.428,12.854,12.249
			c2.726,2.303,6.329,5.448,10.116,5.543c0.708,5.477,1.595,10.723,2.338,15.264C31.121,84.477,21.953,74.857,12.987,64.983z
			 M15.364,168.57c-1.41-29.791,3.095-60.586-0.241-90.151c8.915,11.116,19.762,21.182,29.87,30.607
			c6.602,6.156,14.313,13.269,22.712,19.002c-9.284,2.277-18.301,11.26-25.393,17.109C33.171,152.676,24.175,160.572,15.364,168.57z
			 M98.212,177.439c-26.895,0.479-53.565-0.389-80.343-2.797c7.667-5.447,14.885-11.669,22.239-17.436
			c10.234-8.023,21.28-14.86,31.567-22.613c1.103-0.831,1.592-1.932,1.669-3.012c5.931,3.417,12.14,5.956,18.508,6.833
			c7.384,1.018,14.48-2.717,20.823-7.744c9.319,6.729,18.374,13.835,27.289,21.078c5.855,4.76,24.377,16.494,25.018,24.598
			c0.028,0.342,0.106,0.66,0.212,0.962C143.45,174.328,119.835,177.055,98.212,177.439z M169.469,129.598
			c-0.83,9.172-3.194,24.646-1.303,37.229c-10.222-13.02-36.908-31.855-50.279-40.667c3.588-3.356,6.847-6.836,9.654-9.66
			c9.761-9.813,23.523-31.007,38.256-36.495c0.129,0.053,0.253,0.124,0.383,0.17c1.028,0.363,2.039-0.202,2.585-1.05
			c0.751-0.165,1.503-0.337,2.257-0.408c0.241-0.022,0.465-0.099,0.693-0.164c0.202,4.812,0.825,9.664,0.728,14.488
			C172.198,105.248,170.569,117.452,169.469,129.598z"/>
		<path d="M118.512,74.562c-11.261-3.901-28.224-0.445-40.035-0.257c-1.973,0.031-27.092-1.126-24.147,4.419
			c3.006,5.662,24.378,2.802,29.697,2.887c10.269,0.163,24.68,3.051,34.485-0.346C121.819,80.119,121.819,75.708,118.512,74.562z"/>
		<path d="M88.748,57.537c-2.549-3.214-8.247-2.276-11.837-2.302c-6.492-0.049-13.339-0.368-19.789,0.399
			c-3.336,0.396-3.335,4.791,0,5.187c5.556,0.661,11.282,0.374,16.874,0.74c4.428,0.291,9.066,1.608,13.443,0.93
			C89.895,62.111,89.956,59.06,88.748,57.537z"/>
	</g>
</g>
<g>
</g>
<g>
</g>
<g>
</g>
<g>
</g>
<g>
</g>
<g>
</g>
<g>
</g>
<g>
</g>
<g>
</g>
<g>
</g>
<g>
</g>
<g>
</g>
<g>
</g>
<g>
</g>
<g>
</g>
</svg>
