<?xml version="1.0" encoding="iso-8859-1"?>
<!-- Generator: Adobe Illustrator 16.0.0, SVG Export Plug-In . SVG Version: 6.00 Build 0)  -->
<!DOCTYPE svg PUBLIC "-//W3C//DTD SVG 1.1//EN" "http://www.w3.org/Graphics/SVG/1.1/DTD/svg11.dtd">
<svg version="1.1" id="Capa_1" xmlns="http://www.w3.org/2000/svg" xmlns:xlink="http://www.w3.org/1999/xlink" x="0px" y="0px"
	 width="192.09px" height="192.09px" viewBox="0 0 192.09 192.09" style="enable-background:new 0 0 192.09 192.09;"
	 xml:space="preserve">
<g>
	<g>
		<path d="M71.108,35.306c-0.579-0.609-1.395-0.452-1.895,0.066C51.046,35.96,44.567,61.852,54.06,73.861
			c0,0.009-0.005,0.019-0.004,0.027c0.013,0.145,0.09,0.281,0.242,0.318c0.011,0.003,0.022,0.006,0.033,0.008
			c0.008,0.002,0.009-0.01,0.017-0.009c3.025,3.62,7.556,5.899,13.759,5.649c0.217-0.009,0.365-0.128,0.525-0.229
			c0.192,0.12,0.375,0.252,0.59,0.342c0.793,0.33,1.538-0.48,1.578-1.202c0.151-2.799-1.119-5.771-1.152-8.716
			c-0.058-5.059,0.67-10.158,1.265-15.17C71.46,50.268,74.759,39.148,71.108,35.306z M68.366,39.06
			c-0.01,0.24,0.006,0.491,0.002,0.735c-4.439,4.478-9.525,8.309-14.069,12.657C56.491,46.012,61.72,41.562,68.366,39.06z
			 M54.305,66.304c-0.622-1.702-0.948-3.631-1.067-5.718c1.416-1.176,2.859-2.31,4.414-3.328c0.918-0.601,1.932-1.09,2.921-1.608
			c-0.103,1.161-0.083,2.343,0.122,3.515c0.132,0.756,0.36,1.473,0.568,2.198c-1.315,0.937-2.543,2.068-3.853,2.966
			C56.396,65.025,55.355,65.673,54.305,66.304z M54.765,67.44c1.129-0.611,2.24-1.257,3.332-1.934
			c1.181-0.731,2.518-1.488,3.718-2.362c0.308,0.845,0.628,1.685,0.999,2.512c-0.004,0.003-0.008,0.007-0.012,0.01
			c-1.415,1.103-2.813,2.233-4.191,3.382c-0.406,0.339-1.204,0.89-2.021,1.534C55.856,69.633,55.274,68.565,54.765,67.44z
			 M57.743,71.912c0.896-0.687,1.795-1.369,2.692-2.053c1.077-0.82,2.165-1.626,3.259-2.424c0.311,0.515,0.73,1.189,1.161,1.831
			c-0.89,0.718-1.695,1.647-2.409,2.355c-0.778,0.772-1.464,1.622-2.186,2.441C59.328,73.422,58.503,72.693,57.743,71.912z
			 M61.372,74.777c0.617-0.522,1.244-1.033,1.848-1.57c0.755-0.671,1.662-1.298,2.504-1.972c0.025,2.127,0.225,4.194,0.879,5.803
			C64.658,76.459,62.928,75.692,61.372,74.777z M66.576,60.816c-0.103,0.958-0.295,2.332-0.477,3.884
			c-0.028-0.066-0.056-0.127-0.083-0.194c-1.013-2.485-1.822-5.031-1.942-7.728c-0.147-3.302,1.662-5.31,3.815-7.256
			C67.463,53.29,66.979,57.049,66.576,60.816z M68.303,45.748c-0.325-0.062-0.668-0.055-0.999,0.089
			c-3.196,1.387-5.317,4.086-6.256,7.217c-1.76,0.783-3.429,2.11-4.922,3.174c-1.014,0.722-2.006,1.493-2.955,2.312
			c0.039-1.119,0.176-2.181,0.364-3.212c4.76-4.127,10.401-7.412,14.827-11.872c0.004,0.698,0.024,1.417-0.031,2.041
			C68.323,45.581,68.311,45.664,68.303,45.748z"/>
		<path d="M94.857,41.338c-0.139-0.544-0.497-0.795-0.899-0.925c-0.603-1.791-3.334-2.535-4.879-3.33
			c-1.147-0.59-2.281-1.205-3.337-1.948c-0.958-0.674-1.382-1.21-2.579-1.359c-0.023-0.003-0.034,0.029-0.057,0.032
			c-0.189-0.122-0.397-0.207-0.628-0.178c-5.984,0.746-5.367,16.428-5.574,20.458c-0.029,0.565-0.08,1.263-0.137,2.019
			c-0.127,0.375-0.19,0.754-0.109,1.143c0.002,0.011,0.017,0.013,0.019,0.024c-0.579,7.362-1.632,20.511,2.535,25.195
			c-0.018,0.536,0.127,1.033,0.655,1.409c3.167,2.251,7.065,3.07,10.591,4.6c1.328,0.576,2.59-0.109,2.739-1.572
			C94.645,72.713,98.439,55.373,94.857,41.338z M83.341,37.243c0.719,0.773,1.703,1.434,2.484,1.965
			c0.146,0.099,0.305,0.179,0.454,0.274c-1.532,0.791-3.035,1.724-4.501,2.681C82.165,40.522,82.884,38.874,83.341,37.243z
			 M80.836,50.231c1.479-1.499,3.682-2.679,5.206-3.59c1.442-0.861,4.476-1.616,5.318-3.151c0.259-0.473,0.005-0.95-0.462-1.135
			c-1.918-0.76-5.368,2.193-6.8,3.163c-0.974,0.659-2.054,1.442-3.017,2.329c0.126-1.25,0.217-2.505,0.387-3.749
			c0.827-0.47,1.662-0.927,2.494-1.388c1.357-0.753,2.782-1.412,4.164-2.134c0.592,0.32,1.189,0.632,1.779,0.944
			c0.733,0.387,1.349,0.767,2.009,0.901c-0.067,1.051-0.105,2.102-0.163,3.153c-3.231,0.98-6.254,3.509-8.986,5.412
			c-0.494,0.344-1.236,0.786-2.03,1.29C80.782,51.594,80.783,50.911,80.836,50.231z M80.439,58.384
			c0.014-1.115,0.114-2.229,0.162-3.344c0.536-0.339,1.02-0.624,1.217-0.763c1.354-0.957,2.743-1.865,4.136-2.763
			c1.863-1.2,3.836-2.28,5.672-3.529c-0.063,1.246-0.11,2.493-0.165,3.739c-1.788,0.07-4.49,2.528-5.3,3.125
			c-1.794,1.321-3.933,2.744-5.723,4.379C80.444,58.947,80.437,58.666,80.439,58.384z M80.503,68.103
			c1.816-1.111,3.59-2.312,5.317-3.504c1.59-1.097,3.938-2.214,4.911-3.964c0.432-0.776-0.407-1.491-1.146-1.146
			c-1.817,0.849-3.32,2.417-4.89,3.652c-1.383,1.088-2.8,2.125-4.209,3.175c-0.026-1.627-0.051-3.254-0.044-4.88
			c1.799-1.204,3.542-2.524,5.312-3.76c1.363-0.952,2.749-1.872,4.166-2.742c0.478-0.293,0.97-0.562,1.439-0.866
			c-0.142,3.374-0.282,6.75-0.423,10.125c-0.911,0.173-1.703,0.944-2.413,1.474c-1.362,1.015-2.707,2.054-4.039,3.109
			c-1.136,0.9-2.56,1.905-3.764,3.052C80.646,70.586,80.539,69.347,80.503,68.103z M81.292,77.811
			c0.935-0.839,2.058-1.521,2.956-2.056c1.784-1.062,4.599-1.766,5.862-3.448c0.548-0.729-0.355-1.429-1.027-1.336
			c-1.093,0.15-2.149,1.02-3.092,1.563c-1.357,0.781-2.69,1.595-3.945,2.533c-0.363,0.271-0.685,0.557-1.008,0.843
			c-0.056-0.41-0.113-0.819-0.148-1.204c-0.033-0.351-0.033-0.704-0.062-1.055c0.307-0.191,0.622-0.38,0.899-0.572
			c1.476-1.023,2.912-2.101,4.387-3.126c1.29-0.897,2.587-1.784,3.889-2.662c0.27-0.182,0.552-0.356,0.829-0.535
			c-0.084,1.895-0.188,3.791-0.287,5.688c-0.092,0.016-0.182-0.003-0.273,0.049c-1.824,1.039-3.225,2.898-4.745,4.336
			c-1.328,1.256-2.721,2.436-4.094,3.638C81.457,79.596,81.404,78.702,81.292,77.811z M86.142,78.505
			c1.387-1.074,3.044-2.184,4.274-3.541c-0.06,1.052-0.154,2.106-0.223,3.159c-0.183,0.213-0.357,0.438-0.555,0.632
			c-1.187,1.161-2.636,1.98-4.024,2.867c-0.251,0.161-0.296,0.465-0.212,0.711c-1.055-0.399-2.097-0.762-3.01-0.994
			C83.648,80.402,84.905,79.463,86.142,78.505z M86.165,82.619c1.108-0.439,2.535-1.095,3.847-1.929
			c-0.085,1.16-0.145,2.318-0.246,3.479C88.695,83.677,87.434,83.124,86.165,82.619z"/>
		<path d="M165.01,120.643c-6.246-18.738-26.522-26.139-44.527-29.883c0.015-0.011,0.031-0.017,0.045-0.027
			c0.37-0.305,0.078-1.025-0.403-0.974c-0.669,0.07-1.334,0.273-1.994,0.532c-0.595-0.115-1.196-0.237-1.784-0.345
			c1.566-10.258,0.349-20.76-0.419-31.096c1.126,4.185,1.23,8.64,1.01,12.998c-0.053,1.057,0.647,1.606,1.442,1.709
			c2.059,4.689,14.549,7.103,18.373,8.26c0.606,0.184,1.2-0.022,1.644-0.41c0.296,0.061,0.614,0.063,0.949-0.08
			c2.169-0.925,4.407-1.703,6.613-2.535c0.47-0.177,1.207-0.411,1.896-0.734c0.805,0.133,1.738-0.34,1.85-1.419
			c2.57-25.066-15.742-47.695-34.905-61.955c0.148-0.38-0.04-0.81-0.407-1.041c0.537-1.512,0.857-3.235,1.219-4.312
			c0.291-0.869-0.327-1.881-1.192-2.099c-1.328-0.335-2.601-0.822-3.848-1.374c-0.168-0.327-0.535-0.575-0.924-0.485
			c-0.022,0.005-0.043,0.019-0.064,0.025c-3.264-1.538-6.405-3.387-9.957-4.045c-2.892-0.535-5.293,0.656-7.242,2.484
			c-0.081-0.642-0.608-1.299-1.232-1.415c-0.743-0.138-1.486-0.318-2.229-0.479c-0.101-0.041-0.166-0.138-0.283-0.143
			c-0.064-0.003-0.13,0.036-0.194,0.041c-0.916-0.201-1.831-0.385-2.749-0.59c-0.103-0.071-0.239-0.07-0.377-0.084
			c-2.508-0.554-5.026-1.047-7.582-1.157c-4.151-0.178-8.266,2.266-11.581,4.454c-0.542,0.358-0.624,0.905-0.452,1.358
			c-0.551,3.762-0.572,7.805,0.012,11.626c-23.375,0.448-35.84,16.637-35.291,39.629c0.534,22.37,19.929,38.165,41.355,40.046
			c-0.335,0.282-0.567,0.706-0.586,1.278c-0.353,10.894-1.775,21.739-2.628,32.602c-0.152,1.935-0.542,4.69-0.838,7.666
			c-3.622-5.087-4.273-10.771-3.686-17.479c0.362-4.132-2.051-6.473-5.107-8.901c-2.432-1.933-5.648-4.729-9.066-5.701
			c-0.138-0.69-0.975-1.13-1.63-0.531c-0.068,0.062-0.112,0.149-0.177,0.216c-0.761-0.053-1.525-0.032-2.29,0.168
			c-0.255,0.066-0.481,0.156-0.727,0.23c-0.27-0.087-0.567-0.09-0.821,0.162c-0.038,0.038-0.062,0.092-0.099,0.131
			c-4.951,1.731-8.349,4.718-14.437,3.977c-0.899-0.11-1.407,0.433-1.589,1.12c-0.26,0.077-0.504,0.235-0.648,0.593
			c-11.392,28.351,16.484,51.478,40.85,58.842c0.359,0.107,0.67,0.084,0.957,0.009c-0.113,0.502-0.009,1.04,0.436,1.424
			c-0.695-0.6-0.258-0.141-0.268,0.84c-0.01,0.931-0.03,1.859-0.034,2.789c-0.007,1.444-0.128,3.065,0.302,4.465
			c0.583,1.9,3.101,3.383,4.709,4.297c2.515,1.429,5.453,2.106,8.273,2.602c1.111,0.195,2.149-0.441,2.275-1.592
			c0.257,0.135,0.552,0.21,0.876,0.14c3.252-0.693,6.772-2.191,9.506-4.141c0.631,1.459,0.593,3.232,0.378,5.197
			c-0.068,0.618,0.395,1.279,0.904,1.576c2.945,1.721,6.417,2.774,9.819,2.987c0.427,0.027,0.807-0.13,1.112-0.385
			c0.204,0.043,0.419,0.052,0.651-0.014c3.892-1.11,6.928-4.191,9.64-7.039c1.392-1.463,2.711-2.989,4.131-4.425
			c0.909-0.919,2.153-1.54,2.157-2.969c0-0.049-0.037-0.074-0.042-0.12c9.766-2.103,18.703-5.54,24.956-11.401
			C166.828,159.813,170.289,136.476,165.01,120.643z M164.009,133.138c-2.161,1.326-4.285,2.704-6.534,3.914
			c-0.003,0.002-0.002,0.004-0.005,0.006c-0.255-1.552-0.613-3.064-1.121-4.514c2.084-1.214,4.199-2.562,6.003-4.095
			c0.605-0.516-0.166-1.395-0.813-1.054c-1.994,1.044-3.853,2.566-5.637,4.031c-0.531-1.333-1.129-2.638-1.831-3.89
			c2.885-1.659,5.896-3.205,8.014-5.723C163.405,125.439,163.981,129.285,164.009,133.138z M161.575,120.557
			c-0.01,0.006-0.02,0-0.029,0.007c-2.134,1.499-4.236,3.045-6.396,4.509c-0.579,0.393-1.197,0.777-1.817,1.169
			c-0.629-1.017-1.289-2.016-2.016-2.976c0.698-0.402,1.374-0.861,2.035-1.317c2.238-1.54,4.605-3.291,6.199-5.533
			C160.353,117.74,160.989,119.14,161.575,120.557z M156.364,112.042c0.851,0.956,1.604,1.967,2.312,3.004
			c-0.032,0.023-0.072,0.012-0.102,0.041c-1.962,1.884-3.909,3.743-6.083,5.386c-0.708,0.535-1.447,1.032-2.187,1.524
			c-0.763-0.935-1.552-1.854-2.389-2.737c1.327-1.019,2.657-2.035,3.959-3.086C153.375,114.965,155.207,113.668,156.364,112.042z
			 M153.549,109.295c0.174,0.151,0.356,0.283,0.528,0.438c0.401,0.361,0.749,0.759,1.126,1.138
			c-1.462,0.984-2.706,2.429-3.984,3.591c-1.407,1.278-2.869,2.494-4.325,3.716c-0.775-0.775-1.575-1.531-2.394-2.266
			c2.777-2.483,6.129-4.12,9.02-6.562C153.541,109.334,153.533,109.313,153.549,109.295z M148.84,105.713
			c1.195,0.789,2.356,1.661,3.498,2.579c-3.265,1.664-6.432,3.897-8.875,6.691c-1.246-1.072-2.514-2.113-3.809-3.094
			c1.055-0.665,2.111-1.333,3.136-2.056c1.403-0.991,2.816-1.967,4.244-2.924C147.616,106.521,148.249,106.14,148.84,105.713z
			 M144.089,102.903c0.904,0.478,1.799,0.979,2.682,1.505c-1.684,1.08-3.282,2.658-4.605,3.681c-1.24,0.959-2.396,1.982-3.549,3.009
			c-1.2-0.88-2.407-1.729-3.607-2.533c0.889-0.422,1.745-0.936,2.584-1.392c2.138-1.162,4.586-2.271,6.354-3.972
			C144.038,103.115,144.054,103.006,144.089,102.903z M137.955,100.006c1.587,0.651,3.146,1.363,4.684,2.123
			c-1.93,0.765-3.679,2.081-5.423,3.168c-1.226,0.764-2.487,1.476-3.72,2.227c-1.028-0.698-2.154-1.508-3.39-2.424
			c0.813-0.481,1.63-0.958,2.452-1.42c1.728-0.97,3.861-1.752,5.203-3.242C137.881,100.305,137.937,100.154,137.955,100.006z
			 M130.887,97.385c1.876,0.632,3.732,1.301,5.565,2.016c-1.714,0.572-3.314,1.758-4.826,2.683
			c-1.011,0.619-1.992,1.269-2.946,1.956c-1.152-0.86-2.345-1.75-3.596-2.661c0.422-0.254,0.846-0.502,1.266-0.762
			c1.498-0.925,3.261-1.724,4.449-3.034C130.854,97.522,130.863,97.452,130.887,97.385z M129.466,96.914
			c-1.392,0.577-2.626,1.588-3.861,2.427c-0.579,0.395-1.183,0.747-1.77,1.126c-1.255-0.896-2.542-1.785-3.847-2.628
			c1.346-0.701,2.907-1.549,3.911-2.718C125.765,95.71,127.621,96.305,129.466,96.914z M116.08,93.253
			c0.253-0.154,0.527-0.275,0.791-0.413c1.723,0.587,3.45,1.145,5.176,1.694c-0.903,0.607-1.796,1.228-2.727,1.796
			c-0.299,0.181-0.593,0.368-0.891,0.55c-1.424-0.866-2.854-1.683-4.273-2.355C114.795,94.097,115.423,93.654,116.08,93.253z
			 M109.207,52.836c0.959-0.607,1.971-1.191,2.94-1.825c0.332,0.483,0.684,0.943,1.007,1.444c0.282,0.438,0.515,0.895,0.758,1.347
			c-1.801,0.767-3.484,2.082-5.074,3.112c-0.785,0.509-1.586,0.99-2.377,1.489c0.214-1.454,0.442-2.904,0.693-4.355
			C107.832,53.634,108.535,53.262,109.207,52.836z M107.511,52.048c0.327-1.79,0.663-3.581,1.031-5.395
			c0.957,0.886,1.792,1.854,2.573,2.875c-0.941,0.591-1.835,1.282-2.728,1.906C108.095,51.639,107.804,51.844,107.511,52.048z
			 M105.811,85.011c1.457-0.756,2.921-1.5,4.327-2.356c1.116-0.678,2.339-1.391,3.47-2.194c-0.01,1.286-0.061,2.572-0.137,3.856
			c-1.131,0.616-2.197,1.413-3.273,2.065c-1.44,0.872-2.969,1.605-4.498,2.312C105.794,87.548,105.831,86.305,105.811,85.011z
			 M105.507,79.046c1.115-0.933,2.28-1.808,3.495-2.621c1.418-0.949,3.046-1.749,4.484-2.741c0.059,1.51,0.099,3.021,0.119,4.53
			c-1.445,0.979-2.781,2.2-4.198,3.189c-1.165,0.813-2.41,1.497-3.631,2.22C105.718,82.058,105.618,80.486,105.507,79.046z
			 M109.609,58.235c1.269-0.738,2.635-1.432,3.951-2.184c-0.138,1.159-0.215,2.32-0.278,3.48c-2.774,1.121-5.492,3.181-7.596,5.497
			c0.16-1.619,0.318-3.238,0.534-4.835C107.361,59.559,108.483,58.891,109.609,58.235z M109.369,63.582
			c1.205-0.851,2.532-1.474,3.84-2.13c-0.047,1.783-0.021,3.569,0.025,5.355c-1.572,1.03-2.97,2.322-4.485,3.435
			c-1.117,0.82-2.314,1.499-3.542,2.118c0.057-1.764,0.133-3.516,0.271-5.232C106.655,65.834,107.892,64.624,109.369,63.582z
			 M113.279,68.523c0.036,1.06,0.084,2.119,0.128,3.179c-2.049,1.049-3.958,2.625-5.76,3.973c-0.794,0.594-1.532,1.238-2.255,1.9
			c-0.14-1.746-0.259-3.199-0.248-3.986C108.072,72.396,110.958,70.619,113.279,68.523z M105.534,90.036
			c1.59-0.627,3.142-1.322,4.664-2.106c0.978-0.504,2.06-0.986,3.084-1.546c-0.041,0.426-0.1,0.851-0.142,1.276
			c-2.463,1.117-4.714,2.971-6.74,4.661c-0.493-0.01-0.984-0.008-1.461,0.05C105.217,91.75,105.395,90.929,105.534,90.036z
			 M110.719,90.915c0.73-0.463,1.498-0.854,2.265-1.244c0.08,0.756,0.602,1.308,1.232,1.547c0.053,0.368,0.251,0.7,0.668,0.907
			c-0.771,0.554-1.513,1.148-2.217,1.739c-1.473-0.607-2.929-1.114-4.325-1.355C109.13,91.97,109.914,91.424,110.719,90.915z
			 M146.565,74.845c-0.709,0.267-1.397,0.642-1.908,0.859c-1.121,0.477-2.231,0.986-3.345,1.488c0.646-1.1,2.124-2.162,2.777-2.7
			c0.638-0.526,1.533-1.024,2.274-1.619C146.419,73.54,146.532,74.159,146.565,74.845z M146.124,70.529
			c-0.625,0.217-1.101,0.706-1.667,1.159c-1.154,0.922-2.253,1.89-3.235,2.995c-0.822,0.926-1.505,2.023-1.345,3.147
			c-0.098,0.047-0.2,0.085-0.298,0.133c0.386-1.812,0.585-3.658,0.641-5.521c1.101-0.449,2.355-1.494,2.89-1.84
			c0.947-0.613,1.893-1.23,2.831-1.857C146.03,69.317,146.05,69.944,146.124,70.529z M145.445,66.301
			c-1.031,0.706-2.043,1.706-2.61,2.135c-0.851,0.643-1.703,1.284-2.564,1.913c-0.018,0.014-0.035,0.029-0.054,0.042
			c-0.028-1.042-0.086-2.087-0.196-3.136c0.245-0.236,0.492-0.469,0.739-0.709c1.265-1.228,2.738-2.16,4.072-3.266
			C145.078,64.254,145.244,65.292,145.445,66.301z M144.363,61.529c-1.563,0.496-2.877,1.969-3.984,3.099
			c-0.206,0.21-0.386,0.435-0.584,0.65c-0.189-1.223-0.413-2.447-0.71-3.669c1.648-0.7,3.229-1.713,4.374-3.024
			C143.789,59.544,144.078,60.535,144.363,61.529z M142.84,56.9c-1.497,0.966-2.712,2.203-4.18,3.166
			c-0.367-1.316-0.771-2.629-1.25-3.931c1.169-1.175,2.699-2.164,3.84-3.135C141.831,54.264,142.34,55.579,142.84,56.9z
			 M140.564,51.605c-1.252,0.582-2.643,1.624-3.781,2.885c-0.354-0.871-0.713-1.741-1.112-2.6c1.232-1.027,2.483-2.113,3.385-3.351
			C139.606,49.529,140.063,50.583,140.564,51.605z M138.311,47.212c-0.029,0.014-0.062-0.001-0.092,0.019
			c-1.203,0.808-2.248,1.98-3.241,3.159c-0.6-1.202-1.236-2.391-1.921-3.559c0.02-0.047,0.067-0.061,0.077-0.118
			c0.283-1.646,1.413-2.641,2.66-3.533C136.68,44.498,137.511,45.845,138.311,47.212z M134.601,41.459
			c-1.221,0.906-2.21,2.13-2.632,3.538c-0.807-1.277-1.644-2.539-2.542-3.758c1.115-0.758,2.198-1.632,3.142-2.582
			C133.272,39.579,133.936,40.519,134.601,41.459z M129.674,34.992c0.651,0.789,1.261,1.592,1.887,2.389
			c-1,0.91-1.999,1.826-2.984,2.76c-0.633-0.822-1.237-1.667-1.907-2.455C127.587,36.683,128.573,35.837,129.674,34.992z
			 M128.57,33.703c-1.104,0.79-2.006,1.844-2.792,2.983c-1.159-1.306-2.354-2.574-3.603-3.766c1.24-0.782,2.455-1.668,3.453-2.65
			C126.638,31.411,127.602,32.557,128.57,33.703z M124.671,29.2c-1.284,0.693-2.436,1.707-3.549,2.718
			c-0.974-0.885-1.963-1.742-2.979-2.548c1.431-0.849,2.905-1.782,3.993-3.003C123.004,27.316,123.829,28.257,124.671,29.2z
			 M121.106,25.238c-1.449,0.971-2.822,2.093-4.222,3.144c-1.189-0.89-2.396-1.741-3.63-2.51c1.89-1.003,3.846-1.915,5.555-3.131
			C119.583,23.579,120.346,24.409,121.106,25.238z M115.507,19.149c0.726,0.794,1.445,1.574,2.164,2.355
			c-2.098,0.779-4.117,2.048-5.952,3.417c-1.31-0.751-2.634-1.445-3.975-2.044c0.94-0.3,1.895-0.853,2.626-1.206
			c1.265-0.611,2.523-1.232,3.779-1.862C114.592,19.587,115.067,19.391,115.507,19.149z M112.663,16.321
			c0.056-0.035,0.099-0.094,0.152-0.134c0.417,0.464,0.831,0.914,1.247,1.372c-1.198,0.575-2.405,1.451-3.329,1.97
			c-1.001,0.563-2.022,1.096-3.003,1.696c-0.305,0.187-0.682,0.352-0.939,0.605c-0.113,0.117-0.238,0.218-0.376,0.303
			c-0.019,0.008-0.001,0.022-0.017,0.031c-0.056,0.004-0.11,0.036-0.166,0.062c-1.124-0.447-2.251-0.869-3.386-1.198
			c0.024-0.211,0.022-0.423,0.043-0.634c2.335-2.145,5.512-2.914,8.518-3.982C111.792,16.579,112.236,16.585,112.663,16.321z
			 M111.082,11.454c-0.407,1.039-0.738,2.11-0.746,3.015c-1.419,0.562-2.81,1.248-4.078,1.879c-1.151,0.572-2.261,1.273-3.236,2.115
			c0.102-1.361,0.229-2.72,0.278-4.084C105.759,13.161,108.545,12.499,111.082,11.454z M107.5,8.21
			c0.883,0.417,1.8,0.76,2.708,1.123c-1.229,0.565-2.438,1.186-3.618,1.692c-1.068,0.459-2.192,0.916-3.247,1.479
			c0.014-0.753,0.052-1.502,0.052-2.258c0-0.157-0.035-0.32-0.083-0.481c0.974-0.362,1.957-0.694,2.923-1.067
			C106.648,8.539,107.075,8.371,107.5,8.21z M105.49,7.232c-1.041,0.488-2.09,0.959-3.141,1.426c-0.081-0.032-0.152-0.085-0.24-0.1
			c-0.787-0.129-1.566-0.21-2.35-0.322c0.086-0.033,0.172-0.068,0.258-0.101c1.201-0.455,2.986-0.79,4.234-1.505
			C104.667,6.834,105.078,7.029,105.49,7.232z M101.359,5.346c-0.935,0.445-1.842,0.959-2.522,1.263
			c-0.868,0.387-1.775,0.759-2.602,1.233c-1.4-0.109-2.8-0.195-4.212-0.127C95.036,4.733,97.736,4.061,101.359,5.346z M87.151,5.041
			c0.53,0.129,1.067,0.263,1.594,0.381c-0.116,0.682-0.273,1.336-0.466,1.99c-1.851,0.326-3.725,1.85-5.165,2.99
			c-0.97,0.768-1.871,1.621-2.707,2.533c-0.401-1.131-0.915-2.206-1.488-3.006c0.304-0.146,0.601-0.319,0.881-0.475
			c1.305-0.73,2.584-1.496,3.862-2.272C84.829,6.473,85.994,5.763,87.151,5.041z M80.896,14.883
			c1.075-1.042,2.163-2.058,3.397-2.954c1.014-0.736,2.234-1.277,3.337-1.934c0.085,0.304,0.262,0.576,0.517,0.783
			c-0.085,0.873-0.22,1.739-0.349,2.605c-1.09,0.609-2.073,1.48-3.037,2.235c-0.802,0.629-1.585,1.299-2.341,1.996
			c-0.569,0.022-1.109,0.081-1.583,0.216C81.115,16.941,81.062,15.917,80.896,14.883z M84.353,4.373
			c-1.083,0.741-2.169,1.479-3.254,2.217c-0.455,0.31-2.081,1.272-3.147,2.237c-0.555-0.507-1.163-0.963-1.837-1.355
			c1.139-0.644,2.296-1.254,3.5-1.807c1.186-0.545,2.466-1.001,3.692-1.541C83.657,4.2,84.002,4.29,84.353,4.373z M78.667,3.393
			c0.345,0.021,0.692,0.085,1.037,0.123c-0.343,0.179-0.694,0.363-1.034,0.532c-1.463,0.731-2.838,1.608-4.142,2.585
			c-1.422-0.618-2.951-1.093-4.404-1.522C72.832,3.938,75.502,3.198,78.667,3.393z M68.128,151.243
			c-1.048-0.709-2.032-1.497-2.995-2.311c0.776-0.764,1.56-1.541,2.334-2.313C67.553,148.271,67.723,149.864,68.128,151.243z
			 M64.895,141.422c0.718,0.81,1.51,1.544,2.42,2.131c-0.468,0.51-0.896,1.064-1.325,1.558c-0.744,0.854-1.565,1.722-2.102,2.709
			c-0.798-0.733-1.596-1.469-2.341-2.26c0.604-1.005,1.258-1.975,2.026-2.89C63.958,142.21,64.425,141.813,64.895,141.422z
			 M63.547,139.654c-0.392,0.469-0.756,0.955-1.069,1.379c-0.782,1.06-1.451,2.181-2.054,3.337c-0.787-0.9-1.544-1.831-2.266-2.793
			c1.253-1.572,2.635-2.98,4.044-4.362C62.583,138.069,63.046,138.877,63.547,139.654z M61.393,134.995
			c-0.531,0.529-0.999,1.149-1.45,1.677c-0.989,1.157-1.859,2.415-2.703,3.686c-0.065-0.094-0.14-0.178-0.204-0.271
			c-0.432-0.625-1.292-2.071-2.202-3.824c0.704-1.222,1.852-2.357,2.656-3.168c0.764-0.771,1.904-1.575,2.906-2.455
			c0.179,1.111,0.371,2.217,0.663,3.354C61.146,134.332,61.288,134.659,61.393,134.995z M57.75,115.839
			c0.897,0.854,1.706,1.744,2.317,2.647c1.026,1.518,0.081,5.15-0.016,6.819c-0.042,0.729,0.051,1.407,0.075,2.108
			c-0.691,0.477-1.274,1.169-1.854,1.733c-1.147,1.115-2.26,2.264-3.288,3.491c-0.372,0.445-0.794,0.979-1.173,1.55
			c-0.672-1.441-1.3-2.955-1.722-4.349c0.858-0.962,1.701-1.942,2.54-2.915c1.132-1.311,2.284-2.608,3.521-3.821
			c0.603-0.592,1.902-1.659,0.98-2.58c-1.774-1.774-5.231,3.82-6.041,4.861c-0.514,0.66-1,1.341-1.497,2.015
			c-0.065-0.826-0.027-1.565,0.291-2.042c0.059-0.089,0.035-0.217-0.037-0.289c-0.229-0.231-0.458-0.461-0.687-0.692
			c-0.051-0.052-0.126-0.07-0.185-0.112c-0.049-0.234-0.168-0.457-0.332-0.666c1.068-1.268,2.11-2.562,3.188-3.812
			c0.807-0.937,1.655-1.82,2.56-2.66C56.912,116.642,57.428,116.35,57.75,115.839z M54.172,112.968
			c0.648,0.439,1.286,0.917,1.908,1.413c-1.491,0.763-2.778,2.9-3.66,3.995c-1.103,1.369-2.173,2.789-3.204,4.233
			c-0.465-0.237-0.944-0.448-1.433-0.644c0.136-0.191,0.165-0.451-0.118-0.493c-0.259-0.038-0.626,0.23-0.597,0.212l0,0
			c0.016-0.01,0.074-0.052,0.201-0.151c0.258-0.203,0.39-0.76,0.556-1.042c0.622-1.06,1.382-2.004,2.175-2.939
			C51.207,116.131,53.081,114.624,54.172,112.968z M46.266,114.526c0.51-1.537,1.213-2.914,1.946-4.274
			c0.824,0.1,1.706,0.316,2.767,0.824c0.353,0.169,0.735,0.413,1.102,0.616c-0.736,0.85-1.419,1.811-2.081,2.626
			c-1.069,1.316-2.126,2.651-3.059,4.069c-0.544,0.828-1.049,2.062-0.843,2.895c-0.263-0.111-0.53-0.216-0.786-0.341
			c-0.32-0.156-0.626-0.342-0.941-0.507C45.054,118.484,45.616,116.489,46.266,114.526z M43.28,111.508
			c0.862-0.461,1.652-0.794,2.449-1.036c-0.226,0.638-0.437,1.27-0.641,1.863c-0.827,2.406-1.455,4.919-1.975,7.422
			c-1.098-0.621-2.185-1.263-3.264-1.911c0.776-1.482,1.531-2.976,2.294-4.466C42.479,112.722,42.887,112.12,43.28,111.508z
			 M40.575,112.888c-0.617,1.492-1.171,2.979-1.72,4.405c-1.608-0.946-3.242-1.881-4.941-2.684
			C36.188,114.462,38.362,113.91,40.575,112.888z M85.395,182.158c0.181-1.735,0.363-3.469,0.682-5.188
			c1.043,0.478,2.102,0.903,3.165,1.326C87.887,179.476,86.746,181.074,85.395,182.158z M86.368,183.33
			c0.965-0.63,1.829-1.338,2.678-2.12c0.755-0.696,1.593-1.327,2.336-2.037c0.364,0.15,0.73,0.289,1.092,0.447
			c0.175,0.076,0.304,0.171,0.462,0.254C90.845,181.191,88.595,182.249,86.368,183.33z M116.549,181.047
			c-2.311,2.564-4.659,5.004-7.546,6.814c0.301-1.292,0.537-2.687,0.662-4.064c2.349-1.342,4.395-3.278,6.455-5.071
			c0.077-0.066,0.059-0.16,0.106-0.237c0.934-0.139,1.878-0.226,2.804-0.381C118.009,179.205,117.113,180.422,116.549,181.047z
			 M133.73,170.976c-8.049,2.91-16.659,3.977-24.819,6.598c-0.803-0.812-2.24-0.639-2.665,0.622
			c-0.669,1.979-0.729,4.125-0.845,6.276c-0.146,0.169-0.146,0.378-0.031,0.558c-0.066,1.08-0.155,2.159-0.368,3.219
			c-1.919-0.297-3.829-0.929-5.552-1.799c0.207-3.205-0.209-6.348-2.871-8.521c-2.865-2.339-7.322-2.803-10.788-3.889
			c-0.911-0.924-2.701-0.938-3.018,0.675c-0.597,3.039-1.039,6.105-1.256,9.193c-1.807-0.412-3.582-0.917-5.261-1.759
			c-0.806-0.405-2.855-1.434-3.136-2.316c-0.203-0.64-0.114-1.47-0.129-2.133c-0.044-1.976,0.746-6.614-1.716-7.487
			c-0.276-0.098-0.536-0.081-0.782-0.021c0.22-0.875-0.105-1.9-1.215-2.236c-25.075-7.579-43.139-25.818-40.134-52.676
			c3.274,2.06,6.501,4.189,9.804,6.206c2.592,1.581,6.259,4.277,9.561,4.519c-0.824,4.038,2.044,9.501,3.572,12.837
			c3.538,7.726,11.018,14.38,18.525,18.086c2.104,1.039,3.956-2.109,1.844-3.153c-0.128-0.063-0.239-0.15-0.367-0.216
			c0.341-2.563-0.345-5.219-0.434-7.818c-0.197-5.806,0.344-11.661,0.798-17.442c0.777-9.901,2.495-19.95,2.25-29.898
			c-0.015-0.59-0.259-1.016-0.606-1.298c0.37-0.334,0.408-1.034-0.105-1.306c-16.639-8.816-33.487-9.73-39.115-31.255
			c-6.038-23.094,7.694-43.682,31.866-43.658c1.827,0.002,2.14-2.278,0.993-3.137c0.524-3.065,0.771-6.205,1.158-9.302
			c2.322,0.7,4.774,1.45,6.585,2.955c2.622,2.178,0.841,5.633,2.671,7.973c0.307,0.392,0.852,0.44,1.311,0.289
			c0.122,0.212,0.317,0.378,0.512,0.545c-0.325,0.56,0.329,1.18,0.878,0.724c0.047-0.039,0.097-0.075,0.144-0.114
			c2.266,0.905,6.067,0.653,7.651,0.692c0.953,0.023,1.631-0.783,1.68-1.681c0.162-2.937,0.894-5.78,1.238-8.689
			c2.786-0.23,5.556,0.127,8.311,0.58c-0.021,3.472-0.1,6.93-0.608,10.378c-0.184,1.242,0.796,2.061,1.754,2.174
			c0.052,0.018,0.083,0.054,0.14,0.069c16.273,4.339,28.205,20.647,33.651,35.78c1.468,4.079,1.988,8.385,1.996,12.695
			c0.011,6.439-1.114,4.912-5.548,3.391c-3.179-1.091-7.124-3.932-10.686-4.341c0-0.007,0.006-0.011,0.006-0.019
			c0.49-6.923-0.335-13.428-3.446-19.682c-1.429-2.874-3.588-5.781-6.104-7.785c-0.832-0.662-1.416-0.783-2.006-0.829
			c-0.148-0.693-0.777-1.264-1.556-1.007c-7.142,2.357-5.74,23.39-5.922,28.881c-0.046,1.414-0.71,20.318,1.555,22.221
			c-0.059,0.497,0.116,1.012,0.623,1.238c7.137,3.179,14.829,6.945,22.09,11.429c-0.518,0.492,0.205,1.431,0.808,1.008
			c0.133-0.094,0.272-0.172,0.406-0.264c9.232,5.849,17.618,12.935,23.144,21.558c-0.109,0.107-0.236,0.201-0.339,0.312
			c-0.522,0.571,0.245,1.28,0.827,0.827c0.054-0.042,0.117-0.073,0.173-0.114c0.124,0.204,0.268,0.397,0.388,0.604
			C161.511,147.874,150.355,164.966,133.73,170.976z M155.482,156.634c1.085-2.499,1.813-5.295,2.194-8.369
			c0.985,0.072,2.196-0.084,3.311-0.41C159.596,151.049,157.792,154.046,155.482,156.634z M161.744,145.988
			c-1.295,0.295-2.643,0.712-3.917,1.159c0.103-1.124,0.161-2.283,0.163-3.487c2.004-0.62,4.122-1.386,5.348-3.134
			C162.965,142.393,162.399,144.208,161.744,145.988z M163.578,139.115c-0.216-0.153-0.517-0.183-0.77,0.057
			c-1.523,1.436-2.974,2.328-4.885,3.065c-0.042-1.324-0.087-2.65-0.255-4.072c-0.003-0.028-0.011-0.053-0.014-0.081
			c0.127,0.034,0.265,0.046,0.411-0.021c1.969-0.914,4.061-1.832,5.954-2.997C163.957,136.423,163.791,137.772,163.578,139.115z"/>
		<path d="M94.994,104.509c-0.279-0.319-0.59-0.387-0.89-0.354c-1.324-0.949-2.68-1.85-4.076-2.691
			c-1.342-0.809-2.819-1.782-4.349-2.291c-0.051-2.312-3.658-2.297-3.671,0.054c-0.033,6.365-0.295,12.764-0.578,19.168
			c-0.008,0.005-0.016,0.011-0.024,0.015c-0.566,0.303-0.419,0.909-0.03,1.216c-0.564,12.62-1.178,25.27-0.325,37.781
			c0.122,1.788,2.512,1.796,2.797,0.131c0.038-0.019,0.079-0.04,0.118-0.059c-0.322,0.477-0.385,0.976-0.135,1.529
			c0.858,1.903,3.005,2.781,4.859,3.566c2.035,0.861,4.145,1.607,6.309,2.073c1.212,0.261,2.241-0.537,2.317-1.767
			c0.07-1.108,0.985-3.803,0.185-5.031c-0.1-1.163-0.092-2.323-0.14-3.485c0.062-0.251,0.061-0.488-0.03-0.739
			c-0.27-8.322,0.562-16.622,1.15-24.954C98.999,121.332,100.212,110.521,94.994,104.509z M89.692,107.381
			c-0.612,0.912-0.97,2.388-1.171,4.138c-0.13,0.019-0.26,0.079-0.372,0.224c-0.963,1.243-1.658,2.612-2.736,3.778
			c0.041-1.656,0.062-3.309,0.103-4.966c1.427-1.025,2.861-2.043,4.148-3.196C89.675,107.366,89.683,107.373,89.692,107.381z
			 M85.266,122.727c0.042-1.633,0.058-3.26,0.101-4.892c1.149-0.836,2.208-1.823,2.95-2.96c-0.029,1.712,0.023,3.515,0.117,5.259
			C87.347,120.907,86.285,121.783,85.266,122.727z M88.58,122.487c0.134,1.895,0.285,3.607,0.379,4.874
			c-1.317,1.321-2.535,2.676-3.869,3.913c0.065-1.976,0.066-3.943,0.122-5.918C86.368,124.433,87.549,123.511,88.58,122.487z
			 M84.743,141.524c1.168-0.877,2.319-1.819,3.364-2.833c-0.168,2.023-0.284,4.135-0.243,6.162c-1.06,0.974-2.069,2.066-3.045,2.899
			c-0.114,0.098-0.22,0.203-0.332,0.303C84.612,145.885,84.643,143.699,84.743,141.524z M84.833,139.239
			c0.081-1.924,0.118-3.853,0.186-5.778c1.465-0.978,2.847-2.177,3.984-3.52c-0.104,1.452-0.383,3.593-0.646,6.085
			C87.138,137.037,85.971,138.117,84.833,139.239z M88.321,106.276c-0.951,0.63-1.879,1.332-2.76,2.121
			c0.032-1.518,0.085-3.039,0.094-4.553C86.467,104.756,87.437,105.563,88.321,106.276z M83.974,156.389
			c0.158-2.07,0.255-4.156,0.384-6.234c0.422-0.291,0.847-0.578,1.255-0.899c0.693-0.543,1.555-1.141,2.411-1.772
			c0.188,1.79,0.515,3.457,1.134,4.775c-0.509,0.494-1.011,0.997-1.541,1.469C86.491,154.733,85.247,155.583,83.974,156.389z
			 M88.425,158.258c-0.041,0.046-0.043,0.105-0.075,0.156c-0.492-0.253-0.994-0.486-1.476-0.755c-0.35-0.195-0.784-0.379-1.11-0.583
			c-0.33-0.207-0.467-0.17-0.541-0.107c0.015-0.027,0.03-0.086,0.044-0.126c1.664-0.868,3.347-1.932,4.771-3.171
			c0.461,0.573,0.984,1.066,1.633,1.385C90.217,156.304,88.826,157.811,88.425,158.258z M93.856,160.549
			c-1.298-0.372-2.57-0.825-3.81-1.338c1.093-0.793,2.131-1.673,3.181-2.517c0.17-0.138,0.424-0.312,0.699-0.512
			c0.111,0.858,0.227,1.716,0.394,2.567C94.097,159.297,93.95,159.922,93.856,160.549z M94.352,134.826
			c-0.426,5.581-1.013,11.254-0.798,16.864c-1.847-1.312-2.605-3.814-2.804-6.771c0.205-0.272,0.452-0.534,0.592-0.822
			c0.275-0.565-0.121-1.071-0.647-1.083c0.03-5.818,1.656-12.709,1.576-15.976c-0.042-1.683-0.551-13.674-0.467-18.233
			c0.539,0.3,1.087,0.56,1.643,0.695C94.636,118.017,95.033,125.895,94.352,134.826z"/>
		<path d="M107.026,105.062c-0.084-0.037-0.15,0.007-0.232-0.014c-0.893-0.276-1.907,0.035-2.119,1.223
			c-0.761,4.267-1.239,8.592-1.537,12.944c-0.351,0.27-0.703,0.54-1.056,0.807c-0.491,0.369-0.062,1.183,0.495,0.848
			c0.166-0.1,0.32-0.217,0.486-0.319c-0.189,3.205-0.306,6.422-0.316,9.648c-0.008,0.005-0.017,0.011-0.024,0.016
			c-0.419,0.262-0.289,0.755,0.023,0.964c0.014,10.396,0.809,20.843,1.664,31.021c0.103,1.229,1.358,1.552,2.115,1.02
			c0.265,0.397,0.684,0.675,1.28,0.618C141.303,160.685,130.01,115.214,107.026,105.062z M108.022,108.575
			c1.557,1.142,3.009,2.46,4.406,3.848c-1.406,0.777-2.716,1.814-3.97,2.731c-0.429,0.313-0.844,0.646-1.269,0.968
			C107.377,113.608,107.634,111.092,108.022,108.575z M109.245,116.498c1.438-0.958,2.977-1.816,4.432-2.771
			c0.412,0.442,0.854,0.85,1.25,1.309c-0.802,0.586-1.326,1.465-1.748,2.436c-1.513,1.084-2.873,2.422-4.313,3.593
			c-0.601,0.486-1.3,0.959-1.998,1.441c0.039-1.533,0.144-3.066,0.233-4.601C107.808,117.427,108.533,116.973,109.245,116.498z
			 M106.836,124.482c0.872-0.606,1.708-1.294,2.463-1.843c0.998-0.724,2.067-1.469,3.054-2.293c-0.176,1.08-0.296,2.184-0.341,3.254
			c-1.453,0.785-2.697,2.175-4.02,3.142c-0.384,0.279-0.796,0.514-1.188,0.781C106.804,126.51,106.824,125.496,106.836,124.482z
			 M106.809,129.097c0.628-0.384,1.276-0.735,1.893-1.141c1.025-0.674,2.286-1.463,3.252-2.413c-0.012,0.632-0.021,1.234-0.04,1.751
			c-0.041,1.061,0.001,2.132,0.016,3.2c-0.692,0.729-1.386,1.46-2.136,2.137c-0.913,0.825-1.891,1.555-2.886,2.264
			C106.858,132.963,106.827,131.03,106.809,129.097z M106.952,136.438c1.723-1.01,3.479-2.242,4.993-3.667
			c0.07,1.797,0.186,3.6,0.301,5.403c-0.431,0.309-0.851,0.629-1.299,0.915c-1.304,0.831-2.617,1.635-3.85,2.567
			C107.046,139.916,107,138.177,106.952,136.438z M107.416,142.853c1.524-1.007,3.284-1.879,4.941-2.87
			c0.083,1.365,0.157,2.731,0.201,4.095c-0.786,1.018-1.556,2.051-2.33,3.07c-0.705,0.928-1.866,2.111-2.044,3.329
			c-0.058,0.396,0.494,0.573,0.612,0.17c0.133-0.453,0.81-0.918,1.147-1.24c0.736-0.704,1.404-1.531,2.067-2.306
			c0.198-0.23,0.375-0.472,0.57-0.702c0.001,0.633,0.038,1.271,0.018,1.901c-0.73,0.81-1.469,1.616-2.299,2.339
			c-0.967,0.844-1.985,1.703-3.004,2.495c0.011-3.415-0.069-6.826-0.166-10.234C107.225,142.901,107.322,142.915,107.416,142.853z
			 M112.285,153.759c-0.054,0.045-0.113,0.102-0.163,0.142c-1.077,0.87-2.139,1.763-3.196,2.657c-0.446,0.379-0.89,0.757-1.339,1.13
			c-0.126,0.104-0.245,0.216-0.357,0.335c0.039-1.184,0.036-2.364,0.049-3.546c0.042-0.014,0.075,0.008,0.119-0.019
			c1.25-0.748,2.438-1.503,3.6-2.416c0.447-0.351,0.939-0.725,1.439-1.123c-0.057,0.637-0.099,1.274-0.188,1.907
			C112.206,153.119,112.22,153.446,112.285,153.759z M107.37,160.618c-0.085,0.021-0.144,0.074-0.22,0.106
			c0.023-0.425,0.02-0.849,0.037-1.273c0.837-0.001,2.2-1.032,2.513-1.252c1.131-0.797,2.207-1.675,3.309-2.512
			c0.235-0.18,0.536-0.367,0.843-0.562c1.099,0.415,2.176,0.744,3.288,0.98C114.567,158.014,111.392,159.59,107.37,160.618z
			 M120.079,153.465c-0.205-0.245-0.471-0.439-0.854-0.495c-4.021-0.568-3.261,0.055-3.179-4.019
			c0.076-3.734-0.171-7.483-0.35-11.211c-0.005-0.089-0.021-0.234-0.027-0.33c0.26-0.264,0.565-0.487,0.794-0.779
			c0.4-0.512-0.128-1.438-0.761-0.985c-0.058,0.04-0.112,0.085-0.169,0.126c-0.54-5.329-1.961-15.556,0.921-18.865
			C125.312,128.33,128.75,143.899,120.079,153.465z"/>
		<path d="M116.018,115.668c0.02,0,0.02-0.029,0-0.029"/>
	</g>
</g>
<g>
</g>
<g>
</g>
<g>
</g>
<g>
</g>
<g>
</g>
<g>
</g>
<g>
</g>
<g>
</g>
<g>
</g>
<g>
</g>
<g>
</g>
<g>
</g>
<g>
</g>
<g>
</g>
<g>
</g>
</svg>
