<?xml version="1.0" encoding="utf-8"?>
<!-- Generator: Adobe Illustrator 19.1.0, SVG Export Plug-In . SVG Version: 6.00 Build 0)  -->
<svg version="1.1" id="Layer_1" xmlns="http://www.w3.org/2000/svg" xmlns:xlink="http://www.w3.org/1999/xlink" x="0px" y="0px"
	 viewBox="0 0 23.5 23.5" style="enable-background:new 0 0 23.5 23.5;" xml:space="preserve">
<style type="text/css">
	.st0{fill:#0066FF;}
	.st1{fill:#0066FF;stroke:#0066FF;stroke-miterlimit:10;}
	.st2{fill:none;stroke:#0066FF;stroke-width:2;stroke-miterlimit:10;}
	.st3{fill:#438BCA;}
	.st4{fill:#D9EDF7;}
	.st5{fill:#FFFFFF;}
	.st6{fill:none;stroke:#BE1E2D;stroke-width:0.5;stroke-miterlimit:10;}
	.st7{fill:#F6921E;}
	.st8{fill:none;stroke:#F6921E;stroke-linecap:round;stroke-linejoin:round;stroke-miterlimit:10;}
	.st9{fill:none;stroke:#000000;stroke-linecap:round;stroke-linejoin:round;stroke-miterlimit:10;}
	.st10{clip-path:url(#SVGID_2_);}
	.st11{fill:none;stroke:#FFFFFF;stroke-linecap:round;stroke-linejoin:round;stroke-miterlimit:10;}
	
		.st12{fill:none;stroke:#0066FF;stroke-width:1.5;stroke-linecap:round;stroke-linejoin:round;stroke-miterlimit:10;stroke-dasharray:1,2;}
	.st13{opacity:0.14;fill:#BBBDBF;}
</style>
<g>
	<defs>
		<polyline id="SVGID_1_" points="-72.1,-596.9 895.8,-596.9 895.8,56.3 -72.1,56.3 		"/>
	</defs>
	<clipPath id="SVGID_2_">
		<use xlink:href="#SVGID_1_"  style="overflow:visible;"/>
	</clipPath>
	<g class="st10">
		<defs>
			<rect id="SVGID_3_" x="43.6" y="-596.9" width="852.3" height="653.3"/>
		</defs>
		<clipPath id="SVGID_4_">
			<use xlink:href="#SVGID_3_"  style="overflow:visible;"/>
		</clipPath>
		<g style="clip-path:url(#SVGID_4_);">
			
				<image style="overflow:visible;" width="972" height="656" xlink:href="Screen Shot 2015-12-09 at 18.46.21.png"  transform="matrix(0.9958 0 0 0.9958 -72.114 -596.937)">
			</image>
		</g>
	</g>
</g>
<g>
	<g>
		<g>
			<path class="st0" d="M21,1.7C13-1.1,3.7,4.5,4.4,13.6c0.3,3.4,2.3,6.7,5.5,8.1c3.3,1.5,8.7,1.8,11.6-0.6c1-0.8-0.4-2.2-1.4-1.4
				c-2.4,2-7.5,1.2-9.8-0.2c-3.1-1.8-4.4-5.4-3.6-8.9c1.4-6.3,8.1-8.9,13.8-7C21.7,4,22.2,2.1,21,1.7L21,1.7z"/>
		</g>
	</g>
	<g>
		<g>
			<path class="st0" d="M2.4,14.4c3.5,0.1,7.1,0,10.6-0.1c1.3,0,1.3-2,0-2c-3.5,0.1-7.1,0.1-10.6,0.1C1.1,12.3,1.1,14.3,2.4,14.4
				L2.4,14.4z"/>
		</g>
	</g>
	<g>
		<g>
			<path class="st0" d="M1.9,11.1c3.6,0,7.1,0,10.7,0c1.3,0,1.3-2,0-2c-3.6,0-7.1,0-10.7,0C0.6,9.1,0.6,11.1,1.9,11.1L1.9,11.1z"/>
		</g>
	</g>
</g>
</svg>
