<?xml version="1.0" encoding="iso-8859-1"?>
<!-- Generator: Adobe Illustrator 16.0.0, SVG Export Plug-In . SVG Version: 6.00 Build 0)  -->
<!DOCTYPE svg PUBLIC "-//W3C//DTD SVG 1.1//EN" "http://www.w3.org/Graphics/SVG/1.1/DTD/svg11.dtd">
<svg version="1.1" id="Capa_1" xmlns="http://www.w3.org/2000/svg" xmlns:xlink="http://www.w3.org/1999/xlink" x="0px" y="0px"
	 width="184.639px" height="184.639px" viewBox="0 0 184.639 184.639" style="enable-background:new 0 0 184.639 184.639;"
	 xml:space="preserve">
<g>
	<g>
		<path d="M183.162,99.321c-1.387-29.118-2.575-57.978-1.14-87.121c0.123-2.5-3.204-3.342-4.624-1.807
			c-2.757-4.608-11.314-4.083-15.643-4.382c-17.883-1.235-35.834-1.661-53.751-2.063C88.148,3.502,68.239,3.169,48.39,4.022
			C36.098,4.551,21.728,4.366,9.954,8.484C9.117,8.777,8.618,9.495,8.421,10.28c-0.258,0.304-0.473,0.68-0.613,1.155
			c-10.83,36.754-3.763,75.914-4.579,113.643c-0.275,12.768-1.369,25.434-2.573,38.134c-0.357,3.767-2.022,11.545,1.897,14.36
			c0.29,1.012,1.079,1.84,2.361,1.737c35.909-2.883,71.643,2.642,107.572,1.735c14.845-0.375,29.645-1.205,44.5-1.209
			c6.657-0.002,14.233,1.025,20.787-0.614c0.467-0.05,0.889-0.188,1.27-0.396c0.099-0.047,0.19-0.098,0.281-0.149
			c0.005-0.002,0.01-0.006,0.014-0.009c1.282-0.745,1.818-2.049,1.768-3.358c0.01-0.256-0.021-0.509-0.058-0.761
			c0.2-0.321,0.384-0.663,0.472-1.092C186.477,149.376,184.323,123.698,183.162,99.321z M156.987,170.786
			c-14.853-0.004-29.66,0.641-44.5,1.185c-34.329,1.259-69.564-5.981-103.459,1.192c0.025-0.231,0.052-0.45,0.082-0.689
			c0.048-0.382-0.03-0.723-0.157-1.044c-0.046-0.903-0.111-1.827-0.086-2.343c0.195-4.038,0.661-8.077,1.05-12.1
			c1.027-10.615,1.567-21.25,1.871-31.91c1.066-37.419-4.977-74.971,1.581-112.109c0.006-0.033-0.006-0.058-0.001-0.09
			c28.556-3.371,58.875-0.595,87.462-0.082c17.196,0.308,34.394,0.839,51.57,1.705c5.511,0.279,11.019,0.633,16.519,1.085
			c2.46,0.202,6.87,0.613,4.696-0.817c0.825,0.543,1.787,0.519,2.614,0.154c-4.274,23.94-3.182,48.35-2.046,72.549
			c1.316,28.03,1.712,55.354,0.151,83.326C168.657,170.102,162.51,170.786,156.987,170.786z"/>
		<path d="M104.387,60.024c-16.359-11.657-35.113,7.527-39.401,22.609c-5.954,20.94,9.19,40.888,30.498,42.748
			C135.596,128.887,145.872,64.289,104.387,60.024z M102.78,66.678c14.62,1.858,21.171,13.087,20.998,24.611
			c-1.479-1.265-3.168-2.256-4.793-3.442c-3.317-2.422-6.359-5.239-9.344-8.054c-5.175-4.88-9.879-10.271-14.256-15.888
			c1.405-0.08,2.825-0.127,4.26-0.181C99.953,65.137,100.986,66.451,102.78,66.678z M71.03,92.968
			c0.503,0.77,1.052,1.494,1.462,2.131c2.676,4.164,5.807,8.083,8.901,11.941c2.848,3.551,5.812,7.014,8.894,10.367
			C79.312,114.252,71.731,104.429,71.03,92.968z M99.562,118.433c-0.419,0.023-0.821-0.007-1.234-0.001
			c-4.024-4.608-9.013-8.668-13.134-13.168c-3.316-3.621-6.568-7.304-9.697-11.087c-1.366-1.65-2.686-3.77-4.416-5.118
			c0.064-0.846,0.136-1.694,0.276-2.549c0.323-1.971,0.877-3.868,1.593-5.695c5.548,7.705,11.327,15.146,17.735,22.174
			c3.803,4.172,7.981,7.812,12.251,11.483c0.901,0.774,1.735,1.899,2.658,2.886C103.712,117.925,101.711,118.312,99.562,118.433z
			 M108.383,113.338c-0.897-0.812-1.771-1.646-2.736-2.38c-4.361-3.315-8.545-6.639-12.518-10.413
			c-7.048-6.697-13.041-14.622-19.061-22.232c1.003-1.995,2.242-3.864,3.641-5.613c3.664,9.029,10.242,16.591,16.7,23.754
			c3.731,4.139,7.686,8.08,11.633,12.012c1.295,1.291,2.557,2.869,3.992,4.123C109.408,112.569,108.752,112.809,108.383,113.338z
			 M115.536,111.379c-0.845-2.136-3.125-3.593-4.791-5.114c-3.452-3.154-6.877-6.336-10.243-9.582
			c-7.812-7.533-15.956-15.681-20.743-25.548c-0.087-0.182-0.213-0.309-0.353-0.407c0.542-0.578,1.089-1.151,1.67-1.691
			c3.536-3.287,7.442-4.431,11.543-4.901c3.864,5.874,8.102,11.457,12.71,16.788c4.492,5.194,11.006,13.54,17.949,15.412
			C122.232,101.958,119.621,107.339,115.536,111.379z"/>
		<path d="M120.201,99.637c-0.392-1.472-1.965-1.642-2.932-0.922c-0.194-0.124-0.399-0.254-0.706-0.444
			c-1.405-0.871-2.649-2.033-3.894-3.113c-3.639-3.149-6.974-6.615-10.322-10.064c-5.56-5.726-10.878-12.042-17.174-16.989
			c-1.161-0.912-2.822,0.643-1.661,1.661c8.669,7.602,16.098,17.168,23.866,25.678c2.558,2.805,5.586,6.867,9.346,8.092
			C119.354,104.394,120.798,101.868,120.201,99.637z"/>
	</g>
</g>
<g>
</g>
<g>
</g>
<g>
</g>
<g>
</g>
<g>
</g>
<g>
</g>
<g>
</g>
<g>
</g>
<g>
</g>
<g>
</g>
<g>
</g>
<g>
</g>
<g>
</g>
<g>
</g>
<g>
</g>
</svg>
