<?xml version="1.0" encoding="iso-8859-1"?>
<!-- Generator: Adobe Illustrator 16.0.0, SVG Export Plug-In . SVG Version: 6.00 Build 0)  -->
<!DOCTYPE svg PUBLIC "-//W3C//DTD SVG 1.1//EN" "http://www.w3.org/Graphics/SVG/1.1/DTD/svg11.dtd">
<svg version="1.1" id="Capa_1" xmlns="http://www.w3.org/2000/svg" xmlns:xlink="http://www.w3.org/1999/xlink" x="0px" y="0px"
	 width="473.532px" height="473.532px" viewBox="0 0 473.532 473.532" style="enable-background:new 0 0 473.532 473.532;"
	 xml:space="preserve">
<g>
	<g>
		<path d="M228.326,309.503c-6.573,1.92-11.882,6.855-15.782,14.676c-4.019,8.054-5.329,15.173-4.004,21.743
			c0.878,4.357,2.757,9.029,5.02,12.502c5.984,9.182,15.912,14.438,27.241,14.442l0,0c6.139,0,12.385-1.544,18.082-4.469
			c9.08-4.656,15.595-12.848,17.423-21.906c1.595-7.841-0.482-15.687-5.84-22.079C260.579,312.61,241.572,305.629,228.326,309.503z
			 M253.296,341.545c-0.111,1.396-1.757,3.94-6.042,6.5c-5.002,2.996-11.426,1.62-14.508-3.107
			c-1.736-2.666-1.561-7.475,0.389-10.502c0.629-0.975,1.572-1.873,4.207-1.873c1.348,0,2.925,0.238,4.809,0.736
			c3.204,0.843,6.23,2.387,8.739,4.474C252.042,338.742,253.409,340.185,253.296,341.545z"/>
		<path d="M270.978,109.304c-0.01,0-0.02,0-0.035,0c-0.563-0.147-1.158-0.256-1.772-0.335c-19.981-2.433-40.253-4.118-60.25-5.017
			l-0.67-0.015c-2.247,0-4.379,0.53-6.23,1.533c-6.015,1.452-10.057,6.444-10.171,12.73c-0.581,33.378,4.997,66.438,10.4,98.411
			c3.91,23.156,7.952,47.099,9.564,70.771c0.3,4.443,2.537,8.258,6.178,10.583c2.396,2.239,5.484,3.412,8.985,3.412h24.107
			c5.978,0,10.816-3.564,12.553-9.16c0.96-1.681,1.554-3.509,1.763-5.454c2.32-21.617,4.92-43.579,7.429-64.823
			c3.834-32.41,7.8-65.922,10.862-99.01c0.437-4.72-1.377-7.805-2.977-9.562C278.362,110.779,274.807,109.304,270.978,109.304z
			 M237.748,274.354c-1.98-20.008-5.345-40.02-8.612-59.42c-4.585-27.269-9.318-55.411-10.138-83.396
			c12.116,0.71,24.347,1.716,36.488,2.998c-2.864,29.016-6.322,58.379-9.679,86.823c-2.077,17.661-4.159,35.317-6.114,52.983h-1.945
			V274.354z"/>
		<path d="M428.426,200.123c2.884-4.103,6.266-9.47,10.395-16.478c6.825-11.585,14.421-25.829,15.95-29.889
			c0.984-2.615,0.873-5.522-0.311-8.059c-1.178-2.534-3.336-4.489-5.972-5.418c-1.97-0.693-4.087-1.467-6.307-2.28
			c-12.02-4.382-26.548-9.686-40.359-11.136c5.271-17.123,6.037-37.673,4.854-50.282c-0.264-2.813-1.66-5.397-3.869-7.157
			c-2.204-1.757-5.018-2.542-7.836-2.179c-14.675,1.925-32.936,4.654-50.541,9.199c-0.447-2.823-0.868-5.703-1.305-8.658
			c-2.057-13.939-4.18-28.36-9.588-41.921c-1.792-4.497-6.453-7.155-11.242-6.426c-16.523,2.544-30.112,13.873-42.102,23.872
			c-1.742,1.457-3.453,2.882-5.134,4.25c-6.764-10.816-13.979-21.403-21.018-31.72c-2.555-3.755-5.113-7.502-7.643-11.252
			C244.466,1.722,241.237,0,237.779,0c-3.458,0-6.693,1.722-8.625,4.588c-3.562,5.289-6.881,10.887-10.083,16.3
			c-5.294,8.939-10.291,17.384-16.262,24.481c-1.325,1.582-2.239,2.589-2.864,3.235c-1.767-0.815-4.425-2.329-5.74-3.083
			c-12.23-6.964-25.067-17.003-36.681-26.078c-4.517-3.532-11.055-2.734-14.594,1.788c-1.826,2.336-2.496,5.208-2.097,7.927
			c-0.374,3.077-2.136,11.115-5.256,23.94c-0.556,2.292-0.937,3.895-1.021,4.332c-0.562,2.928-0.96,5.735-1.331,8.361
			c-0.493,3.494-1.242,8.772-2.1,9.8c-0.01,0.005-0.863,0.49-3.557,0.49c-0.848,0-1.757-0.048-2.75-0.135
			c-9.381-0.848-19.527-3.354-29.338-5.778c-5.304-1.311-10.567-2.605-15.737-3.682c-3.43-0.706-6.982,0.355-9.458,2.828
			c-2.476,2.476-3.542,6.033-2.829,9.46c0.259,1.267,0.774,4.748,1.483,9.417c2.79,18.483,4.897,31.156,6.817,39.907
			c-17.786,2.209-40.622,9.771-48.345,12.703c-3.211,1.224-5.578,3.994-6.385,7.332c-0.8,3.344,0.137,6.911,2.445,9.453
			c3.136,3.463,21.543,29.155,28.231,40.591c-10.229,9.146-30.815,25.369-38.24,28.157c-3.801-0.764-7.878,0.614-10.374,3.91
			c-3.468,4.575-2.575,11.101,2.005,14.568c4.068,3.082,10.286,6.276,17.484,9.969c7.686,3.95,25.047,12.857,28.584,18.057
			c-3.486,8.729-20.426,35.049-26.449,40.989c-2.928,1.188-5.276,3.697-6.145,6.987c-1.462,5.556,1.856,11.243,7.409,12.705l0,0
			c4.799,1.26,11.824,1.92,19.967,2.687c8.991,0.849,26.931,2.534,32.631,5.423c0.17,10.004-5.507,40.502-8.554,47.973
			c-2.173,2.29-3.288,5.534-2.719,8.896c0.955,5.656,6.312,9.47,11.979,8.525l0,0c0.01,0,0.02,0,0.03-0.005
			c5.972-1.011,12.522-3.352,19.459-5.819c8.907-3.179,19.012-6.774,26.593-6.774c2.557,0,4.575,0.396,6.16,1.209
			c4.905,2.92,6.995,26.689,7.785,35.643c0.561,6.367,1.046,11.867,1.914,16.087c0.993,4.839,5.246,8.312,10.187,8.312
			c3.677,0,3.677,0,22.889-15.082c4.212-3.311,7.729-6.068,8.231-6.454c5.903-4.412,14.081-10.79,19.319-8.353
			c5.167,4.966,22.696,29.208,25.672,36.77c-0.198,3.687,1.579,7.368,4.954,9.439c1.696,1.036,3.572,1.534,5.423,1.534
			c3.501,0,6.919-1.768,8.879-4.972l0,0c0.005-0.01,0.01-0.021,0.016-0.03c2.447-3.997,4.783-8.942,7.256-14.173
			c6.002-12.695,14.178-29.985,24.11-30.742c6.657,2.057,30.427,15.641,36.206,21.703c0.66,3.412,3.011,6.408,6.494,7.739
			c5.363,2.062,11.375-0.63,13.432-5.987c0.422-1.102,1.533-4.012,7.216-32.768c1.452-7.333,2.56-12.939,3.382-17.281
			c2.021,0.539,4.104,1.103,6.216,1.682c13.07,3.56,27.883,7.597,41.081,7.597l0,0c2.056,0,4.057-0.102,6.007-0.3
			c5.561-0.574,9.679-5.443,9.312-11.029c-0.192-2.89-1.848-11.197-6.728-34.693c-1.209-5.804-2.575-12.385-3.605-17.493
			c3.174-0.909,6.307-1.849,9.389-2.783c13.371-4.026,26-7.83,38.923-8.216c3.483-0.102,6.688-1.939,8.526-4.9
			c1.843-2.96,2.076-6.646,0.629-9.815c-6.591-14.411-17.016-28.96-27.091-42.3c4.002-2.539,9.141-6.002,15.858-10.725
			c24.553-17.255,26.721-21.027,27.767-22.841c2.382-4.144,1.63-9.374-1.812-12.68C457.462,217.102,442.782,208.426,428.426,200.123
			z M409.921,261.1c-1.538,0.295-3.041,0.935-4.377,1.95c-4.57,3.474-5.453,10.004-1.98,14.573l0,0l0,0c0,0,0.006,0,0.006,0.011
			l2.092,2.752c7.789,10.207,16.325,21.394,23.044,32.377c-9.704,1.763-19.032,4.57-28.163,7.323
			c-6.124,1.843-11.897,3.585-17.747,5.026c-9.902,2.402-8.146,11.192-6.286,20.505c1.005,5.053,2.422,11.857,3.885,18.891
			c1.289,6.195,2.919,14.076,4.209,20.479c-8.744-1.092-18.52-3.753-28.051-6.353c-6.337-1.727-12.314-3.352-17.991-4.535
			l-2.193,10.572l-10.263-1.254c-0.36,2.936-4.286,23.455-7.449,38.963c-13.812-9.714-33.104-19.499-39.989-19.596
			c-20.774,0-32.296,19.662-40.586,36.693c-8.782-13.599-20.764-28.812-25.329-31.433c-4.144-2.387-8.647-3.59-13.373-3.59
			c-11.903,0-21.97,7.53-29.328,13.025c-0.391,0.294-4.113,3.209-8.584,6.723c-0.589,0.468-1.191,0.935-1.8,1.412
			c-1.797-19.891-4.497-41.233-18.662-48.495c-4.535-2.325-9.803-3.504-15.658-3.504c-10.496,0-21.635,3.743-31.646,7.303
			c4.047-17.58,8.369-43.488,2.633-51.064c-7.249-9.587-23.999-12.024-46.897-14.208c9.493-13.355,24.194-36.049,22.759-45.098
			c-2.237-14.106-19.608-23.699-37.231-32.778c17.43-11.57,36.259-29.475,36.508-29.744c6.782-7.203,2.387-15.069-12.974-37.549
			c-3.166-4.639-6.931-9.974-10.367-14.722c12.162-3.702,27.449-7.477,36.465-7.477c1.945,0,2.907,0.188,3.229,0.272
			c5.591,1.404,11.223-1.986,12.622-7.557c0.874-3.488-0.127-7.015-2.372-9.506c-2.32-6.292-5.898-28.718-7.805-41.188
			c0.066,0.016,0.129,0.031,0.195,0.054c10.572,2.61,21.503,5.314,32.464,6.297c1.658,0.149,3.194,0.218,4.618,0.218
			c22.259,0,24.661-16.953,26.248-28.167c0.328-2.321,0.67-4.786,1.15-7.27c0.104-0.47,0.403-1.711,0.82-3.428
			c1.062-4.347,1.988-8.152,2.773-11.496c8.163,6.139,16.742,12.177,25.349,17.082c6.675,3.801,11.461,6.297,16.899,6.297
			c8.554,0,13.749-6.172,17.917-11.128c7.079-8.409,12.756-17.997,18.248-27.274c0.398-0.675,0.8-1.351,1.195-2.023
			c8.582,12.586,17.367,25.558,25.009,38.585c1.447,2.48,3.859,4.243,6.658,4.877c2.808,0.64,5.743,0.086,8.124-1.518
			c5.297-3.573,10.512-7.922,15.564-12.132c7.738-6.459,15.686-13.083,23.704-16.729c2.463,8.856,3.864,18.352,5.321,28.257
			c1.006,6.87,2.057,13.977,3.499,20.898c0.6,2.876,2.387,5.359,4.92,6.848c2.539,1.487,5.586,1.835,8.379,0.947
			c15.234-4.789,32.672-7.939,47.053-10.072c-0.132,15.724-3.285,33.585-9.572,42.71c-2.478,3.6-2.442,8.369,0.092,11.933
			c2.544,3.562,7.033,5.165,11.248,3.989c1.884-0.521,4.128-0.785,6.677-0.785c10.689,0,24.101,4.441,35.724,8.628
			c-6.484,12.093-17.539,31.09-22.403,36.559c-2.28,0.78-4.296,2.352-5.606,4.593c-2.879,4.928-1.249,11.255,3.656,14.178
			c3.255,1.945,6.611,3.884,10.014,5.85c10.349,5.986,20.957,12.121,30.066,19.077C435.261,244.627,415.924,258.038,409.921,261.1z"
			/>
	</g>
</g>
<g>
</g>
<g>
</g>
<g>
</g>
<g>
</g>
<g>
</g>
<g>
</g>
<g>
</g>
<g>
</g>
<g>
</g>
<g>
</g>
<g>
</g>
<g>
</g>
<g>
</g>
<g>
</g>
<g>
</g>
</svg>
