<?xml version="1.0" encoding="utf-8"?>
<!-- Generator: Adobe Illustrator 19.1.0, SVG Export Plug-In . SVG Version: 6.00 Build 0)  -->
<svg version="1.1" id="Layer_1" xmlns="http://www.w3.org/2000/svg" xmlns:xlink="http://www.w3.org/1999/xlink" x="0px" y="0px"
	 viewBox="0 0 23.5 23.5" style="enable-background:new 0 0 23.5 23.5;" xml:space="preserve">
<style type="text/css">
	.st0{fill:#0066FF;}
	.st1{fill:#0066FF;stroke:#0066FF;stroke-miterlimit:10;}
	.st2{fill:none;stroke:#0066FF;stroke-width:2;stroke-miterlimit:10;}
	.st3{fill:#438BCA;}
	.st4{fill:#D9EDF7;}
	.st5{fill:#FFFFFF;}
	.st6{fill:none;stroke:#BE1E2D;stroke-width:0.5;stroke-miterlimit:10;}
	.st7{fill:#F6921E;}
	.st8{fill:none;stroke:#F6921E;stroke-linecap:round;stroke-linejoin:round;stroke-miterlimit:10;}
	.st9{fill:none;stroke:#000000;stroke-linecap:round;stroke-linejoin:round;stroke-miterlimit:10;}
	.st10{clip-path:url(#SVGID_2_);}
	.st11{fill:none;stroke:#FFFFFF;stroke-linecap:round;stroke-linejoin:round;stroke-miterlimit:10;}
	
		.st12{fill:none;stroke:#0066FF;stroke-width:1.5;stroke-linecap:round;stroke-linejoin:round;stroke-miterlimit:10;stroke-dasharray:1,2;}
	.st13{opacity:0.14;fill:#BBBDBF;}
</style>
<g>
	<defs>
		<polyline id="SVGID_1_" points="-72.1,-439.7 895.8,-439.7 895.8,213.6 -72.1,213.6 		"/>
	</defs>
	<clipPath id="SVGID_2_">
		<use xlink:href="#SVGID_1_"  style="overflow:visible;"/>
	</clipPath>
	<g class="st10">
		<defs>
			<rect id="SVGID_3_" x="43.6" y="-439.7" width="852.3" height="653.3"/>
		</defs>
		<clipPath id="SVGID_4_">
			<use xlink:href="#SVGID_3_"  style="overflow:visible;"/>
		</clipPath>
		<g style="clip-path:url(#SVGID_4_);">
			
				<image style="overflow:visible;" width="972" height="656" xlink:href="Screen Shot 2015-12-09 at 18.46.21.png"  transform="matrix(0.9958 0 0 0.9958 -72.114 -439.687)">
			</image>
		</g>
	</g>
</g>
<g>
	<g>
		<g>
			<path class="st0" d="M11,1.1C7,5.5,2.2,11.2,0.5,17C-1,21.9,8,21.9,11,22c2.6,0.2,11.4,1,12.1-2.8c0.3-1.8-1.4-4.7-2.1-6.3
				c-1.4-3.3-3.3-6.4-5.4-9.3c-0.8-1-2.5,0-1.7,1c2.4,3.2,4.4,6.6,5.9,10.3c0.4,1.1,1.7,3.3,1,4.3c-0.7,1.1-6.9,0.8-8.2,0.8
				c-2.2,0-5.4,0.1-7.4-0.9c-3-1.6-1.9-3.6-0.6-5.9c2.2-3.9,4.8-7.4,7.8-10.7C13.3,1.6,11.9,0.2,11,1.1L11,1.1z"/>
		</g>
	</g>
	<g>
		<g>
			<path class="st0" d="M10.8,7c0,2,0,4.1,0,6.1c0,1.3,2,1.3,2,0c0-2,0-4.1,0-6.1C12.8,5.7,10.8,5.7,10.8,7L10.8,7z"/>
		</g>
	</g>
	<g>
		<g>
			<path class="st0" d="M12.8,15.8c-0.1-0.1-0.1-0.1-0.2-0.2c-0.4-0.4-1-0.4-1.4,0c-0.6,0.6-1,1.4-0.7,2.3c0.3,0.8,1.1,1.2,1.9,1
				c0.8-0.3,1.3-1.2,0.8-2c-0.4-0.7-1.6-0.9-2.2-0.3c-0.9,1,0.5,2.4,1.4,1.4c0,0,0,0-0.1,0c-0.2,0-0.3,0.1-0.5,0.1
				c-0.1-0.1-0.3-0.1-0.4-0.2c0-0.2-0.1-0.3-0.1-0.5c0.3-0.6,0.6-0.7,1-0.2c0,0,0,0,0,0c0,0.1,0,0.1,0.1-0.1c0.1,0,0.1-0.1,0.2-0.1
				c-0.5,0-0.9,0-1.4,0c0.1,0.1,0.1,0.1,0.2,0.2C12.4,18.1,13.8,16.7,12.8,15.8L12.8,15.8z"/>
		</g>
	</g>
	<g>
		<g>
			<path class="st0" d="M11.3,16.9c0.2,0.2,0.3,0.3,0.3,0.6c0.6-0.1,1.2-0.2,1.8-0.2c-0.1-0.2-0.1-0.2-0.2-0.4
				c-0.4-1.2-2.3-0.7-1.9,0.5c0.1,0.3,0.2,0.6,0.4,0.9c0.4,0.7,1.6,0.6,1.8-0.2c0.2-0.9,0-1.9-0.8-2.5c-0.4-0.3-1-0.4-1.4,0
				C10.9,15.8,10.8,16.6,11.3,16.9L11.3,16.9z"/>
		</g>
	</g>
</g>
</svg>
