<?xml version="1.0" encoding="iso-8859-1"?>
<!-- Generator: Adobe Illustrator 16.0.0, SVG Export Plug-In . SVG Version: 6.00 Build 0)  -->
<!DOCTYPE svg PUBLIC "-//W3C//DTD SVG 1.1//EN" "http://www.w3.org/Graphics/SVG/1.1/DTD/svg11.dtd">
<svg version="1.1" id="Capa_1" xmlns="http://www.w3.org/2000/svg" xmlns:xlink="http://www.w3.org/1999/xlink" x="0px" y="0px"
	 width="193.386px" height="193.385px" viewBox="0 0 193.386 193.385" style="enable-background:new 0 0 193.386 193.385;"
	 xml:space="preserve">
<g>
	<path d="M189.821,42.842c-0.899-2.952-3.851-5.523-6.096-7.534c-5.42-4.858-11.496-9.265-15.787-15.227
		c-1.386-1.924-3.513-2.193-5.168-1.479c-14.202-5.732-36.111,20.801-44.088,28.695c-18.06,17.871-34.113,38.197-52.745,55.469
		c-0.837-0.934-1.8-1.795-2.541-2.584c-2.032-2.168-4.056-4.346-6.169-6.437c-3.595-3.557-7.727-8.3-12.672-9.924
		c-1.228-0.403-2.23-0.059-2.903,0.641c-0.095-0.413-0.222-0.826-0.424-1.228c-0.592-1.179-1.429-1.608-2.632-2.024
		c-1.433-0.495-3.264,0.057-4.286,1.133c-9.328,9.805-22.262,16.093-30.147,27.288c-0.279,0.396-0.44,0.791-0.529,1.176
		c-0.537-0.281-0.99-0.422-1.247-0.249c-0.252,0.17-0.505,0.34-0.757,0.51c-1.201,0.811-1.942,2.224-1.501,3.688
		c3.857,12.797,16.994,24.149,25.965,33.373c8.936,9.188,19.996,22.67,32.466,27.177c1.71,0.618,3.1,0.159,4.034-0.804
		c1.269,0.514,2.809,0.441,4.161-0.666c44.947-36.822,88.35-78.613,125.521-123.293C194.786,47.528,192.636,43.583,189.821,42.842z
		 M62.076,167.488c-0.347-0.252-0.727-0.479-1.184-0.644c-5.4-1.943-10.28-7.426-14.439-11.166
		c-6.794-6.11-13.231-12.624-19.524-19.246c-1.632-1.716-12.074-15.077-18.893-21.925c0.532-0.119,1.051-0.321,1.505-0.726
		c0.383-0.34,0.785-0.658,1.174-0.992c7.106,9.418,15.847,17.615,24.434,25.637c9.203,8.596,19.285,19.485,30.201,25.88
		C64.263,165.373,63.16,166.418,62.076,167.488z M68.605,161.142c-6.901-9.37-18.049-16.621-26.729-24.301
		c-9.697-8.582-19.09-17.363-28.125-26.602c2.41-1.939,4.893-3.808,7.387-5.663c9.483,10.577,18.289,21.803,27.413,32.686
		c3.987,4.757,15.086,22.021,23.018,19.879c1.555-0.42,1.648-2.396,0.422-3.228c-8.796-5.968-16.214-15.822-23.399-23.546
		c-8.447-9.076-16.328-18.808-25.28-27.404c1.383-1.027,2.764-2.059,4.134-3.099c7.657,9.224,16.444,17.709,24.821,26.246
		c7.35,7.491,14.548,17.06,23.289,22.905c2.017,1.349,4.692-1.327,3.343-3.344c-5.846-8.741-15.414-15.939-22.905-23.289
		c-7.562-7.42-15.096-15.147-23.122-22.148c0.167-0.12,0.234-0.384,0.003-0.526c-0.534-0.332-1.406-0.849-2.257-1.401
		c-0.187-0.158-0.372-0.322-0.559-0.479c2.6-2.036,5.092-4.185,7.496-6.423c5.857,10.643,13.986,20.206,21.896,29.295
		c7.114,8.175,15.709,18.827,25.405,24.831C79.417,150.703,73.992,155.896,68.605,161.142z M89.077,141.531
		c-7.418-7.637-16.367-14.213-23.875-21.791c-9.353-9.438-17.834-19.622-25.18-30.676c0.166-0.169,0.352-0.318,0.517-0.49
		s0.255-0.371,0.388-0.556c0.128,0.375,0.304,0.736,0.572,1.054c3.268,3.874,6.903,7.466,10.308,11.224
		c1.817,2.006,3.683,3.97,5.516,5.962c1.503,1.632,3.006,3.863,5.222,4.496c1.603,0.457,3.078-0.1,4.053-1.149
		c0.077-0.04,0.154-0.041,0.231-0.09c0.013-0.008,0.023-0.019,0.036-0.025c3.783,4.1,7.854,7.945,11.828,11.85
		c5.116,5.026,9.971,10.79,15.548,15.316C92.518,138.28,90.796,139.902,89.077,141.531z M97.898,133.194
		c-4.125-4.978-9.61-9.111-14.438-13.374c-4.612-4.074-9.135-8.266-13.76-12.331c2.907-2.032,5.689-4.261,8.423-6.564
		c5.265,4.9,10.33,10.009,15.462,15.047c3,2.945,7.137,8.331,11.458,10.477C102.661,128.698,100.28,130.946,97.898,133.194z
		 M108.533,123.155c-1.049-1.126-2.33-1.87-3.734-2.957c-2.89-2.233-5.572-4.711-8.24-7.199c-5.196-4.849-10.245-9.838-15.658-14.44
		c2.479-2.201,4.883-4.521,7.259-6.882c3.355,5.615,8.517,10.27,13.253,14.734c2.477,2.335,8.641,9.639,13.294,10.895
		C112.649,119.255,110.595,121.208,108.533,123.155z M118.004,114.18c-0.794-1.637-2.82-2.581-4.254-3.596
		c-3.196-2.265-6.22-4.776-9.22-7.291c-5.048-4.234-10.041-8.652-14.908-13.075c1.625-1.647,3.229-3.329,4.821-5.028
		c6.344,4.164,11.785,9.405,17.079,14.824c3.226,3.302,6.636,7.307,10.54,10.264C120.705,111.575,119.363,112.887,118.004,114.18z
		 M125.906,106.584c-4.249-3.685-8.963-7.04-13.083-10.823c-5.139-4.717-10.281-9.277-16.209-12.917
		c2.395-2.6,4.761-5.243,7.12-7.898c0.078,0.194,0.194,0.381,0.391,0.544c5.123,4.243,10.33,8.365,15.36,12.722
		c4.37,3.785,8.579,8.423,13.559,11.436C130.664,101.959,128.3,104.287,125.906,106.584z M136.044,96.734
		c-3.747-4.503-8.893-8.01-13.47-11.61c-5.361-4.216-10.783-8.449-16.567-12.071c-0.146-0.092-0.298-0.131-0.446-0.164
		c1.82-2.055,3.639-4.112,5.464-6.16c-0.244,0.512-0.235,1.129,0.273,1.591c5.411,4.901,10.883,9.649,16.07,14.799
		c3.603,3.575,7.125,7.828,11.121,11.199C137.672,95.119,136.865,95.934,136.044,96.734z M141.902,90.942
		c-4.119-4.284-9.12-8.135-13.35-12.096c-4.874-4.564-9.853-9.203-15.483-12.825c-0.492-0.317-1.005-0.252-1.417,0
		c2.293-2.571,4.608-5.106,6.94-7.616c3.196,5.953,8.249,11.098,13.056,15.573c3.688,3.433,10.551,10.514,16.377,10.838
		C145.986,86.86,143.955,88.913,141.902,90.942z M150.811,82.03c-0.068-0.14-0.106-0.296-0.2-0.417
		c-1.515-1.955-4.049-2.789-6.133-4.014c-3.385-1.99-6.5-4.431-9.507-6.942c-5.217-4.357-10.016-9.391-13.618-15.181
		c1.223-1.282,2.461-2.539,3.703-3.789c5.145,5.44,10.474,10.703,15.761,16.004c3.843,3.854,7.644,8.764,12.066,12.221
		C152.19,80.615,151.507,81.328,150.811,82.03z M156.165,76.557c-3.565-4.316-8.746-7.861-12.808-11.407
		c-5.65-4.931-11.228-9.932-16.734-15.022c1.988-1.959,4.02-3.85,6.078-5.698c7.095,5.849,13.165,12.927,19.54,19.522
		c2.262,2.34,5.112,5.855,8.373,7.934C159.124,73.435,157.665,75.019,156.165,76.557z M164.16,68.162
		c-4.505-2.782-8.617-7.557-12.131-10.931c-5.405-5.191-10.667-10.706-16.847-14.993c2.565-2.202,5.229-4.253,7.944-6.222
		c4.599,5.464,9.43,10.773,14.362,15.92c3.062,3.196,7.256,8.659,11.754,10.787C167.55,64.535,165.867,66.363,164.16,68.162z
		 M160.617,48.806c-5.101-4.751-9.989-9.769-15.226-14.377c1.798-1.234,3.645-2.393,5.517-3.512c0.171,0.27,3.927,4.513,4.158,4.737
		c2.906,2.817,5.683,5.771,8.475,8.699c2.918,3.059,5.877,6.082,8.866,9.07c0.854,0.853,1.768,1.918,2.778,2.824
		c-0.847,0.93-1.67,1.888-2.522,2.813C169.554,55.189,164.146,52.09,160.617,48.806z M179.053,51.936
		c-1.521-1.437-3.437-2.705-4.659-3.808c-3.853-3.474-7.628-7.029-11.485-10.497c-1.454-1.308-6.323-6.767-9.942-7.93
		c2.816-1.585,5.725-3.027,8.761-4.27c2.906,4.687,7.144,8.543,11.245,12.146c2.296,2.017,4.626,3.994,6.834,6.11
		c0.706,0.676,1.437,1.388,2.002,2.187c0.523,0.741,1.473,2.56,1.173,0.989c0.035,0.184,0.121,0.325,0.183,0.489
		C181.817,48.907,180.419,50.404,179.053,51.936z"/>
</g>
<g>
</g>
<g>
</g>
<g>
</g>
<g>
</g>
<g>
</g>
<g>
</g>
<g>
</g>
<g>
</g>
<g>
</g>
<g>
</g>
<g>
</g>
<g>
</g>
<g>
</g>
<g>
</g>
<g>
</g>
</svg>
