<?xml version="1.0" encoding="iso-8859-1"?>
<!-- Generator: Adobe Illustrator 16.0.0, SVG Export Plug-In . SVG Version: 6.00 Build 0)  -->
<!DOCTYPE svg PUBLIC "-//W3C//DTD SVG 1.1//EN" "http://www.w3.org/Graphics/SVG/1.1/DTD/svg11.dtd">
<svg version="1.1" id="Capa_1" xmlns="http://www.w3.org/2000/svg" xmlns:xlink="http://www.w3.org/1999/xlink" x="0px" y="0px"
	 width="184.347px" height="184.347px" viewBox="0 0 184.347 184.347" style="enable-background:new 0 0 184.347 184.347;"
	 xml:space="preserve">
<g>
	<g>
		<path d="M161.884,96.97c-8.263-9.382-18.898-17.122-27.656-26.208c-10.811-11.216-20.898-23.139-30.992-34.995
			c-1.715-2.015-4.506-1.387-6.299,0c-16.07,12.429-32.124,24.94-47.156,38.623c-6.564,5.975-26.104,20.852-23.486,31.465
			c0.019,0.076,0.07,0.137,0.103,0.206c-2.33,8.028,1.59,17.691,3.185,25.651c1.053,5.256,2.119,10.504,3.166,15.755
			c-1.004-0.652-2.634,0.443-1.781,1.56c0.888,1.162,1.824,2.285,2.763,3.405c1.649,8.482,3.178,16.987,4.321,25.57
			c0.314,2.362,1.732,4.3,4.329,4.329c6.233,0.072,14.607,1.49,22.492,1.654c0.834,0.521,1.678,0.438,2.285,0.007
			c5.249-0.07,10.162-0.824,13.919-3.073c1.61-0.965,1.978-2.961,1.262-4.45c3.519-18.554,2.976-37.528,2.806-56.35l18.592,0.016
			c2.12,17.229,1.144,34.65,2.417,51.948c0.123,1.666,1.001,2.825,2.149,3.483c0.254,1.396,1.111,2.708,2.588,3.217
			c11.586,4.002,24.727,0.791,36.543-0.748c1.997-0.261,3.753-1.176,4.313-3.284c6.022-22.669,9.442-49.159,10.167-72.635
			C162.969,100.687,163.143,98.399,161.884,96.97z M45,90.885c5.239,6.19,10.724,12.109,16.436,17.869
			c4.605,4.643,9.501,10.255,15.237,13.674c0.03,2.317,0.052,4.64,0.085,6.956c-12.215-10.989-26.492-19.396-37.455-31.746
			C41.284,95.367,43.184,93.02,45,90.885z M46.07,173.64c-0.46-3.172-0.965-6.337-1.504-9.495c0.464,0.472,0.926,0.947,1.39,1.419
			c2.485,2.524,4.968,5.195,7.491,7.834C50.928,173.496,48.451,173.594,46.07,173.64z M59.957,173.188
			c-3.186-2.908-6.516-5.694-9.577-8.547c-2.358-2.197-4.65-4.457-6.945-6.715c-0.987-5.305-2.094-10.586-3.256-15.856
			c2.672,3.444,5.473,6.808,8.398,10.151c5.932,6.779,12.276,14.764,19.449,20.979C65.371,173.11,62.666,173.122,59.957,173.188z
			 M76.55,173.282c-12.105-12.666-25.931-23.896-37.674-37.003c-0.158-0.676-0.295-1.356-0.456-2.031
			c-1.204-5.064-2.084-11.397-3.78-17.219c5.602,6.671,11.55,13.067,17.386,19.517c6.909,7.637,14.416,18.763,23.318,24.051
			c0.525,0.312,1.07,0.335,1.565,0.194C76.843,164.95,76.751,169.111,76.55,173.282z M56.788,136.204
			c-8.605-8.416-16.753-17.214-24.847-26.104c-0.728-1.407-1.522-2.751-2.483-3.919c2.645-1.261,5.236-3.554,7.733-6.196
			c10.464,14.149,26.523,23.129,39.022,35.31c0.198,0.193,0.412,0.294,0.624,0.402c0.093,6.711,0.165,13.415,0.126,20.124
			C71.822,148.502,63.027,142.306,56.788,136.204z M76.592,115.858c0.001,0.193,0.006,0.385,0.007,0.578
			c-4.061-3.544-8.653-6.679-12.621-10.225c-6.066-5.418-11.652-11.433-17.175-17.401c0.744-0.822,1.471-1.585,2.176-2.249
			c0.572-0.539,1.171-1.049,1.747-1.582c5.668,6.788,12.08,12.926,18.588,18.901c2.686,2.468,5.765,5.803,9.06,8.623
			C77.322,113.284,76.584,114.473,76.592,115.858z M84.362,111.597c-0.874-0.603-1.765-1.185-2.632-1.797
			c-4.076-2.889-7.784-6.441-11.487-9.783c-6.009-5.422-11.756-11.15-17.258-17.085c2.169-1.976,4.382-3.905,6.596-5.833
			c5.535,7.381,11.931,14.195,18.481,20.649c4.021,3.963,9.301,10.008,14.903,13.842C90.097,111.593,87.229,111.595,84.362,111.597z
			 M101.549,111.582c-0.024-0.027-0.033-0.06-0.059-0.088c-5.707-6.236-14.356-10.723-20.81-16.367
			c-6.939-6.069-13.402-12.555-19.567-19.385c1.556-1.343,3.162-2.628,4.736-3.953c10.672,14.343,23.605,27.441,37.318,39.791
			L101.549,111.582z M143.957,169.147c-0.472,2.148-6.997,2.827-14.099,2.887c-0.315-0.204-0.632-0.41-0.934-0.631
			c-1.944-1.421-3.707-3.136-5.432-4.81c-0.815-0.791-6.764-6.692-6.408-7.404c0.401-0.806-0.662-1.771-1.312-1.013
			c-2.041,2.381,2.038,6.783,3.354,8.439c1.515,1.909,3.197,3.673,4.967,5.345c-3.619-0.109-7.006-0.319-9.391-0.519
			c-0.549-9.845-0.629-19.709-0.962-29.555c3.177,3.612,6.707,6.931,10.289,10.137c3.282,2.938,6.562,5.864,9.714,8.944
			c2.831,2.765,4.973,6.109,8.447,8.055c0.62,0.348,1.334,0.201,1.827-0.202C143.994,168.93,143.98,169.039,143.957,169.147z
			 M146.965,151.435c-0.456-0.29-0.913-0.572-1.338-0.86c-3.938-2.672-7.886-5.332-11.801-8.039
			c-4.271-2.956-8.539-5.949-12.624-9.161c-1.475-1.158-4.588-3.042-5.454-4.704c-0.521-0.995-2.243-0.296-1.833,0.772
			c2.304,5.993,9.111,10.051,14.05,13.854c4.013,3.092,8.104,6.081,12.191,9.071c1.688,1.234,3.804,3.358,6.016,4.478
			c-0.53,3.352-1.109,6.696-1.788,10.023c-2.338-6.841-10.455-11.89-15.858-16.259c-5.314-4.297-10.353-8.628-14.976-13.529
			c-0.26-5.856-0.645-11.707-1.331-17.538c11.645,10.043,23.587,19.657,34.962,29.12c0.056,0.047,0.118,0.058,0.175,0.099
			C147.238,149.654,147.091,150.541,146.965,151.435z M148.6,139.217c-0.151,1.173-0.302,2.346-0.452,3.519
			c-25.45-25.706-55.614-45.865-80.251-72.654c2.002-1.668,4.058-3.26,6.074-4.91c20.37,26.251,51.32,43.464,75.498,66.022
			C149.185,133.978,148.924,136.696,148.6,139.217z M150.107,125.485c-9.715-10.894-21.87-19.524-33.565-28.14
			c-7.71-5.681-15.41-11.35-22.828-17.412c-3.795-3.102-7.339-6.472-10.86-9.873c-1.309-1.265-9.793-6.674-3.576-5.651
			c0.449,0.074,0.617-0.52,0.188-0.68c-0.763-0.383-1.526-0.767-2.289-1.151c3.756-3.045,7.48-6.137,11.277-9.116
			c7.192-5.642,8.674-11.16,14.554-4.206c6.869,8.124,13.872,16.126,21.029,23.997c9.473,10.416,20.311,23.9,33.572,29.559
			c-1.984,2.581-3.424,5.572-4.526,8.771c-9.15-9.271-20.541-17.425-29.833-25.914c-7.008-6.403-13.931-12.896-20.904-19.335
			c-3.781-3.492-7.506-8.416-12.496-10.09c-0.313-0.105-0.655,0.234-0.548,0.548c3.716,10.935,19.747,21.768,27.813,29.643
			c10.399,10.153,21.552,23.873,34.033,32.473C150.722,121.08,150.385,123.286,150.107,125.485z"/>
		<path d="M164.191,69.187c0.396-0.594,0.7-1.277,0.738-2.158c0.079-1.85,0.236-3.742,0.423-5.653
			c1.384-0.167,2.457-1.795,1.152-3.059c-0.244-0.236-0.499-0.472-0.745-0.708c1.999-16.768,6.023-35.125-2.572-50.026
			c-6.903-11.967-25.412-6.556-36.054-5.091c-1.684,0.232-3.02,2.271-2.946,3.87c0.386,8.555,0.344,17.079,0.069,25.619
			c-8.483-8.112-16.95-16.242-25.278-24.51c-1.986-1.971-4.636-1.587-6.66,0c-34.128,26.751-66.589,57.56-91.31,93.375
			c-2.172,3.146,2.756,6.914,5.277,4.071c27.827-31.366,56.31-61.591,89.07-87.837c13.664,13.45,27.652,26.58,41.423,39.919
			c9.103,8.816,18.158,17.681,27.05,26.709c3.308,3.357,11.654,10.647,12.97,13.3c1.558,3.144,5.719,1.828,6.752-0.883
			C185.995,89.707,174.317,78.11,164.191,69.187z M157.959,16.655c0.617,1.852,1.027,3.741,1.354,5.643
			c-1.495-1.086-3.007-2.142-4.37-3.241c-4.227-3.41-8.363-6.944-12.36-10.621C149.338,8.07,155.546,9.423,157.959,16.655z
			 M156.767,62.805c-2.356-1.995-4.247-3.6-5.288-4.62c-7.192-7.041-14.467-13.999-21.744-20.955
			c0.333-1.895,0.585-3.796,0.821-5.698c9.527,7.47,17.94,16.062,26.956,24.015C157.203,57.987,156.933,60.412,156.767,62.805z
			 M158.182,50.547c-8.58-7.738-17.849-15.173-27.351-21.354c0.242-2.279,0.391-4.567,0.55-6.854
			c4.051,5.161,8.896,9.82,13.463,14.356c3.82,3.793,8.395,9.492,13.6,11.97C158.356,49.292,158.27,49.92,158.182,50.547z
			 M132.972,11.119c1.802,5.69,7.612,10.139,11.762,14.119c3.452,3.309,7.003,6.517,10.58,9.69c1.249,1.108,2.718,2.74,4.31,4.012
			c-0.162,1.707-0.349,3.417-0.566,5.128c-9.468-8.208-19.957-16.097-27.369-26.259c0.142-2.662,0.27-5.325,0.38-7.995
			c2.668-0.432,5.527-0.928,8.352-1.212c-0.333,0.476-0.402,1.13,0.126,1.693c3.741,3.981,7.729,7.716,11.772,11.387
			c2.368,2.151,4.872,4.861,7.665,6.797c0.059,1.443,0.069,2.894,0.029,4.352c-0.143-0.11-0.296-0.217-0.435-0.328
			c-3.307-2.674-6.562-5.412-9.786-8.186c-4.51-3.881-11.8-8.753-14.646-14.114C134.512,9.014,132.565,9.834,132.972,11.119z"/>
	</g>
</g>
<g>
</g>
<g>
</g>
<g>
</g>
<g>
</g>
<g>
</g>
<g>
</g>
<g>
</g>
<g>
</g>
<g>
</g>
<g>
</g>
<g>
</g>
<g>
</g>
<g>
</g>
<g>
</g>
<g>
</g>
</svg>
