<?xml version="1.0" encoding="iso-8859-1"?>
<!-- Generator: Adobe Illustrator 16.0.0, SVG Export Plug-In . SVG Version: 6.00 Build 0)  -->
<!DOCTYPE svg PUBLIC "-//W3C//DTD SVG 1.1//EN" "http://www.w3.org/Graphics/SVG/1.1/DTD/svg11.dtd">
<svg version="1.1" id="Capa_1" xmlns="http://www.w3.org/2000/svg" xmlns:xlink="http://www.w3.org/1999/xlink" x="0px" y="0px"
	 width="191.84px" height="191.84px" viewBox="0 0 191.84 191.84" style="enable-background:new 0 0 191.84 191.84;"
	 xml:space="preserve">
<g>
	<path d="M188.422,150.809c2.519-1.061,4.254-4.351,2.438-6.783c-6.252-8.37-16.214-14.836-23.733-22.221
		c-8.531-8.376-16.742-17.13-25.534-25.235c-0.003-0.007-0.01-0.012-0.014-0.02c1.065,0.173,2.176-0.117,3.073-1.274
		c6.913-8.91,13.281-18.175,20.578-26.797c6.749-7.975,15.473-14.477,21.546-22.903c1.858-2.581,0.599-5.259-1.59-6.669
		c1.16-2.037,1.211-4.683-0.907-6.94c-4.124-4.391-8.637-8.41-12.825-12.742c-4.714-4.876-8.628-10.277-12.874-15.533
		c-2.285-2.828-5.434-1.521-6.887,0.936c-9.809-2.867-22.361,12.94-27.776,18.888c-7.023,7.714-15.709,17.255-20.812,27.32
		c-0.283-0.16-0.554-0.339-0.839-0.497c-2.111-1.169-3.912,1.939-1.882,3.221c0.392,0.247,0.759,0.524,1.147,0.775
		c-0.149,0.358-0.338,0.713-0.477,1.072c-1.774-1.557-3.758-2.97-5.473-4.459c-6.317-5.485-12.565-11.05-18.855-16.566
		c-6.179-5.419-12.401-10.79-18.59-16.196c-2.398-2.094-8.777-5.783-10.634-8.9c-0.001-2.542-1.678-5.018-4.651-4.864
		c-8.284,0.43-16.705,9.208-22.571,14.625C14.505,24.38,9.265,30.434,5.462,37.328C4.549,37.093,3.683,37,2.899,37.123
		c-1.271-0.01-2.465,0.679-2.8,2.377c-1.344,6.834,11.377,15.336,15.754,19.125c15.204,13.165,32.33,23.448,45.118,39.248
		c-0.326,0.138-0.651,0.297-0.972,0.51c-8.088,5.367-15.256,12.696-22.432,19.178c-8.338,7.529-17.04,15.317-24.034,24.147
		c-0.461,0.582-0.767,1.191-0.98,1.807c-1.876,0.75-2.919,3.257-1.18,5.133c10.641,11.482,23.565,20.738,33.886,32.478
		c1.188,1.351,2.47,2.353,3.764,3.143c-0.271,4.08,5.42,7.607,8.654,3.951c14.403-16.279,29.81-30.922,46.229-45.107
		c0.057,0.083,0.071,0.183,0.134,0.264c8.363,10.751,21.446,18.958,32.173,27.148c5.591,4.269,18.775,18.55,26.948,15.9
		c1.79-0.581,3.059-2.108,3.071-4.034c0-0.048-0.016-0.094-0.016-0.141c1.136,0.466,2.46,0.444,3.748-0.398
		c4.623-3.028,8.194-7.938,11.926-11.953c3.337-3.589,10.571-9.046,9.906-14.496C191.51,153.053,190.364,151.521,188.422,150.809z
		 M153.44,13.536c5.567,10.002,14.295,19.33,22.36,26.911c0.106,0.1,0.218,0.162,0.326,0.252c-1.84,1.311-3.551,2.845-5.211,4.455
		c-3.887-4.208-8.496-7.851-12.785-11.588c-4.806-4.189-9.58-8.409-14.299-12.694c0.275-0.242,0.533-0.505,0.81-0.745
		C147.482,17.676,151.057,16.207,153.44,13.536z M140.029,24.364c3.967,3.947,8.004,7.821,12.099,11.642
		c4.807,4.484,9.391,9.475,14.431,13.752c-1.302,1.502-2.576,3.03-3.803,4.576c-4.481-3.732-9.987-6.73-14.398-10.34
		c-5.106-4.179-9.787-8.848-14.163-13.782C136.093,28.215,138.041,26.269,140.029,24.364z M130.642,33.955
		c0.17-0.191,0.356-0.367,0.528-0.556c4.727,5.617,9.848,10.833,15.4,15.662c3.705,3.223,7.983,7.281,12.604,9.829
		c-0.51,0.66-1.04,1.346-1.542,1.988c-1.536,1.966-3.002,4.013-4.486,6.041c-3.69-3.276-8.042-5.902-12.103-8.649
		c-6.514-4.405-12.94-8.829-18.89-13.934C124.886,40.789,127.666,37.28,130.642,33.955z M119.289,48.06
		c4.028,3.618,8.214,7.026,12.605,10.237c5.787,4.23,11.69,9.367,17.938,13.22c-1.956,2.824-3.877,5.679-5.675,8.604
		c-5.357-4.966-12.248-9.025-17.937-13.429c-4.472-3.462-8.999-6.816-13.665-9.968C114.848,53.888,117.068,50.975,119.289,48.06z
		 M105.697,63.859c0.616-0.204,1.214-0.513,1.728-1.078c0.791-0.867,1.517-1.802,2.282-2.695
		c5.121,3.853,10.059,7.948,14.959,12.095c5.005,4.235,10.424,10.025,16.608,12.837c-1.005,1.783-2.024,3.561-2.941,5.381
		c-0.705,1.4-0.435,2.92,0.316,4.116c-0.248-0.033-0.511,0.004-0.767,0.008c-9.941-10.528-21.062-20.121-32.655-29.238
		C105.472,64.854,105.646,64.38,105.697,63.859z M55.683,173.86c-0.597,0.083-1.158,0.28-1.668,0.592
		c-0.828-0.869-1.669-1.728-2.476-2.615c-3.192-3.513-6.763-6.33-10.595-9.105c-6.272-4.541-12.148-9.975-18.521-14.521
		c1.338-1.386,2.765-2.681,4.136-4.034c4.179,4.086,8.516,8.008,13.074,11.675c4.876,3.924,12.355,11.377,18.962,11.104
		c2.301-0.096,3.291-2.682,1.809-4.367c-1.848-2.102-4.311-2.833-6.776-4.1c-3.788-1.946-7.291-4.374-10.745-6.85
		c-4.568-3.272-8.862-6.909-13.1-10.606c2.379-2.27,4.818-4.478,7.26-6.682c5.72,6.005,11.758,11.701,18.091,17.058
		c3.258,2.755,7.966,7.606,12.62,8.669C63.5,164.49,59.423,169.052,55.683,173.86z M71.828,155.948
		c-0.046-0.053-0.071-0.112-0.122-0.162c-3.61-3.508-9.164-5.649-13.288-8.635c-6.493-4.699-12.612-9.964-18.474-15.425
		c2.346-2.082,4.738-4.11,7.113-6.161c4.919,3.556,10.013,6.86,15.261,9.915c4.717,2.746,10.748,7.342,16.519,6.87
		c2.905-0.238,3.812-4.501,0.715-5.287c-10.048-2.552-20.298-8.418-29.209-14.345c3.272-2.804,6.521-5.618,9.785-8.425
		c5.818,4.164,11.514,8.473,17.079,12.98c4.068,3.295,8.46,8.716,13.286,11.639C84.16,144.416,77.841,150.017,71.828,155.948z
		 M109.987,135.667c-1.201-0.896-2.356-1.112-3.372-0.888c-1.85-2.873-6.135-4.521-9.529-1.608c-0.362,0.311-0.728,0.637-1.09,0.949
		c-3.931-4.471-10.849-7.811-15.397-11.243c-5.428-4.098-10.844-8.3-16.635-11.886c1.15-0.997,2.319-1.982,3.463-2.982
		c2.79-2.44,2.13-6.084,0.044-8.393c2.597-1.629,4.171-5.583,1.697-8.763c-11.803-15.16-27.529-25.8-42.562-37.453
		c-2.652-2.056-8.262-7.952-13.793-12.068c0.064-0.085,0.138-0.159,0.203-0.244c43.429,32.695,80.591,70.526,117.127,109.937
		C123.448,145.871,116.758,140.713,109.987,135.667z M173.251,161.259c-3.453,4.136-8.349,9.414-9.772,14.84
		c-0.679-0.814-1.479-1.606-2.328-2.385C122.271,121.773,71.958,70.941,15.452,38.156c2.12-2.436,4.44-4.682,6.871-6.815
		c51.609,39.866,102.255,80.539,143.872,131.161c2.641,3.212,8.309-1.144,5.775-4.456C132.463,106.367,79.067,65.422,25.856,28.502
		c0.97-0.763,1.881-1.587,2.882-2.315c4.571-3.321,11.653-6.61,15.825-11.147c1.867,3.88,5.19,7.777,8.673,11.341
		c-3.081-2.381-6.129-4.775-9.103-7.199c-1.776-1.448-4.322,0.971-2.563,2.563c29.669,26.826,64.221,49.727,91.274,79.342
		c0.248,0.497,0.564,1.004,1.031,1.523c1.832,2.034,3.722,4.026,5.579,6.044c6.243,7.48,11.995,15.401,17.053,23.933
		c1.573,2.654,4.667,2.169,6.19,0.374c6.404,6.659,13.635,14.304,21.902,17.584C179.836,151.684,176.032,157.928,173.251,161.259z"
		/>
</g>
<g>
</g>
<g>
</g>
<g>
</g>
<g>
</g>
<g>
</g>
<g>
</g>
<g>
</g>
<g>
</g>
<g>
</g>
<g>
</g>
<g>
</g>
<g>
</g>
<g>
</g>
<g>
</g>
<g>
</g>
</svg>
