<?xml version="1.0" encoding="utf-8"?>
<!-- Generator: Adobe Illustrator 19.1.0, SVG Export Plug-In . SVG Version: 6.00 Build 0)  -->
<svg version="1.1" id="Layer_1" xmlns="http://www.w3.org/2000/svg" xmlns:xlink="http://www.w3.org/1999/xlink" x="0px" y="0px"
	 viewBox="0 0 23.5 23.5" style="enable-background:new 0 0 23.5 23.5;" xml:space="preserve">
<style type="text/css">
	.st0{fill:#0066FF;}
	.st1{fill:#0066FF;stroke:#0066FF;stroke-miterlimit:10;}
	.st2{fill:none;stroke:#0066FF;stroke-width:2;stroke-miterlimit:10;}
	.st3{fill:#438BCA;}
	.st4{fill:#D9EDF7;}
	.st5{fill:#FFFFFF;}
	.st6{fill:none;stroke:#BE1E2D;stroke-width:0.5;stroke-miterlimit:10;}
	.st7{fill:#F6921E;}
	.st8{fill:none;stroke:#F6921E;stroke-linecap:round;stroke-linejoin:round;stroke-miterlimit:10;}
	.st9{fill:none;stroke:#000000;stroke-linecap:round;stroke-linejoin:round;stroke-miterlimit:10;}
	.st10{clip-path:url(#SVGID_2_);}
	.st11{fill:none;stroke:#FFFFFF;stroke-linecap:round;stroke-linejoin:round;stroke-miterlimit:10;}
	
		.st12{fill:none;stroke:#0066FF;stroke-width:1.5;stroke-linecap:round;stroke-linejoin:round;stroke-miterlimit:10;stroke-dasharray:1,2;}
	.st13{opacity:0.14;fill:#BBBDBF;}
</style>
<g>
	<defs>
		<polyline id="SVGID_1_" points="-72.1,-73.1 895.8,-73.1 895.8,580.2 -72.1,580.2 		"/>
	</defs>
	<clipPath id="SVGID_2_">
		<use xlink:href="#SVGID_1_"  style="overflow:visible;"/>
	</clipPath>
	<g class="st10">
		<defs>
			<rect id="SVGID_3_" x="43.6" y="-73.1" width="852.3" height="653.3"/>
		</defs>
		<clipPath id="SVGID_4_">
			<use xlink:href="#SVGID_3_"  style="overflow:visible;"/>
		</clipPath>
		<g style="clip-path:url(#SVGID_4_);">
			
				<image style="overflow:visible;" width="972" height="656" xlink:href="Screen Shot 2015-12-09 at 18.46.21.png"  transform="matrix(0.9958 0 0 0.9958 -72.114 -73.1037)">
			</image>
		</g>
	</g>
</g>
<g>
	<g>
		<path class="st0" d="M13.6,2.7c-3.3-1-7.2,0.2-9.4,2.8s-2.9,6.6-1.7,9.9c0.4,1,0.9,2,1.6,2.8c1.1,1.2,2.6,1.8,4.2,2.2
			c2.8,0.6,5.4,1.3,7.9-0.1c0.7-0.4,1.4-0.8,2-1.4c2.4-2.2,3.8-7.1,2.9-10.3c-0.9-3.2-3.8-5-7-6.1"/>
		<g>
			<path class="st0" d="M14.1,0.8C-0.3-2.8-5.9,19.5,9,22.6c6.5,1.3,12-1.3,13.9-7.9c2-6.9-2-11.6-8.2-14.1c-2.4-1-3.4,2.9-1.1,3.9
				c3.9,1.6,6.6,4.2,5.5,8.7c-1.1,4.6-4.5,6.6-9.1,5.7c-4.5-0.9-7.1-4.4-5.8-9c1.1-4,4.9-6.1,8.9-5.1C15.6,5.3,16.6,1.4,14.1,0.8
				L14.1,0.8z"/>
		</g>
	</g>
	<g>
		<path class="st5" d="M6.3,12.2c0.2-0.4,0.5-0.8,0.8-1.1c0.1-0.1,0.1-0.2,0.2-0.2c0.1,0,0.2,0,0.3,0.1c0.8,0.6,1.5,1.3,2,2.2
			c0,0,0,0.1,0.1,0.1c0.1,0.1,0.2,0,0.3-0.1c1.7-2,3.5-4,5.2-6C15.3,7.1,15.4,7,15.5,7c0.1,0,0.2,0.1,0.3,0.1c0.4,0.3,0.8,0.6,1.3,1
			l0.4,0.3c-2.3,2.7-4.7,5.4-7,8.1c-0.2,0.2-0.4,0.4-0.6,0.3c-0.2,0-0.3-0.2-0.4-0.3c-1-1.2-2-2.5-3-3.8"/>
		<g>
			<path class="st5" d="M7.2,12.7C7.4,12.3,7.7,12,8,11.6c-0.3,0.1-0.6,0.2-1,0.3c1.4,0.4,1.6,3.1,3.3,2.3c0.8-0.4,1.5-1.6,2.1-2.3
				c1.1-1.2,2.2-3.1,3.6-4c-0.3,0-0.7,0-1,0c0.7,0.3,1.3,1,2,1.4c-0.1-0.5-0.1-1-0.2-1.6c-1.7,1.9-3.3,3.8-5,5.7
				c-0.4,0.4-0.8,0.9-1.2,1.3c-0.2,0.2-0.4,0.4-0.6,0.7c-0.2,0.4-0.3,0.5-0.3,0.1c-0.1-0.1-0.9-1.3-1-1.4c-0.5-0.6-0.9-1.2-1.4-1.8
				c-0.8-1-2.5,0-1.7,1c0.9,1.2,3,5.4,5,4.4c1.3-0.7,2.5-2.7,3.4-3.8c1.4-1.6,2.7-3.1,4.1-4.7c0.4-0.5,0.4-1.2-0.2-1.6
				c-0.9-0.6-1.8-1.8-3-1.4c-0.9,0.3-1.7,1.7-2.3,2.4c-0.9,1-1.7,2-2.6,3C10,11.7,9,13.2,9.7,12.3c0.5-0.5,0.4-0.1-0.1-0.8
				C9.4,11,8.5,10.3,8,10.1c-1.3-0.5-1.9,0.6-2.6,1.6C4.7,12.8,6.5,13.8,7.2,12.7L7.2,12.7z"/>
		</g>
	</g>
</g>
</svg>
