<?xml version="1.0" encoding="iso-8859-1"?>
<!-- Generator: Adobe Illustrator 16.0.0, SVG Export Plug-In . SVG Version: 6.00 Build 0)  -->
<!DOCTYPE svg PUBLIC "-//W3C//DTD SVG 1.1//EN" "http://www.w3.org/Graphics/SVG/1.1/DTD/svg11.dtd">
<svg version="1.1" id="Capa_1" xmlns="http://www.w3.org/2000/svg" xmlns:xlink="http://www.w3.org/1999/xlink" x="0px" y="0px"
	 width="195.162px" height="195.162px" viewBox="0 0 195.162 195.162" style="enable-background:new 0 0 195.162 195.162;"
	 xml:space="preserve">
<g>
	<g>
		<path d="M194.293,78.904c-3.203-6.134-11.945,0.334-16.928,5.902c0.892-4.409,0.979-8.583-0.292-12.09
			c5.797-2.391,7.767-11.482,8.352-16.845c0.742-6.809-1.558-14.08-9.261-14.511c-14.24-0.797-10.893,23.453-2.938,30.373
			c0.798,7.108-0.577,14.046-2.973,20.738c-0.051-1.229,0.017-2.478,0-3.087c-0.076-2.615-0.189-5.227-0.874-7.766
			c-1.233-4.574-6.271-7.63-10.862-5.671c-8.984,3.832,5.133,17.909,10.221,20.377c-2.441,5.827-5.496,11.454-8.493,16.792
			c-1.133,2.017-2.335,3.933-3.587,5.796c0.31-3.465-0.013-7.052-0.436-10.442c-0.392-3.146-0.709-8.782-4.221-10.218
			c-4.039-1.65-7.178,5.673-7.497,8.47c-0.438,3.836,1.011,7.349,3.136,10.475c0.517,0.759,1.185,1.622,1.914,2.459
			c-0.016,0.198,0.124,0.335,0.316,0.359c1.162,1.266,2.508,2.4,3.984,2.821c-2.452,3.182-5.161,6.159-8.25,8.981
			c-1.639,1.497-3.351,2.742-5.096,3.883c1.462-2.329,2.511-4.971,3.211-7.387c0.965-3.331,1.597-9.382-3.005-10.259
			c-5.781-1.101-9.54,5.069-10.534,9.774c-0.755,3.573-1.021,9.88,2.544,11.76c0.014,0.109,0.041,0.21,0.074,0.315
			c-4.883,2.239-9.94,4.076-14.918,6.627c-1.506-0.971-3.068-1.745-4.446-2.219c-0.633-4.582-1.753-9.535-5.101-12.887
			c-2.743-2.747-4.583-3.62-4.462-7.977c0.145-5.21,0.349-10.386,0.15-15.595c8.009-2.841,15.276-10.849,20.713-20.782
			c0.143,0.046,0.297,0.071,0.471,0.055c17.245-1.597,36.063-9.465,36.062-29.637c0-0.812-0.095-1.656-0.249-2.516
			c0.095-0.246,0.217-0.486,0.298-0.733c0.174-0.529-0.249-0.937-0.715-1.012c-3.249-11.506-18.162-24.892-28.344-15.176
			c-0.242-0.595-0.431-1.239-0.715-1.796c-0.08-0.158-0.187-0.265-0.289-0.375c0.562-0.757,0.406-2.078-0.716-2.342
			c-23.608-5.575-50.362-1.913-74.52-2.772c-1.168-0.041-1.634,1.402-1.096,2.19c-0.727,1.695-1.314,3.452-1.798,5.249
			c-0.193-0.079-0.394-0.151-0.636-0.164c-14.312-0.79-26.348,8.369-23.467,23.823c1.094,5.867,3.836,10.607,7.595,14.338
			c-0.026,0.053-0.058,0.103-0.084,0.157c-0.258,0.541,0.463,0.991,0.799,0.535c6.598,6.119,16.052,9.313,25.436,9.992
			c0.154,0.246,0.326,0.477,0.483,0.72c-0.183,0.208-0.379,0.404-0.561,0.612c-0.468,0.537,0.243,1.248,0.779,0.779
			c0.151-0.132,0.294-0.272,0.445-0.404c6.014,8.994,13.785,16.383,22.414,20.368c0.243,0.112,0.477,0.15,0.701,0.15
			c-0.333,5.598-0.206,11.125,0.465,16.712c0.332,2.765-3.416,4.655-5.091,6.581c-2.81,3.229-5.028,8.836-3.965,13.254
			c-12.154-0.888-22.732-4.814-31.623-10.886c2.633-1.912,4.948-5.814,6.248-7.941c1.717-2.808,4.262-8.382,0.532-10.785
			c-3.867-2.491-10.123-0.664-11.672,3.729c-0.931,2.638-1.007,6.192-0.244,9.326c-0.01,0.008-0.021,0.016-0.032,0.023
			c-0.452,0.322-0.137,0.967,0.317,0.894c0.146,0.47,0.248,0.97,0.438,1.406c-3.71-3.033-7.11-6.428-10.121-10.188
			c3.115-1.467,5.801-7.498,6.739-9.642c1.581-3.612,3.53-9.895-0.882-12.351c-5.093-2.834-10.14,1.953-11.244,6.572
			c-0.24,1.005-0.381,2.122-0.442,3.29c-0.136,0.119-0.264,0.248-0.401,0.365c-0.343,0.297,0.042,0.839,0.416,0.729
			c-0.005,0.743-0.031,1.479,0.032,2.24c-0.178-0.15-0.356-0.302-0.534-0.451c-2.018-3.471-3.816-7.103-5.33-10.896
			c1.38-0.368,2.768-1.217,3.816-1.822c2.586-1.492,4.788-3.631,6.384-6.145c3.042-4.787,1.34-11.601-3.342-14.697
			c-3.905-2.582-6.951,2.222-8.173,5.23c-0.938,2.309-1.633,5.075-1.853,7.855c-2.115-7.755-3.303-15.881-3.384-24.12
			c2.296-2.083,2.469-6.78,2.743-9.568c0.366-3.731,0.231-9.867-4.106-11.371c-5.081-1.763-9.428,2.388-9.886,7.212
			C2.34,58.859,5.65,65.285,10.456,67.576c0.049,3.988,0.404,8.12,1.023,12.304c-0.789-1.236-1.732-2.34-2.892-3.171
			c-2.554-1.829-5.693-0.934-7.448,1.463c-1.779,2.429-1.309,5.933,0.276,8.306c1.153,1.726,2.885,2.977,4.734,3.867
			c0.292,0.141,0.651,0.285,0.984,0.429c-0.05,0.188-0.13,0.377-0.173,0.563c-0.104,0.453,0.539,0.623,0.689,0.19
			c0.055-0.158,0.147-0.285,0.208-0.437c1.968,0.775,4.335,1.381,6.127,0.791c1.165,4.286,2.645,8.531,4.365,12.676
			c-0.175-0.15-0.38-0.262-0.559-0.406c-0.003-0.393-0.396-0.709-0.79-0.575c-1.375-1.013-2.843-1.9-4.607-2.399
			c-4.121-1.164-9.367,2.08-9.85,6.386c-0.437,3.906,5.297,5.762,8.078,6.494c3.804,1.004,8.495,1.464,12.388,0.218
			c2.497,4.523,5.37,8.776,8.568,12.662c-3.794-1.688-8.301-2.592-11.887-2.869c-4.499-0.349-10.51,2.245-9.459,7.786
			c0.906,4.78,7.272,4.561,10.95,4.211c3.487-0.331,11.259-1.063,13.332-4.46c0.162-0.266,0.194-0.534,0.155-0.789
			c0.157,0.052,0.311,0.105,0.468,0.157c3.737,3.894,7.891,7.238,12.41,9.919c-3.293,0.129-6.615,0.901-8.929,2.759
			c-2.351,1.886-2.764,4.796-0.916,7.168c0.781,1.002,1.882,1.596,3.066,1.984c-0.178,0.118-0.324,0.259-0.506,0.372
			c-0.488,0.306-0.054,1.053,0.451,0.772c0.442-0.245,0.88-0.548,1.323-0.812c1.304,0.218,2.657,0.213,3.873-0.026
			c4.449-0.879,7.767-4.52,10.047-8.278c6.014,2.178,12.542,3.253,19.623,2.762c-5.37,1.478-12.177,5.21-8.339,10.537
			c4.643,6.443,15.909,4.427,22.782,5.202c9.875,1.114,23.042,3.761,31.405-2.966c5.216-4.195,2.57-9.034-1.563-12.403
			c8.629,0.814,17.395-3.872,24.948-10.3c2.217,3.777,10.261,4.08,13.668,3.898c5.475-0.295,12.277-3.307,12.112-9.797
			c-0.163-6.427-11.908-3.733-19.485-0.111c4.322-4.594,7.986-9.453,10.597-13.603c0.412-0.654,0.861-1.372,1.338-2.137
			c2.845,2.473,9.247,2.678,12.301,2.804c4.237,0.174,10.564-0.525,11.762-5.484c1.316-5.444-3.989-9.322-8.891-8.57
			c-3.703,0.568-8.547,2.686-11.821,5.714c2.831-4.839,5.926-10.62,8.216-16.469c3.763,2.168,10.894-0.356,14.081-1.894
			C193.199,89.835,196.91,83.918,194.293,78.904z M159.278,79.879c-0.027-1.589,2.79-1.133,4.268-0.681
			c-1.26,1.06-2.422,2.288-3.528,3.5C159.599,81.797,159.296,80.85,159.278,79.879z M161.247,84.861
			c-0.239-0.362-0.479-0.741-0.703-1.133c1.442-1.255,2.889-2.513,4.307-3.793c0.41,0.362,0.719,0.864,0.991,1.418
			c-1.599,1.059-3.014,2.622-4.257,3.992C161.477,85.185,161.351,85.018,161.247,84.861z M162.223,86.257
			c0.8-0.74,1.6-1.482,2.438-2.18c0.545-0.453,1.149-0.822,1.748-1.197c0.262,0.948,0.428,2.021,0.571,3.119
			c-0.92,0.925-1.812,1.881-2.691,2.845C163.546,88,162.846,87.126,162.223,86.257z M165.179,89.803
			c0.687-0.627,1.363-1.264,2.04-1.903c0.163,1.467,0.319,2.923,0.592,4.178C166.873,91.435,166.002,90.645,165.179,89.803z
			 M5.774,82.131c-0.618,0.79-1.189,1.598-1.715,2.434c-0.884-1.372-1.074-3.114-0.323-4.443c0.742-1.312,2.03-1.515,3.479-0.594
			c0.16,0.102,0.262,0.273,0.411,0.388C6.924,80.597,6.318,81.436,5.774,82.131z M8.255,87.789C8.21,87.77,8.16,87.763,8.114,87.744
			c-0.622-0.266-1.204-0.592-1.752-0.964c0.357-0.549,0.678-1.122,1.062-1.655c0.692-0.958,1.537-1.818,2.3-2.726
			c0.353,0.584,0.607,1.247,0.894,1.885C9.661,85.308,8.878,86.501,8.255,87.789z M6.229,54.398
			c-0.059-2.121,1.791-4.437,3.678-4.876c-0.575,0.761-1.084,1.591-1.532,2.189c-0.712,0.951-1.417,1.906-2.123,2.862
			C6.249,54.517,6.23,54.454,6.229,54.398z M6.527,56.666c0.873-0.715,1.661-1.911,2.131-2.485c0.916-1.118,1.833-2.235,2.726-3.372
			c0.206-0.262,0.436-0.521,0.659-0.782c0.298,0.254,0.578,0.578,0.817,1.028c0.149,0.281,0.247,0.614,0.356,0.936
			c-0.241-0.118-0.529-0.138-0.769,0.108c-1.241,1.273-2.073,2.954-2.989,4.468c-0.644,1.063-1.343,2.092-2.03,3.13
			C7.039,58.702,6.715,57.684,6.527,56.666z M12.215,64.979c-0.265,0.004-0.519,0.07-0.759,0.174
			c-0.725-0.482-1.347-1.106-1.909-1.794c0.56-0.882,1.153-1.74,1.842-2.539c0.632-0.733,1.38-1.3,2.135-1.861
			C13.243,61.179,12.735,63.351,12.215,64.979z M13.659,57.179c-2.078,0.836-3.754,2.802-4.996,4.83
			c-0.256-0.419-0.552-0.803-0.767-1.25c0.736-0.975,1.476-1.947,2.18-2.948c1.112-1.581,2.488-3.065,3.428-4.75
			C13.75,54.299,13.746,55.726,13.659,57.179z M29.171,88.649c-0.285,1.6-1.067,3.128-2.09,4.387
			c-1.312,1.616-3.042,2.84-4.832,3.864c-0.67,0.383-1.488,0.621-2.28,0.894c-0.048-0.282-0.053-0.569-0.083-0.854
			C23.157,94.394,26.399,91.708,29.171,88.649z M20.713,88c0.027-0.102,0.073-0.262,0.108-0.392c0.106-0.022,0.21-0.072,0.288-0.18
			c0.917-1.26,1.978-2.368,3.144-3.399c0.904-0.799,1.971-1.263,2.913-1.957c0.219,0.268,0.427,0.553,0.615,0.863
			c-0.112,0.003-0.226,0.008-0.33,0.062c-0.063,0.033-0.093,0.094-0.138,0.141l-0.011-0.026c-2.582,2.761-4.888,5.8-7.329,8.718
			C20.148,90.53,20.39,89.239,20.713,88z M19.798,93.744c1.665-1.658,3.216-3.434,4.816-5.151c1.22-1.31,3.048-2.767,3.773-4.49
			c0.269,0.578,0.497,1.13,0.642,1.548c0.042,0.121,0.024,0.243,0.057,0.365c-2.968,3.311-6.088,6.415-9.311,9.442
			C19.765,94.888,19.767,94.316,19.798,93.744z M5.727,107.938c-0.592-1.574,2.586-3.335,3.559-3.694
			c0.731-0.271,1.471-0.244,2.206-0.116c-1.835,1.374-3.461,3.227-4.687,5.164C6.322,108.905,5.926,108.466,5.727,107.938z
			 M9.228,110.531c-0.675-0.239-1.329-0.51-1.887-0.857c1.749-1.899,3.975-3.281,5.872-5.013c0.522,0.237,0.97,0.544,1.452,0.83
			c-0.552,0.562-1.089,1.143-1.646,1.684C11.807,108.353,10.515,109.438,9.228,110.531z M10.786,111.007
			c1.857-1.313,3.824-2.852,5.392-4.574c0.548,0.388,1.064,0.823,1.588,1.247c-0.13,0.14-0.249,0.291-0.386,0.425
			c-1.34,1.302-2.921,2.369-4.512,3.345C12.244,111.335,11.545,111.198,10.786,111.007z M14.43,111.7
			c1.557-0.76,3.249-1.762,4.618-2.98c0.661,0.569,1.318,1.146,1.976,1.721c0.2,0.405,0.4,0.811,0.605,1.213
			C19.363,112.258,16.716,112.041,14.43,111.7z M29.736,107.606c0.995-0.858,1.974-1.734,2.957-2.607
			c0.983-0.874,1.983-1.725,2.995-2.564c0.212-0.178,0.45-0.349,0.692-0.521c0.03,0.007,0.051,0,0.081,0.007
			c0.76,0.178,1.119,0.747,1.271,1.488c-1.656,1.012-3.123,2.554-4.44,3.875c-1.395,1.398-2.614,2.954-3.763,4.559
			C29.439,110.545,29.495,109.051,29.736,107.606z M29.676,113.17c1.232-1.602,2.543-3.126,4.003-4.537
			c1.209-1.168,2.659-2.09,4.004-3.103c-0.172,0.959-0.499,1.971-0.848,2.936c-0.074,0.016-0.142-0.008-0.218,0.04
			c-1.712,1.073-3.048,2.764-4.428,4.224c-0.76,0.804-1.494,1.631-2.236,2.451C29.846,114.513,29.745,113.842,29.676,113.17z
			 M30.709,118.385c-0.006-0.02-0.017-0.061-0.023-0.079c-0.208-0.604-0.34-1.233-0.478-1.861c0.762-0.793,1.541-1.568,2.303-2.361
			c1.025-1.065,2.156-2.019,3.261-2.994c-0.19,0.413-0.359,0.761-0.463,0.968c-0.887,1.768-1.974,3.463-3.237,4.982
			C31.661,117.536,31.17,117.951,30.709,118.385z M16.597,127.395c0.708-0.195,1.47-0.262,2.247-0.276
			c-1.194,0.772-2.191,1.845-3.247,2.792c-0.729,0.653-1.413,1.346-2.12,2.017C11.954,130.213,15.306,127.749,16.597,127.395z
			 M16.641,133.275c-0.789-0.11-1.535-0.296-2.169-0.624c1.949-1.486,4.076-3.011,5.303-4.937c0.13-0.204,0.074-0.417-0.05-0.579
			c0.783,0.033,1.571,0.118,2.339,0.227C20.049,129.081,18.266,131.218,16.641,133.275z M21.015,133.178
			c-0.941,0.125-1.906,0.221-2.849,0.212c0.791-0.863,1.547-1.761,2.388-2.58c1.114-1.088,2.341-2.073,3.502-3.116
			c0.062,0.011,0.132,0.021,0.193,0.032c0.8,0.146,1.562,0.372,2.337,0.571c-0.819,0.772-1.617,1.57-2.449,2.317
			C23.135,131.514,22.07,132.34,21.015,133.178z M25.028,132.438c-0.556,0.125-1.224,0.266-1.929,0.403
			c1.826-1.247,3.617-2.599,5.05-4.162c1.381,0.406,2.741,0.859,4.104,1.326C29.843,130.698,27.523,131.874,25.028,132.438z
			 M47.297,118.561c0.677-0.241,1.852-0.396,2.906-0.278c-0.961,0.668-1.828,1.564-2.665,2.28c-1.049,0.896-2.14,1.767-3.264,2.593
			C44.461,121.189,45.344,119.255,47.297,118.561z M44.279,124.445c1.231-0.813,2.426-1.683,3.628-2.53
			c1.346-0.949,2.746-1.845,4.04-2.86c0.036,0.045,0.109,0.058,0.14,0.107c0.349,0.569,0.323,1.328,0.104,2.152
			c-2.672,1.748-5.212,3.769-7.761,5.733C44.348,126.182,44.264,125.315,44.279,124.445z M45.267,131.37
			c-0.318-0.969-0.519-1.966-0.681-2.97c2.14-1.386,4.247-2.813,6.336-4.283c-0.788,1.33-1.689,2.545-2.153,3.204
			c-0.976,1.384-2.102,2.662-3.289,3.868C45.416,131.254,45.334,131.308,45.267,131.37z M40.924,145.829
			c1.215-0.814,2.58-1.271,3.988-1.613c-0.078,0.063-0.16,0.139-0.237,0.198c-1.697,1.311-3.321,2.692-4.828,4.214
			C39.291,147.674,39.677,146.665,40.924,145.829z M43.946,150.42c-1.252,0.016-2.512-0.277-3.466-1.078
			c1.711-1.518,3.544-2.89,5.409-4.213c0.705-0.501,1.548-0.968,2.337-1.489c0.892-0.094,1.776-0.164,2.661-0.24
			C48.607,145.836,46.443,148.264,43.946,150.42z M101.926,105.791c-0.079,0.04-0.124,0.099-0.188,0.148
			c-0.021,0.017-0.04,0.028-0.061,0.047c-0.064,0.056-0.048,0.142-0.097,0.205c-4.063,2.172-7.782,5.282-11.223,8.224
			c-0.122-2.062-0.243-4.127-0.398-6.199c5.514-4.136,11.256-7.926,17.088-11.603c3.48-2.194,7.835-4.28,11.509-6.864
			C114.233,96.638,108.705,102.365,101.926,105.791z M94.899,120.608c-1.247,0.959-2.519,1.883-3.777,2.826
			c-0.078-0.736-0.207-1.472-0.272-2.207c1.371-0.52,2.925-1.758,3.575-2.182c1.953-1.274,4.476-2.802,6.29-4.6
			c-0.042,0.627-0.073,1.255-0.113,1.882C98.548,117.464,96.748,119.187,94.899,120.608z M100.482,118.299
			c-0.072,1.208-0.089,2.419-0.149,3.628c-2.7,2.291-5.823,3.973-8.649,6.068c-0.171-1.099-0.276-2.199-0.406-3.299
			c1.426-0.989,2.863-1.962,4.266-2.986C97.154,120.536,98.871,119.479,100.482,118.299z M95.159,116.518
			c-1.253,0.995-2.518,1.98-3.824,2.904c-0.069,0.049-0.308,0.255-0.584,0.488c-0.103-1.311-0.215-2.62-0.296-3.933
			c3.571-2.41,6.993-4.736,10.609-6.812c-0.063,0.891-0.114,1.781-0.178,2.672c-0.041,0.019-0.085-0.001-0.125,0.025
			C98.767,113.181,97.036,115.024,95.159,116.518z M126.168,84.214c1.136-2.292,2.136-4.68,3.066-7.096
			c1.12,0.782,2.508,0.759,3.934,0.344c-0.746,0.605-1.46,1.234-2.083,1.763c-1.558,1.322-2.646,2.386-2.56,4.445
			c0.001,0.016,0.022,0.013,0.026,0.028C127.75,83.875,126.954,84.048,126.168,84.214z M156.608,63.956
			c-2.419,9.868-10.566,14.601-19.456,17.456c4.296-3.725,8.487-7.548,12.454-11.642c2.323-2.397,5.082-5.14,7.416-8.101
			C156.917,62.426,156.797,63.186,156.608,63.956z M157.12,56.64c-3.078,3.78-5.854,7.888-9.141,11.503
			c-4.42,4.862-9.112,9.488-13.758,14.137c-1.742,0.48-3.486,0.922-5.206,1.31c0.247-0.51,1.23-1.384,1.554-1.743
			c0.72-0.798,1.594-1.478,2.443-2.126c1.505-1.15,3.555-1.98,4.665-3.543c0.256-0.361-0.044-0.69-0.387-0.771
			c0.117-0.078,0.217-0.154,0.331-0.233c-0.016,0.247,0.269,0.451,0.513,0.245c0.255-0.216,0.509-0.432,0.764-0.648
			c0.181-0.152,0.134-0.361,0.012-0.508c0.409-0.305,0.796-0.599,1.116-0.852c3.963-3.111,6.637-7.984,8.054-12.79
			c0.919-1.519,2.178-2.95,3.28-4.213c1.393-1.594,3.229-2.931,4.675-4.493C156.57,53.409,156.954,54.986,157.12,56.64z
			 M155.328,50.188c-2.126,1.257-3.977,3.856-5.432,5.686c-0.387,0.486-0.76,0.978-1.116,1.479c0.244-2.502-0.139-5.019-1.017-7.29
			c1.839-1.301,3.645-2.925,4.14-4.839C153.283,46.67,154.454,48.333,155.328,50.188z M147.521,41.899
			c1.228,0.68,2.376,1.488,3.412,2.427c-0.025,0.02-0.055,0.014-0.08,0.039c-1.038,1.027-1.709,2.372-2.729,3.447
			c-0.301,0.317-0.642,0.594-0.967,0.885c-0.705-1.401-1.639-2.645-2.729-3.709c0.062-0.054,0.127-0.099,0.188-0.154
			C145.457,44.062,147.015,43.053,147.521,41.899z M140.82,39.84c1.808,0.202,3.544,0.619,5.143,1.312
			c-0.797,0.605-1.478,1.631-2.054,2.259c-0.188,0.204-0.348,0.42-0.525,0.63c-1.487-1.151-3.263-1.888-5.226-2.186
			C139.079,41.214,139.978,40.554,140.82,39.84z M133.328,40.483c1.661-0.485,3.269-0.67,4.844-0.724
			c-0.792,0.605-1.545,1.259-2.241,1.955c-0.789,0.033-1.591,0.104-2.432,0.299c-0.12-0.505-0.183-1.054-0.324-1.54
			C133.229,40.464,133.271,40.5,133.328,40.483z M134.135,45.036c3.92,1.062,7.583,1.063,10.03,5.024
			c0.16,0.258,0.272,0.534,0.397,0.805c-0.247,0.37-0.043,0.85,0.351,0.896c0.933,2.933,0.25,6.386-0.621,9.177
			c-1.216,3.898-3.746,7.29-6.707,10.031c-2.192,2.03-5.697,2.684-7.776,4.589C133.608,65.106,135.406,54.005,134.135,45.036z
			 M86.653,35.809c1.208,0.03,2.419,0.034,3.629,0.055c-5.115,2.636-9.843,9.05-12.981,12.532
			c-5.849,6.49-11.216,13.538-17.293,19.85c-0.352-1.392-0.72-2.777-1-4.201c4.423-3.342,8.472-7.158,12.476-11.003
			c2.795-2.683,5.417-5.56,7.996-8.449c2.172-2.434,4.426-6.202,7.005-8.739C86.544,35.848,86.594,35.828,86.653,35.809z
			 M83.529,35.712c-0.488,0.655-0.971,1.307-1.461,1.903c-2.913,3.544-5.908,7.023-8.934,10.473
			c-4.497,5.128-9.259,9.827-14.483,14.094c-0.403-2.315-0.728-4.665-0.966-7.052c7.329-5.736,14.438-12.24,20.089-19.597
			C79.686,35.627,81.612,35.65,83.529,35.712z M74.678,35.354c-5.137,6.583-11,12.277-17.172,17.851
			c-0.143-1.743-0.26-3.498-0.328-5.274c3.98-4.286,7.894-8.644,11.828-12.971C70.889,35.121,72.783,35.237,74.678,35.354z
			 M57.264,33.661c1.252,0.192,2.52,0.313,3.779,0.475c-0.917,1.123-1.725,2.427-2.424,3.321c-0.539,0.688-1.038,1.417-1.549,2.134
			C57.104,37.627,57.166,35.652,57.264,33.661z M60.212,37.973c0.937-1.113,2.524-2.224,3.515-3.5
			c0.884,0.1,1.777,0.158,2.664,0.246c-3.105,3.673-6.206,7.352-9.279,11.052c-0.027-1.205-0.054-2.409-0.052-3.627
			C58.048,40.714,59.082,39.316,60.212,37.973z M53.787,65.926c-0.084,0.061-0.161,0.128-0.245,0.188
			c-0.688,0.496-0.129,1.549,0.602,1.24c0.52,1.846,1.106,3.683,1.78,5.498c-0.709-0.178-1.398-0.409-2.071-0.676
			c-0.116-0.373-0.508-0.566-0.906-0.422c-4.532-2.112-8.123-6.138-9.947-10.851c-2.844-7.347,1.753-11.407,8.705-11.46
			C51.605,54.86,52.364,60.43,53.787,65.926z M49.384,41.761c1.015-0.035,2.03-0.057,2.997-0.012
			c-0.248,1.373-0.389,2.778-0.513,4.186c-2.201-0.028-4.234,0.278-6.016,0.895c0.382-0.586,0.719-1.2,1.114-1.778
			C47.658,44.037,48.762,42.93,49.384,41.761z M34.211,49.628c1.316-2.925,3.584-4.796,6.24-6.008
			c-3.174,4.087-5.497,8.749-7.987,13.307C32.619,54.373,33.204,51.865,34.211,49.628z M32.479,59.851
			c4.106-5.906,7.404-12.275,12.302-17.617c0.697-0.135,1.406-0.178,2.111-0.258c-0.331,0.604-0.636,1.223-0.948,1.763
			c-0.787,1.36-1.56,2.727-2.293,4.114c-2.882,1.673-4.728,4.415-4.956,8.116c-1.055,0.959-1.754,2.474-2.393,3.649
			c-0.905,1.663-1.862,3.287-2.974,4.813C32.885,62.948,32.589,61.41,32.479,59.851z M33.719,65.56
			c1.197-1.281,2.251-2.675,3.268-4.111c0.567-0.8,1.25-1.612,1.893-2.443c0.061,0.394,0.1,0.777,0.193,1.188
			c0.236,1.043,0.575,2.065,0.995,3.06c-1.814,1.508-3.384,3.696-4.534,5.956C34.784,68.079,34.193,66.847,33.719,65.56z
			 M36.516,70.501c0.437-0.797,0.902-1.579,1.428-2.34c0.853-1.235,1.918-2.295,2.885-3.424c0.391,0.745,0.832,1.469,1.313,2.165
			c-0.925,1.047-1.615,2.588-2.278,3.643c-0.465,0.739-0.919,1.486-1.37,2.236C37.81,72.057,37.137,71.317,36.516,70.501z
			 M39.38,73.682c0.443-0.649,0.888-1.295,1.342-1.935c0.682-0.962,1.846-2.149,2.588-3.352c0.879,1.06,1.861,2.036,2.921,2.909
			c-0.553,0.592-1.058,1.233-1.549,1.882c-0.763,1.01-1.489,2.041-2.219,3.068C41.392,75.461,40.35,74.624,39.38,73.682z
			 M43.465,76.973c1.322-1.59,2.766-3.109,3.982-4.752c1.05,0.745,2.18,1.348,3.341,1.871c-0.3,0.42-0.597,0.845-0.902,1.249
			c-0.953,1.26-2.013,2.433-3.063,3.614C45.675,78.34,44.538,77.706,43.465,76.973z M48.305,79.713
			c1.53-1.501,3.087-3.155,4.29-4.91c1.019,0.332,2.07,0.543,3.133,0.682c-0.559,0.565-1.061,1.219-1.551,1.756
			c-1.05,1.153-2.034,2.369-2.919,3.653C50.275,80.499,49.255,80.171,48.305,79.713z M52.849,81.531
			c0.93-1.22,1.967-2.351,3.036-3.45c0.493-0.508,1.081-0.986,1.567-1.527c1.092,2.541,2.277,5.045,3.64,7.443
			C58.273,83.363,55.531,82.51,52.849,81.531z M60.398,69.887c11.438-10.775,20.138-26.386,34.254-33.351
			c0.263-0.13,0.385-0.354,0.44-0.599c0.676,0.007,1.35,0.007,2.026,0.013c-5.71,4.124-10.63,10.769-14.937,15.587
			c-6.807,7.617-13.456,15.36-20.326,22.917C61.328,72.95,60.827,71.434,60.398,69.887z M62.449,76.061
			c6.785-6.742,13.086-13.993,19.603-20.984c6.172-6.622,13.47-12.458,19.541-19.098c1.438,0.008,2.867,0.022,4.303,0.029
			C92.97,51.536,76.188,64.037,64.221,80.252C63.583,78.876,62.989,77.481,62.449,76.061z M64.903,81.604
			c7.078-8.258,15.063-15.509,23.2-22.75c7.477-6.653,16.038-13.852,20.828-22.826c2.058,0.013,4.105,0.039,6.156,0.061
			c-15.108,17.06-33.259,31.365-48.764,48.165C65.834,83.378,65.346,82.501,64.903,81.604z M67.134,85.676
			c10.845-9.783,21.093-20.264,31.833-30.161c5.147-4.742,16.907-12.068,19.162-19.395c2.158,0.032,4.295,0.102,6.438,0.159
			c-8.795,5.415-15.743,14.536-22.234,22.13c-9.88,11.559-19.36,23.474-32.653,31.147C68.782,88.284,67.92,86.997,67.134,85.676z
			 M74.403,95.383c-1.322-1.434-2.562-2.904-3.703-4.417c23.752-11.793,36.855-38.282,57.882-53.962
			c-0.019,0.161-0.027,0.325,0.008,0.499c0.368,1.804,0.613,3.708,0.802,5.651c-0.228,0.007-0.466,0.052-0.691,0.237
			c-19.316,15.81-33.98,36.285-54.037,51.566C74.509,95.075,74.457,95.231,74.403,95.383z M75.421,96.398
			c0.027-0.014,0.048,0.004,0.075-0.013c20.569-12.761,38.281-32.613,54.09-50.825c0.175,2.994,0.132,6.112-0.091,9.281
			c-17.73,13.967-33.583,30.108-50.788,44.696C77.565,98.512,76.459,97.47,75.421,96.398z M79.896,100.562
			c17.418-12.834,32.454-28.498,49.274-42.068c-0.452,3.865-1.205,7.773-2.227,11.619c-0.335-0.131-0.716-0.15-1.026,0.147
			c-12.661,12.065-30.995,19.562-41.467,33.828C82.854,102.948,81.322,101.779,79.896,100.562z M85.536,104.823
			c6.349-7.551,14.961-12.678,23.178-17.998c5.782-3.743,12.782-7.741,17.246-13.299c-1.178,3.762-2.657,7.408-4.384,10.872
			c-5.485,2.553-10.615,6.982-15.63,10.33c-5.644,3.767-11.358,7.557-16.541,11.958c-0.405-0.323-0.963-0.401-1.45-0.198
			c-0.045-0.034-0.067-0.076-0.118-0.108C87.028,105.88,86.298,105.344,85.536,104.823z M89.119,131.581
			c0.177,0.031,0.365,0.005,0.539-0.151c0.371-0.335,0.781-0.611,1.168-0.923c0.012-0.007,0.021-0.014,0.033-0.021
			c0.007-0.004,0.007-0.014,0.014-0.018c2.923-2.342,6.211-4.147,9.36-6.169c-0.062,1.519-0.169,3.033-0.188,4.556
			c0,0.048,0.033,0.088,0.036,0.136c-3.17,1.855-6.282,5.3-8.858,7.243c-2.224,1.678-4.519,3.274-6.953,4.632
			c-0.451,0.252-0.973,0.424-1.506,0.583C83.843,137.532,85.121,134.283,89.119,131.581z M80.297,148.913
			c0.733-0.179,0.838-0.901,0.565-1.437c0.199-0.162,0.355-0.373,0.43-0.622c0.319-1.062,0.585-2.069,0.841-3.051
			c2.917-0.501,7.03-3.548,8.352-4.42c2.761-1.822,5.383-3.862,8.007-5.874c1.049-0.804,2.266-1.586,3.325-2.484
			c1.084,0.7,1.993,1.472,2.815,2.285c-9.325,9.003-22.371,16.614-34.377,21.873C71.369,152.398,79.835,149.026,80.297,148.913z
			 M79.316,159.038c-0.641-0.036-1.281-0.087-1.918-0.156c5.217-3.072,10.456-6.07,15.803-8.925
			c4.713-2.515,11.45-5.042,14.918-9.244c0.598-0.725-0.131-1.605-0.966-1.251c-5.136,2.184-10.054,6.054-14.894,8.883
			c-5.582,3.265-11.376,6.374-16.535,10.292c-1.434-0.251-2.84-0.63-4.184-1.253c-0.709-0.329-1.115-0.7-1.303-1.098
			c7.379-2.91,14.496-6.607,21.305-10.639c4.242-2.513,11.832-6.118,14.37-10.916c1.847,2.335,2.918,5.07,3.564,8.205
			c-8.003,4.633-16.203,10.122-23.042,16.473C84.063,159.271,81.69,159.172,79.316,159.038z M94.394,160.107
			c-1.46-0.146-2.921-0.284-4.375-0.44c-0.657-0.07-1.316-0.09-1.974-0.141c6.968-5.247,15.115-8.893,21.796-14.396
			c0.032,0.228,0.082,0.436,0.111,0.667c0.002,0.015,0.01,0.022,0.012,0.036c-0.022,0.427,0.115,0.828,0.375,1.163
			c-5.412,3.961-11.241,7.678-15.87,12.542C94.289,159.728,94.31,159.932,94.394,160.107z M103.584,160.716
			c-2.75-0.041-5.497-0.256-8.241-0.514c5.254-4.671,11.322-7.975,16.966-12.106c0.048-0.034,0.069-0.08,0.109-0.118
			c0.914,0.287,1.828,0.576,2.742,0.864c-2.245,1.609-4.229,3.616-6.378,5.354c-2.632,2.128-5.508,3.824-8.581,5.219
			c-0.602,0.272-0.171,1.275,0.446,1.062c5.513-1.898,11.404-5.783,15.532-10.021c0.304,1.052,0.494,1.996,0.627,2.885
			c-1.583,0.782-3.001,2.132-4.321,3.211c-1.588,1.3-3.086,2.707-4.523,4.171C106.501,160.752,105.035,160.738,103.584,160.716z
			 M110.909,160.573c-0.177,0.02-0.355,0.011-0.531,0.028c1.056-0.89,2.08-1.818,3.188-2.649c1.07-0.801,2.285-1.505,3.383-2.322
			C116.821,159.085,114.846,160.771,110.909,160.573z M133.177,129.454c0.017-0.116,0.055-0.256,0.077-0.379
			c1.037-1.177,2.048-2.377,3.143-3.503c1.04-1.07,2.117-2.092,3.299-3.004c0.356-0.275,0.759-0.506,1.148-0.751
			c0.419,0.618,0.383,1.795,0.179,3.043c-1.736,1.53-3.292,3.388-4.902,5.022c-1.065,1.081-2.118,2.174-3.183,3.258
			C132.901,131.891,133.005,130.624,133.177,129.454z M139.823,129.3c-1.15,3.205-3.133,6.361-5.942,8.352
			c-0.276-0.721-0.504-1.55-0.588-1.852c-0.126-0.445-0.205-0.913-0.267-1.384c1.288-1.254,2.578-2.507,3.858-3.768
			c1.151-1.135,2.396-2.251,3.592-3.403C140.207,128.192,139.936,128.984,139.823,129.3z M166.676,131.422
			c0.024,0.005,0.049,0.006,0.075,0.007c-1.002,0.951-1.921,2.015-2.819,3.038c-1.035,1.18-2.003,2.405-2.96,3.644
			c-0.869,0.168-1.729,0.297-2.496,0.374c-0.596,0.06-1.289,0.094-2.025,0.104c1.607-1.02,3.222-2.032,4.801-3.099
			C163.062,134.264,165.141,133.039,166.676,131.422z M164.217,131.189c-1.272,0.98-2.481,2.104-3.709,3.028
			c-1.974,1.484-3.995,2.905-6.013,4.329c-1.486-0.092-3.054-0.318-4.481-0.751c0.013-0.003,0.02,0.007,0.032,0.003
			c2.338-0.708,4.424-1.94,6.471-3.254c1.358-0.871,2.934-1.838,4.25-2.977C161.955,131.32,163.106,131.201,164.217,131.189z
			 M156.577,132.812c-2.105,1.625-4.332,3.006-6.793,4.039c-0.362,0.151-0.385,0.556-0.207,0.791
			c-0.442-0.151-0.914-0.265-1.313-0.464C150.515,135.621,153.49,133.993,156.577,132.812z M150.599,101.718
			c0.56-0.597,0.814,0.248,1.193,1.036c-0.837,0.855-1.591,1.89-2.046,2.403c-0.661,0.748-1.324,1.51-1.945,2.295
			C147.899,105.527,149.301,103.104,150.599,101.718z M147.896,108.876c0.04-0.021,0.089-0.019,0.124-0.052
			c0.821-0.765,1.604-1.571,2.406-2.355c0.675-0.658,1.354-1.313,2.04-1.961c0.348,0.887,0.616,1.849,0.879,2.812
			c-1.862,0.942-3.371,3.09-4.562,4.988C148.346,111.203,148.016,110.058,147.896,108.876z M151.454,116.681
			c-0.769-0.857-1.405-1.826-1.955-2.841c0.753-1.01,1.516-2.01,2.35-2.957c0.594-0.673,1.27-1.26,1.914-1.874
			c0.324,1.487,0.521,3.023,0.686,4.551c-1.13,0.863-2.103,1.962-2.98,3.136C151.465,116.691,151.459,116.687,151.454,116.681z
			 M152.397,117.574c0.777-0.755,1.491-1.563,2.207-2.368c0.111,1.541,0.185,3.078,0.145,4.517
			C154.01,118.977,153.18,118.286,152.397,117.574z M183.235,113.755c-0.978,1.039-2.534,1.474-4.202,1.643
			c1.805-1.579,3.722-3.427,4.458-5.454C184.075,111.217,184.115,112.822,183.235,113.755z M182.309,108.744
			c0.043-0.099,0.031-0.188,0.039-0.279c0.092,0.061,0.145,0.175,0.229,0.246c-0.92,0.988-1.526,2.267-2.331,3.358
			c-0.892,1.207-1.902,2.314-2.903,3.431c-0.805,0.003-1.602-0.032-2.344-0.088c0.966-0.716,1.901-1.472,2.824-2.247
			C179.231,111.98,181.557,110.47,182.309,108.744z M178.136,107.765c0.974-0.125,1.938-0.044,2.873,0.189
			c-1.444,0.797-2.685,2.552-3.822,3.665c-1.316,1.29-2.719,2.493-4.186,3.609c-0.97-0.102-1.872-0.327-2.765-0.575
			c2.693-2.028,5.395-4.135,7.724-6.471C178.084,108.061,178.122,107.912,178.136,107.765z M175.234,108.439
			c-2.225,1.771-4.262,3.861-6.32,5.845c-0.858-0.283-1.709-0.58-2.565-0.873C168.851,111.11,172.089,109.448,175.234,108.439z
			 M174.909,45.185c0.362-0.106,0.666-0.11,0.996-0.16c-1.009,1.115-1.881,2.506-2.662,3.538c-1.179,1.555-2.323,3.157-3.425,4.786
			C170.024,49.454,171.475,46.186,174.909,45.185z M169.836,55.735c1.556-2.066,3.087-4.148,4.727-6.154
			c1.154-1.412,2.825-2.811,3.808-4.42c1.058,0.404,1.807,1.269,2.333,2.404c-1.762,0.299-3.461,2.268-4.552,3.33
			c-2.012,1.961-4.627,4.39-6.076,6.965C169.968,57.149,169.883,56.438,169.836,55.735z M170.331,59.225
			c0.546-0.458,1.345-1.093,1.51-1.277c1.127-1.253,2.315-2.457,3.505-3.65c1.134-1.138,2.313-2.232,3.547-3.261
			c0.459-0.383,1.599-1.431,2.399-1.749c0.111,0.501,0.146,1.074,0.201,1.629c-2.31,1.455-4.312,4.232-6.071,6.191
			c-1.455,1.622-2.976,3.317-4.305,5.117C170.808,61.249,170.54,60.242,170.331,59.225z M171.708,63.8
			c1.641-1.825,3.244-3.69,4.944-5.461c1.438-1.496,3.405-3.026,4.902-4.718c-0.048,1.065-0.193,2.175-0.379,3.29
			c-0.218-0.071-0.463-0.076-0.713,0.119c-1.916,1.493-3.506,3.562-5.161,5.34c-0.979,1.052-1.883,2.17-2.811,3.267
			C172.216,65.049,171.953,64.437,171.708,63.8z M175.241,69.748c-0.071-0.031-0.126-0.068-0.202-0.089
			c-0.699-0.751-1.354-1.739-1.958-2.86c1.041-1.174,2.068-2.359,3.162-3.487c1.476-1.523,3.159-2.939,4.572-4.534
			C179.753,63.43,177.674,67.903,175.241,69.748z M191.215,85.267c-0.6,2.085-3.138,3.364-4.924,4.217
			c-0.691,0.33-1.452,0.528-2.201,0.748c1.014-0.851,2.033-1.696,3.047-2.547c1.493-1.253,3.369-2.594,4.482-4.297
			C191.491,84.213,191.308,84.945,191.215,85.267z M191.243,81.698c-1.889,1.385-3.428,3.355-5.132,4.964
			c-1.461,1.38-2.938,2.743-4.397,4.124c-0.679,0.111-1.36,0.251-2.03,0.307c3.875-2.943,8.075-5.949,11.075-9.647
			c0.695-0.857-0.344-1.883-1.201-1.2c-2.241,1.785-4.189,4.02-6.29,5.977c-1.771,1.651-3.594,3.247-5.413,4.847
			c-0.465-0.057-0.923-0.136-1.382-0.212c0.029-0.041,0.07-0.064,0.096-0.111c0.221-0.232,0.44-0.464,0.66-0.696
			c0.451-0.174,0.66-0.595,0.728-1.025c1.44-1.792,3-3.462,4.771-4.979c1.555-1.331,6.005-5.24,8.342-4.086
			c0.48,0.237,0.656,0.908,0.68,1.702C191.576,81.602,191.396,81.585,191.243,81.698z"/>
	</g>
</g>
<g>
</g>
<g>
</g>
<g>
</g>
<g>
</g>
<g>
</g>
<g>
</g>
<g>
</g>
<g>
</g>
<g>
</g>
<g>
</g>
<g>
</g>
<g>
</g>
<g>
</g>
<g>
</g>
<g>
</g>
</svg>
