<?xml version="1.0" encoding="utf-8"?>
<!-- Generator: Adobe Illustrator 19.1.0, SVG Export Plug-In . SVG Version: 6.00 Build 0)  -->
<svg version="1.1" id="Layer_1" xmlns="http://www.w3.org/2000/svg" xmlns:xlink="http://www.w3.org/1999/xlink" x="0px" y="0px"
	 viewBox="0 0 23.5 23.5" style="enable-background:new 0 0 23.5 23.5;" xml:space="preserve">
<style type="text/css">
	.st0{fill:#0066FF;}
	.st1{fill:#0066FF;stroke:#0066FF;stroke-miterlimit:10;}
	.st2{fill:none;stroke:#0066FF;stroke-width:2;stroke-miterlimit:10;}
	.st3{fill:#438BCA;}
	.st4{fill:#D9EDF7;}
	.st5{fill:#FFFFFF;}
	.st6{fill:none;stroke:#BE1E2D;stroke-width:0.5;stroke-miterlimit:10;}
	.st7{fill:#F6921E;}
	.st8{fill:none;stroke:#F6921E;stroke-linecap:round;stroke-linejoin:round;stroke-miterlimit:10;}
	.st9{fill:none;stroke:#000000;stroke-linecap:round;stroke-linejoin:round;stroke-miterlimit:10;}
	.st10{clip-path:url(#SVGID_2_);}
	.st11{fill:none;stroke:#FFFFFF;stroke-linecap:round;stroke-linejoin:round;stroke-miterlimit:10;}
	
		.st12{fill:none;stroke:#0066FF;stroke-width:1.5;stroke-linecap:round;stroke-linejoin:round;stroke-miterlimit:10;stroke-dasharray:1,2;}
	.st13{opacity:0.14;fill:#BBBDBF;}
</style>
<g>
	<defs>
		<polyline id="SVGID_1_" points="-72.1,-282.3 895.8,-282.3 895.8,371 -72.1,371 		"/>
	</defs>
	<clipPath id="SVGID_2_">
		<use xlink:href="#SVGID_1_"  style="overflow:visible;"/>
	</clipPath>
	<g class="st10">
		<defs>
			<rect id="SVGID_3_" x="43.6" y="-282.3" width="852.3" height="653.3"/>
		</defs>
		<clipPath id="SVGID_4_">
			<use xlink:href="#SVGID_3_"  style="overflow:visible;"/>
		</clipPath>
		<g style="clip-path:url(#SVGID_4_);">
			
				<image style="overflow:visible;" width="972" height="656" xlink:href="Screen Shot 2015-12-09 at 18.46.21.png"  transform="matrix(0.9958 0 0 0.9958 -72.114 -282.2703)">
			</image>
		</g>
	</g>
</g>
<g>
	<g>
		<g>
			<path class="st0" d="M20.5,0.8c-5.6-0.5-15-0.2-16.5,6.7c-1,4.5,0.9,8.6,5.2,10.4c2.5,1.1,5.1,0.9,7.7,0.8
				c1.4-0.1,4.2,0.5,4.9-1.1c0.5-1.2-1.2-2.2-1.7-1c-0.1,0.3-5,0.2-5.4,0.2c-2.2,0-4.3-0.2-6.1-1.5C5.2,12.9,4.6,7.2,8.2,4.6
				c3.4-2.4,8.5-2.2,12.4-1.9C21.8,2.9,21.8,0.9,20.5,0.8L20.5,0.8z"/>
		</g>
	</g>
	<g>
		<g>
			<path class="st0" d="M1.6,11.8c2.5,0.1,5.1,0.5,7.6,0.3c1.3-0.1,1.3-2.1,0-2c-2.5,0.2-5.1-0.2-7.6-0.3C0.3,9.7,0.3,11.7,1.6,11.8
				L1.6,11.8z"/>
		</g>
	</g>
	<g>
		<g>
			<path class="st0" d="M1.5,9.1c2.8,0.1,5.6,0.2,8.4,0.2c1.3,0,1.3-2,0-2c-2.8,0-5.6-0.1-8.4-0.2C0.2,7,0.2,9,1.5,9.1L1.5,9.1z"/>
		</g>
	</g>
	<g>
		<g>
			<path class="st0" d="M15.4,23.3c2.8-1.4,5.4-3.2,7.6-5.5c0.4-0.4,0.4-1,0-1.4c-1.5-1.8-3.1-3.5-4.9-5.1c-1-0.9-2.4,0.5-1.4,1.4
				c1.7,1.6,3.4,3.3,4.9,5.1c0-0.5,0-0.9,0-1.4c-2.1,2.1-4.5,3.8-7.2,5.2C13.2,22.2,14.2,23.9,15.4,23.3L15.4,23.3z"/>
		</g>
	</g>
</g>
</svg>
