<?xml version="1.0" encoding="iso-8859-1"?>
<!-- Generator: Adobe Illustrator 16.0.0, SVG Export Plug-In . SVG Version: 6.00 Build 0)  -->
<!DOCTYPE svg PUBLIC "-//W3C//DTD SVG 1.1//EN" "http://www.w3.org/Graphics/SVG/1.1/DTD/svg11.dtd">
<svg version="1.1" id="Capa_1" xmlns="http://www.w3.org/2000/svg" xmlns:xlink="http://www.w3.org/1999/xlink" x="0px" y="0px"
	 width="187.126px" height="187.126px" viewBox="0 0 187.126 187.126" style="enable-background:new 0 0 187.126 187.126;"
	 xml:space="preserve">
<g>
	<g>
		<path d="M139.409,2.028c-0.084-0.14-0.204-0.226-0.31-0.336c-0.61-0.984-1.663-1.693-3.179-1.692
			c-16.695,0.012-33.386,0.073-50.077,0.451C74.819,0.701,63.297-0.237,52.46,2.037c-7.222,1.516-11.505,8.213-14.532,14.256
			c-5.388,10.758-9.264,20.871-16.273,30.866c-3.67,5.233-10.198,14.121-9.032,21.115c1.731,10.377,9.651,14.588,16.46,21.842
			c5.899,6.285,19.238,25.043,30.097,23.771c-0.313,1.363,0.201,2.91,1.831,3.174c7.16,1.162,14.408,2.072,21.679,2.76
			c-0.025,0.044-0.063,0.064-0.087,0.111c-7.65,15.274-11.819,64.084,12.359,67.049c22.674,2.779,22.466-34.924,19.569-57.135
			c0.341-0.492,0.336-1.193-0.236-1.714c-0.36-2.538-0.748-4.852-1.134-6.817c8.124,0.523,18.988,1.91,25.595-0.73
			c0.067-0.027,0.118-0.064,0.181-0.093c0.411-0.155,0.776-0.394,1.073-0.703c0.491-0.476,0.717-1.056,0.819-1.649
			c0.062-0.05,0.129-0.084,0.19-0.139c15.258-13.479,31.56-38.437,33.509-59.072C176.603,37.006,149.345,18.571,139.409,2.028z
			 M89.78,176.273c1.662,1.25,3.485,2.382,5.337,3.382C92.924,179.542,91.164,178.327,89.78,176.273z M98.913,178.836
			c-1.598-0.85-3.296-1.561-4.881-2.39c-2.084-1.093-4.023-2.371-5.987-3.65c-0.447-1.171-0.855-2.422-1.19-3.805
			c2.279,1.407,4.537,2.848,6.757,4.341c2.248,1.512,4.402,3.284,6.622,4.92C99.825,178.487,99.354,178.643,98.913,178.836z
			 M102.526,176.548c-4.754-3.821-10.629-6.975-16.103-9.54c-0.157-0.805-0.291-1.647-0.418-2.498
			c5.742,3.942,12.011,7.754,18.361,9.885C103.815,175.186,103.205,175.908,102.526,176.548z M105.927,171.623
			c-3.86-1.797-7.918-3.263-11.715-5.171c-2.9-1.458-5.74-3.044-8.555-4.676c-0.153-1.388-0.264-2.823-0.355-4.275
			c6.852,4.532,14.252,9.069,21.666,11.388C106.664,169.844,106.322,170.762,105.927,171.623z M107.707,166.122
			c-4.01-2.231-8.438-3.931-12.503-5.996c-3.403-1.729-6.734-3.598-10.048-5.496c-0.066-1.76-0.094-3.541-0.092-5.317
			c3.75,1.787,7.388,3.754,10.977,5.951c4.098,2.51,7.923,5.894,12.157,8.191C108.06,164.369,107.897,165.26,107.707,166.122z
			 M108.606,159.675c-3.394-2.692-7.488-4.798-11.113-6.896c-3.921-2.268-8.089-4.272-12.411-5.74
			c0.024-1.561,0.074-3.098,0.138-4.615c7.565,4.629,15.444,9.455,23.571,12.74C108.769,156.694,108.721,158.21,108.606,159.675z
			 M87.247,120.21c0.133,0.011,0.265,0.015,0.398,0.025c-0.192,0.497-0.102,1.097,0.501,1.478c4.039,2.547,7.975,5.256,12.023,7.789
			c2.089,1.309,4.512,2.916,7.029,3.984c0.147,1.173,0.296,2.353,0.437,3.572c-3.696-2.146-7.853-3.793-11.567-5.756
			c-3.131-1.656-6.191-3.598-9.394-5.16c0.266-1.815,0.533-3.256,0.772-4.168C87.618,121.32,87.506,120.723,87.247,120.21z
			 M96.646,120.757c0.029,0.017,0.044,0.041,0.076,0.056c3.425,1.5,6.466,3.609,9.555,5.636c0.104,0.782,0.204,1.534,0.315,2.364
			c-1.602-0.668-3.199-1.354-4.735-2.196c-3.643-1.998-7.167-4.193-10.82-6.168C92.907,120.571,94.776,120.665,96.646,120.757z
			 M94.555,133.891c4.203,2.465,8.752,5.566,13.496,7.021c0.109,1.109,0.21,2.227,0.3,3.35c-6.799-4.553-14.891-8.13-22.504-11.013
			c0.143-1.548,0.3-2.987,0.46-4.317C88.941,130.758,91.838,132.298,94.555,133.891z M98.248,142.5
			c3.424,1.973,6.768,4.293,10.376,5.952c0.052,1.026,0.105,2.055,0.131,3.074c-7.422-4.335-15.656-7.72-23.412-11.522
			c0.08-1.436,0.178-2.814,0.282-4.16C89.96,137.811,94.101,140.111,98.248,142.5z M135.457,112.436
			c-0.35,0.352-0.591,0.72-0.782,1.092c-6.464-0.891-14.979,0.402-20.392,0.406c-17.311,0.016-34.571-1.332-51.857-2.164
			c0.156-1.211-0.697-2.555-2.239-2.73c-9.331-1.062-20.102-17.51-26.043-23.984c-5.063-5.517-15.622-10.954-13.824-20.232
			c1.676-8.644,10.167-17.227,15.004-24.327c2.876-4.221,4.607-9.094,6.44-13.819C47.201,12.662,54.753,8.119,69.516,8.491
			c22.068,0.557,44.311-0.63,66.404-0.62c0.438,0,0.824-0.076,1.186-0.183c6.906,14.337,18.643,25.701,26.131,39.748
			C173.71,67.078,148.749,99.098,135.457,112.436z"/>
		<path d="M158.396,55.414c-9.676-15.915-11.895-36.915-32.485-41.995c-9.223-2.275-19.361-1.517-28.736-1.103
			c-9.158,0.404-20.914-0.768-29.765,1.583c-5.86,1.556-8.427,4.911-11.479,10.014c-6.969,11.655-17.212,22.179-22.262,34.866
			c-6.777,17.027,16.63,34.361,30.07,40.521c0.106,0.049,0.203,0.047,0.306,0.08c-0.259,1.18,0.205,2.475,1.674,2.742
			c11.885,2.168,23.865,4.766,35.866,6.154c8.293,0.959,23.314,3.818,30.323-2.79c6.955-6.56,11.813-15.496,16.45-23.735
			c2.771-4.922,9.523-14.819,8.375-21.31C158.512,59.622,159.716,57.582,158.396,55.414z M148.727,63.583
			c-3.045,9.984-9.551,19.653-15.268,28.28c-13.795,20.82-45.735,5.328-66.573,5.455c-0.023-0.617-0.293-1.246-0.978-1.73
			C57.221,89.454,51.628,82.977,45,74.763c-8.403-10.412-3.217-16.264,3.398-26.185c4.663-6.992,9.847-13.559,13.991-20.89
			c4.362-7.715,11.951-6.784,19.452-7.104c14.026-0.6,28.129-2.327,42.089,0.016c16.523,2.773,20.067,24.073,27.238,36.903
			C149.585,58.814,149.263,61.826,148.727,63.583z"/>
		<path d="M71.455,65.556c-0.87-5.443-6.226-7.376-8.997-11.498c-2.631-3.914,4.295-4.607,6.186-5.584
			c1.639-0.847,1.564-3.382,0-4.249c-6.893-3.822-14.488,2.84-13.673,9.942c0.545,4.754,4.605,7.313,7.773,10.381
			c0.891,0.863,1.305,1.667,1.592,2.819c-0.139-0.014-0.267-0.026-0.462-0.045c-1.031-0.1-1.887,0.227-2.875,0.411
			c-1.619,0.303-2.699,2.696-1.65,4.056c1.842,2.389,4.281,3.395,7.335,2.796C71.232,73.694,72.091,69.532,71.455,65.556z"/>
		<path d="M90.914,45.658c-2.187-1.625-5.198-0.924-7.781-0.844c-2.754,0.085-5.492,0.135-8.224,0.508
			c-2.648,0.362-2.648,4.963,0,5.326c1.094,0.15,2.191,0.221,3.287,0.29c-0.567,2.581-0.269,5.658-0.376,8.029
			c-0.195,4.337-0.227,8.643,0.078,12.975c0.217,3.079,4.507,3.054,4.762,0c0.362-4.328,0.778-8.659,1.27-12.975
			c0.292-2.561,1.057-5.172,0.976-7.697c2.108,0.164,4.306,0.306,6.007-0.957C92.632,49.036,92.632,46.934,90.914,45.658z"/>
		<path d="M114.64,48.82c-2.186-2.303-6.968-4.066-9.658-1.793c-12.522-0.593-16.255,31.652,2.27,28.698
			c7.741-1.234,11.318-10.041,11.217-17.034C118.413,55.046,117.159,51.474,114.64,48.82z M106.547,68.305
			c-4.581,1.652-5.067-5.628-4.9-8.38c0.18-2.958,1.513-5.894,3.816-7.577c1.302,0.682,2.831,0.607,3.991,1.658
			c1.243,1.126,1.49,3.112,1.562,4.685C111.161,61.906,110,67.06,106.547,68.305z"/>
		<path d="M128.193,43.65c-1.626,0.022-2.959,1.078-3.434,2.615c-2.986,9.651-4.18,19.981-4.229,30.07
			c-0.348,3.301,5.4,4.703,5.955,1.051c0.578-3.805,1.024-7.605,1.527-11.386c6.505,2.41,14.647-0.252,16.016-7.785
			C145.757,48.693,136.376,43.54,128.193,43.65z M129.108,58.732c0.457-2.604,1.016-5.194,1.714-7.769
			c3.11,0.46,6.079,1.905,6.122,5.531C136.994,60.684,131.828,59.355,129.108,58.732z"/>
	</g>
</g>
<g>
</g>
<g>
</g>
<g>
</g>
<g>
</g>
<g>
</g>
<g>
</g>
<g>
</g>
<g>
</g>
<g>
</g>
<g>
</g>
<g>
</g>
<g>
</g>
<g>
</g>
<g>
</g>
<g>
</g>
</svg>
