<?xml version="1.0" encoding="iso-8859-1"?>
<!-- Generator: Adobe Illustrator 16.0.0, SVG Export Plug-In . SVG Version: 6.00 Build 0)  -->
<!DOCTYPE svg PUBLIC "-//W3C//DTD SVG 1.1//EN" "http://www.w3.org/Graphics/SVG/1.1/DTD/svg11.dtd">
<svg version="1.1" id="Capa_1" xmlns="http://www.w3.org/2000/svg" xmlns:xlink="http://www.w3.org/1999/xlink" x="0px" y="0px"
	 width="196.046px" height="196.046px" viewBox="0 0 196.046 196.046" style="enable-background:new 0 0 196.046 196.046;"
	 xml:space="preserve">
<g>
	<g>
		<path d="M91.895,46.199C81.43,31.123,73.067,14.703,61.268,0.562c-0.707-0.848-1.994-0.642-2.73,0
			c-5.646,4.918-12.236,10.672-18.31,17.044c-0.16-0.153-0.332-0.29-0.49-0.445c-0.499-0.486-1.227,0.251-0.76,0.76
			c0.156,0.17,0.327,0.321,0.485,0.49c-8.617,9.185-16.041,19.634-17.936,30.796c-0.116,0.681,0.224,1.142,0.661,1.448
			c-0.312,0.927-0.023,2.086,1.086,2.286c4.829,0.869,10.168-0.141,15.045-0.37c3.37-0.159,3.467,5.665,3.055,10.911
			c-0.016,0.059-0.022,0.109-0.014,0.168c-0.229,2.83-0.596,5.474-0.669,6.881c-0.306,5.875-1.855,19.635,3.953,24.337
			c0.086,0.552,0.351,1.099,0.901,1.326c6.094,2.511,14.402,2.665,20.645,0.535c1.843-0.629,1.728-2.903,0.466-3.685
			c2.422-13.715,2.588-27.591,2.614-41.501c7.018,0.04,15.049,2.193,21.488-0.322c1.187-0.463,1.451-2.008,0.775-2.813
			C92.182,47.916,92.511,47.083,91.895,46.199z M63.435,9.383c1.803,2.341,3.485,4.781,5.112,7.256
			c-2.018-1.495-4.073-2.953-6.034-4.488c-2.032-1.59-4.133-3.07-6.345-4.377C59.171,4.658,59.184,3.865,63.435,9.383z
			 M24.557,49.325c0.579-1.859,1.288-3.672,2.094-5.448c2.522,1.386,4.891,3.004,7.293,4.586
			C30.763,48.552,27.579,48.763,24.557,49.325z M36.44,48.418c-2.738-2.3-5.921-4.188-9.213-5.665
			c0.643-1.335,1.292-2.667,2.03-3.963c4.293,3.197,8.59,6.398,12.905,9.579C40.299,48.388,38.376,48.396,36.44,48.418z
			 M46.772,93.418c-0.353-1.318-0.82-2.604-1.224-3.936c1.506,1.567,3.124,3.048,4.834,4.275
			C49.177,93.666,47.973,93.558,46.772,93.418z M54.079,93.921c-1.691-1.5-3.682-2.765-5.398-4.163
			c-1.313-1.07-2.578-2.19-3.798-3.356c-0.196-1.201-0.308-2.428-0.377-3.665c4.919,3.833,9.983,7.556,15.211,10.946
			C57.844,93.866,55.964,93.958,54.079,93.921z M63.693,93.12c-0.351,0.075-0.706,0.087-1.057,0.15
			c-5.934-4.212-12.14-8.065-18.178-12.142c-0.047-1.975,0.04-3.914,0.105-5.848c3.137,2.345,6.253,4.719,9.385,7.07
			c3,2.251,6.42,5.286,10.062,6.702C63.899,90.408,63.824,91.765,63.693,93.12z M64.174,86.953
			c-2.876-2.274-6.419-4.077-9.346-6.108c-3.4-2.359-6.788-4.722-10.239-6.999c0.01-0.272,0.005-0.567,0.015-0.836
			c0.076-2.01,0.193-4.017,0.308-6.023c3.404,3.079,6.72,6.261,10.132,9.325c2.487,2.232,5.857,5.674,9.326,6.685
			C64.287,84.314,64.273,85.635,64.174,86.953z M64.491,80.579c-3.383-2.515-7.118-4.663-10.39-7.422
			c-3.037-2.563-6.038-5.151-9.118-7.653c0.11-2.011,0.182-4.02,0.208-6.029C51.3,64.75,57.528,71.388,64.719,75.031
			C64.636,76.88,64.596,78.73,64.491,80.579z M64.811,72.823c-6.604-4.96-13.007-10.147-19.594-15.142
			c-0.023-2.492-0.185-4.981-0.559-7.47c6.675,4.878,13.442,9.623,20.433,14.015C65.01,67.091,64.929,69.958,64.811,72.823z
			 M65.189,61.127c-11.863-7.689-23.474-15.754-35.321-23.464c0.679-1.139,1.413-2.252,2.16-3.358
			c10.709,7.474,21.879,14.88,33.224,21.343C65.229,57.475,65.231,59.302,65.189,61.127z M65.322,49.59
			c0.001,1.127-0.031,2.251-0.039,3.377c-10.241-7.332-21.65-13.365-32.423-19.881c1.247-1.776,2.621-3.48,4.001-5.178
			c9.587,6.829,19.423,13.99,29.628,19.915C65.81,48.134,65.322,48.765,65.322,49.59z M69.576,47.566
			c-9.707-7.948-21.355-13.88-31.897-20.716c1.541-1.848,3.152-3.64,4.79-5.402c10.52,10.233,23.202,17.792,35.17,26.256
			C74.954,47.596,72.268,47.5,69.576,47.566z M82.045,47.865c-0.053-0.055-0.084-0.117-0.15-0.165
			c-12.646-9.346-26.658-16.836-38.501-27.218c1.309-1.385,2.646-2.714,3.978-4.053C60.538,26.68,73.065,38.172,86.541,47.906
			C85.042,47.907,83.542,47.916,82.045,47.865z M48.378,15.403c1.087-1.082,2.157-2.102,3.239-3.157
			c3.112,2.778,6.428,5.336,9.748,7.878c3.696,2.829,8.487,7.816,13.085,8.986c0.902,0.23,1.527-0.866,0.894-1.536
			c-3.158-3.341-8.279-5.719-12.025-8.417c-3.605-2.596-7.144-5.322-10.881-7.712c0.882-0.855,1.778-1.749,2.648-2.58
			c0.02-0.019,0.033-0.034,0.053-0.054c2.454,1.63,4.811,3.365,7.063,5.305c2.705,2.329,5.466,5.183,8.749,6.668
			c0.085,0.039,0.169,0.006,0.255,0.018c0.662,1.045,1.338,2.084,1.998,3.126c4.755,7.5,9.25,15.146,14.345,22.419
			C76.988,34.207,61.474,24.802,48.378,15.403z"/>
		<path d="M174.419,49.059c-5.977-17.025-21.394-27.929-31.442-42.383c-0.731-1.053-2.149-1.347-3.123-0.403
			c-9.804,9.513-20.439,18.122-29.788,27.988c-0.338-0.013-0.633,0.298-0.6,0.623c-3.578,3.82-6.972,7.819-10.023,12.158
			c-0.239,0.34-0.302,0.664-0.296,0.971c-0.548,0.149-1.123,0.263-1.564,0.546c-0.089,0.057-0.147,0.168-0.111,0.274
			c1.024,3.111,5.898,2.758,8.619,2.852c1.821,0.063,3.643,0.044,5.465,0.022c0.49,0.286,0.969,0.609,1.471,0.85
			c0.626,0.301,1.049-0.401,0.677-0.866c1.912-0.04,3.827-0.092,5.74-0.125c0.042,2.305,0.029,4.606,0.056,6.91
			c-0.049-0.044-0.097-0.085-0.145-0.129c-0.378-0.348-0.915,0.187-0.563,0.564c0.234,0.252,0.479,0.505,0.717,0.757
			c0.122,12.254,0.085,24.497,0.067,36.763c-0.002,1.06,0.895,1.977,1.964,1.963c8.078-0.101,16.134-0.716,24.135,0.741
			c1.288,0.234,2.394-0.538,2.469-1.881c0.872-15.592,1.678-31.19,1.66-46.811c3.729,0.948,7.498,1.451,11.337,1.751
			c3.31,0.258,7.431,0.995,10.532-0.367c0.187-0.082,0.298-0.247,0.42-0.399C173.435,51.683,174.996,50.704,174.419,49.059z
			 M141.781,11.893c4.578,6.561,10.351,12.217,15.679,18.169c-5.229-6.472-14.07-10.298-21.161-14.903
			C139.275,12.668,141.362,11.292,141.781,11.893z M135.271,16.022c3.035,2.268,6.188,4.36,9.368,6.428
			c4.189,2.727,7.818,6.014,11.802,8.979c0.844,0.628,1.6-0.651,1.04-1.347c3.691,4.125,7.173,8.388,9.871,13.21
			c-11.238-8.712-23.881-16.565-36.015-23.748C132.741,18.249,134.064,17.062,135.271,16.022z M108.437,47.87
			c-1-0.742-1.952-1.554-2.868-2.427c1.104-1.195,2.427-2.604,3.947-4.201c1.635,2.01,3.434,3.867,5.477,5.499
			c0.379,0.302,0.814,0.64,1.242,0.973C113.636,47.772,111.037,47.839,108.437,47.87z M123.523,94.44
			c0.019-1.664,0.046-3.333,0.076-5.003c1.96,1.234,3.92,2.466,5.881,3.698c0.605,0.38,1.22,0.807,1.842,1.24
			C128.728,94.373,126.13,94.403,123.523,94.44z M144.338,95.084c-3.098-0.412-6.198-0.584-9.305-0.662
			c-1.505-1.027-3.273-1.843-4.727-2.697c-2.216-1.303-4.446-2.582-6.679-3.856c0.039-2.129,0.067-4.263,0.099-6.398
			c3.338,2.055,6.467,4.468,9.659,6.726c3.244,2.295,6.921,5.13,11.011,5.562C144.375,94.202,144.358,94.643,144.338,95.084z
			 M144.455,92.416c-7.606-2.521-13.683-8.44-20.708-12.299c0.038-3.122,0.022-6.243-0.034-9.361c3.8,2.706,7.266,6.202,10.76,9.184
			c2.765,2.359,6.477,6.769,10.179,7.931C144.581,89.385,144.527,90.9,144.455,92.416z M144.737,85.906
			c-3.319-3.031-7.234-5.634-10.703-8.455c-3.251-2.645-6.615-5.774-10.353-7.828c-0.046-1.978-0.188-3.947-0.297-5.919
			c6.175,6.268,12.99,12.296,20.672,16.311c0.356,0.186,0.664,0.106,0.924-0.055C144.896,81.941,144.829,83.923,144.737,85.906z
			 M145.048,78.352c-0.006-0.004-0.004-0.011-0.011-0.014c-7.888-4.809-14.909-10.4-21.744-16.464
			c-0.183-2.688-0.461-5.365-0.811-8.034c3.533,3.556,7.225,6.953,11.035,10.209c2.7,2.308,6.349,6.207,9.989,6.881
			c0.957,0.177,1.371-0.939,0.635-1.505c-7.485-5.747-15.034-11.098-21.942-17.602c-0.051-0.329-0.096-0.658-0.139-0.988
			c0.375,0.082,0.75,0.227,1.121,0.236c0.53,0.014,0.933-0.761,0.466-1.124c-0.521-0.406-1.152-0.689-1.74-1.022
			c-0.042-0.106-0.066-0.208-0.113-0.319c-0.257-0.606-1.073-0.979-1.691-0.97c-0.14,0.002-0.28,0.006-0.42,0.008
			c-1.01-0.498-2.031-0.983-2.95-1.593c-2.37-1.572-4.465-3.566-6.324-5.739c0.786-0.822,1.62-1.686,2.477-2.571
			c10.71,8.372,21.575,16.701,32.738,24.429C145.467,67.565,145.276,72.959,145.048,78.352z M145.672,59.672
			c-10.335-7.963-21.07-15.524-31.83-22.918c0.946-0.974,1.931-1.979,2.929-2.992c5.025,2.694,9.562,6.362,14.106,9.766
			c4.305,3.224,9.549,8.303,14.92,10.249C145.756,55.743,145.721,57.708,145.672,59.672z M147.98,48.533
			c-1.025-0.064-2.102,0.551-2.115,1.88c-0.003,0.33-0.016,0.66-0.021,0.991c-4.524-3.269-9.634-6.052-14.132-9.309
			c-4.431-3.208-9.026-7.131-14.244-9.042c1.05-1.062,2.121-2.138,3.195-3.21c4.848,3.368,9.744,6.668,14.644,9.961
			c3.854,2.59,8.244,6.457,12.749,8.538C148.037,48.406,147.996,48.465,147.98,48.533z M150.489,47.325
			c-3.513-3.211-8.686-5.417-12.636-7.833c-5.537-3.387-11.002-6.883-16.488-10.349c1.315-1.309,2.631-2.6,3.933-3.866
			c6.736,3.684,12.983,8.229,19.164,12.764c4.275,3.138,9.005,7.594,14.092,10.113C155.849,48.019,153.149,47.796,150.489,47.325z
			 M163.32,48.3c-0.068-0.111-0.107-0.234-0.234-0.317c-12.002-7.834-24.189-17.052-37.146-23.326
			c1.57-1.521,3.086-2.957,4.548-4.319c12.538,9.05,25.244,19.51,38.782,26.949c0.178,0.408,0.408,0.778,0.574,1.194
			C167.747,48.077,165.46,48.263,163.32,48.3z"/>
		<path d="M130.577,143.782c-6.656-0.491-13.535-0.013-20.21,0.082c-0.631,0.009-1.325,0.344-1.619,0.929s-0.406,1.087-0.099,1.699
			c0.033,0.065,0.066,0.13,0.099,0.194c0.295,0.586,0.989,0.921,1.619,0.93c5.352,0.075,10.827,0.375,16.222,0.247
			c-9.891,13.774-17.692,28.931-28.394,42.144c-2.744,3.387-28.953-34.382-34.82-42.841c3.176,0.134,6.348,0.209,9.529,0.205
			c2.552-0.003,6.095,0.295,8.269-1.21c0.356-0.246,0.522-0.599,0.601-0.961c0.141-0.056,0.292-0.088,0.408-0.19
			c4.965-4.427,2.678-16.023,2.284-21.722c-0.378-5.469-0.88-10.922-1.044-16.403c-0.059-1.983,0.332-4.228,0.447-6.386
			c6.652,1.204,13.442,2.311,20.211,2.654c0.13,7.68,0.645,15.346,1.12,23.009c0.343,5.52-0.77,13.095,1.062,18.294
			c0.369,1.048,1.875,1.416,2.471,0.322c2.359-4.322,0.735-11.406,0.48-16.112c-0.494-9.103-1.293-18.184-1.388-27.304
			c-0.011-1.058-0.858-1.876-1.903-1.903c-7.378-0.193-14.626-1.948-21.992-2.061c-0.108-0.002-0.163,0.087-0.26,0.106
			c-0.079-0.406-0.093-0.838-0.239-1.216c-0.122-0.316-0.468-0.513-0.789-0.321c-5.021,3-2.756,15.412-2.479,20.091
			c0.559,9.416,0.437,18.059-0.148,27.343c-2.239-0.385-4.915,0.236-7.11,0.415c-3.503,0.286-7.026,0.351-10.536,0.52
			c-0.833,0.04-1.238,0.633-1.304,1.255c-0.554,0.25-0.926,0.85-0.521,1.557c9.936,17.297,21.201,33.95,35.051,48.366
			c0.66,0.688,1.925,0.731,2.578,0c13.034-14.591,21.66-32.279,33.146-48.007C133.057,146.75,132.816,143.948,130.577,143.782z"/>
	</g>
</g>
<g>
</g>
<g>
</g>
<g>
</g>
<g>
</g>
<g>
</g>
<g>
</g>
<g>
</g>
<g>
</g>
<g>
</g>
<g>
</g>
<g>
</g>
<g>
</g>
<g>
</g>
<g>
</g>
<g>
</g>
</svg>
