<svg width="38" height="38" viewBox="0 0 38 38" fill="none" xmlns="http://www.w3.org/2000/svg">
<ellipse cx="18.4243" cy="18.2597" rx="14.9697" ry="14.9697" fill="white"/>
<path d="M31.3531 14.7975C31.3531 15.2126 31.2066 15.6033 30.9136 15.8963L17.6544 29.1554C17.3614 29.4485 16.9463 29.6194 16.5312 29.6194C16.1405 29.6194 15.7254 29.4485 15.4324 29.1554L6.59294 20.316C6.29992 20.023 6.15341 19.6323 6.15341 19.2172C6.15341 18.8021 6.29992 18.387 6.59294 18.094L8.815 15.8963C9.10802 15.6033 9.49872 15.4324 9.91383 15.4324C10.3289 15.4324 10.7196 15.6033 11.0126 15.8963L16.5312 21.4148L26.4938 11.4766C26.7869 11.1836 27.1776 11.0126 27.5927 11.0126C28.0078 11.0126 28.3985 11.1836 28.6915 11.4766L30.9136 13.6742C31.2066 13.9673 31.3531 14.3824 31.3531 14.7975ZM37.5065 18.7532C37.5065 8.39989 29.1066 0 18.7532 0C8.39989 0 0 8.39989 0 18.7532C0 29.1066 8.39989 37.5065 18.7532 37.5065C29.1066 37.5065 37.5065 29.1066 37.5065 18.7532Z" fill="#E8B106"/>
</svg>
