<svg xmlns="http://www.w3.org/2000/svg" xml:space="preserve" width="526.775" height="140.375" viewBox="0 0 526.775 140.375"><path fill="#283b82" d="M63.2129.0087H22.2403c-2.8043 0-5.1886 2.0375-5.626 4.8063L.043 109.8799c-.3296 2.0722 1.2763 3.9419 3.3789 3.9419h19.561c2.8037 0 5.188-2.0367 5.6255-4.8105l4.4692-28.3374c.4317-2.7745 2.8218-4.8116 5.6197-4.8116H51.668c26.9898 0 42.5664-13.0606 46.6347-38.942 1.833-11.3232.0777-20.2197-5.2246-26.4503C87.255 3.6275 76.9262.0087 63.213.0087M67.94 38.3824c-2.2407 14.7021-13.4741 14.7021-24.336 14.7021h-6.1826l4.3373-27.457c.258-1.6597 1.6954-2.8819 3.3732-2.8819h2.8335c7.3989 0 14.3789 0 17.9852 4.2173 2.151 2.5166 2.8102 6.2549 1.9894 11.4195M185.6875 37.9091h-19.62c-1.6712 0-3.115 1.2223-3.3737 2.8819l-.8676 5.4878-1.3725-1.9893c-4.2475-6.165-13.72-8.2255-23.1737-8.2255-21.6814 0-40.1999 16.4214-43.8064 39.457-1.875 11.4908.791 22.4785 7.3091 30.1406 5.979 7.0454 14.5342 9.981 24.7135 9.981 17.47 0 27.1575-11.2325 27.1575-11.2325l-.875 5.4518c-.33 2.0849 1.2763 3.954 3.3675 3.954h17.6725c2.81 0 5.1825-2.0371 5.6263-4.8105l10.6037-67.1543c.3363-2.067-1.2637-3.942-3.3612-3.942m-27.3487 38.1871c-1.8925 11.209-10.79 18.7344-22.1363 18.7344-5.6975 0-10.2512-1.8277-13.1751-5.2906-2.8995-3.4389-4.002-8.3335-3.0791-13.7856 1.767-11.1133 10.8142-18.8833 21.9867-18.8833 5.5725 0 10.1013 1.851 13.085 5.3433 2.99 3.5287 4.175 8.4536 3.3188 13.8818M290.1837 37.9091h-19.7162c-1.8812 0-3.6487.9347-4.715 2.4987l-27.1937 40.056-11.5263-38.4926c-.725-2.4087-2.9475-4.062-5.4637-4.062h-19.375c-2.355 0-3.99 2.3003-3.2413 4.517l21.7175 63.733-20.4175 28.8232c-1.6062 2.27.0112 5.3926 2.7862 5.3926h19.6925c1.8688 0 3.6188-.9111 4.6788-2.4448l65.5775-94.6587c1.57-2.2651-.0412-5.3624-2.8037-5.3624"/><path fill="#469bdb" d="M355.4625.0087h-40.9787c-2.7975 0-5.1825 2.0375-5.62 4.8063l-16.5713 105.0649c-.3287 2.0722 1.2763 3.9418 3.3675 3.9418h21.0288c1.9525 0 3.625-1.4252 3.93-3.3666l4.7025-29.7812c.4312-2.7745 2.8225-4.8117 5.62-4.8117h12.965c26.995 0 42.5662-13.0605 46.64-38.9418 1.84-11.3233.0725-20.2198-5.23-26.4504-5.8176-6.8425-16.14-10.4613-29.8538-10.4613m4.7275 38.3737c-2.235 14.7021-13.4675 14.7021-24.3363 14.7021h-6.1762l4.3438-27.457c.2575-1.6597 1.6825-2.8819 3.3662-2.8819h2.8338c7.3937 0 14.3787 0 17.985 4.2173 2.1512 2.5166 2.8037 6.2549 1.9837 11.4195M477.9325 37.9091h-19.6087c-1.6838 0-3.1163 1.2223-3.3675 2.8819l-.8688 5.4878-1.3775-1.9893c-4.2475-6.165-13.7137-8.2255-23.1675-8.2255-21.6825 0-40.1937 16.4214-43.8013 39.457-1.8687 11.4908.785 22.4785 7.3038 30.1406 5.9913 7.0454 14.5338 9.981 24.7125 9.981 17.47 0 27.1575-11.2325 27.1575-11.2325l-.875 5.4518c-.3288 2.0849 1.2762 3.954 3.38 3.954h17.6675c2.7975 0 5.1825-2.0371 5.62-4.8105l10.61-67.1543c.3225-2.067-1.2825-3.942-3.385-3.942m-27.35 38.1871c-1.8812 11.209-10.79 18.7344-22.1362 18.7344-5.6863 0-10.2513-1.8277-13.175-5.2906-2.8988-3.4389-3.99-8.3335-3.0788-13.7856C413.9712 64.641 423.0062 56.871 434.18 56.871c5.5712 0 10.1 1.851 13.0837 5.3433 3.0013 3.5287 4.1875 8.4536 3.3188 13.8818M501.0638 2.8913l-16.8176 106.9886c-.3287 2.0722 1.2763 3.9418 3.3675 3.9418H504.52c2.81 0 5.195-2.0366 5.6263-4.8105L526.7288 3.9525c.33-2.0738-1.275-3.9488-3.3663-3.9488H504.43c-1.6713.005-3.1088 1.2288-3.3663 2.8875"/></svg>