<svg xmlns="http://www.w3.org/2000/svg" width="49.984" height="13.683" fill="none"><path fill="#10298e" fill-rule="evenodd" d="M29.821 6.976h2.292q1.09-.038 1.328-.17.326-.18.435-.718.07-.36.07-1.068 0-.867-.139-1.287-.198-.589-.95-.719-.15-.02-.713-.02h-2.323zm-3.676 6.707V0h6.85q1.41 0 2.148.23 1.688.531 2.27 2.172.3.86.3 2.593 0 2.08-.331 2.993-.66 1.8-2.71 2.071-.24.04-2.049.07l-.61.021H29.82v3.533zM7.685 4.365h3.42q.033-.455.033-.68Q11.138.92 8.906.32 7.991.073 5.838.072 4.47.072 3.35.171q-1.347.11-2.212.727-.591.403-.856 1.18T.017 4.14q0 1.69.49 2.526.56.982 2.239 1.296.637.11 2.277.226 2.043.138 2.288.216.658.197.658 1.1 0 .405-.078.66-.148.412-.62.598-.266.1-1.227.1H4.786a2 2 0 0 1-.855-.187q-.51-.255-.51-1.146V9.43l-.001-.186H0q0 1.67.246 2.386.443 1.287 1.83 1.709 1.13.345 4.004.344 1.72 0 2.558-.158 1.995-.373 2.567-1.78.315-.765.315-2.419 0-.717-.069-1.288-.118-.953-.74-1.544-.787-.757-2.541-.934a98 98 0 0 0-2.77-.207l-.69-.049q-.453-.03-.729-.196-.385-.236-.384-.984 0-.825.433-1.072.433-.245 1.773-.245 1.38 0 1.685.426.197.29.197 1.132M43.106 2.72l1.723 5.931h-3.394zm-2.462 8.597h4.915l.702 2.365h3.723L45.83 0h-5.546L36.18 13.683h3.804z" clip-rule="evenodd"/><path fill="#ffbe00" fill-rule="evenodd" d="M21.07 1.925c1.517 0 2.87.7 3.76 1.796l.792-1.702A6.94 6.94 0 0 0 20.836.122c-2.897 0-5.375 1.752-6.392 4.233H12.9l-.913 1.96h1.988a6.6 6.6 0 0 0 .01 1.215h-1l-.912 1.96h2.42c1.045 2.417 3.492 4.115 6.344 4.115 1.437 0 2.77-.431 3.874-1.168v-2.402a4.83 4.83 0 0 1-3.64 1.655 4.84 4.84 0 0 1-4.052-2.2h5.066l.912-1.96h-6.724a5 5 0 0 1-.028-1.216h7.317l.913-1.96h-7.598a4.84 4.84 0 0 1 4.195-2.429" clip-rule="evenodd"/></svg>