<svg width="456" height="399" viewBox="0 0 456 399" fill="none" xmlns="http://www.w3.org/2000/svg">
<path d="M76.4729 171.01V183.424L119.823 209.236V171.01H76.4729Z" fill="#296DFF"/>
<path d="M156.768 231.207L229.281 274.261L300.118 231.404V187.069L227.803 229.926L156.768 187.167V231.207Z" fill="#296DFF"/>
<path d="M337.064 171.01V209.039L380.414 182.832V171.01H337.064Z" fill="#296DFF"/>
<path d="M428 171.01V133.079H402.187L229.773 25L52.9261 133.079H28V171.01H39.5271V335.049H28V372.98H428V335.049H417.36V171.01H428ZM300.118 171.01V335.049H156.768V171.01H300.118ZM227.31 69.335L336.177 133.079H123.665L227.31 69.335ZM76.4729 171.01H119.823V335.049H76.4729V171.01ZM380.414 335.049H337.064V171.01H380.414V335.049Z" fill="#C9D2DC"/>
</svg>
