<?xml version="1.0" standalone="no"?>
<!DOCTYPE svg PUBLIC "-//W3C//DTD SVG 20010904//EN"
 "http://www.w3.org/TR/2001/REC-SVG-20010904/DTD/svg10.dtd">
<svg version="1.0" xmlns="http://www.w3.org/2000/svg"
 width="912.000000pt" height="912.000000pt" viewBox="0 0 912.000000 912.000000"
 preserveAspectRatio="xMidYMid meet">
<metadata>
Created by potrace 1.11, written by Peter Selinger 2001-2013
</metadata>
<g transform="translate(0.000000,912.000000) scale(0.100000,-0.100000)"
fill="#000000" stroke="none">
<path d="M4534 8014 c-54 -35 -75 -48 -170 -103 -33 -19 -60 -38 -62 -43 -2
-4 -10 -8 -18 -8 -8 0 -14 -4 -14 -10 0 -5 -4 -10 -9 -10 -9 0 -32 -14 -165
-95 -87 -53 -243 -148 -261 -158 -11 -7 -33 -21 -50 -33 -16 -12 -40 -24 -52
-28 -13 -4 -23 -12 -23 -17 0 -5 -7 -9 -15 -9 -8 0 -15 -4 -15 -10 0 -5 -5
-10 -10 -10 -9 0 -85 -45 -220 -130 -8 -5 -42 -25 -75 -45 -33 -19 -89 -53
-124 -75 -34 -22 -66 -40 -70 -40 -5 0 -16 -9 -26 -20 -10 -11 -22 -20 -26
-20 -4 0 -54 -29 -111 -64 -57 -35 -179 -109 -273 -166 -93 -57 -192 -117
-220 -135 -27 -17 -66 -40 -85 -51 -19 -10 -37 -21 -40 -24 -12 -12 -112 -70
-121 -70 -5 0 -9 -4 -9 -8 0 -5 -12 -15 -27 -23 -16 -7 -133 -78 -261 -156
-128 -79 -237 -143 -243 -143 -5 0 -9 -4 -9 -8 0 -5 -15 -16 -32 -26 -40 -20
-52 -28 -148 -87 -41 -25 -168 -103 -283 -173 l-207 -128 -249 1 -249 0 -2
-87 c-1 -48 -1 -94 -1 -102 1 -8 1 -33 0 -55 0 -22 -1 -47 0 -55 0 -8 0 -55 0
-105 0 -49 0 -97 0 -105 2 -46 2 -157 1 -165 -2 -6 -2 -27 -1 -47 l1 -38 115
0 115 0 0 -1640 0 -1639 -117 -3 c-90 -2 -117 -6 -115 -16 2 -13 3 -37 2 -77
-1 -29 -2 -197 -1 -215 1 -16 0 -155 -1 -180 0 -8 0 -28 1 -45 1 -16 1 -39 1
-50 0 -11 0 -42 1 -70 0 -27 0 -54 -1 -60 -1 -5 -2 -18 -1 -27 1 -17 199 -18
4001 -18 l4000 0 1 23 c1 12 0 27 -1 32 -1 6 -2 35 -1 65 1 30 2 64 2 75 1
174 1 223 -1 240 -2 29 -2 32 0 122 1 45 -1 86 -4 92 -4 5 -3 12 2 15 5 3 6
24 3 48 l-6 43 -103 0 -102 0 -1 35 c0 46 0 3210 0 3233 1 17 10 18 106 15
l105 -3 0 105 c1 58 1 114 2 125 0 11 0 36 -1 55 -1 19 -2 46 -2 60 0 14 -2
34 -3 45 -1 11 1 35 5 53 4 17 3 34 -1 37 -4 3 -4 22 0 42 5 20 6 41 4 45 -6
9 -8 133 -4 153 10 44 15 43 -258 43 l-258 1 -114 71 c-63 39 -124 77 -134 83
-11 7 -25 16 -30 20 -19 14 -230 145 -286 178 -30 17 -57 35 -60 38 -3 4 -39
27 -80 51 -41 25 -76 48 -78 52 -2 5 -8 8 -14 8 -5 0 -29 14 -53 30 -24 17
-48 30 -54 30 -6 0 -11 3 -11 8 0 4 -20 18 -45 32 -25 14 -45 28 -45 32 0 5
-5 8 -12 8 -7 0 -28 11 -47 24 -88 57 -207 133 -221 139 -8 4 -82 50 -164 102
-81 52 -152 95 -157 95 -5 0 -9 3 -9 8 0 4 -17 16 -37 27 -21 11 -42 24 -48
28 -14 11 -116 77 -119 77 -2 0 -81 49 -177 110 -172 108 -335 210 -374 233
-11 7 -22 14 -25 17 -3 3 -21 14 -40 24 -19 11 -37 22 -40 26 -3 3 -39 26 -80
50 -41 25 -76 48 -78 52 -2 5 -7 8 -12 8 -5 0 -57 32 -117 70 -59 39 -123 77
-140 85 -18 9 -33 19 -33 24 0 5 -11 12 -25 15 -14 4 -25 11 -25 16 0 6 -4 10
-9 10 -13 0 -335 202 -339 212 -2 4 -8 8 -14 8 -5 0 -22 9 -38 20 -55 39 -71
40 -126 4z m45 -868 c9 -8 32 -23 51 -33 139 -77 426 -248 428 -255 2 -4 12
-8 22 -8 10 0 20 -4 22 -8 2 -7 73 -49 258 -154 19 -11 46 -28 60 -37 14 -9
36 -22 50 -29 14 -7 39 -20 55 -31 17 -10 122 -72 235 -138 176 -103 662 -388
755 -443 17 -10 57 -33 90 -52 82 -47 105 -62 105 -68 0 -3 -951 -5 -2114 -5
-1612 0 -2112 3 -2105 12 6 6 42 31 82 55 40 23 81 48 92 55 11 7 35 20 53 29
17 10 32 21 32 26 0 4 5 8 11 8 6 0 31 14 56 30 24 17 46 30 49 30 3 0 17 8
32 19 45 30 81 51 88 50 4 0 10 3 13 8 6 9 139 93 147 93 3 0 10 5 17 10 23
20 237 150 247 150 6 0 10 4 10 9 0 5 8 11 18 15 9 3 37 19 62 36 25 16 54 34
65 40 11 6 32 18 47 28 40 25 265 164 297 183 15 9 123 76 239 148 117 72 215
131 218 131 3 0 10 5 17 10 27 24 153 99 166 99 8 1 22 -5 30 -13z m1422
-2033 c0 -10 1 -83 1 -162 l1 -144 -46 -26 c-95 -54 -452 -265 -457 -270 -3
-4 -25 -17 -50 -30 -25 -13 -68 -39 -96 -58 -28 -18 -54 -33 -58 -33 -4 0 -31
-15 -59 -34 -54 -34 -245 -148 -262 -155 -5 -2 -57 -33 -115 -69 -58 -35 -114
-68 -125 -73 -25 -11 -55 -30 -73 -46 -7 -7 -19 -13 -27 -13 -7 0 -15 -3 -17
-7 -1 -5 -16 -15 -33 -24 l-30 -17 -214 129 c-117 71 -218 129 -222 129 -5 0
-9 4 -9 8 0 4 -22 19 -50 33 -27 13 -50 27 -50 32 0 4 -4 7 -9 7 -12 0 -115
63 -119 73 -2 4 -8 7 -13 7 -5 0 -38 18 -74 40 -36 22 -70 40 -75 40 -6 0 -10
4 -10 8 0 5 -19 18 -42 31 -53 27 -81 44 -88 52 -3 4 -15 9 -27 13 -13 4 -23
12 -23 17 0 5 -4 9 -9 9 -6 0 -50 25 -100 55 -50 30 -105 63 -123 74 -18 10
-62 36 -98 58 l-65 40 -1 154 c0 85 1 157 4 162 2 4 646 7 1433 7 1354 0 1429
-1 1430 -17z m1608 -1743 l0 -1520 -434 0 -434 0 0 1260 0 1260 70 42 c105 64
142 86 164 97 11 6 52 31 90 56 39 24 99 61 135 81 36 21 67 41 68 46 2 4 9 8
17 8 7 0 18 7 25 15 7 9 15 13 17 11 3 -3 10 0 17 5 15 14 249 157 258 158 3
1 7 -683 7 -1519z m-5996 1461 c37 -22 72 -41 77 -41 6 0 10 -4 10 -10 0 -5 5
-10 10 -10 6 0 29 -12 53 -27 23 -16 56 -35 72 -43 17 -8 49 -27 72 -43 24
-15 45 -27 48 -27 3 0 11 -5 18 -10 21 -18 348 -210 358 -210 5 0 9 -4 9 -9 0
-5 12 -14 28 -20 l28 -12 0 -1259 0 -1260 -433 0 -433 0 0 1516 c0 833 3 1513
8 1511 4 -3 37 -23 75 -46z m1567 -932 c3 -3 12 -9 20 -12 8 -4 31 -17 50 -28
19 -12 112 -67 205 -122 94 -56 173 -106 177 -112 4 -5 8 -7 8 -4 0 6 501
-288 525 -308 6 -4 21 -14 35 -20 14 -7 41 -23 62 -35 49 -31 232 -139 266
-158 15 -8 29 -18 30 -22 2 -5 10 -8 19 -8 13 0 250 138 438 255 39 24 75 44
82 45 6 0 13 4 15 8 3 7 72 52 143 92 17 9 101 60 188 114 87 53 162 96 168
96 5 0 9 3 9 8 0 4 21 18 48 32 26 14 52 29 57 33 23 19 270 165 274 161 2 -2
5 -467 5 -1034 l1 -1030 -1435 0 -1435 0 0 1039 c0 1036 0 1038 20 1027 11 -6
22 -14 25 -17z"/>
</g>
</svg>
