<svg viewBox="0 0 234 284" width="234" height="284">
  <path fill="currentColor" d="M116.81 97.14c26.83 0 48.57-21.75 48.57-48.57S143.64 0 116.81 0 68.24 21.75 68.24 48.57s21.75 48.57 48.57 48.57"/>
  <path fill="currentColor" d="M231.74 91.31c-10.75-.28-65.42.69-113.04 45.67-.53.5-1.2.75-1.88.75s-1.35-.25-1.88-.75C67.31 92 12.64 91.03 1.89 91.31c-1.06.03-1.89.9-1.89 1.95v141.84c0 1.07.85 1.93 1.92 1.95 10.86.2 65.77 3.36 113.04 45.7.53.47 1.19.71 1.86.71s1.33-.24 1.86-.71c47.27-42.33 102.18-45.49 113.04-45.7 1.07-.02 1.92-.89 1.92-1.95V93.26c0-1.06-.83-1.93-1.89-1.95"/>
</svg>
