<svg width="2000" height="300" viewBox="0 0 2000 300" fill="none" xmlns="http://www.w3.org/2000/svg">
<g clip-path="url(#clip0_568_8806)">
<rect width="2000" height="300" fill="url(#paint0_linear_568_8806)"/>
<rect width="350" height="150" rx="75" fill="#FF6C03"/>
<rect width="350" height="150" rx="75" fill="url(#paint1_linear_568_8806)"/>
<rect x="350" width="200" height="150" rx="75" fill="#FF6C03"/>
<rect x="350" width="200" height="150" rx="75" fill="#F8DE01"/>
<rect width="550" height="150" rx="75" transform="matrix(-1 0 0 1 1100 0)" fill="url(#paint2_linear_568_8806)"/>
<path d="M1010 35L1060 75L1010 115" stroke="#38182F" stroke-width="4"/>
<rect x="590" y="73" width="470" height="4" fill="#38182F"/>
<rect x="1100" width="500" height="150" rx="75" fill="#FF6C03"/>
<rect x="1100" width="500" height="150" rx="75" fill="url(#paint3_linear_568_8806)"/>
<path d="M1600 75C1600 33.5786 1633.58 0 1675 0H1925C1966.42 0 2000 33.5786 2000 75C2000 116.421 1966.42 150 1925 150H1675C1633.58 150 1600 116.421 1600 75Z" fill="#F4EEEE"/>
<rect y="150" width="200" height="150" rx="75" fill="white"/>
<rect x="200" y="150" width="550" height="150" rx="75" fill="#A99BF3"/>
<path d="M1500 225C1500 183.579 1466.42 150 1425 150H825C783.579 150 750 183.579 750 225C750 266.421 783.579 300 825 300H1425C1466.42 300 1500 266.421 1500 225Z" fill="#FF6C03"/>
<path d="M1500 225C1500 183.579 1533.58 150 1575 150H1925C1966.42 150 2000 183.579 2000 225C2000 266.421 1966.42 300 1925 300H1575C1533.58 300 1500 266.421 1500 225Z" fill="url(#paint4_linear_568_8806)"/>
</g>
<defs>
<linearGradient id="paint0_linear_568_8806" x1="1000" y1="0" x2="1000" y2="300" gradientUnits="userSpaceOnUse">
<stop offset="0.25" stop-color="#006F59"/>
<stop offset="0.25" stop-color="#38182F"/>
</linearGradient>
<linearGradient id="paint1_linear_568_8806" x1="0" y1="75" x2="350" y2="75" gradientUnits="userSpaceOnUse">
<stop stop-color="#B69FFF"/>
<stop offset="1" stop-color="#FF6C03"/>
</linearGradient>
<linearGradient id="paint2_linear_568_8806" x1="0" y1="75" x2="550" y2="75" gradientUnits="userSpaceOnUse">
<stop stop-color="#FF6C03"/>
<stop offset="1" stop-color="#F8DE01"/>
</linearGradient>
<linearGradient id="paint3_linear_568_8806" x1="1100" y1="75" x2="1600" y2="75" gradientUnits="userSpaceOnUse">
<stop stop-color="#B69FFF"/>
<stop offset="1" stop-color="#006F59"/>
</linearGradient>
<linearGradient id="paint4_linear_568_8806" x1="1500" y1="225" x2="2000" y2="225" gradientUnits="userSpaceOnUse">
<stop stop-color="#B69FFF"/>
<stop offset="1" stop-color="#FF6C03"/>
</linearGradient>
<clipPath id="clip0_568_8806">
<rect width="2000" height="300" fill="white"/>
</clipPath>
</defs>
</svg>
