<svg width="2000" height="150" viewBox="0 0 2000 150" fill="none" xmlns="http://www.w3.org/2000/svg">
<g clip-path="url(#clip0_568_8748)">
<rect width="2000" height="150" fill="url(#paint0_linear_568_8748)"/>
<rect width="400" height="150" rx="75" fill="#006F59"/>
<rect width="200" height="150" rx="75" transform="matrix(-1 0 0 1 600 0)" fill="url(#paint1_linear_568_8748)"/>
<rect width="600" height="150" rx="75" transform="matrix(-1 0 0 1 1200 0)" fill="#38182F"/>
<rect x="1200" width="300" height="150" rx="75" fill="#FF6C03"/>
<path d="M1500 75C1500 33.5786 1533.58 0 1575 0H1925C1966.42 0 2000 33.5786 2000 75C2000 116.421 1966.42 150 1925 150H1575C1533.58 150 1500 116.421 1500 75Z" fill="#FF6C03"/>
<path d="M1500 75C1500 33.5786 1533.58 0 1575 0H1925C1966.42 0 2000 33.5786 2000 75C2000 116.421 1966.42 150 1925 150H1575C1533.58 150 1500 116.421 1500 75Z" fill="#F8DE01"/>
</g>
<defs>
<linearGradient id="paint0_linear_568_8748" x1="1000" y1="150" x2="1000" y2="0" gradientUnits="userSpaceOnUse">
<stop offset="0.5" stop-color="#F4EEEE"/>
<stop offset="0.5" stop-color="#B69FFF"/>
</linearGradient>
<linearGradient id="paint1_linear_568_8748" x1="0" y1="75" x2="200" y2="75" gradientUnits="userSpaceOnUse">
<stop stop-color="#B69FFF"/>
<stop offset="1" stop-color="#FF6C03"/>
</linearGradient>
<clipPath id="clip0_568_8748">
<rect width="2000" height="150" fill="white"/>
</clipPath>
</defs>
</svg>
