<svg id="e78QLhx3VzK1" xmlns="http://www.w3.org/2000/svg" xmlns:xlink="http://www.w3.org/1999/xlink" viewBox="0 0 2000 150" shape-rendering="geometricPrecision" text-rendering="geometricPrecision" project-id="ce6a833c133a4a7aa429158bc595b18f" export-id="b5798e2effd24ab7b869292ba8fd0c96" cached="false">
<style><![CDATA[
@media (prefers-reduced-motion: no-preference) {
  #e78QLhx3VzK6 {animation: e78QLhx3VzK6__sz 13000ms linear infinite normal forwards}
  #e78QLhx3VzK7 {animation: e78QLhx3VzK7__sz 13000ms linear infinite normal forwards}
}

@keyframes e78QLhx3VzK6__sz { 0% {width: 700px;height: 150px;animation-timing-function: cubic-bezier(0.42,0,0.58,1)} 15.384615% {width: 900px;height: 150px} 46.153846% {width: 900px;height: 150px} 65.384615% {width: 700px;height: 150px} 100% {width: 700px;height: 150px}} @keyframes e78QLhx3VzK7__sz { 0% {width: 550px;height: 150px;animation-timing-function: cubic-bezier(0.42,0,0.58,1)} 15.384615% {width: 350px;height: 150px} 46.153846% {width: 350px;height: 150px} 65.384615% {width: 550px;height: 150px} 100% {width: 550px;height: 150px}}
]]></style>
<defs><linearGradient id="e78QLhx3VzK7-fill" x1="0" y1="75" x2="550" y2="75" spreadMethod="pad" gradientUnits="userSpaceOnUse" gradientTransform="translate(0 0)"><stop id="e78QLhx3VzK7-fill-0" offset="0%" stop-color="#ff6c03"/><stop id="e78QLhx3VzK7-fill-1" offset="100%" stop-color="#f8de01"/></linearGradient></defs><g><rect width="2000" height="150" rx="0" ry="0" fill="#b69fff"/><rect width="2000" height="75" rx="0" ry="0" transform="translate(0 75)" fill="#f4eeee"/></g><g><rect id="e78QLhx3VzK6" width="700" height="150" rx="75" ry="75" transform="translate(150 0)" fill="#006f59"/><rect id="e78QLhx3VzK7" width="550" height="150" rx="75" ry="75" transform="matrix(-1 0 0-1 1400 150)" fill="url(#e78QLhx3VzK7-fill)"/><rect width="300" height="150" rx="75" ry="75" transform="translate(1400 0)" fill="#38182f"/><path d="M0,0h75c41.39,0,75,33.61,75,75v0c0,41.39-33.61,75-75,75h-75L0,0v0Z" fill="#f8de01"/><path d="M1775,0h225v150h-225c-41.39,0-75-33.61-75-75v0c0-41.39,33.61-75,75-75Z" fill="#f8de01"/></g></svg>
