<svg width="2000" height="450" viewBox="0 0 2000 450" fill="none" xmlns="http://www.w3.org/2000/svg">
<g clip-path="url(#clip0_568_8926)">
<rect width="2000" height="450" fill="#006F59"/>
<rect width="600" height="150" rx="75" fill="url(#paint0_linear_568_8926)"/>
<rect x="600" width="350" height="150" rx="75" fill="url(#paint1_linear_568_8926)"/>
<rect x="950" width="600" height="150" rx="75" fill="#A99BF3"/>
<rect x="1550" width="449" height="150" rx="75" fill="#FF6C03"/>
<rect x="1550" width="449" height="150" rx="75" fill="white"/>
<rect y="150" width="300" height="150" rx="75" fill="#F8DE01"/>
<rect width="550" height="150" rx="75" transform="matrix(-1 0 0 1 850 150)" fill="url(#paint2_linear_568_8926)"/>
<path d="M760 185L810 225L760 265" stroke="#F8DE01" stroke-width="4"/>
<rect x="340" y="223" width="470" height="4" fill="#F8DE01"/>
<rect x="850" y="150" width="550" height="150" rx="75" fill="#38182F"/>
<rect x="1400" y="150" width="200" height="150" rx="75" fill="url(#paint3_linear_568_8926)"/>
<path d="M1600 225C1600 183.579 1633.58 150 1675 150H1925C1966.42 150 2000 183.579 2000 225C2000 266.421 1966.42 300 1925 300H1675C1633.58 300 1600 266.421 1600 225Z" fill="#FF6C03"/>
<rect y="300" width="550" height="150" rx="75" fill="#38182F"/>
<rect x="550" y="300" width="350" height="150" rx="75" fill="url(#paint4_linear_568_8926)"/>
<rect x="900" y="300" width="600" height="150" rx="75" fill="white"/>
<rect x="1500" y="300" width="500" height="150" rx="75" fill="#F8DE01"/>
</g>
<defs>
<linearGradient id="paint0_linear_568_8926" x1="0" y1="75" x2="600" y2="75" gradientUnits="userSpaceOnUse">
<stop stop-color="#FF6C03"/>
<stop offset="1" stop-color="#F8DE01"/>
</linearGradient>
<linearGradient id="paint1_linear_568_8926" x1="600" y1="75" x2="950" y2="75" gradientUnits="userSpaceOnUse">
<stop stop-color="#B69FFF"/>
<stop offset="1" stop-color="#FF6C03"/>
</linearGradient>
<linearGradient id="paint2_linear_568_8926" x1="0" y1="75" x2="550" y2="75" gradientUnits="userSpaceOnUse">
<stop stop-color="#B69FFF"/>
<stop offset="1" stop-color="#006F59"/>
</linearGradient>
<linearGradient id="paint3_linear_568_8926" x1="1400" y1="225" x2="1600" y2="225" gradientUnits="userSpaceOnUse">
<stop stop-color="#B69FFF"/>
<stop offset="1" stop-color="#FF6C03"/>
</linearGradient>
<linearGradient id="paint4_linear_568_8926" x1="550" y1="375" x2="900" y2="375" gradientUnits="userSpaceOnUse">
<stop stop-color="#B69FFF"/>
<stop offset="1" stop-color="#FF6C03"/>
</linearGradient>
<clipPath id="clip0_568_8926">
<rect width="2000" height="450" fill="white"/>
</clipPath>
</defs>
</svg>
