<svg id="edRBcAZPNs61" xmlns="http://www.w3.org/2000/svg" xmlns:xlink="http://www.w3.org/1999/xlink" viewBox="0 0 1200 750" shape-rendering="geometricPrecision" text-rendering="geometricPrecision" project-id="3fec605ef423432b88f0e9a8fb2d1d48" export-id="1761993b0fd14448ba9fa82ab3a78f5b" cached="false" style="background-color:#006f59">
  <style><![CDATA[
@media (prefers-reduced-motion: no-preference) {
  #edRBcAZPNs63 {animation: edRBcAZPNs63__sz 13000ms linear infinite normal forwards}
  #edRBcAZPNs64 {animation: edRBcAZPNs64__sz 13000ms linear infinite normal forwards}
  #edRBcAZPNs64_to {animation: edRBcAZPNs64_to__to 13000ms linear infinite normal forwards}
  #edRBcAZPNs612_to {animation: edRBcAZPNs612_to__to 13000ms linear infinite normal forwards}
  #edRBcAZPNs65_to {animation: edRBcAZPNs65_to__to 13000ms linear infinite normal forwards}
  #edRBcAZPNs612 {animation: edRBcAZPNs612__sz 13000ms linear infinite normal forwards}
  #edRBcAZPNs619_to {animation: edRBcAZPNs619_to__to 13000ms linear infinite normal forwards}
  #edRBcAZPNs622 {animation: edRBcAZPNs622__sz 13000ms linear infinite normal forwards}
  #edRBcAZPNs620 {animation: edRBcAZPNs620__sz 13000ms linear infinite normal forwards}
  #edRBcAZPNs613 {animation: edRBcAZPNs613__sz 13000ms linear infinite normal forwards}
  #edRBcAZPNs65 {animation: edRBcAZPNs65__sz 13000ms linear infinite normal forwards}
  #edRBcAZPNs623_to {animation: edRBcAZPNs623_to__to 13000ms linear infinite normal forwards}
}
@keyframes edRBcAZPNs63__sz { 0% {width: 400px;height: 150px;animation-timing-function: cubic-bezier(0.42,0,0.58,1)} 26.153846% {width: 600px;height: 150px} 59.230769% {width: 600px;height: 150px} 85.384615% {width: 400px;height: 150px} 100% {width: 400px;height: 150px}} 
@keyframes edRBcAZPNs64__sz { 0% {width: 350px;height: 150px;animation-timing-function: cubic-bezier(0.42,0,0.58,1)} 26.153846% {width: 250px;height: 150px} 59.230769% {width: 250px;height: 150px} 85.384615% {width: 350px;height: 150px} 100% {width: 350px;height: 150px}} 
@keyframes edRBcAZPNs64_to__to { 0% {transform: translate(1025px,75px);animation-timing-function: cubic-bezier(0.42,0,0.58,1)} 26.153846% {transform: translate(1125px,75px)} 59.230769% {transform: translate(1125px,75px)} 85.384615% {transform: translate(1025px,75px)} 100% {transform: translate(1025px,75px)}} 
@keyframes edRBcAZPNs65__sz { 0% {width: 450px;height: 150px;animation-timing-function: cubic-bezier(0.42,0,0.58,1)} 26.153846% {width: 350px;height: 150px} 59.230769% {width: 350px;height: 150px} 85.384615% {width: 450px;height: 150px} 100% {width: 450px;height: 150px}} 
@keyframes edRBcAZPNs65_to__to { 0% {transform: translate(625px,75px);animation-timing-function: cubic-bezier(0.42,0,0.58,1)} 26.153846% {transform: translate(825px,75px)} 59.230769% {transform: translate(825px,75px)} 85.384615% {transform: translate(625px,75px)} 100% {transform: translate(625px,75px)}} 
@keyframes edRBcAZPNs612__sz { 0% {width: 450px;height: 150px} 19.230769% {width: 450px;height: 150px;animation-timing-function: cubic-bezier(0.42,0,0.58,1)} 46.076923% {width: 200px;height: 150px} 65.384615% {width: 200px;height: 150px} 92.230769% {width: 450px;height: 150px} 100% {width: 450px;height: 150px}} 
@keyframes edRBcAZPNs612_to__to { 0% {transform: translate(675px,675px)} 19.230769% {transform: translate(675px,675px);animation-timing-function: cubic-bezier(0.42,0,0.58,1)} 46.076923% {transform: translate(925px,675px)} 65.384615% {transform: translate(925px,675px)} 92.230769% {transform: translate(675px,675px)} 100% {transform: translate(675px,675px)}} 
@keyframes edRBcAZPNs613__sz { 0% {width: 300px;height: 150px} 19.230769% {width: 300px;height: 150px;animation-timing-function: cubic-bezier(0.42,0,0.58,1)} 46.076923% {width: 550px;height: 150px} 65.384615% {width: 550px;height: 150px} 92.230769% {width: 300px;height: 150px} 100% {width: 300px;height: 150px}} 
@keyframes edRBcAZPNs619_to__to { 0% {transform: translate(950px,375px)} 7.692308% {transform: translate(950px,375px);animation-timing-function: cubic-bezier(0.42,0,0.58,1)} 30.769231% {transform: translate(1100px,375px)} 50% {transform: translate(1100px,375px)} 73.076923% {transform: translate(950px,375px)} 100% {transform: translate(950px,375px)}} 
@keyframes edRBcAZPNs620__sz { 0% {width: 550px;height: 150px} 7.692308% {width: 550px;height: 150px;animation-timing-function: cubic-bezier(0.42,0,0.58,1)} 30.769231% {width: 700px;height: 150px} 50% {width: 700px;height: 150px} 73.076923% {width: 550px;height: 150px} 100% {width: 550px;height: 150px}} 
@keyframes edRBcAZPNs622__sz { 0% {width: 442.23px;height: 4px} 7.692308% {width: 442.23px;height: 4px;animation-timing-function: cubic-bezier(0.42,0,0.58,1)} 30.769231% {width: 592.23px;height: 4px} 50% {width: 592.23px;height: 4px} 73.076923% {width: 442.23px;height: 4px} 100% {width: 442.23px;height: 4px}} 
@keyframes edRBcAZPNs623_to__to { 0% {transform: translate(622.399994px,375px)} 7.692308% {transform: translate(622.399994px,375px);animation-timing-function: cubic-bezier(0.42,0,0.58,1)} 30.769231% {transform: translate(772.399994px,375px)} 50% {transform: translate(772.399994px,375px)} 73.076923% {transform: translate(622.399994px,375px)} 100% {transform: translate(622.399994px,375px)}}
]]></style>
<defs><linearGradient id="edRBcAZPNs65-fill" x1="0" y1="75" x2="450" y2="75" spreadMethod="pad" gradientUnits="userSpaceOnUse" gradientTransform="translate(0 0)"><stop id="edRBcAZPNs65-fill-0" offset="0%" stop-color="#ff6c03"/><stop id="edRBcAZPNs65-fill-1" offset="100%" stop-color="#f8de01"/></linearGradient><linearGradient id="edRBcAZPNs68-fill" x1="0" y1="75" x2="450" y2="75" spreadMethod="pad" gradientUnits="userSpaceOnUse" gradientTransform="translate(0 0)"><stop id="edRBcAZPNs68-fill-0" offset="0%" stop-color="#b69fff"/><stop id="edRBcAZPNs68-fill-1" offset="100%" stop-color="#ff6c03"/></linearGradient><linearGradient id="edRBcAZPNs617-fill" x1="0" y1="75" x2="300" y2="75" spreadMethod="pad" gradientUnits="userSpaceOnUse" gradientTransform="translate(0 0)"><stop id="edRBcAZPNs617-fill-0" offset="0%" stop-color="#b69fff"/><stop id="edRBcAZPNs617-fill-1" offset="100%" stop-color="#006f59"/></linearGradient><linearGradient id="edRBcAZPNs620-fill" x1="0" y1="75" x2="550" y2="75" spreadMethod="pad" gradientUnits="userSpaceOnUse" gradientTransform="translate(0 0)"><stop id="edRBcAZPNs620-fill-0" offset="0%" stop-color="#ff6c03"/><stop id="edRBcAZPNs620-fill-1" offset="100%" stop-color="#f8de01"/></linearGradient></defs><g><rect id="edRBcAZPNs63" width="400" height="150" rx="75" ry="75" fill="#b69fff"/><g id="edRBcAZPNs64_to" transform="translate(1025,75)"><rect id="edRBcAZPNs64" width="350" height="150" rx="75" ry="75" transform="translate(-175,-75)" fill="#f4eeee"/></g><g id="edRBcAZPNs65_to" transform="translate(625,75)"><rect id="edRBcAZPNs65" width="450" height="150" rx="75" ry="75" transform="translate(-225,-75)" fill="url(#edRBcAZPNs65-fill)"/></g><path d="M0,150h225c41.39,0,75,33.61,75,75v0c0,41.39-33.61,75-75,75h-225v-150v0Z" fill="#f8de01"/><path d="M1125,150h75v150h-75c-41.39,0-75-33.61-75-75v0c0-41.39,33.61-75,75-75Z" fill="#f8de01"/><rect width="450" height="150" rx="75" ry="75" transform="translate(600 150)" fill="url(#edRBcAZPNs68-fill)"/><rect width="300" height="150" rx="75" ry="75" transform="translate(300 150)" fill="#38182f"/><path d="M975,600h225v150h-225c-41.39,0-75-33.61-75-75v0c0-41.39,33.61-75,75-75Z" fill="#f8de01"/><path d="M0,600h75c41.39,0,75,33.61,75,75v0c0,41.39-33.61,75-75,75h-75v-150v0Z" fill="#f8de01"/><g id="edRBcAZPNs612_to" transform="translate(675,675)"><rect id="edRBcAZPNs612" width="450" height="150" rx="75" ry="75" transform="translate(-225,-75)" fill="#f4eeee"/></g><rect id="edRBcAZPNs613" width="300" height="150" rx="75" ry="75" transform="translate(150 600)" fill="#ff6c03"/><path d="M0,450h225c41.39,0,75,33.61,75,75v0c0,41.39-33.61,75-75,75h-225v-150v0Z" fill="#38182f"/><path d="M1125,450h75v150h-75c-41.39,0-75-33.61-75-75v0c0-41.39,33.61-75,75-75Z" fill="#38182f"/><rect width="450" height="150" rx="75" ry="75" transform="translate(600 450)" fill="#ff6c03"/><rect width="300" height="150" rx="75" ry="75" transform="translate(300 450)" fill="url(#edRBcAZPNs617-fill)"/><path d="M0,300h75c41.39,0,75,33.61,75,75v0c0,41.39-33.61,75-75,75h-75v-150v0Z" fill="#b69fff"/><g id="edRBcAZPNs619_to" transform="translate(950,375)"><path d="M775,300h425v150h-425c-41.39,0-75-33.61-75-75v0c0-41.39,33.61-75,75-75Z" transform="translate(-950,-375)" fill="#b69fff"/></g><rect id="edRBcAZPNs620" width="550" height="150" rx="75" ry="75" transform="translate(150 300)" fill="url(#edRBcAZPNs620-fill)"/><g><rect id="edRBcAZPNs622" width="442.23" height="4" rx="0" ry="0" transform="translate(200 373)" fill="#38182f"/><g id="edRBcAZPNs623_to" transform="translate(622.399994,375)"><polyline points="600,337.71 644.8,375 600,412.29" transform="translate(-622.399994,-375)" fill="none" stroke="#38182f" stroke-width="4" stroke-miterlimit="10"/></g></g></g></svg>
