<svg xmlns="http://www.w3.org/2000/svg" width="20" height="18" fill="none" viewBox="0 0 20 18"><path fill="currentColor" d="M4.336 1.186c2.293 1.721 4.76 5.212 5.666 7.086.906-1.874 3.372-5.365 5.666-7.086 1.654-1.243 4.335-2.204 4.335.855 0 .61-.35 5.131-.555 5.865-.714 2.552-3.316 3.202-5.63 2.809 4.045.688 5.074 2.969 2.852 5.25-4.221 4.33-6.067-1.087-6.54-2.476-.087-.254-.128-.373-.128-.272 0-.101-.041.018-.128.272-.473 1.389-2.319 6.807-6.54 2.475-2.223-2.28-1.194-4.561 2.852-5.25-2.315.394-4.916-.256-5.63-2.808C.35 7.172 0 2.651 0 2.041c0-3.059 2.681-2.098 4.336-.855"/></svg>