<svg width="24" height="24" viewBox="0 0 24 24" fill="none" xmlns="http://www.w3.org/2000/svg">
<path d="M12.0537 3C14.5129 3 14.8238 3.00646 15.7881 3.05176C16.7523 3.09707 17.4123 3.24616 17.9883 3.47266C18.5836 3.69915 19.088 4.00994 19.5928 4.51465C20.091 5.01935 20.4018 5.52388 20.6348 6.11914C20.8612 6.69505 21.0103 7.35525 21.0557 8.31934C21.0945 9.2836 21.1074 9.59458 21.1074 12.0537C21.1074 14.5129 21.101 14.8238 21.0557 15.7881C21.0104 16.7523 20.8613 17.4123 20.6348 17.9883C20.4083 18.5836 20.0975 19.088 19.5928 19.5928C19.088 20.091 18.5836 20.4018 17.9883 20.6348C17.4123 20.8613 16.7523 21.0104 15.7881 21.0557C14.8238 21.0945 14.5129 21.1074 12.0537 21.1074C9.59458 21.1074 9.2836 21.101 8.31934 21.0557C7.35525 21.0103 6.69505 20.8612 6.11914 20.6348C5.52388 20.4083 5.01935 20.0975 4.51465 19.5928C4.01641 19.088 3.70562 18.5836 3.47266 17.9883C3.24616 17.4123 3.09707 16.7523 3.05176 15.7881C3.01293 14.8238 3 14.5129 3 12.0537C3 9.59458 3.00646 9.2836 3.05176 8.31934C3.09708 7.35525 3.24618 6.69505 3.47266 6.11914C3.69916 5.52385 4.00993 5.01937 4.51465 4.51465C5.01937 4.0164 5.52385 3.70562 6.11914 3.47266C6.69505 3.24618 7.35525 3.09708 8.31934 3.05176C9.2836 3.01293 9.59458 3 12.0537 3ZM12.0469 4.62402C9.62724 4.62402 9.34219 4.6305 8.38477 4.67578C7.4986 4.71459 7.01926 4.8634 6.70215 4.98633C6.28163 5.15454 5.97716 5.34909 5.66016 5.66602C5.34311 5.98306 5.14224 6.28748 4.98047 6.70801C4.85752 7.02509 4.70877 7.51064 4.66992 8.39062C4.62462 9.34841 4.61816 9.63341 4.61816 12.0537C4.61816 14.4741 4.62462 14.759 4.66992 15.7168C4.70876 16.6034 4.85751 17.0823 4.98047 17.3994C5.14872 17.82 5.34307 18.1243 5.66016 18.4414C5.97719 18.7584 6.28159 18.9593 6.70215 19.1211C7.01927 19.244 7.50501 19.3928 8.38477 19.4316C9.3422 19.4769 9.62723 19.4834 12.0469 19.4834C14.467 19.4834 14.7524 19.4769 15.71 19.4316C16.5962 19.3928 17.0755 19.244 17.3926 19.1211C17.8132 18.9529 18.1175 18.7584 18.4346 18.4414C18.7517 18.1243 18.9525 17.82 19.1143 17.3994C19.2372 17.0823 19.386 16.5969 19.4248 15.7168C19.4701 14.759 19.4766 14.4741 19.4766 12.0537C19.4766 9.63341 19.4701 9.34841 19.4248 8.39062C19.386 7.50417 19.2372 7.02509 19.1143 6.70801C18.946 6.28747 18.7516 5.98307 18.4346 5.66602C18.1176 5.34907 17.8131 5.14807 17.3926 4.98633C17.0755 4.8634 16.5897 4.71459 15.71 4.67578C14.7524 4.63049 14.467 4.62402 12.0469 4.62402ZM12.0469 7.40039C14.6161 7.40039 16.7001 9.48452 16.7002 12.0537C16.7002 14.6229 14.6161 16.707 12.0469 16.707C9.47785 16.7068 7.39453 14.6228 7.39453 12.0537C7.39458 9.48467 9.47788 7.40064 12.0469 7.40039ZM12.0469 9.03125C10.3774 9.0315 9.02544 10.3842 9.02539 12.0537C9.02539 13.7232 10.3774 15.0759 12.0469 15.0762C13.7166 15.0762 15.0693 13.7234 15.0693 12.0537C15.0693 10.3841 13.7165 9.03125 12.0469 9.03125ZM16.8818 6.13184C17.4836 6.13194 17.9688 6.61793 17.9688 7.21973C17.9686 7.82142 17.4835 8.30654 16.8818 8.30664C16.2801 8.30664 15.7941 7.82148 15.7939 7.21973C15.7939 6.61787 16.28 6.13184 16.8818 6.13184Z" fill="currentColor"/>
</svg>
