<svg xmlns="http://www.w3.org/2000/svg" width="19" height="19" fill="none" viewBox="0 0 19 19"><path fill="currentColor" d="M9.054 0c2.459 0 2.77.006 3.734.052.964.045 1.624.194 2.2.42.596.227 1.1.538 1.605 1.043.498.504.809 1.009 1.042 1.604.226.576.375 1.236.42 2.2.04.965.052 1.276.052 3.735s-.006 2.77-.051 3.734c-.046.964-.195 1.624-.421 2.2a4.4 4.4 0 0 1-1.042 1.605 4.5 4.5 0 0 1-1.605 1.042c-.576.226-1.236.375-2.2.42-.964.04-1.275.052-3.734.052s-2.77-.006-3.735-.051c-.964-.046-1.624-.195-2.2-.421a4.4 4.4 0 0 1-1.604-1.042 4.5 4.5 0 0 1-1.042-1.605c-.227-.576-.376-1.236-.421-2.2C.012 11.824 0 11.513 0 9.054s.006-2.77.052-3.735c.045-.964.194-1.624.42-2.2.227-.595.538-1.1 1.043-1.604A4.5 4.5 0 0 1 3.119.473C3.695.246 4.355.097 5.32.052 6.284.012 6.595 0 9.054 0m-.007 1.624c-2.42 0-2.705.006-3.662.052-.886.039-1.366.187-1.683.31-.42.169-.725.363-1.042.68a2.8 2.8 0 0 0-.68 1.042c-.122.317-.271.803-.31 1.683-.045.957-.052 1.242-.052 3.663s.007 2.705.052 3.663c.039.886.188 1.365.31 1.682.169.421.363.725.68 1.042a2.8 2.8 0 0 0 1.042.68c.317.123.803.272 1.683.31.957.046 1.242.052 3.662.052s2.705-.006 3.663-.051c.886-.04 1.365-.188 1.683-.31.42-.17.724-.364 1.042-.68a2.8 2.8 0 0 0 .68-1.043c.122-.317.271-.802.31-1.682.045-.958.052-1.243.052-3.663s-.007-2.706-.052-3.663c-.039-.887-.188-1.366-.31-1.683a2.9 2.9 0 0 0-.68-1.042 2.8 2.8 0 0 0-1.042-.68c-.318-.123-.803-.271-1.683-.31-.958-.046-1.243-.052-3.663-.052m0 2.776a4.654 4.654 0 0 1 0 9.307 4.654 4.654 0 0 1 0-9.307m0 1.631a3.022 3.022 0 0 0 0 6.045 3.022 3.022 0 1 0 0-6.045m4.835-2.9c.602 0 1.087.487 1.087 1.089 0 .601-.486 1.087-1.087 1.087a1.087 1.087 0 1 1 0-2.175"/></svg>