<svg width="24" height="24" viewBox="0 0 24 24" fill="none" xmlns="http://www.w3.org/2000/svg">
<path fill-rule="evenodd" clip-rule="evenodd" d="M20.5333 2H3.46667C2.66667 2 2 2.66445 2 3.46179V20.5382C2 21.3356 2.66667 22 3.46667 22H20.5333C21.3333 22 22 21.3356 22 20.5382V3.46179C22 2.66445 21.3333 2 20.5333 2ZM4.93333 19.01H7.86667V9.44186H4.93333V19.01ZM6.46667 8.1794C5.53333 8.1794 4.73333 7.38206 4.73333 6.45183C4.73333 5.5216 5.53333 4.72425 6.46667 4.72425C7.4 4.72425 8.2 5.5216 8.2 6.45183C8.2 7.38206 7.4 8.1794 6.46667 8.1794ZM19.0667 19.01H16.1333V14.3588C16.1333 13.2292 16.1333 11.8339 14.6 11.8339C13.0667 11.8339 12.8 13.0299 12.8 14.2924V19.01H9.86667V9.44186H12.6667V10.7708C13.0667 10.0399 14 9.24252 15.4667 9.24252C18.4667 9.24252 19 11.2359 19 13.7608V19.01H19.0667Z" fill="currentColor"/>
</svg>
