<svg xmlns="http://www.w3.org/2000/svg" width="20" height="20" fill="none" viewBox="0 0 20 20"><path fill="currentColor" fill-rule="evenodd" d="M18.533 0H1.467C.667 0 0 .664 0 1.462v17.076C0 19.336.667 20 1.467 20h17.066c.8 0 1.467-.664 1.467-1.462V1.462C20 .664 19.333 0 18.533 0m-15.6 17.01h2.934V7.442H2.933zM4.467 6.18c-.934 0-1.734-.798-1.734-1.728s.8-1.728 1.734-1.728S6.2 3.522 6.2 4.452s-.8 1.727-1.733 1.727m12.6 10.83h-2.934v-4.651c0-1.13 0-2.525-1.533-2.525s-1.8 1.196-1.8 2.458v4.718H7.867V7.442h2.8V8.77c.4-.731 1.333-1.528 2.8-1.528 3 0 3.533 1.993 3.533 4.518v5.249z" clip-rule="evenodd"/></svg>