<svg width="18" height="19" viewBox="0 0 18 19" fill="none" xmlns="http://www.w3.org/2000/svg">
<path d="M17.6756 6.24765C17.6756 2.14205 14.998 0.892522 14.998 0.892522C12.3205 -0.297507 5.2993 -0.297507 2.68124 0.892522C2.68124 0.892522 0.00367291 2.08255 0.00367291 6.24765C0.00367291 11.1863 -0.293834 17.2554 4.46628 18.5049C6.19182 18.981 7.67936 19.0405 8.86939 18.981C11.0114 18.862 12.261 18.2074 12.261 18.2074L12.0825 16.6604C12.0825 16.6604 10.5354 17.1364 8.80989 17.0769C7.08434 17.0174 5.2993 16.8984 5.00179 14.7564C5.00179 14.5779 4.94229 14.3398 4.94229 14.1613C8.57188 15.0539 11.666 14.5184 12.5585 14.4588C14.9385 14.1613 17.0211 12.7333 17.2591 11.3648C17.7351 9.28222 17.6756 6.24765 17.6756 6.24765ZM14.522 11.5433H12.5585V6.66416C12.5585 4.58161 9.82141 4.46261 9.82141 6.96167V9.63923H7.85786V6.96167C7.85786 4.46261 5.1208 4.58161 5.1208 6.66416V11.5433H3.15725C3.15725 6.36665 2.91924 5.23613 3.93077 4.1056C5.00179 2.85607 7.32235 2.79657 8.33387 4.3436L8.80989 5.17663L9.2859 4.3436C10.2974 2.79657 12.618 2.85607 13.689 4.1056C14.7005 5.29563 14.522 6.36665 14.522 11.5433Z" fill="currentColor"/>
</svg>
