<?xml version="1.0" encoding="utf-8"?>
<svg version="1.1" id="Layer_1" xmlns="http://www.w3.org/2000/svg" xmlns:xlink="http://www.w3.org/1999/xlink" x="0px" y="0px" viewBox="0 0 85 85" style="enable-background:new 0 0 85 85;" xml:space="preserve">
<style type="text/css">
	.st2{fill:#0069D0;}
	.st3{fill:#C9D2DC;}
</style>
<g id="Logo_1_">
	<rect id="Rectangle-3_3_" x="38.3" y="42.3" transform="matrix(0.809 -0.5878 0.5878 0.809 -16.1097 40.5375)" class="st2" width="32" height="5.4"/>
	<rect id="Rectangle-3_2_" x="28.6" y="29" transform="matrix(0.5878 -0.809 0.809 0.5878 -23.5271 43.9433)" class="st2" width="5.4" height="32"/>
	<path class="st3" d="M77,38.1v-5.4h-8.5L43,14.1l-0.1,0.2l-0.1-0.2L17.2,32.7H8v5.4h4.4v30.5H8V74H77v-5.4h-2.7V38.1H77z M55.6,38.1v30.5H29.9V38.1H55.6z M42.8,20.8l16.4,11.9H26.4L42.8,20.8z M17.9,38.1h6.6v30.5h-6.6V38.1z M68.8,68.6h-7.7V38.1h7.7
		V68.6z"/>
</g>
</svg>
