<?xml version="1.0" encoding="UTF-8"?>
<svg version="1.1" viewBox="0 0 456 398.2" xml:space="preserve" xmlns="http://www.w3.org/2000/svg" xmlns:cc="http://creativecommons.org/ns#" xmlns:dc="http://purl.org/dc/elements/1.1/" xmlns:rdf="http://www.w3.org/1999/02/22-rdf-syntax-ns#">

<style type="text/css">
   .st0{fill:#2A66B0;}
   .st1{fill:#C9D2DC;}
</style>

<g transform="translate(-68.7,-33)" fill="#3676ff">
   <polygon class="st0" points="142.9 201.2 142.9 213.8 186.9 240 186.9 201.2"/>

   <polygon class="st0" points="224.4 262.3 298 306 369.9 262.5 369.9 217.5 296.5 261 224.4 217.6"/>

   <polygon class="st0" points="407.4 201.2 407.4 239.8 451.4 213.2 451.4 201.2"/>

</g>

<path class="st1" d="m431 168.2v-38.5h-26.2l-175-109.7-179.5 109.7h-25.3v38.5h11.7v166.5h-11.7v38.5h406v-38.5h-10.8v-166.5zm-129.8 0v166.5h-145.5v-166.5zm-73.9-103.2 110.5 64.7h-215.7zm-153.1 103.2h44v166.5h-44zm308.5 166.5h-44v-166.5h44z"/>

</svg>
