<svg xmlns="http://www.w3.org/2000/svg" width="977" height="143" viewBox="0 0 977 143"><defs><linearGradient id="b" x1="49.6666725%" x2="50.9999825%" y1="99.9999808%" y2="-62.5006835%"><stop stop-color="#666" offset="0%"/><stop stop-color="#D9D9D9" offset="100%"/></linearGradient><linearGradient id="a" x1="26.5000027%" x2="63.5000008%" y1="188.699473%" y2="-61.7301305%"><stop offset="0%"/><stop stop-opacity="0" offset="100%"/></linearGradient></defs><g fill="none" fill-rule="evenodd"><g fill-rule="nonzero"><path fill="#06C" d="M16.59660425 49.4073735L59.6900658 75.5546771l43.0954184-26.1463177c-5.8286985.2238127-82.6352542-.1785612-86.18887995-.0009859zM59.6900658 64.5740321L34.694261 49.4073735h49.9916095L59.6900658 64.5740321z"/><path fill="url(#b)" stroke="url(#a)" d="M99.080101 35.9121796v-9.3874755h-6.2001604L49.7864841.37740052 6.6910508 26.5237182H.49287205v9.3874755H3.3104949v40.3724521H.49287204v9.3894433H99.080101v-9.3894433h-2.8166468V35.9121796h2.8166468zM49.7864841 11.3580455l24.9958048 15.1666586H24.7906793l24.9958048-15.1666586zM23.1215976 76.2846317H12.6989562V35.9121796h10.4226414v40.3724521zm43.9403257 0H32.5110448V35.9121796h34.5508785v40.3724521zm19.8120886 0H76.4513706V35.9121796h10.4226413v40.3724521z" stroke-linejoin="round" transform="translate(10 14)"/></g><path fill="#06C" d="M182.188 100.3825184h-42.435l-1.722-10.824 7.995-1.599v-60.639l-7.749-.861V15.51251843h56.088l2.337 25.21499997h-9.348l-5.289-12.3h-19.926v21.894h18.696v12.915h-18.696v24.231l20.91 3.198-.861 9.717zm56.303-7.872l.123 7.872H203.19l-1.845-7.872 7.38-1.968v-39.483l-6.273.492-1.353-8.364c1.066006-.1640008 2.439492-.4099983 4.1205-.738 1.681009-.3280016 3.382492-.6559983 5.1045-.984 4.592023-.9020045 7.215997-1.3939996 7.872-1.476l4.182 6.396c1.640009-2.0500102 3.607989-3.6284944 5.904-4.7355 2.296012-1.1070055 4.878986-1.6605 7.749-1.6605 2.870015 0 5.760486.8404916 8.6715 2.5215 2.911015 1.6810084 4.940495 4.4074812 6.0885 8.1795l-14.883 7.749-3.69-6.15c-2.05001 0-3.853992.9429906-5.412 2.829-2.13201 2.5420127-3.198 5.9039791-3.198 10.086v23.001c0 .0820004.635494.3074982 1.9065.6765 1.271007.3690019 2.767492.7994976 4.4895 1.2915 4.100021 1.2300062 6.928993 2.0089984 8.487 2.337zm46.709 2.46c-3.936019 3.9360197-8.527973 5.904-13.776 5.904-5.576027 0-10.003983-1.5579844-13.284-4.674-3.034015-2.9520147-4.551-6.5394789-4.551-10.7625 0-4.2230211.942991-7.5644877 2.829-10.0245 1.88601-2.4600123 4.263986-4.4689922 7.134-6.027 5.412028-2.7880139 12.13596-4.2639992 20.172-4.428v-9.717c0-.9020045-.635493-1.7424961-1.9065-2.5215-1.271006-.7790039-2.767491-1.1685-4.4895-1.1685-2.788013 0-4.509996.1229988-5.166.369l-3.198 9.102-15.252-6.642c1.640009-4.0180201 4.591979-7.3799864 8.856-10.086 4.510023-2.8700143 9.470973-4.305 14.883-4.305 9.430048 0 15.866983 3.4849652 19.311 10.455 1.230007 2.4600123 1.845 5.5759812 1.845 9.348v27.675c0 1.804009.737993 2.706 2.214 2.706l1.845-.246 2.214 6.888c-3.116015 2.7060136-6.395982 4.059-9.84 4.059-4.592022 0-7.87199-1.9679803-9.84-5.904zm-1.476-19.68c-9.922049.4920025-14.883 3.1979754-14.883 8.118 0 1.394007.450996 2.6854941 1.353 3.8745.902005 1.189006 2.39849 1.7835 4.4895 1.7835 2.091011 0 3.956492-.6149938 5.5965-1.845 1.640009-1.2300061 2.787997-2.541993 3.444-3.936v-7.995zm36.008 6.027c-6.478032-4.1000205-9.717-10.1269602-9.717-18.081 0-7.0520352 2.582975-12.7919778 7.749-17.22 4.674024-4.0180201 10.147469-6.027 16.4205-6.027 6.273032 0 11.664478 1.7629824 16.1745 5.289l13.407-6.765 2.829.369 1.353 12.177-11.439 1.353c1.722009 3.2800164 2.583 6.826481 2.583 10.6395 0 3.8130191-.717492 7.1134861-2.1525 9.9015-1.435007 2.788014-3.300488 5.1249906-5.5965 7.011-4.510022 3.6080181-10.126966 5.412-16.851 5.412h-1.722c-.492002 0-.983997-.0409996-1.476-.123l-2.214 3.321.246 1.722 12.546 2.583c12.874065 2.7060136 19.311 8.5279553 19.311 17.4659996 0 7.134036-2.828971 12.914978-8.487 17.343-5.248026 4.100021-12.012958 6.15-20.295 6.15-7.134035 0-12.914977-1.762982-17.343-5.289-4.264021-3.444017-6.396-7.789973-6.396-13.038 0-6.8060336 3.156969-12.0949807 9.471-15.8669996-1.968009-2.1320106-2.952-5.0019819-2.952-8.61 0-3.608018 1.516985-6.8469856 4.551-9.717zm14.76-29.766c-4.510022 0-7.379993 2.2959771-8.61 6.888-.410002 1.3120066-.615 3.074989-.615 5.289 0 2.2140111.737993 4.4484888 2.214 6.7035 1.476008 2.2550113 3.833484 3.3825 7.0725 3.3825 3.239017 0 5.596493-1.1274887 7.0725-3.3825 1.476008-2.2550112 2.214-4.4894889 2.214-6.7035 0-2.214011-.184498-3.9769934-.5535-5.289-.369001-1.3120065-.922496-2.5009946-1.6605-3.567-1.640008-2.214011-4.017984-3.321-7.134-3.321zm-7.626 53.013c-3.198016 2.0500103-4.797 4.4689856-4.797 7.2569996 0 3.198016 2.336977 5.370995 7.011 6.519 1.804009.492003 3.79249.738 5.9655.738 2.173011 0 4.058992-.163998 5.658-.492 1.599008-.328001 3.054494-.778997 4.3665-1.353 2.870015-1.230006 4.305-2.82899 4.305-4.797 0-1.230006-.717492-2.172996-2.1525-2.829-1.435007-.6560029-3.238989-1.2299971-5.412-1.7219996-2.17301-.4920024-4.591986-.9634977-7.257-1.4145-2.665013-.4510022-5.227487-1.0864959-7.6875-1.9065zm44.495-15.006l7.995-1.599v-60.639l-7.749-.984V15.51251843h21.894c23.042116 0 37.842968 7.78992207 44.403 23.36999997 2.132011 5.1660259 3.198 11.1929656 3.198 18.081 0 13.9400697-3.546464 24.6614625-10.6395 32.1645-7.093035 7.5030375-17.650429 11.2545-31.6725 11.2545h-25.707l-1.722-10.824zm24.108-2.091l2.337.123c8.692044 0 15.272478-2.5624743 19.7415-7.6875 4.469023-5.1250256 6.7035-12.6074508 6.7035-22.4475 0-9.8400492-2.459975-17.1379762-7.38-21.894-4.920024-4.7560238-12.053953-7.134-21.402-7.134v59.04zm68.234-11.439c1.148006 8.7740439 6.108957 13.161 14.883 13.161 3.772019 0 6.805989-.7174928 9.102-2.1525 2.296012-1.4350071 4.181993-2.849493 5.658-4.2435l2.829 10.701c-2.296011 3.0340152-6.641968 5.2479931-13.038 6.642-2.13201.4920025-4.714984.738-7.749.738-3.034015 0-6.211483-.6149938-9.5325-1.845-3.321016-1.2300061-6.293486-3.0749877-8.9175-5.535-5.822029-5.4940274-8.733-12.9969524-8.733-22.509 0-10.00405 2.951971-17.8759713 8.856-23.616 4.920025-4.9200246 11.110963-7.38 18.573-7.38 5.658029 0 10.454981 1.3529865 14.391 4.059 4.428023 3.1160156 6.642 7.379973 6.642 12.792 0 6.4780324-2.664973 11.3979832-7.995 14.76-4.756023 3.0340152-10.987961 4.551-18.696 4.551h-3.321c-1.066005 0-2.049995-.0409996-2.952-.123zm.123-10.332c.410003.0820004 1.024996.123 1.845.123h2.214c5.98603 0 10.126989-1.4759852 12.423-4.428.820005-1.0660053 1.23-2.4804912 1.23-4.2435 0-1.7630088-.532994-3.1159953-1.599-4.059-1.066005-.9430047-2.377992-1.4145-3.936-1.4145-1.558007 0-3.033993.3689963-4.428 1.107-1.394007.7380037-2.623994 1.7629935-3.69 3.075-2.378011 2.6240131-3.730998 5.9039803-4.059 9.84zm39.329-22.632l18.204-3.198 4.305 4.551c1.558008-1.1480057 3.648987-2.1729955 6.273-3.075 2.624014-.9020045 5.247987-1.353 7.872-1.353 2.624014 0 5.083989.3279967 7.38.984 2.296012.6560033 4.304992 1.6399935 6.027 2.952 3.772019 2.8700144 5.658 6.9699734 5.658 12.3v35.178l6.765 1.107-.123 7.872h-27.675v-7.872l6.15-1.353v-31.488c0-5.0840254-2.541974-7.626-7.626-7.626-3.362016 0-6.477985 1.106989-9.348 3.321-.656003.4920025-1.106998.9019984-1.353 1.23v34.563l7.011 1.476-.123 7.749h-27.306l-1.353-7.872 6.888-1.599v-39.483h-6.273l-1.353-8.364zm106.7945 39.4215c.779004-1.2710063 1.1685-2.7674914 1.1685-4.4895 0-1.7220086-.307496-3.177494-.9225-4.3665-.615003-1.1890059-1.578493-2.2754951-2.8905-3.2595-1.558007-1.2300061-4.694476-2.9519889-9.4095-5.166-4.715023-2.214011-8.425486-4.0589926-11.1315-5.535-2.706013-1.4760074-5.083989-3.1569905-7.134-5.043-4.264021-4.1820209-6.396-9.5939668-6.396-16.236 0-6.8880344 2.787973-12.5459778 8.364-16.974 5.330027-4.10002047 12.135959-6.14999997 20.418-6.14999997 7.708039 0 15.497961 1.10698893 23.37 3.321l1.845 23.36999997h-10.332l-6.027-13.038c-3.198016-.4920024-6.477983-.738-9.84-.738-3.362016 0-6.04749.901991-8.0565 2.706s-3.0135 3.7719894-3.0135 5.904c0 2.1320107.532995 3.8334937 1.599 5.1045 1.066006 1.2710064 2.418992 2.3984951 4.059 3.3825 1.96801 1.2300062 5.186478 2.8904896 9.6555 4.9815 4.469023 2.0910105 8.056487 3.9769916 10.7625 5.658 2.706014 1.6810084 4.919992 3.5054902 6.642 5.4735 3.526018 3.8540193 5.289 8.3434744 5.289 13.4685 0 5.1250257-.901991 9.286484-2.706 12.4845-1.804009 3.198016-4.140985 5.8219898-7.011 7.872-5.412027 3.7720189-12.381957 5.658-20.91 5.658-7.544037 0-15.907954-1.8449815-25.092-5.535l2.46-23.739 10.332.861.984 13.653c1.066006.2460013 2.521491.6149976 4.3665 1.107 1.84501.4920025 3.83349.738 5.9655.738 2.132011 0 4.058992-.1844981 5.781-.5535 1.722009-.3690018 3.259494-.9634959 4.6125-1.7835 1.353007-.8200041 2.418997-1.8654936 3.198-3.1365zm33.6095-2.2755l.246-29.028h-9.348l-1.845-9.963.861-1.23h10.455c.082001-5.002025.123-9.3889811.123-13.161 0-3.7720188.041-6.2729938.123-7.503l13.161-2.82899997 1.107 1.968V39.9895184h12.423c.410002 0 .615.2459976.615.738v10.455h-13.038v32.103c0 2.5420127.327997 4.120497.984 4.7355.656004.6150031 1.598994.9225 2.829.9225 2.460013 0 5.165986-1.1889881 8.118-3.567.082001.3280017.286999.9429955.615 1.845.328002.9020045.655999 1.8449951.984 2.829.820005 2.7060136 1.312 4.4689959 1.476 5.289-1.148005 1.2300062-3.054486 2.4599939-5.7195 3.69-2.665013 1.2300062-5.288987 1.845-7.872 1.845-2.583012 0-4.79699-.2664973-6.642-.7995-1.845009-.5330026-3.464493-1.4554934-4.8585-2.7675-3.198016-2.8700143-4.797-7.502968-4.797-13.899v-3.198zm66.02 14.76c-3.936019 3.9360197-8.527973 5.904-13.776 5.904-5.576027 0-10.003983-1.5579844-13.284-4.674-3.034015-2.9520147-4.551-6.5394789-4.551-10.7625 0-4.2230211.942991-7.5644877 2.829-10.0245 1.88601-2.4600123 4.263986-4.4689922 7.134-6.027 5.412027-2.7880139 12.13596-4.2639992 20.172-4.428v-9.717c0-.9020045-.635493-1.7424961-1.9065-2.5215-1.271006-.7790039-2.767491-1.1685-4.4895-1.1685-2.788014 0-4.509996.1229988-5.166.369l-3.198 9.102-15.252-6.642c1.640009-4.0180201 4.591979-7.3799864 8.856-10.086 4.510023-2.8700143 9.470973-4.305 14.883-4.305 9.430048 0 15.866983 3.4849652 19.311 10.455 1.230007 2.4600123 1.845 5.5759812 1.845 9.348v27.675c0 1.804009.737993 2.706 2.214 2.706l1.845-.246 2.214 6.888c-3.116015 2.7060136-6.395982 4.059-9.84 4.059-4.592023 0-7.87199-1.9679803-9.84-5.904zm-1.476-19.68c-9.922049.4920025-14.883 3.1979754-14.883 8.118 0 1.394007.450996 2.6854941 1.353 3.8745.902005 1.189006 2.39849 1.7835 4.4895 1.7835 2.091011 0 3.956492-.6149938 5.5965-1.845 1.640009-1.2300061 2.787997-2.541993 3.444-3.936v-7.995zm58.025 19.68c-3.936019 3.9360197-8.527973 5.904-13.776 5.904-5.576027 0-10.003983-1.5579844-13.284-4.674-3.034015-2.9520147-4.551-6.5394789-4.551-10.7625 0-4.2230211.942991-7.5644877 2.829-10.0245 1.88601-2.4600123 4.263986-4.4689922 7.134-6.027 5.412027-2.7880139 12.13596-4.2639992 20.172-4.428v-9.717c0-.9020045-.635493-1.7424961-1.9065-2.5215-1.271006-.7790039-2.767491-1.1685-4.4895-1.1685-2.788014 0-4.509996.1229988-5.166.369l-3.198 9.102-15.252-6.642c1.640009-4.0180201 4.591979-7.3799864 8.856-10.086 4.510023-2.8700143 9.470973-4.305 14.883-4.305 9.430048 0 15.866983 3.4849652 19.311 10.455 1.230007 2.4600123 1.845 5.5759812 1.845 9.348v27.675c0 1.804009.737993 2.706 2.214 2.706l1.845-.246 2.214 6.888c-3.116015 2.7060136-6.395982 4.059-9.84 4.059-4.592023 0-7.87199-1.9679803-9.84-5.904zm-1.476-19.68c-9.922049.4920025-14.883 3.1979754-14.883 8.118 0 1.394007.450996 2.6854941 1.353 3.8745.902005 1.189006 2.39849 1.7835 4.4895 1.7835 2.091011 0 3.956492-.6149938 5.5965-1.845 1.640009-1.2300061 2.787997-2.541993 3.444-3.936v-7.995zm33.056 4.92l.246-29.028h-9.348l-1.845-9.963.861-1.23h10.455c.082001-5.002025.123-9.3889811.123-13.161 0-3.7720188.041-6.2729938.123-7.503l13.161-2.82899997 1.107 1.968V39.9895184h12.423c.410002 0 .615.2459976.615.738v10.455h-13.038v32.103c0 2.5420127.327997 4.120497.984 4.7355.656004.6150031 1.598994.9225 2.829.9225 2.460013 0 5.165986-1.1889881 8.118-3.567.082001.3280017.286999.9429955.615 1.845.328002.9020045.655999 1.8449951.984 2.829.820005 2.7060136 1.312 4.4689959 1.476 5.289-1.148005 1.2300062-3.054486 2.4599939-5.7195 3.69-2.665013 1.2300062-5.288987 1.845-7.872 1.845-2.583012 0-4.79699-.2664973-6.642-.7995-1.845009-.5330026-3.464493-1.4554934-4.8585-2.7675-3.198016-2.8700143-4.797-7.502968-4.797-13.899v-3.198zm35.516 12.423c0-2.2960115.819992-4.2229922 2.46-5.781 1.640009-1.5580078 3.587489-2.337 5.8425-2.337 2.255012 0 4.181992.7789922 5.781 2.337 1.599008 1.5580078 2.3985 3.4849885 2.3985 5.781 0 2.2960115-.799492 4.243492-2.3985 5.8425-1.599008 1.599008-3.525988 2.3985-5.781 2.3985-2.255011 0-4.202491-.799492-5.8425-2.3985-1.640008-1.599008-2.46-3.5464885-2.46-5.8425zm51.137-52.644c2.952015 0 5.739987.5329947 8.364 1.599v-20.91h-6.273l-1.353-8.36399997 18.204-2.583 4.305 4.551V87.4675184c0 1.804009.778993 2.706 2.337 2.706.820005 0 1.721995-.2459975 2.706-.738l2.337 6.396c-1.394007 1.8860095-3.689984 3.3619947-6.888 4.428-1.230006.4100021-2.582992.615-4.059.615-4.592023 0-7.83099-1.7219828-9.717-5.166-2.952014 3.4440172-7.297971 5.166-13.038 5.166-6.970034 0-12.586978-2.5829741-16.851-7.749-4.346021-5.3300266-6.519-12.5049549-6.519-21.525 0-11.1520557 2.99297-19.5159721 8.979-25.092 4.674024-4.3460217 10.495966-6.519 17.466-6.519zm8.364 13.899c-1.804009-1.6400082-4.222984-2.46-7.257-2.46-5.576027 0-9.30699 3.402966-11.193 10.209-.738003 2.6240131-1.107 6.4164752-1.107 11.3775s.963491 8.8969855 2.8905 11.808c1.92701 2.9110146 4.612483 4.3665 8.0565 4.3665 1.722009 0 3.484991-.5739942 5.289-1.722 1.804009-1.1480057 2.910998-2.5829914 3.321-4.305v-29.274zm43.388 22.14c1.148006 8.7740439 6.108957 13.161 14.883 13.161 3.772019 0 6.805989-.7174928 9.102-2.1525 2.296012-1.4350071 4.181993-2.849493 5.658-4.2435l2.829 10.701c-2.296011 3.0340152-6.641968 5.2479931-13.038 6.642-2.13201.4920025-4.714984.738-7.749.738-3.034015 0-6.211483-.6149938-9.5325-1.845-3.321016-1.2300061-6.293486-3.0749877-8.9175-5.535-5.822029-5.4940274-8.733-12.9969524-8.733-22.509 0-10.00405 2.951971-17.8759713 8.856-23.616 4.920025-4.9200246 11.110963-7.38 18.573-7.38 5.658029 0 10.454981 1.3529865 14.391 4.059 4.428023 3.1160156 6.642 7.379973 6.642 12.792 0 6.4780324-2.664973 11.3979832-7.995 14.76-4.756023 3.0340152-10.987961 4.551-18.696 4.551h-3.321c-1.066005 0-2.049995-.0409996-2.952-.123zm.123-10.332c.410002.0820004 1.024996.123 1.845.123h2.214c5.98603 0 10.126989-1.4759852 12.423-4.428.820005-1.0660053 1.23-2.4804912 1.23-4.2435 0-1.7630088-.532994-3.1159953-1.599-4.059-1.066005-.9430047-2.377992-1.4145-3.936-1.4145-1.558007 0-3.033993.3689963-4.428 1.107-1.394007.7380037-2.623994 1.7629935-3.69 3.075-2.378011 2.6240131-3.730998 5.9039803-4.059 9.84z"/></g></svg>