<?xml version="1.0" encoding="UTF-8" standalone="no"?>
<!-- Created with Inkscape (http://www.inkscape.org/) -->

<svg
   xmlns:dc="http://purl.org/dc/elements/1.1/"
   xmlns:cc="http://creativecommons.org/ns#"
   xmlns:rdf="http://www.w3.org/1999/02/22-rdf-syntax-ns#"
   xmlns:svg="http://www.w3.org/2000/svg"
   xmlns="http://www.w3.org/2000/svg"
   xmlns:sodipodi="http://sodipodi.sourceforge.net/DTD/sodipodi-0.dtd"
   xmlns:inkscape="http://www.inkscape.org/namespaces/inkscape"
   id="svg29"
   version="1.1"
   inkscape:version="0.48.2 r9819"
   width="938.9875"
   height="239.3375"
   xml:space="preserve"
   sodipodi:docname="okfn_logo.svg"
   inkscape:export-filename="/Users/sw/Desktop/okfn-black.png"
   inkscape:export-xdpi="300.07834"
   inkscape:export-ydpi="300.07834"><metadata
     id="metadata35"><rdf:RDF><cc:Work
         rdf:about=""><dc:format>image/svg+xml</dc:format><dc:type
           rdf:resource="http://purl.org/dc/dcmitype/StillImage" /><dc:title></dc:title></cc:Work></rdf:RDF></metadata><defs
     id="defs33"><clipPath
       clipPathUnits="userSpaceOnUse"
       id="clipPath45"><path
         d="M 0,1914.74 0,0 l 7511.92,0 0,1914.74 -7511.92,0 z"
         id="path47" /></clipPath></defs><sodipodi:namedview
     pagecolor="#ffffff"
     bordercolor="#666666"
     borderopacity="1"
     objecttolerance="10"
     gridtolerance="10"
     guidetolerance="10"
     inkscape:pageopacity="0"
     inkscape:pageshadow="2"
     inkscape:window-width="1060"
     inkscape:window-height="703"
     id="namedview31"
     showgrid="false"
     inkscape:zoom="1.4587662"
     inkscape:cx="230.14068"
     inkscape:cy="119.66875"
     inkscape:window-x="0"
     inkscape:window-y="302"
     inkscape:window-maximized="0"
     inkscape:current-layer="g43" /><g
     id="g37"
     inkscape:groupmode="layer"
     inkscape:label="ink_ext_XXXXXX"
     transform="matrix(1.25,0,0,-1.25,0,239.3375)"><g
       id="g39"
       transform="scale(0.1,0.1)"
       style="fill:#000000;fill-opacity:1"><g
         id="g41"
         style="fill:#000000;fill-opacity:1"><g
           id="g43"
           clip-path="url(#clipPath45)"
           style="fill:#000000;fill-opacity:1"><path
             d="m 2025.23,1259.14 c 0,-68.27 14.53,-120.05 43.61,-155.33 29.08,-35.28 71.31,-52.92 126.71,-52.92 55.86,0 98.04,17.58 126.54,52.75 28.5,35.17 42.76,87 42.76,155.5 0,67.81 -14.2,119.24 -42.59,154.3 -28.39,35.05 -70.39,52.58 -126.01,52.58 -55.86,0 -98.33,-17.64 -127.41,-52.93 -29.08,-35.29 -43.61,-86.6 -43.61,-153.95 z m 401.68,0 c 0,-80.68 -20.4,-144.12 -61.2,-190.32 -40.8,-46.21 -97.52,-69.304 -170.16,-69.304 -74.25,0 -131.53,22.694 -171.87,68.094 -40.35,45.39 -60.52,109.48 -60.52,192.23 0,82.06 20.22,145.67 60.68,190.84 40.46,45.16 97.93,67.75 172.41,67.75 72.4,0 128.95,-22.99 169.63,-68.96 40.69,-45.98 61.03,-109.42 61.03,-190.33"
             style="fill:#000000;fill-opacity:1;fill-rule:nonzero;stroke:none"
             id="path49" /><path
             d="m 2698.26,1342.58 c -38.62,0 -66.55,-10.68 -83.78,-32.06 -17.25,-21.38 -26.1,-55.4 -26.56,-102.06 l 0,-12.76 c 0,-53.1 8.85,-91.09 26.56,-113.95 17.69,-22.88 46.08,-34.3 85.15,-34.3 32.64,0 58.22,13.21 76.72,39.64 18.51,26.43 27.76,62.86 27.76,109.3 0,47.12 -9.25,83.27 -27.76,108.44 -18.5,25.16 -44.54,37.75 -78.09,37.75 z m 8.28,-343.064 c -24.6,0 -47.07,4.534 -67.41,13.614 -20.35,9.08 -37.42,23.05 -51.21,41.89 l -4.14,0 c 2.77,-22.06 4.14,-42.98 4.14,-62.75 l 0,-155.489 -57.23,0 0,547.519 46.54,0 7.93,-51.72 2.76,0 c 14.71,20.69 31.84,35.63 51.38,44.83 19.53,9.18 41.95,13.79 67.24,13.79 50.11,0 88.78,-17.13 116.01,-51.37 27.24,-34.26 40.86,-82.3 40.86,-144.13 0,-62.06 -13.84,-110.27 -41.54,-144.64 -27.7,-34.37 -66.15,-51.544 -115.33,-51.544"
             style="fill:#000000;fill-opacity:1;fill-rule:nonzero;stroke:none"
             id="path51" /><path
             d="m 3107.53,1343.27 c -30.34,0 -54.53,-9.89 -72.57,-29.65 -18.05,-19.77 -28.68,-47.12 -31.9,-82.07 l 197.57,0 c 0,36.09 -8.05,63.74 -24.13,82.93 -16.09,19.2 -39.08,28.79 -68.97,28.79 z m 15.52,-343.754 c -55.86,0 -99.93,17.004 -132.22,51.024 -32.3,34.02 -48.45,81.26 -48.45,141.71 0,60.92 15,109.3 45,145.17 30,35.85 70.27,53.78 120.85,53.78 47.35,0 84.81,-15.57 112.4,-46.72 27.58,-31.14 41.38,-72.23 41.38,-123.27 l 0,-36.2 -260.33,0 c 1.16,-44.36 12.36,-78.04 33.62,-101.02 21.26,-22.99 51.21,-34.48 89.82,-34.48 40.69,0 80.91,8.5 120.68,25.51 l 0,-51.02 c -20.23,-8.74 -39.37,-15 -57.41,-18.8 -18.04,-3.79 -39.82,-5.684 -65.34,-5.684"
             style="fill:#000000;fill-opacity:1;fill-rule:nonzero;stroke:none"
             id="path53" /><path
             d="m 3618.17,1006.41 0,244.46 c 0,30.79 -7.01,53.78 -21.04,68.96 -14.02,15.16 -35.97,22.75 -65.85,22.75 -39.54,0 -68.5,-10.68 -86.89,-32.06 -18.39,-21.38 -27.58,-56.67 -27.58,-105.86 l 0,-198.25 -57.23,0 0,377.89 46.54,0 9.31,-51.72 2.76,0 c 11.73,18.62 28.15,33.05 49.31,43.27 21.14,10.23 44.7,15.35 70.68,15.35 45.51,0 79.75,-10.98 102.74,-32.93 22.99,-21.95 34.49,-57.07 34.49,-105.34 l 0,-246.52 -57.24,0"
             style="fill:#000000;fill-opacity:1;fill-rule:nonzero;stroke:none"
             id="path55" /><path
             d="m 4349.13,1006.41 -68.96,0 -183.77,244.46 -52.76,-46.89 0,-197.57 -58.61,0 0,504.09 58.61,0 0,-249.98 228.6,249.98 69.31,0 -202.73,-218.95 210.31,-285.14"
             style="fill:#000000;fill-opacity:1;fill-rule:nonzero;stroke:none"
             id="path57" /><path
             d="m 4668.41,1006.41 0,244.46 c 0,30.79 -7.01,53.78 -21.04,68.96 -14.02,15.16 -35.97,22.75 -65.84,22.75 -39.55,0 -68.51,-10.68 -86.89,-32.06 -18.4,-21.38 -27.58,-56.67 -27.58,-105.86 l 0,-198.25 -57.25,0 0,377.89 46.55,0 9.31,-51.72 2.76,0 c 11.74,18.62 28.16,33.05 49.31,43.27 21.14,10.23 44.71,15.35 70.69,15.35 45.51,0 79.74,-10.98 102.73,-32.93 22.99,-21.95 34.49,-57.07 34.49,-105.34 l 0,-246.52 -57.24,0"
             style="fill:#000000;fill-opacity:1;fill-rule:nonzero;stroke:none"
             id="path59" /><path
             d="m 4881.49,1195.7 c 0,-48.27 9.65,-85.05 28.97,-110.34 19.3,-25.28 47.69,-37.91 85.16,-37.91 37.46,0 65.91,12.57 85.33,37.75 19.43,25.16 29.14,62 29.14,110.5 0,48.04 -9.71,84.53 -29.14,109.47 -19.42,24.94 -48.09,37.41 -86.02,37.41 -37.48,0 -65.74,-12.29 -84.82,-36.89 -19.08,-24.6 -28.62,-61.26 -28.62,-109.99 z m 287.89,0 c 0,-61.61 -15.5,-109.7 -46.54,-144.29 -31.03,-34.6 -73.9,-51.894 -128.61,-51.894 -33.79,0 -63.77,7.934 -89.98,23.784 -26.21,15.86 -46.45,38.62 -60.69,68.27 -14.25,29.65 -21.38,64.36 -21.38,104.13 0,61.6 15.41,109.59 46.21,143.95 30.8,34.37 73.55,51.55 128.26,51.55 52.87,0 94.86,-17.58 126.02,-52.76 31.15,-35.17 46.71,-82.74 46.71,-142.74"
             style="fill:#000000;fill-opacity:1;fill-rule:nonzero;stroke:none"
             id="path61" /><path
             d="m 5578.33,1006.41 -69.32,221.7 c -4.35,13.57 -12.52,44.36 -24.47,92.41 l -2.75,0 c -9.2,-40.23 -17.25,-71.26 -24.14,-93.09 l -71.37,-221.02 -66.21,0 -103.09,377.89 59.98,0 c 24.38,-94.93 42.93,-167.23 55.71,-216.87 12.75,-49.65 20.04,-83.1 21.87,-100.34 l 2.77,0 c 2.52,13.11 6.61,30.05 12.23,50.86 5.65,20.8 10.53,37.29 14.67,49.48 l 69.3,216.87 62.07,0 67.57,-216.87 c 12.88,-39.54 21.61,-72.75 26.2,-99.64 l 2.77,0 c 0.9,8.27 3.38,21.02 7.4,38.27 4.02,17.24 27.99,109.99 71.9,278.24 l 59.29,0 -104.47,-377.89 -67.91,0"
             style="fill:#000000;fill-opacity:1;fill-rule:nonzero;stroke:none"
             id="path63" /><path
             d="m 5818.99,1006.41 57.2305,0 0,536.492 -57.2305,0 0,-536.492 z"
             style="fill:#000000;fill-opacity:1;fill-rule:nonzero;stroke:none"
             id="path65" /><path
             d="m 6141.71,1343.27 c -30.33,0 -54.53,-9.89 -72.58,-29.65 -18.05,-19.77 -28.67,-47.12 -31.89,-82.07 l 197.57,0 c 0,36.09 -8.04,63.74 -24.14,82.93 -16.09,19.2 -39.08,28.79 -68.96,28.79 z m 15.53,-343.754 c -55.86,0 -99.95,17.004 -132.23,51.024 -32.3,34.02 -48.46,81.26 -48.46,141.71 0,60.92 15,109.3 45,145.17 30,35.85 70.28,53.78 120.86,53.78 47.35,0 84.81,-15.57 112.4,-46.72 27.58,-31.14 41.37,-72.23 41.37,-123.27 l 0,-36.2 -260.31,0 c 1.15,-44.36 12.34,-78.04 33.61,-101.02 21.25,-22.99 51.21,-34.48 89.83,-34.48 40.68,0 80.9,8.5 120.66,25.51 l 0,-51.02 c -20.21,-8.74 -39.35,-15 -57.4,-18.8 -18.05,-3.79 -39.83,-5.684 -65.33,-5.684"
             style="fill:#000000;fill-opacity:1;fill-rule:nonzero;stroke:none"
             id="path67" /><path
             d="m 6536.49,1047.45 c 39.09,0 67.43,10.62 85,31.88 17.58,21.26 26.37,55.56 26.37,102.92 l 0,12.07 c 0,53.56 -8.9,91.77 -26.72,114.65 -17.81,22.87 -46.25,34.3 -85.33,34.3 -33.55,0 -59.26,-13.04 -77.07,-39.13 -17.81,-26.09 -26.72,-62.93 -26.72,-110.5 0,-48.28 8.85,-84.71 26.56,-109.31 17.7,-24.6 43.68,-36.88 77.91,-36.88 z m 114.48,9.64 -3.11,0 c -26.42,-38.39 -65.98,-57.574 -118.59,-57.574 -49.44,0 -87.87,16.894 -115.35,50.684 -27.46,33.79 -41.2,81.82 -41.2,144.12 0,62.29 13.79,110.68 41.37,145.16 27.6,34.48 65.98,51.72 115.18,51.72 51.25,0 90.54,-18.62 117.91,-55.86 l 4.49,0 -2.42,27.24 -1.39,26.56 0,153.76 57.25,0 0,-536.49 -46.55,0 -7.59,50.68"
             style="fill:#000000;fill-opacity:1;fill-rule:nonzero;stroke:none"
             id="path69" /><path
             d="m 6865.44,1263.29 c 0,-26.44 7.46,-46.44 22.4,-60 14.94,-13.57 35.74,-20.35 62.4,-20.35 55.86,0 83.79,27.12 83.79,81.38 0,56.77 -28.26,85.16 -84.82,85.16 -26.9,0 -47.58,-7.24 -62.05,-21.72 -14.49,-14.49 -21.72,-35.98 -21.72,-64.47 z M 6834.4,942.973 c 0,-20.453 8.62,-35.973 25.86,-46.551 17.23,-10.563 41.94,-15.852 74.12,-15.852 48.05,0 83.62,7.18 106.72,21.551 23.11,14.363 34.65,33.84 34.65,58.43 0,20.461 -6.33,34.66 -18.96,42.589 -12.64,7.93 -36.43,11.89 -71.37,11.89 l -68.61,0 c -25.98,0 -46.21,-6.21 -60.69,-18.62 -14.47,-12.414 -21.72,-30.226 -21.72,-53.437 z m 301.35,441.327 0,-36.2 -70,-8.27 c 6.45,-8.05 12.19,-18.57 17.25,-31.56 5.06,-12.98 7.58,-27.63 7.58,-43.95 0,-37.01 -12.64,-66.55 -37.93,-88.61 -25.28,-22.07 -59.98,-33.11 -104.12,-33.11 -11.27,0 -21.84,0.92 -31.72,2.76 -24.38,-12.88 -36.55,-29.08 -36.55,-48.62 0,-10.34 4.24,-17.99 12.76,-22.93 8.49,-4.94 23.1,-7.41 43.79,-7.41 l 66.89,0 c 40.9,0 72.34,-8.61 94.3,-25.86 21.95,-17.24 32.93,-42.282 32.93,-75.165 0,-41.82 -16.78,-73.715 -50.35,-95.664 -33.56,-21.961 -82.52,-32.93 -146.88,-32.93 -49.43,0 -87.52,9.199 -114.3,27.578 -26.77,18.391 -40.17,44.371 -40.17,77.918 0,22.989 7.36,42.871 22.07,59.653 14.71,16.77 35.39,28.15 62.07,34.13 -9.67,4.37 -17.75,11.15 -24.32,20.34 -6.54,9.2 -9.82,19.88 -9.82,32.07 0,13.79 3.67,25.86 11.03,36.2 7.35,10.34 18.97,20.34 34.83,30 -19.55,8.05 -35.47,21.72 -47.76,41.03 -12.3,19.31 -18.45,41.37 -18.45,66.2 0,41.37 12.42,73.27 37.24,95.68 24.83,22.41 60,33.62 105.51,33.62 19.77,0 37.58,-2.3 53.44,-6.9 l 130.68,0"
             style="fill:#000000;fill-opacity:1;fill-rule:nonzero;stroke:none"
             id="path71" /><path
             d="m 7357.45,1343.27 c -30.33,0 -54.53,-9.89 -72.58,-29.65 -18.04,-19.77 -28.67,-47.12 -31.89,-82.07 l 197.58,0 c 0,36.09 -8.05,63.74 -24.14,82.93 -16.1,19.2 -39.09,28.79 -68.97,28.79 z m 15.53,-343.754 c -55.86,0 -99.94,17.004 -132.23,51.024 -32.3,34.02 -48.46,81.26 -48.46,141.71 0,60.92 15,109.3 45,145.17 30,35.85 70.28,53.78 120.86,53.78 47.35,0 84.81,-15.57 112.41,-46.72 27.57,-31.14 41.36,-72.23 41.36,-123.27 l 0,-36.2 -260.31,0 c 1.15,-44.36 12.35,-78.04 33.61,-101.02 21.25,-22.99 51.22,-34.48 89.83,-34.48 40.68,0 80.9,8.5 120.66,25.51 l 0,-51.02 c -20.21,-8.74 -39.35,-15 -57.4,-18.8 -18.05,-3.79 -39.82,-5.684 -65.33,-5.684"
             style="fill:#000000;fill-opacity:1;fill-rule:nonzero;stroke:none"
             id="path73" /><path
             d="m 2047.98,378.738 -58.61,0 0,504.09 281.01,0 0,-52.066 -222.4,0 0,-184.461 208.95,0 0,-52.063 -208.95,0 0,-215.5"
             style="fill:#000000;fill-opacity:1;fill-rule:nonzero;stroke:none"
             id="path75" /><path
             d="m 2383.46,568.031 c 0,-48.269 9.66,-85.051 28.97,-110.34 19.3,-25.281 47.69,-37.921 85.16,-37.921 37.46,0 65.91,12.582 85.33,37.761 19.43,25.16 29.15,62 29.15,110.5 0,48.039 -9.72,84.528 -29.15,109.469 -19.42,24.941 -48.09,37.41 -86.02,37.41 -37.47,0 -65.74,-12.289 -84.82,-36.89 -19.08,-24.598 -28.62,-61.258 -28.62,-109.989 z m 287.9,0 c 0,-61.609 -15.52,-109.703 -46.54,-144.293 -31.04,-34.597 -73.91,-51.898 -128.61,-51.898 -33.79,0 -63.78,7.93 -89.99,23.789 -26.21,15.859 -46.44,38.621 -60.69,68.281 -14.25,29.641 -21.37,64.352 -21.37,104.121 0,61.598 15.4,109.59 46.2,143.949 30.8,34.372 73.55,51.54 128.27,51.54 52.86,0 94.86,-17.571 126.01,-52.75 31.15,-35.168 46.72,-82.739 46.72,-142.739"
             style="fill:#000000;fill-opacity:1;fill-rule:nonzero;stroke:none"
             id="path77" /><path
             d="m 2825.49,756.629 0,-245.149 c 0,-30.8 7.01,-53.789 21.04,-68.949 14.01,-15.179 35.97,-22.761 65.85,-22.761 39.53,0 68.45,10.8 86.72,32.41 18.27,21.609 27.41,56.89 27.41,105.859 l 0,198.59 57.24,0 0,-377.891 -47.24,0 -8.28,50.684 -3.1,0 c -11.73,-18.613 -27.99,-32.871 -48.79,-42.75 -20.81,-9.883 -44.54,-14.832 -71.2,-14.832 -45.97,0 -80.4,10.922 -103.27,32.762 -22.87,21.828 -34.31,56.777 -34.31,104.808 l 0,247.219 57.93,0"
             style="fill:#000000;fill-opacity:1;fill-rule:nonzero;stroke:none"
             id="path79" /><path
             d="m 3463.71,378.738 0,244.461 c 0,30.789 -7.02,53.781 -21.04,68.961 -14.02,15.16 -35.98,22.75 -65.85,22.75 -39.54,0 -68.5,-10.68 -86.89,-32.058 -18.39,-21.383 -27.58,-56.672 -27.58,-105.864 l 0,-198.25 -57.24,0 0,377.891 46.55,0 9.31,-51.719 2.76,0 c 11.72,18.621 28.15,33.051 49.3,43.27 21.14,10.23 44.71,15.34 70.69,15.34 45.5,0 79.75,-10.969 102.74,-32.918 22.99,-21.954 34.48,-57.071 34.48,-105.34 l 0,-246.524 -57.23,0"
             style="fill:#000000;fill-opacity:1;fill-rule:nonzero;stroke:none"
             id="path81" /><path
             d="m 3781.26,419.77 c 39.06,0 67.4,10.628 84.98,31.89 17.6,21.262 26.39,55.57 26.39,102.918 l 0,12.07 c 0,53.551 -8.91,91.774 -26.72,114.653 -17.81,22.871 -46.27,34.301 -85.35,34.301 -33.56,0 -59.25,-13.043 -77.06,-39.141 -17.81,-26.082 -26.72,-62.922 -26.72,-110.492 0,-48.278 8.85,-84.707 26.55,-109.309 17.7,-24.601 43.67,-36.89 77.93,-36.89 z m 114.47,9.652 -3.1,0 c -26.45,-38.391 -65.98,-57.582 -118.62,-57.582 -49.42,0 -87.86,16.898 -115.33,50.691 -27.47,33.789 -41.2,81.821 -41.2,144.117 0,62.293 13.79,110.684 41.37,145.161 27.59,34.48 65.97,51.711 115.16,51.711 51.25,0 90.57,-18.61 117.93,-55.848 l 4.48,0 -2.43,27.238 -1.36,26.551 0,153.773 57.22,0 0,-536.496 -46.54,0 -7.58,50.684"
             style="fill:#000000;fill-opacity:1;fill-rule:nonzero;stroke:none"
             id="path83" /><path
             d="m 4174.33,419.082 c 35.62,0 63.61,9.77 83.94,29.309 20.35,19.531 30.53,46.89 30.53,82.058 l 0,34.129 -57.25,-2.406 c -45.51,-1.613 -78.32,-8.684 -98.43,-21.203 -20.12,-12.528 -30.18,-32.02 -30.18,-58.449 0,-20.692 6.27,-36.438 18.79,-47.239 12.54,-10.801 30.06,-16.199 52.6,-16.199 z m 129.29,-40.344 -11.38,53.793 -2.76,0 c -18.85,-23.679 -37.63,-39.711 -56.36,-48.101 -18.75,-8.391 -42.13,-12.59 -70.18,-12.59 -37.46,0 -66.84,9.648 -88.09,28.969 -21.27,19.312 -31.89,46.769 -31.89,82.402 0,76.309 61.01,116.309 183.08,119.988 l 64.13,2.071 0,23.441 c 0,29.66 -6.37,51.551 -19.14,65.68 -12.76,14.14 -33.15,21.211 -61.2,21.211 -31.5,0 -67.12,-9.653 -106.89,-28.961 l -17.58,43.789 c 18.61,10.109 39.02,18.05 61.21,23.789 22.17,5.742 44.42,8.621 66.7,8.621 45.06,0 78.46,-10 100.18,-30 21.72,-20 32.58,-52.059 32.58,-96.192 l 0,-257.91 -42.41,0"
             style="fill:#000000;fill-opacity:1;fill-rule:nonzero;stroke:none"
             id="path85" /><path
             d="m 4586.01,419.082 c 10.11,0 19.88,0.738 29.31,2.238 9.42,1.489 16.9,3.039 22.4,4.66 l 0,-43.789 c -6.21,-2.992 -15.33,-5.461 -27.4,-7.421 -12.07,-1.95 -22.93,-2.93 -32.6,-2.93 -73.08,0 -109.62,38.5 -109.62,115.512 l 0,224.808 -54.14,0 0,27.578 54.14,23.782 24.12,80.691 33.1,0 0,-87.582 109.65,0 0,-44.469 -109.65,0 0,-222.398 c 0,-22.75 5.39,-40.231 16.21,-52.41 10.8,-12.192 25.63,-18.27 44.48,-18.27"
             style="fill:#000000;fill-opacity:1;fill-rule:nonzero;stroke:none"
             id="path87" /><path
             d="m 4770.48,378.738 -57.25,0 0,377.891 57.25,0 0,-377.891 z m -62.07,480.293 c 0,13.11 3.22,22.707 9.65,28.797 6.44,6.082 14.49,9.133 24.14,9.133 9.2,0 17.13,-3.102 23.79,-9.301 6.66,-6.219 10,-15.762 10,-28.629 0,-12.871 -3.34,-22.472 -10,-28.793 -6.66,-6.316 -14.59,-9.476 -23.79,-9.476 -9.65,0 -17.7,3.16 -24.14,9.476 -6.43,6.321 -9.65,15.922 -9.65,28.793"
             style="fill:#000000;fill-opacity:1;fill-rule:nonzero;stroke:none"
             id="path89" /><path
             d="m 4930.11,568.031 c 0,-48.269 9.67,-85.051 28.96,-110.34 19.32,-25.281 47.7,-37.921 85.18,-37.921 37.46,0 65.9,12.582 85.33,37.761 19.41,25.16 29.14,62 29.14,110.5 0,48.039 -9.73,84.528 -29.14,109.469 -19.43,24.941 -48.11,37.41 -86.04,37.41 -37.46,0 -65.74,-12.289 -84.8,-36.89 -19.08,-24.598 -28.63,-61.258 -28.63,-109.989 z m 287.91,0 c 0,-61.609 -15.53,-109.703 -46.55,-144.293 -31.03,-34.597 -73.9,-51.898 -128.61,-51.898 -33.79,0 -63.79,7.93 -90,23.789 -26.19,15.859 -46.42,38.621 -60.68,68.281 -14.24,29.641 -21.37,64.352 -21.37,104.121 0,61.598 15.39,109.59 46.19,143.949 30.8,34.372 73.56,51.54 128.28,51.54 52.85,0 94.87,-17.571 126.02,-52.75 31.13,-35.168 46.72,-82.739 46.72,-142.739"
             style="fill:#000000;fill-opacity:1;fill-rule:nonzero;stroke:none"
             id="path91" /><path
             d="m 5576.94,378.738 0,244.461 c 0,30.789 -7.01,53.781 -21.03,68.961 -14.03,15.16 -35.98,22.75 -65.86,22.75 -39.53,0 -68.5,-10.68 -86.9,-32.058 -18.37,-21.383 -27.57,-56.672 -27.57,-105.864 l 0,-198.25 -57.23,0 0,377.891 46.54,0 9.32,-51.719 2.75,0 c 11.72,18.621 28.15,33.051 49.3,43.27 21.15,10.23 44.71,15.34 70.68,15.34 45.51,0 79.77,-10.969 102.76,-32.918 22.99,-21.954 34.47,-57.071 34.47,-105.34 l 0,-246.524 -57.23,0"
             style="fill:#000000;fill-opacity:1;fill-rule:nonzero;stroke:none"
             id="path93" /><g
             id="g884"
             inkscape:export-filename="/Users/sw/Downloads/okfn-logo-black.png"
             inkscape:export-xdpi="300.07834"
             inkscape:export-ydpi="300.07834"><path
               id="path95"
               style="fill:#000000;fill-opacity:1;fill-rule:nonzero;stroke:none"
               d="m 865.801,135.922 c -311.438,0 -509.707,164.019 -613.836,387.398 l 313.992,439.328 157.07,-146.519 0,-329.981 125.391,0 0,942.442 -125.391,0 0,-469.906 -461.093,453.446 c 106.589,212.75 302.128,366.69 603.867,366.69 292.339,0 484.859,-146.05 592.939,-350.23 l -578.428,0 0,-942.442 125.388,0 0,431.625 432.95,0 0,105.597 -432.95,0 0,299.62 493.67,0 6.08,-0.01 c 41.66,-114.28 61.47,-240.18 61.47,-365.601 0,-408.117 -209.28,-821.457 -701.119,-821.457 z M 162.07,957.379 c 0,117.511 17.383,235.441 53.907,343.821 L 480.145,1048.45 199.758,666.828 C 174.309,760.078 162.07,858.871 162.07,957.379 z M 865.801,1914.74 C 267.715,1914.74 0,1433.91 0,957.379 0,480.859 267.715,0 865.801,0 c 596.289,0 863.189,480.859 863.189,957.379 0,476.531 -266.9,957.361 -863.189,957.361" /></g></g></g></g></g></svg>