<svg id="Layer_1" data-name="Layer 1" xmlns="http://www.w3.org/2000/svg" xmlns:xlink="http://www.w3.org/1999/xlink" viewBox="0 0 274 274"><defs><style>.cls-1,.cls-10,.cls-8{fill:#eaeaea;}.cls-1,.cls-2{clip-rule:evenodd;}.cls-11,.cls-13,.cls-2{fill:#efefef;}.cls-3{fill:#4886ff;}.cls-4{fill:#9db2c6;}.cls-5{fill:#fff;}.cls-6{fill:#e9ebef;}.cls-7{fill:#003f7c;}.cls-11,.cls-8{fill-rule:evenodd;}.cls-9{clip-path:url(#clip-path);}.cls-12{clip-path:url(#clip-path-2);}</style><clipPath id="clip-path"><path class="cls-1" d="M39.05,130.57l105,53,105-53V245.16a4,4,0,0,1-4,4h-202a4,4,0,0,1-4-4Z"/></clipPath><clipPath id="clip-path-2"><path class="cls-2" d="M130.81,182c5.82-4.21,15.26-4.2,21.08,0l91,65.7c1.79,1.29,1.44,2.34-.76,2.34H40.54c-2.21,0-2.55-1.05-.76-2.34Z"/></clipPath></defs><title>Artboard 1</title><circle class="cls-3" cx="137" cy="137" r="137"/><polygon class="cls-4" points="38.63 161.27 39.05 130.57 143.35 58.71 249.04 130.57 249.04 208.67 38.63 161.27"/><polygon class="cls-5" points="43 45.3 196.63 21.1 224.52 203.32 70.66 230.3 43 45.3"/><rect class="cls-6" x="75.04" y="126.41" width="103.9" height="6" transform="translate(-18.8 21.62) rotate(-9.06)"/><rect class="cls-6" x="78.15" y="141.3" width="120.71" height="6" transform="translate(-20.73 23.25) rotate(-8.93)"/><rect class="cls-6" x="80.88" y="158.27" width="104.01" height="6" transform="translate(-22.74 21.82) rotate(-8.65)"/><path class="cls-7" d="M62.93,71.42,61.14,59.65l7.65-1.16.27,1.76-5.63.86.51,3.38,4.82-.73L69,65.44l-4.83.73.75,4.94Z"/><path class="cls-7" d="M72,70,70.68,61.3l.92-.14.85.87a3.16,3.16,0,0,1,2.23-1.55l.33,0,.27,1.77-.24,0a2.92,2.92,0,0,0-2.14,1.28l.95,6.24Z"/><path class="cls-7" d="M76.85,66.88a2.54,2.54,0,0,1,.59-2.23A4.34,4.34,0,0,1,80,63.52L82,63.23l-.1-.69c-.14-.93-.77-1.31-1.86-1.14a1.94,1.94,0,0,0-1.17.52,1.15,1.15,0,0,0-.29,1l-1.8.27a2.76,2.76,0,0,1,.56-2.28,4.65,4.65,0,0,1,5.15-.77,2.75,2.75,0,0,1,1.24,2l.9,6-1.07.16-.85-.87A3.34,3.34,0,0,1,80.17,69,3.19,3.19,0,0,1,78,68.64,2.37,2.37,0,0,1,76.85,66.88Zm1.81-.48q.16,1.09,1.62.87a3,3,0,0,0,2.08-1.33l-.19-1.3-1.92.29Q78.48,65.2,78.66,66.4Z"/><path class="cls-7" d="M86.09,63.91l-.28-1.83a3,3,0,0,1,2.6-3.68,3.28,3.28,0,0,1,2.79.78l.54-1.08,1.07-.16,1.26,8.25a3.29,3.29,0,0,1-.58,2.66A3.91,3.91,0,0,1,91,70.12a4.22,4.22,0,0,1-2.76-.38,2.58,2.58,0,0,1-1.31-2l1.85-.28a1.06,1.06,0,0,0,.6.78,2.1,2.1,0,0,0,1.36.15c1.18-.18,1.68-.81,1.52-1.9L92,65.21a3,3,0,0,1-2.3,1.43,3,3,0,0,1-3.64-2.73Zm1.83-.38a1.53,1.53,0,0,0,.66,1.12,1.77,1.77,0,0,0,1.3.25,2.83,2.83,0,0,0,1.89-1.4l-.41-2.71A2.8,2.8,0,0,0,89.14,60a1.78,1.78,0,0,0-1.17.63,1.55,1.55,0,0,0-.3,1.26Z"/><path class="cls-7" d="M96.74,66.28,95,54.51l4.2-.63a5.05,5.05,0,0,1,3.55.56,3.79,3.79,0,0,1,1.69,2.8l.56,3.63a3.8,3.8,0,0,1-.79,3.18,5.06,5.06,0,0,1-3.22,1.6Zm1.75-2.07,2.19-.33a2.76,2.76,0,0,0,1.81-.91,2.07,2.07,0,0,0,.46-1.73l-.57-3.74a2.12,2.12,0,0,0-.95-1.53,2.83,2.83,0,0,0-2-.33L97.24,56Z"/><path class="cls-7" d="M107,61.64,106.58,59a3,3,0,0,1,.65-2.51,4.1,4.1,0,0,1,2.58-1.3,3.86,3.86,0,0,1,2.77.46,3,3,0,0,1,1.33,2.21l.29,2-5.48.83.11.72a1.44,1.44,0,0,0,.67,1.07,2,2,0,0,0,1.45.21c1-.15,1.51-.62,1.55-1.42l1.86-.29a3,3,0,0,1-.76,2.26,3.94,3.94,0,0,1-2.4,1.14,4.1,4.1,0,0,1-2.85-.45A3,3,0,0,1,107,61.64Zm1.52-2.44,3.62-.55-.08-.55a1.4,1.4,0,0,0-.65-1.05,2,2,0,0,0-1.4-.21,2,2,0,0,0-1.27.61,1.42,1.42,0,0,0-.31,1.2Z"/><path class="cls-7" d="M116.82,63.23l-1.33-8.74,1.08-.16.84.87a3.21,3.21,0,0,1,2.4-1.57,2.89,2.89,0,0,1,2.34.55,3.45,3.45,0,0,1,1.19,2.3l.86,5.63-1.85.28-.83-5.46a2,2,0,0,0-.63-1.27,1.54,1.54,0,0,0-1.24-.28,2.66,2.66,0,0,0-1.91,1.44l.93,6.13Z"/><path class="cls-7" d="M125.38,58l2-.3A2,2,0,0,0,128,59a2.81,2.81,0,0,0,2.37.53,2.68,2.68,0,0,0,1.55-.66,1.32,1.32,0,0,0,.42-1.2,1.08,1.08,0,0,0-.71-.87,12.93,12.93,0,0,0-2.15-.6l-.16,0-.29-.06a10.79,10.79,0,0,1-3-1A2.59,2.59,0,0,1,125,53.21a3.11,3.11,0,0,1,.75-2.66,4.79,4.79,0,0,1,3-1.41,4.84,4.84,0,0,1,3.36.5,3.74,3.74,0,0,1,1.61,2.8l-2,.31a2,2,0,0,0-.89-1.49A2.67,2.67,0,0,0,129,51a2.84,2.84,0,0,0-1.52.64,1.19,1.19,0,0,0-.44,1.12,1.15,1.15,0,0,0,.67,1,12.45,12.45,0,0,0,2.15.54l.25.06c.63.11,1.16.23,1.6.35a7.86,7.86,0,0,1,1.3.49,2.67,2.67,0,0,1,1.54,2.11,3.14,3.14,0,0,1-.79,2.71,6,6,0,0,1-6.58.9A3.76,3.76,0,0,1,125.38,58Z"/><path class="cls-7" d="M135,53.19l-.25-1.62,1.35-.2-.28-1.82,1.85-.28.28,1.82,2.08-.32.25,1.62-2.09.31.61,4c.15,1,.62,1.43,1.42,1.31l.89-.14.25,1.62-.9.14q-3,.45-3.51-2.67l-.61-4Z"/><path class="cls-7" d="M142.25,57a2.51,2.51,0,0,1,.59-2.23,4.34,4.34,0,0,1,2.59-1.13l1.92-.29-.1-.69c-.15-.93-.77-1.31-1.87-1.14a1.93,1.93,0,0,0-1.16.52,1.1,1.1,0,0,0-.29,1l-1.8.28a2.74,2.74,0,0,1,.56-2.28,4.61,4.61,0,0,1,5.15-.77,2.71,2.71,0,0,1,1.23,2l.91,6-1.07.16-.86-.87a3.3,3.3,0,0,1-2.48,1.59,3.19,3.19,0,0,1-2.22-.37A2.34,2.34,0,0,1,142.25,57Zm1.81-.48q.16,1.1,1.62.87A3,3,0,0,0,147.76,56l-.2-1.3-1.92.29C144.47,55.18,143.94,55.67,144.06,56.47Z"/><path class="cls-7" d="M151.38,55.56a2.52,2.52,0,0,1,.6-2.23,4.31,4.31,0,0,1,2.59-1.13l1.92-.29-.11-.69q-.21-1.39-1.86-1.14a1.93,1.93,0,0,0-1.16.52,1.12,1.12,0,0,0-.29,1l-1.81.27a2.8,2.8,0,0,1,.57-2.28,3.74,3.74,0,0,1,2.43-1.17,3.86,3.86,0,0,1,2.72.4,2.77,2.77,0,0,1,1.23,2l.91,6L158,57l-.85-.87a3.34,3.34,0,0,1-2.49,1.59,3.21,3.21,0,0,1-2.22-.37A2.35,2.35,0,0,1,151.38,55.56Zm1.82-.48q.17,1.1,1.62.87a3,3,0,0,0,2.08-1.33l-.2-1.3-1.92.29C153.6,53.79,153.08,54.28,153.2,55.08Z"/><path class="cls-7" d="M159.38,49.48l-.25-1.61,1.35-.21-.28-1.81,1.85-.28.27,1.81,2.09-.31.24,1.61-2.08.32.61,4c.15,1,.62,1.44,1.42,1.32l.89-.14.25,1.62-.9.13q-3,.47-3.51-2.66l-.61-4Z"/><rect class="cls-6" x="65.66" y="79.47" width="121" height="6" transform="translate(-11.33 20.7) rotate(-8.98)"/><rect class="cls-6" x="68.95" y="96.14" width="104.35" height="6" transform="translate(-13.81 19.81) rotate(-8.85)"/><rect class="cls-6" x="71.91" y="109.73" width="121.61" height="6" transform="translate(-15.7 21.66) rotate(-8.81)"/><path class="cls-8" d="M39.05,130.57l105,53,105-53V245.16a4,4,0,0,1-4,4h-202a4,4,0,0,1-4-4Z"/><g class="cls-9"><rect class="cls-10" x="-466.95" y="-275.84" width="1200" height="871"/></g><path class="cls-11" d="M130.81,182c5.82-4.21,15.26-4.2,21.08,0l91,65.7c1.79,1.29,1.44,2.34-.76,2.34H40.54c-2.21,0-2.55-1.05-.76-2.34Z"/><g class="cls-12"><rect class="cls-13" x="32.63" y="172.81" width="217.44" height="83.19"/></g></svg>