<svg width="191" height="44" fill="none" xmlns="http://www.w3.org/2000/svg"><g clip-path="url(#clip0)"><path d="M6.129 18.461v1.57l5.48 3.263v-4.833H6.13zM16.281 26.072l9.168 5.444 8.957-5.419v-5.605l-9.144 5.418-8.981-5.406v5.568zM39.077 18.461v4.808l5.48-3.313V18.46h-5.48z" fill="#296DFF"/><path d="M50.575 18.461v-4.796H47.31L25.511 0 3.152 13.665H0v4.796h1.457v20.74H0v4.797h50.575v-4.796h-1.346V18.46h1.346zm-16.17 0v20.74H16.282v-20.74h18.125zM25.2 5.606l13.765 8.06h-26.87L25.2 5.605zM6.13 18.46h5.48v20.74H6.13v-20.74zm38.429 20.74h-5.481v-20.74h5.481v20.74z" fill="#C9D2DC"/></g><path d="M58.748 37.172l-.265-1.85 1.49-.288v-12.42l-1.466-.144v-1.897h10.474l.457 4.636h-1.586l-.96-2.426h-4.3v4.852h3.747v2.162H62.59v5.141l3.94.577-.144 1.657h-7.64zM70.776 37.172l-.312-1.369 1.418-.36v-8.024l-1.25.072-.24-1.465 3.003-.553.769 1.153c.32-.384.704-.672 1.153-.865.448-.208.873-.312 1.273-.312.705 0 1.321.176 1.85.529a2.9 2.9 0 011.153 1.393l-2.523 1.297-.768-1.177c-.225 0-.497.088-.817.264-.304.16-.577.433-.817.817-.24.369-.36.873-.36 1.514v4.996l3.075.721v1.37h-6.607zM83.943 37.269c-.705 0-1.321-.137-1.85-.409a3.158 3.158 0 01-1.249-1.129c-.288-.48-.432-1.033-.432-1.658 0-.736.192-1.345.576-1.825.385-.497.881-.89 1.49-1.177a7.227 7.227 0 011.97-.601c.704-.128 1.369-.2 1.994-.216v-1.778c0-.288-.153-.537-.457-.745-.288-.208-.72-.312-1.297-.312-.16 0-.345.016-.553.048a1.319 1.319 0 00-.48.12l-.529 1.586-2.642-.961c.32-.801.873-1.458 1.657-1.97.801-.513 1.706-.769 2.715-.769.753 0 1.425.128 2.018.385a3.117 3.117 0 011.441 1.2c.369.545.553 1.258.553 2.139v5.67c0 .191.04.344.12.456a.489.489 0 00.36.144c.08 0 .16-.008.24-.024.08-.032.137-.056.169-.072l.36 1.2c-.128.129-.344.281-.649.457-.304.16-.656.24-1.057.24-.464 0-.832-.104-1.105-.312a1.995 1.995 0 01-.624-.817 3.983 3.983 0 01-1.201.817 3.716 3.716 0 01-1.538.313zm.433-1.97c.464 0 .88-.12 1.249-.36.384-.257.656-.537.817-.842v-2.066a10.92 10.92 0 00-1.13.12c-.4.049-.784.137-1.153.265a2.366 2.366 0 00-.913.552c-.224.24-.336.553-.336.937 0 .369.12.697.36.985.257.272.625.409 1.106.409zM95.74 43.659c-.897 0-1.697-.16-2.402-.48-.705-.305-1.257-.738-1.658-1.298-.4-.545-.6-1.177-.6-1.898 0-.785.2-1.441.6-1.97.4-.512.857-.913 1.37-1.201a2.323 2.323 0 01-.48-.625 2.2 2.2 0 01-.169-.888c0-.385.088-.73.264-1.033.176-.32.385-.601.625-.841a4.309 4.309 0 01-1.321-1.418c-.337-.592-.505-1.289-.505-2.09 0-.929.216-1.721.649-2.378a4.32 4.32 0 011.705-1.513 4.804 4.804 0 012.258-.553c.561 0 1.098.088 1.61.264.529.177 1.001.425 1.417.745l2.451-1.225.528.072.265 2.114-2.187.264c.177.32.313.665.409 1.033.096.353.144.737.144 1.153 0 .93-.224 1.714-.673 2.355a4.27 4.27 0 01-1.705 1.441 5.075 5.075 0 01-2.258.505h-.433a3.08 3.08 0 01-.408-.073l-.457.697.048.385 2.475.552c.784.176 1.457.416 2.018.72.576.289 1.017.65 1.321 1.082.304.448.456 1.009.456 1.681 0 .93-.248 1.722-.744 2.379-.48.672-1.13 1.177-1.946 1.513a6.661 6.661 0 01-2.667.529zm.433-2.427c.496 0 .969-.064 1.417-.192.448-.128.817-.32 1.105-.576.288-.257.433-.561.433-.913 0-.305-.137-.553-.409-.745-.272-.192-.632-.352-1.081-.48a24.819 24.819 0 00-1.441-.313 14.432 14.432 0 01-1.49-.36c-.432.208-.776.464-1.033.769-.24.32-.36.672-.36 1.057 0 .336.112.632.336.888.24.273.569.48.985.625.433.16.945.24 1.538.24zm-.097-8.984c.721 0 1.258-.24 1.61-.721.352-.48.529-1.049.529-1.706 0-.656-.177-1.217-.529-1.681-.352-.48-.889-.721-1.61-.721-.704 0-1.233.24-1.585.72-.352.465-.528 1.026-.528 1.682 0 .657.176 1.226.528 1.706.352.48.88.72 1.585.72zM103.603 37.172l-.264-1.85 1.489-.312V22.614l-1.465-.168v-1.873h3.988c1.841 0 3.443.304 4.804.912 1.362.593 2.411 1.49 3.147 2.69.753 1.186 1.129 2.7 1.129 4.541 0 1.826-.32 3.371-.961 4.637a6.546 6.546 0 01-2.81 2.858c-1.233.641-2.747.961-4.541.961h-4.516zm4.516-2.186c.993 0 1.842-.152 2.547-.456.704-.305 1.281-.729 1.729-1.273.449-.56.777-1.218.985-1.97.209-.769.313-1.61.313-2.523 0-1.265-.233-2.338-.697-3.219a4.524 4.524 0 00-2.018-2.042c-.881-.464-1.954-.704-3.219-.72h-.312v12.18l.672.023zM123.494 37.269c-1.009 0-1.922-.225-2.739-.673-.801-.449-1.441-1.105-1.922-1.97-.48-.865-.721-1.914-.721-3.147 0-1.297.241-2.386.721-3.267.497-.897 1.145-1.578 1.946-2.042a5.085 5.085 0 012.594-.697c.657 0 1.282.12 1.874.36.593.24 1.081.601 1.466 1.082.384.48.576 1.08.576 1.801 0 .737-.168 1.354-.504 1.85-.321.48-.761.865-1.322 1.153a6.447 6.447 0 01-1.849.625 11.15 11.15 0 01-2.09.192h-.865c.128.785.432 1.45.913 1.994.48.528 1.233.793 2.258.793.672 0 1.241-.12 1.705-.36.465-.241.849-.497 1.154-.77l.504 1.826c-.192.192-.472.393-.841.6a6.1 6.1 0 01-1.297.481 6.861 6.861 0 01-1.561.169zm-2.835-6.559l.648.024c.353 0 .729-.024 1.13-.072.416-.048.8-.136 1.153-.264.352-.144.64-.344.864-.6.241-.257.361-.593.361-1.01 0-.464-.144-.8-.433-1.009a1.56 1.56 0 00-.985-.336c-.512 0-.969.152-1.369.456-.4.289-.721.681-.961 1.178a4.904 4.904 0 00-.408 1.633zM129.168 37.172l-.217-1.369 1.322-.312v-8.072l-1.25.048-.24-1.465 3.171-.553.721.913a4.447 4.447 0 011.297-.625 4.778 4.778 0 011.562-.264c.688 0 1.305.12 1.849.36.545.24.969.601 1.274 1.082.32.48.48 1.097.48 1.85v6.774l1.369.264-.024 1.37h-5.02l-.024-1.37 1.273-.288v-6.27c0-.593-.144-1.033-.433-1.322-.288-.288-.704-.432-1.249-.432-.48 0-.937.104-1.369.312-.432.209-.753.417-.961.625v7.087l1.417.312-.024 1.345h-4.924zM146.755 37.269a10.57 10.57 0 01-2.475-.289 12.892 12.892 0 01-2.138-.697l.216-4.3 1.802.097.36 2.57c.241.08.553.168.937.264.385.096.785.144 1.201.144a4.33 4.33 0 001.466-.24c.464-.16.841-.4 1.129-.72.288-.337.432-.77.432-1.298 0-.432-.096-.8-.288-1.105-.176-.304-.464-.584-.865-.84-.384-.273-.897-.553-1.537-.841-.625-.305-1.225-.601-1.802-.89a8.126 8.126 0 01-1.537-.984 4.299 4.299 0 01-1.081-1.322c-.273-.512-.409-1.145-.409-1.897 0-.897.24-1.666.721-2.307.496-.656 1.153-1.16 1.97-1.513.816-.368 1.713-.552 2.69-.552.769 0 1.514.072 2.234.216.737.128 1.41.288 2.018.48l.337 4.276h-1.754l-1.129-2.546a3.873 3.873 0 00-.817-.168 8.71 8.71 0 00-.913-.048c-.528 0-.993.088-1.393.264-.384.16-.689.392-.913.697-.208.288-.312.632-.312 1.033 0 .4.104.744.312 1.032.224.289.513.545.865.77.352.207.737.4 1.153.576.416.176.817.36 1.201.552.961.449 1.73.905 2.306 1.37.593.464 1.017.976 1.274 1.537.272.545.408 1.161.408 1.85 0 .849-.16 1.577-.481 2.186a4.45 4.45 0 01-1.297 1.49 5.69 5.69 0 01-1.826.888 8.112 8.112 0 01-2.065.265zM158.397 37.269a3.07 3.07 0 01-1.393-.313c-.417-.208-.745-.544-.985-1.009-.24-.464-.36-1.073-.36-1.826l.048-6.75h-1.874l-.336-1.634.168-.264h2.066l.024-4.036 2.162-.48.192.36-.024 4.156h2.474c.08 0 .12.048.12.144v1.754h-2.594v6.774c0 .48.072.793.216.937.144.129.36.193.649.193.288 0 .584-.088.889-.265.32-.176.544-.312.672-.408l.529 1.681c-.192.209-.529.425-1.009.65-.465.223-1.009.336-1.634.336zM165.654 37.269c-.705 0-1.321-.137-1.85-.409a3.16 3.16 0 01-1.249-1.129c-.288-.48-.432-1.033-.432-1.658 0-.736.192-1.345.576-1.825a4.032 4.032 0 011.49-1.177 7.218 7.218 0 011.97-.601c.704-.128 1.369-.2 1.993-.216v-1.778c0-.288-.152-.537-.456-.745-.288-.208-.721-.312-1.297-.312-.16 0-.345.016-.553.048a1.316 1.316 0 00-.48.12l-.529 1.586-2.642-.961c.32-.801.873-1.458 1.657-1.97.801-.513 1.706-.769 2.715-.769.753 0 1.425.128 2.018.385a3.117 3.117 0 011.441 1.2c.369.545.553 1.258.553 2.139v5.67c0 .191.04.344.12.456a.488.488 0 00.36.144c.08 0 .16-.008.24-.024.081-.032.137-.056.169-.072l.36 1.2c-.128.129-.344.281-.649.457-.304.16-.656.24-1.057.24-.464 0-.832-.104-1.105-.312a1.995 1.995 0 01-.624-.817 3.997 3.997 0 01-1.201.817 3.719 3.719 0 01-1.538.313zm.432-1.97c.465 0 .881-.12 1.25-.36.384-.257.656-.537.816-.842v-2.066c-.336.017-.712.056-1.129.12-.4.049-.784.137-1.153.265a2.376 2.376 0 00-.913.552c-.224.24-.336.553-.336.937 0 .369.12.697.36.985.257.272.625.409 1.105.409zM176.657 37.269c-.705 0-1.322-.137-1.85-.409a3.152 3.152 0 01-1.249-1.129c-.288-.48-.433-1.033-.433-1.658 0-.736.193-1.345.577-1.825a4.029 4.029 0 011.489-1.177 7.24 7.24 0 011.97-.601c.705-.128 1.37-.2 1.994-.216v-1.778c0-.288-.152-.537-.456-.745-.289-.208-.721-.312-1.298-.312-.16 0-.344.016-.552.048a1.327 1.327 0 00-.481.12l-.528 1.586-2.643-.961c.321-.801.873-1.458 1.658-1.97.801-.513 1.706-.769 2.715-.769.752 0 1.425.128 2.018.385a3.117 3.117 0 011.441 1.2c.368.545.552 1.258.552 2.139v5.67c0 .191.04.344.121.456a.488.488 0 00.36.144c.08 0 .16-.008.24-.024a2.47 2.47 0 00.168-.072l.361 1.2c-.128.129-.345.281-.649.457-.304.16-.657.24-1.057.24-.464 0-.833-.104-1.105-.312a1.997 1.997 0 01-.625-.817 3.972 3.972 0 01-1.201.817 3.714 3.714 0 01-1.537.313zm.432-1.97c.465 0 .881-.12 1.249-.36.385-.257.657-.537.817-.842v-2.066c-.336.017-.713.056-1.129.12-.4.049-.785.137-1.153.265a2.368 2.368 0 00-.913.552c-.224.24-.336.553-.336.937 0 .369.12.697.36.985.256.272.625.409 1.105.409zM188.144 37.269a3.07 3.07 0 01-1.393-.313c-.416-.208-.745-.544-.985-1.009-.24-.464-.36-1.073-.36-1.826l.048-6.75h-1.874l-.336-1.634.168-.264h2.066l.024-4.036 2.162-.48.192.36-.024 4.156h2.474c.081 0 .121.048.121.144v1.754h-2.595v6.774c0 .48.072.793.216.937.144.129.361.193.649.193.288 0 .585-.088.889-.265.32-.176.544-.312.672-.408l.529 1.681c-.192.209-.529.425-1.009.65-.464.223-1.009.336-1.634.336z" fill="#001C5A"/><defs><clipPath id="clip0"><path d="M0 0h50.575v44H0V0z" fill="#fff"/></clipPath></defs></svg>