<svg width="38" height="38" viewBox="0 0 38 38" fill="none" xmlns="http://www.w3.org/2000/svg"><circle cx="18.4243" cy="18.2597" fill="#fff" r="14.9697"/><path d="M31.3531 14.7975c0 .4151-.1465.8058-.4395 1.0988L17.6544 29.1554c-.293.2931-.7081.464-1.1232.464-.3907 0-.8058-.1709-1.0988-.464L6.59294 20.316c-.29302-.293-.43953-.6837-.43953-1.0988s.14651-.8302.43953-1.1232L8.815 15.8963c.29302-.293.68372-.4639 1.09883-.4639.41507 0 .80577.1709 1.09877.4639l5.5186 5.5185 9.9626-9.9382c.2931-.293.6838-.464 1.0989-.464s.8058.171 1.0988.464l2.2221 2.1976c.293.2931.4395.7082.4395 1.1233zm6.1534 3.9557C37.5065 8.39989 29.1066 0 18.7532 0 8.39989 0 0 8.39989 0 18.7532c0 10.3534 8.39989 18.7533 18.7532 18.7533 10.3534 0 18.7533-8.3999 18.7533-18.7533z" fill="#E8B106"/></svg>