<?xml version="1.0" encoding="utf-8"?>
<!-- Generator: Adobe Illustrator 19.1.0, SVG Export Plug-In . SVG Version: 6.00 Build 0)  -->
<svg version="1.1" id="Layer_1" xmlns="http://www.w3.org/2000/svg" xmlns:xlink="http://www.w3.org/1999/xlink" x="0px" y="0px"
	 viewBox="0 0 23.5 23.5" style="enable-background:new 0 0 23.5 23.5;" xml:space="preserve">
<style type="text/css">
	.st0{fill:#0066FF;}
	.st1{fill:#0066FF;stroke:#0066FF;stroke-miterlimit:10;}
	.st2{fill:none;stroke:#0066FF;stroke-width:2;stroke-miterlimit:10;}
	.st3{fill:#438BCA;}
	.st4{fill:#D9EDF7;}
	.st5{fill:#FFFFFF;}
	.st6{fill:none;stroke:#BE1E2D;stroke-width:0.5;stroke-miterlimit:10;}
	.st7{fill:#F6921E;}
	.st8{fill:none;stroke:#F6921E;stroke-linecap:round;stroke-linejoin:round;stroke-miterlimit:10;}
	.st9{fill:none;stroke:#000000;stroke-linecap:round;stroke-linejoin:round;stroke-miterlimit:10;}
	.st10{clip-path:url(#SVGID_2_);}
	.st11{fill:none;stroke:#FFFFFF;stroke-linecap:round;stroke-linejoin:round;stroke-miterlimit:10;}
	
		.st12{fill:none;stroke:#0066FF;stroke-width:1.5;stroke-linecap:round;stroke-linejoin:round;stroke-miterlimit:10;stroke-dasharray:1,2;}
	.st13{opacity:0.14;fill:#BBBDBF;}
</style>
<g>
	<defs>
		<polyline id="SVGID_1_" points="-72.1,-649.2 895.8,-649.2 895.8,4.1 -72.1,4.1 		"/>
	</defs>
	<clipPath id="SVGID_2_">
		<use xlink:href="#SVGID_1_"  style="overflow:visible;"/>
	</clipPath>
	<g class="st10">
		<defs>
			<rect id="SVGID_3_" x="43.6" y="-649.2" width="852.3" height="653.3"/>
		</defs>
		<clipPath id="SVGID_4_">
			<use xlink:href="#SVGID_3_"  style="overflow:visible;"/>
		</clipPath>
		<g style="clip-path:url(#SVGID_4_);">
			
				<image style="overflow:visible;" width="972" height="656" xlink:href="Screen Shot 2015-12-09 at 18.46.21.png"  transform="matrix(0.9958 0 0 0.9958 -72.114 -649.187)">
			</image>
		</g>
	</g>
</g>
<g>
	<g>
		<path class="st0" d="M0.8,2c0.1,0.6,0.1,1.1-0.1,1.6C0.4,4.9,2.3,5.4,2.6,4.1C2.8,3.4,2.8,2.7,2.8,2c-0.1-0.5-0.4-1-1-1
			C1.3,1,0.7,1.4,0.8,2L0.8,2z"/>
	</g>
</g>
<g>
	<g>
		<path class="st0" d="M0.6,6.4c0,0.7,0.1,1.4,0.3,2c0.3,1.3,2.2,0.7,1.9-0.5c-0.1-0.5-0.2-1-0.2-1.5c0-0.5-0.4-1-1-1
			C1.1,5.4,0.6,5.8,0.6,6.4L0.6,6.4z"/>
	</g>
</g>
<g>
	<g>
		<path class="st0" d="M0.6,10.7c0,0.7,0,1.5,0,2.2c0,1.3,2,1.3,2,0c0-0.7,0-1.5,0-2.2C2.6,9.4,0.6,9.4,0.6,10.7L0.6,10.7z"/>
	</g>
</g>
<g>
	<g>
		<path class="st0" d="M0.5,15.2c0,0.4,0,0.8,0,1.2c0,1.3,2,1.3,2,0c0-0.4,0-0.8,0-1.2C2.5,13.9,0.5,13.9,0.5,15.2L0.5,15.2z"/>
	</g>
</g>
<g>
	<g>
		<path class="st0" d="M0.6,19c0,1,0,2,0.2,3c0.1,0.5,0.8,0.8,1.2,0.7c0.6-0.2,0.8-0.7,0.7-1.2c-0.1-0.8-0.2-1.7-0.1-2.5
			C2.7,17.7,0.7,17.7,0.6,19L0.6,19z"/>
	</g>
</g>
<g>
	<g>
		<path class="st0" d="M4.8,22.6C4.7,22.6,4.6,22.6,4.8,22.6c0,0,0.1,0,0.2,0c0.2,0,0.4,0,0.5,0c1.3,0,1.3-2,0-2
			c-0.6,0-1.2-0.1-1.8,0.2C2.7,21.5,3.7,23.2,4.8,22.6L4.8,22.6z"/>
	</g>
</g>
<g>
	<g>
		<path class="st0" d="M8.3,22.7c0.8-0.1,1.5-0.1,2.3,0c0.5,0.1,1-0.5,1-1c0-0.6-0.5-0.9-1-1c-1-0.1-1.9,0-2.8,0.1
			c-0.5,0.1-0.8,0.8-0.7,1.2C7.2,22.6,7.8,22.8,8.3,22.7L8.3,22.7z"/>
	</g>
</g>
<g>
	<g>
		<path class="st0" d="M13,22.9c1-0.1,2-0.1,3-0.1c1.3,0,1.3-2,0-2c-1,0-2,0.1-3,0.1C11.7,20.9,11.7,22.9,13,22.9L13,22.9z"/>
	</g>
</g>
<g>
	<g>
		<path class="st0" d="M18.5,22.6c1,0,2,0,3,0c1.3,0.1,1.3-1.9,0-2c-1-0.1-2-0.1-3,0C17.3,20.7,17.3,22.7,18.5,22.6L18.5,22.6z"/>
	</g>
</g>
<g>
	<g>
		<path class="st0" d="M22.7,19.6c0.2-0.9,0.3-1.9,0.2-2.8c-0.1-0.5-0.4-1-1-1c-0.5,0-1.1,0.5-1,1c0.1,0.8,0.1,1.5-0.1,2.3
			c-0.1,0.5,0.2,1.1,0.7,1.2C22,20.4,22.6,20.1,22.7,19.6L22.7,19.6z"/>
	</g>
</g>
<g>
	<g>
		<path class="st0" d="M22.7,14.2c0.1-0.8,0-1.6-0.1-2.4c-0.1-0.5-0.8-0.8-1.2-0.7c-0.6,0.2-0.8,0.7-0.7,1.2c0.1,0.6,0.1,1.2,0,1.8
			c-0.1,0.5,0.5,1,1,1C22.3,15.2,22.7,14.7,22.7,14.2L22.7,14.2z"/>
	</g>
</g>
<g>
	<g>
		<path class="st0" d="M22.6,9c0-0.8,0-1.6,0-2.4c0-1.3-2-1.3-2,0c0,0.8,0,1.6,0,2.4C20.6,10.3,22.6,10.3,22.6,9L22.6,9z"/>
	</g>
</g>
<g>
	<g>
		<path class="st0" d="M22.6,4.3c0-0.8,0-1.6,0-2.4c0-1.3-2-1.3-2,0c0,0.8,0,1.6,0,2.4C20.7,5.6,22.7,5.6,22.6,4.3L22.6,4.3z"/>
	</g>
</g>
<g>
	<g>
		<path class="st0" d="M3.8,2.6c0.6,0,1.1,0,1.7,0.1C6,2.8,6.6,2.6,6.7,2C6.8,1.5,6.5,0.9,6,0.8C5.3,0.6,4.6,0.6,3.8,0.6
			C2.6,0.7,2.5,2.7,3.8,2.6L3.8,2.6z"/>
	</g>
</g>
<g>
	<g>
		<path class="st0" d="M8.2,2.9C9,2.8,9.9,2.8,10.8,2.8c1.3,0,1.3-2,0-2c-0.9,0-1.7,0-2.6,0.1c-0.5,0-1,0.4-1,1
			C7.2,2.4,7.6,3,8.2,2.9L8.2,2.9z"/>
	</g>
</g>
<g>
	<g>
		<path class="st0" d="M13.2,2.6c0.6,0,1.1,0,1.7,0.1c1.3,0.3,1.8-1.7,0.5-1.9c-0.7-0.2-1.5-0.2-2.2-0.2C11.9,0.7,11.9,2.7,13.2,2.6
			L13.2,2.6z"/>
	</g>
</g>
<g>
	<g>
		<path class="st0" d="M18,2.8c0.3-0.1,0.5-0.1,0.8-0.1c1.3,0,1.3-2,0-2c-0.5,0-0.9,0.1-1.4,0.2C16.2,1.2,16.8,3.1,18,2.8L18,2.8z"
			/>
	</g>
</g>
<g>
	<g>
		<path class="st0" d="M9.4,6.9c0.7-0.8,2.4-1,3.2-0.2c0.9,0.8-1.2,1.7-1.7,2.1c-0.9,0.9,0.5,2.3,1.4,1.4c0.8-0.7,1.7-1,2.2-2
			c0.5-1,0.4-2.2-0.5-2.9C12.4,3.8,9.5,3.8,8,5.5C7.1,6.4,8.5,7.8,9.4,6.9L9.4,6.9z"/>
	</g>
</g>
<g>
	<g>
		<path class="st0" d="M10.6,9C10,9.7,9.2,10.1,9,11c-0.3,0.9-0.2,2,0.5,2.7c1.5,1.8,3.8,1.3,5.7,0.3c1.1-0.6,0.1-2.3-1-1.7
			c-0.9,0.4-2.2,1.1-3,0.2c-0.8-0.9,0.5-1.5,1-2.1C13,9.5,11.6,8.1,10.6,9L10.6,9z"/>
	</g>
</g>
<g>
	<g>
		<path class="st0" d="M12.9,18.4C12.9,18.4,12.9,18.4,12.9,18.4c-0.5-0.4-1-0.7-1.5-1.1c0,0,0,0.1,0,0.1c0.1-0.1,0.2-0.3,0.3-0.4
			c0,0-0.1,0.1-0.1,0.1c0.1-0.1,0.3-0.2,0.4-0.3c0,0-0.1,0-0.1,0C12.2,17.4,12.5,17.9,12.9,18.4C12.9,18.4,12.9,18.4,12.9,18.4
			c0.5-0.3,0.4-1,0.1-1.4c-0.4-0.4-1-0.4-1.4,0c0,0-0.1,0.1-0.1,0.1c-0.8,0.7,0.1,1.9,1,1.7c0.5-0.1,0.8-0.4,0.9-0.9
			c0.2-0.9-0.7-1.5-1.5-1.1c-0.1,0.1-0.3,0.2-0.4,0.3C10.6,17.9,12,19.3,12.9,18.4L12.9,18.4z"/>
	</g>
</g>
</svg>
