<?xml version="1.0" encoding="utf-8"?>
<!-- Generator: Adobe Illustrator 19.1.0, SVG Export Plug-In . SVG Version: 6.00 Build 0)  -->
<svg version="1.1" id="Layer_1" xmlns="http://www.w3.org/2000/svg" xmlns:xlink="http://www.w3.org/1999/xlink" x="0px" y="0px"
	 viewBox="0 0 23.5 23.5" style="enable-background:new 0 0 23.5 23.5;" xml:space="preserve">
<style type="text/css">
	.st0{fill:#0066FF;}
	.st1{fill:#0066FF;stroke:#0066FF;stroke-miterlimit:10;}
	.st2{fill:none;stroke:#0066FF;stroke-width:2;stroke-miterlimit:10;}
	.st3{fill:#438BCA;}
	.st4{fill:#D9EDF7;}
	.st5{fill:#FFFFFF;}
	.st6{fill:none;stroke:#BE1E2D;stroke-width:0.5;stroke-miterlimit:10;}
	.st7{fill:#F6921E;}
	.st8{fill:none;stroke:#F6921E;stroke-linecap:round;stroke-linejoin:round;stroke-miterlimit:10;}
	.st9{fill:none;stroke:#000000;stroke-linecap:round;stroke-linejoin:round;stroke-miterlimit:10;}
	.st10{clip-path:url(#SVGID_2_);}
	.st11{fill:none;stroke:#FFFFFF;stroke-linecap:round;stroke-linejoin:round;stroke-miterlimit:10;}
	
		.st12{fill:none;stroke:#0066FF;stroke-width:1.5;stroke-linecap:round;stroke-linejoin:round;stroke-miterlimit:10;stroke-dasharray:1,2;}
	.st13{opacity:0.14;fill:#BBBDBF;}
</style>
<g>
	<defs>
		<polyline id="SVGID_1_" points="-72.1,-387.8 895.8,-387.8 895.8,265.5 -72.1,265.5 		"/>
	</defs>
	<clipPath id="SVGID_2_">
		<use xlink:href="#SVGID_1_"  style="overflow:visible;"/>
	</clipPath>
	<g class="st10">
		<defs>
			<rect id="SVGID_3_" x="43.6" y="-387.8" width="852.3" height="653.3"/>
		</defs>
		<clipPath id="SVGID_4_">
			<use xlink:href="#SVGID_3_"  style="overflow:visible;"/>
		</clipPath>
		<g style="clip-path:url(#SVGID_4_);">
			
				<image style="overflow:visible;" width="972" height="656" xlink:href="Screen Shot 2015-12-09 at 18.46.21.png"  transform="matrix(0.9958 0 0 0.9958 -72.114 -387.7703)">
			</image>
		</g>
	</g>
</g>
<g>
	<g>
		<g>
			<path class="st0" d="M11.5,0.7C6.1,0.7,1,4.4,0.4,10c-0.6,5.8,3.5,10.9,9.2,11.8c5.5,0.9,11.1-1.6,12.9-7.1
				C24.4,9,21,3.6,15.7,1.6c-1.2-0.5-1.7,1.5-0.5,1.9C26.3,7.7,19.7,22.5,9,19.6C-1.1,16.9,1.3,2.8,11.5,2.7
				C12.8,2.7,12.8,0.7,11.5,0.7L11.5,0.7z"/>
		</g>
	</g>
	<g>
		<g>
			<path class="st0" d="M10.4,6.5c0,2.1-0.1,4.3-0.1,6.4c0,0.5,0.3,0.8,0.7,1c1.3,0.5,2.7,1,4.1,1.3c1.2,0.3,1.8-1.6,0.5-1.9
				c-1.4-0.4-2.8-0.8-4.1-1.3c0.2,0.3,0.5,0.6,0.7,1c0-2.1,0.1-4.3,0.1-6.4C12.4,5.2,10.4,5.2,10.4,6.5L10.4,6.5z"/>
		</g>
	</g>
</g>
</svg>
