<?xml version="1.0" encoding="utf-8"?>
<!-- Generator: Adobe Illustrator 19.1.0, SVG Export Plug-In . SVG Version: 6.00 Build 0)  -->
<svg version="1.1" id="Layer_1" xmlns="http://www.w3.org/2000/svg" xmlns:xlink="http://www.w3.org/1999/xlink" x="0px" y="0px"
	 viewBox="0 0 23.5 23.5" style="enable-background:new 0 0 23.5 23.5;" xml:space="preserve">
<style type="text/css">
	.st0{fill:#0066FF;}
	.st1{fill:#0066FF;stroke:#0066FF;stroke-miterlimit:10;}
	.st2{fill:none;stroke:#0066FF;stroke-width:2;stroke-miterlimit:10;}
	.st3{fill:#438BCA;}
	.st4{fill:#D9EDF7;}
	.st5{fill:#FFFFFF;}
	.st6{fill:none;stroke:#BE1E2D;stroke-width:0.5;stroke-miterlimit:10;}
	.st7{fill:#F6921E;}
	.st8{fill:none;stroke:#F6921E;stroke-linecap:round;stroke-linejoin:round;stroke-miterlimit:10;}
	.st9{fill:none;stroke:#000000;stroke-linecap:round;stroke-linejoin:round;stroke-miterlimit:10;}
	.st10{clip-path:url(#SVGID_2_);}
	.st11{fill:none;stroke:#FFFFFF;stroke-linecap:round;stroke-linejoin:round;stroke-miterlimit:10;}
	
		.st12{fill:none;stroke:#0066FF;stroke-width:1.5;stroke-linecap:round;stroke-linejoin:round;stroke-miterlimit:10;stroke-dasharray:1,2;}
	.st13{opacity:0.14;fill:#BBBDBF;}
</style>
<g>
	<defs>
		<polyline id="SVGID_1_" points="-72.1,-544.9 895.8,-544.9 895.8,108.3 -72.1,108.3 		"/>
	</defs>
	<clipPath id="SVGID_2_">
		<use xlink:href="#SVGID_1_"  style="overflow:visible;"/>
	</clipPath>
	<g class="st10">
		<defs>
			<rect id="SVGID_3_" x="43.6" y="-544.9" width="852.3" height="653.3"/>
		</defs>
		<clipPath id="SVGID_4_">
			<use xlink:href="#SVGID_3_"  style="overflow:visible;"/>
		</clipPath>
		<g style="clip-path:url(#SVGID_4_);">
			
				<image style="overflow:visible;" width="972" height="656" xlink:href="Screen Shot 2015-12-09 at 18.46.21.png"  transform="matrix(0.9958 0 0 0.9958 -72.114 -544.937)">
			</image>
		</g>
	</g>
</g>
<g>
	<g>
		<g>
			<path class="st0" d="M8.5,9.9c0,2.2-0.1,4.4-0.1,6.6c0,1.1-0.5,3.2,0.2,4.2c0.7,0.8,2.3,0.6,3.2,0.7c2,0.1,4,0.1,6-0.1
				c1.3-0.1,1.3-2.1,0-2c-2.4,0.2-5.8,0.6-8.2-0.2c0.2,0.2,0.5,0.5,0.7,0.7c-0.4-1.4,0-3.4,0-4.9c0-1.7,0-3.3,0.1-5
				C10.5,8.7,8.5,8.7,8.5,9.9L8.5,9.9z"/>
		</g>
	</g>
	<g>
		<g>
			<path class="st0" d="M18.6,20.1c0.1-2.5,0.3-5.1,0.4-7.6c0.1-2,0.6-4.3,0.1-6.2C19,6,18.7,5.7,18.4,5.6C15.6,4.8,11.8,5.5,9,5.9
				C7.7,6,7.7,8,9,7.9c1.6-0.2,3.2-0.4,4.8-0.4c2.1-0.1,3.2-0.5,3.3,1.8c0.1,3.6-0.4,7.3-0.6,10.9C16.5,21.4,18.5,21.4,18.6,20.1
				L18.6,20.1z"/>
		</g>
	</g>
	<g>
		<g>
			<path class="st0" d="M8.3,16.5c-1,0-2,0-3-0.1c-0.5-0.1-1,0.5-1,1c0,0.6,0.5,0.9,1,1c1,0.1,2,0.1,3,0.1
				C9.6,18.4,9.6,16.4,8.3,16.5L8.3,16.5z"/>
		</g>
	</g>
	<g>
		<g>
			<path class="st0" d="M6.4,17.2C6.3,13.1,6.5,8.9,7,4.8c0.2-1.3-1.8-1.3-2,0c-0.5,4.1-0.7,8.2-0.6,12.3
				C4.5,18.5,6.5,18.5,6.4,17.2L6.4,17.2z"/>
		</g>
	</g>
	<g>
		<g>
			<path class="st0" d="M6.6,4.3c2.8,0.2,5.5,0.3,8.3,0.3c-0.3-0.3-0.7-0.7-1-1c0,0.5,0.1,1.1,0.1,1.6c0.1,1.3,2.1,1.3,2,0
				c0-0.5-0.1-1.1-0.1-1.6c0-0.5-0.4-1-1-1c-2.8,0-5.5-0.1-8.3-0.3C5.3,2.2,5.3,4.2,6.6,4.3L6.6,4.3z"/>
		</g>
	</g>
	<g>
		<g>
			<path class="st0" d="M0.7,6.4c7,3,14,5.9,21,8.7c1.2,0.5,1.7-1.5,0.5-1.9C15.4,10.5,8.5,7.6,1.7,4.7C0.6,4.2-0.4,5.9,0.7,6.4
				L0.7,6.4z"/>
		</g>
	</g>
</g>
</svg>
