<?xml version="1.0" encoding="utf-8"?>
<!-- Generator: Adobe Illustrator 19.1.0, SVG Export Plug-In . SVG Version: 6.00 Build 0)  -->
<svg version="1.1" id="Layer_1" xmlns="http://www.w3.org/2000/svg" xmlns:xlink="http://www.w3.org/1999/xlink" x="0px" y="0px"
	 viewBox="0 0 23.5 23.5" style="enable-background:new 0 0 23.5 23.5;" xml:space="preserve">
<style type="text/css">
	.st0{fill:#0066FF;}
	.st1{fill:#0066FF;stroke:#0066FF;stroke-miterlimit:10;}
	.st2{fill:none;stroke:#0066FF;stroke-width:2;stroke-miterlimit:10;}
	.st3{fill:#438BCA;}
	.st4{fill:#D9EDF7;}
	.st5{fill:#FFFFFF;}
	.st6{fill:none;stroke:#BE1E2D;stroke-width:0.5;stroke-miterlimit:10;}
	.st7{fill:#F6921E;}
	.st8{fill:none;stroke:#F6921E;stroke-linecap:round;stroke-linejoin:round;stroke-miterlimit:10;}
	.st9{fill:none;stroke:#000000;stroke-linecap:round;stroke-linejoin:round;stroke-miterlimit:10;}
	.st10{clip-path:url(#SVGID_2_);}
	.st11{fill:none;stroke:#FFFFFF;stroke-linecap:round;stroke-linejoin:round;stroke-miterlimit:10;}
	
		.st12{fill:none;stroke:#0066FF;stroke-width:1.5;stroke-linecap:round;stroke-linejoin:round;stroke-miterlimit:10;stroke-dasharray:1,2;}
	.st13{opacity:0.14;fill:#BBBDBF;}
</style>
<g>
	<defs>
		<polyline id="SVGID_1_" points="-72.1,-125.1 895.8,-125.1 895.8,528.2 -72.1,528.2 		"/>
	</defs>
	<clipPath id="SVGID_2_">
		<use xlink:href="#SVGID_1_"  style="overflow:visible;"/>
	</clipPath>
	<g class="st10">
		<defs>
			<rect id="SVGID_3_" x="43.6" y="-125.1" width="852.3" height="653.3"/>
		</defs>
		<clipPath id="SVGID_4_">
			<use xlink:href="#SVGID_3_"  style="overflow:visible;"/>
		</clipPath>
		<g style="clip-path:url(#SVGID_4_);">
			
				<image style="overflow:visible;" width="972" height="656" xlink:href="Screen Shot 2015-12-09 at 18.46.21.png"  transform="matrix(0.9958 0 0 0.9958 -72.114 -125.1037)">
			</image>
		</g>
	</g>
</g>
<g>
	<g>
		<path class="st0" d="M13.7,2.5c-1.9-0.1-3.8,0-5.6,0.7c-2.4,0.9-4.5,3-5.4,5.5S1.8,14.1,3,16.5c0.3,0.7,0.7,1.3,1.2,1.8
			c0.9,1,2.2,1.7,3.5,2.2c3,1.1,6.4,1,9.2-0.6c2.8-1.6,4.7-4.8,4.5-8c-0.1-1.5-0.6-2.9-1.3-4.2C19.3,6.2,18.3,4.9,17,4
			c-1.3-0.9-3.1-1.2-4.6-0.7"/>
		<g>
			<path class="st0" d="M13.7,0.5C7.2,0.4,0.9,3.8,0.1,10.9c-0.7,6.7,3.9,11.7,10.5,12.2C16.7,23.7,23,19.5,23.4,13
				c0.3-6.2-4.9-13-11.5-11.5C9.4,2,10.5,5.9,13,5.3c5-1.1,7.4,6.3,5.8,9.8c-1.8,3.8-6.2,4.9-10,3.7c-4.1-1.3-5.7-5.4-4.2-9.3
				c1.5-4,5.2-5,9.2-5C16.3,4.6,16.3,0.6,13.7,0.5L13.7,0.5z"/>
		</g>
	</g>
	<g>
		<g>
			<path class="st5" d="M6.2,12.9c0.8,1.1,2.8,5,4.6,4.1c1.2-0.6,2.3-2.6,3.2-3.6c1.3-1.5,2.6-3,3.9-4.5c0.6-0.7-0.4-1.7-1-1
				c-1.6,1.8-3.1,3.6-4.7,5.4c-0.3,0.4-1.6,2.4-2.1,2.4c-0.5,0-2.3-2.9-2.7-3.5C6.8,11.5,5.6,12.2,6.2,12.9L6.2,12.9z"/>
		</g>
	</g>
	<g>
		<g>
			<path class="st5" d="M17.4,7.6c-0.9-0.7-1.6-1.7-2.7-1c-0.8,0.5-1.5,1.7-2.1,2.4c-0.7,0.9-1.5,1.7-2.2,2.6
				c-0.2,0.2-0.3,0.4-0.5,0.6c-0.3,0.3-0.3,0.4,0,0.1c0.2,0.2-0.1-0.6-0.2-0.8c-0.3-0.4-1-1.1-1.5-1.3c-1.1-0.4-1.6,0.6-2.1,1.5
				c-0.5,0.8,0.7,1.5,1.2,0.7c1.1-1.7,1.6,2,3.2,1.2c0.9-0.4,1.8-2.1,2.4-2.8c0.9-1,2.1-3.4,3.6-2.3C17.1,9.1,18.1,8.2,17.4,7.6
				L17.4,7.6z"/>
		</g>
	</g>
</g>
</svg>
