<?xml version="1.0" encoding="utf-8"?>
<!-- Generator: Adobe Illustrator 19.1.0, SVG Export Plug-In . SVG Version: 6.00 Build 0)  -->
<svg version="1.1" id="Layer_1" xmlns="http://www.w3.org/2000/svg" xmlns:xlink="http://www.w3.org/1999/xlink" x="0px" y="0px"
	 viewBox="0 0 23.5 23.5" style="enable-background:new 0 0 23.5 23.5;" xml:space="preserve">
<style type="text/css">
	.st0{fill:#0066FF;}
	.st1{fill:#0066FF;stroke:#0066FF;stroke-miterlimit:10;}
	.st2{fill:none;stroke:#0066FF;stroke-width:2;stroke-miterlimit:10;}
	.st3{fill:#438BCA;}
	.st4{fill:#D9EDF7;}
	.st5{fill:#FFFFFF;}
	.st6{fill:none;stroke:#BE1E2D;stroke-width:0.5;stroke-miterlimit:10;}
	.st7{fill:#F6921E;}
	.st8{fill:none;stroke:#F6921E;stroke-linecap:round;stroke-linejoin:round;stroke-miterlimit:10;}
	.st9{fill:none;stroke:#000000;stroke-linecap:round;stroke-linejoin:round;stroke-miterlimit:10;}
	.st10{clip-path:url(#SVGID_2_);}
	.st11{fill:none;stroke:#FFFFFF;stroke-linecap:round;stroke-linejoin:round;stroke-miterlimit:10;}
	
		.st12{fill:none;stroke:#0066FF;stroke-width:1.5;stroke-linecap:round;stroke-linejoin:round;stroke-miterlimit:10;stroke-dasharray:1,2;}
	.st13{opacity:0.14;fill:#BBBDBF;}
</style>
<g>
	<defs>
		<polyline id="SVGID_1_" points="-72.1,-335.3 895.8,-335.3 895.8,318 -72.1,318 		"/>
	</defs>
	<clipPath id="SVGID_2_">
		<use xlink:href="#SVGID_1_"  style="overflow:visible;"/>
	</clipPath>
	<g class="st10">
		<defs>
			<rect id="SVGID_3_" x="43.6" y="-335.3" width="852.3" height="653.3"/>
		</defs>
		<clipPath id="SVGID_4_">
			<use xlink:href="#SVGID_3_"  style="overflow:visible;"/>
		</clipPath>
		<g style="clip-path:url(#SVGID_4_);">
			
				<image style="overflow:visible;" width="972" height="656" xlink:href="Screen Shot 2015-12-09 at 18.46.21.png"  transform="matrix(0.9958 0 0 0.9958 -72.114 -335.2703)">
			</image>
		</g>
	</g>
</g>
<g>
	<g>
		<path class="st0" d="M2.8,9.9c0,2.8,0.1,5.6,0.1,8.3c0,1.3,2,1.3,2,0c0-2.8-0.1-5.6-0.1-8.3C4.8,8.7,2.8,8.7,2.8,9.9L2.8,9.9z"/>
	</g>
</g>
<g>
	<g>
		<path class="st0" d="M8.1,10.9c0.2,2.7,0.4,5.3,0.6,8c0.1,1.3,2.1,1.3,2,0c-0.2-2.7-0.4-5.3-0.6-8C10,9.7,8,9.6,8.1,10.9L8.1,10.9
			z"/>
	</g>
</g>
<g>
	<g>
		<path class="st0" d="M13.5,10.7c0.1,2.4,0.2,4.9,0.4,7.3c0.1,1.3,2.1,1.3,2,0c-0.1-2.4-0.2-4.9-0.4-7.3
			C15.4,9.4,13.4,9.4,13.5,10.7L13.5,10.7z"/>
	</g>
</g>
<g>
	<g>
		<path class="st0" d="M18.2,10.8c0.2,2.7,0.3,5.4,0.5,8.1c0.1,1.3,2.1,1.3,2,0c-0.1-2.7-0.3-5.4-0.5-8.1
			C20.1,9.5,18.1,9.5,18.2,10.8L18.2,10.8z"/>
	</g>
</g>
<g>
	<g>
		<path class="st0" d="M3.5,7.5c5.7,0.2,11.3,0.5,17,0.7c0.8,0,1.4-1.2,0.7-1.7c-1.8-1.5-3.7-2.9-5.5-4.4c-0.8-0.6-1.7-1.7-2.8-1.8
			c-1-0.1-2.3,1-3.2,1.5C7.5,3,5.3,4.1,3.1,5.3C1.9,5.9,3,7.6,4.1,7c1.5-0.8,3-1.5,4.4-2.3c1-0.5,2.3-1.6,3.3-1.7
			c2.8-0.5,6,3.4,7.9,5c0.2-0.6,0.5-1.1,0.7-1.7C14.8,6,9.2,5.7,3.5,5.5C2.2,5.5,2.2,7.5,3.5,7.5L3.5,7.5z"/>
	</g>
</g>
<g>
	<g>
		<path class="st0" d="M3.3,22.7c5.7,0,11.4,0,17.1,0.1c1.3,0,1.3-2,0-2C14.7,20.7,9,20.6,3.3,20.7C2,20.7,2,22.7,3.3,22.7L3.3,22.7
			z"/>
	</g>
</g>
</svg>
