<?xml version="1.0" encoding="utf-8"?>
<!-- Generator: Adobe Illustrator 19.1.0, SVG Export Plug-In . SVG Version: 6.00 Build 0)  -->
<svg version="1.1" id="Layer_1" xmlns="http://www.w3.org/2000/svg" xmlns:xlink="http://www.w3.org/1999/xlink" x="0px" y="0px"
	 viewBox="0 0 23.5 23.5" style="enable-background:new 0 0 23.5 23.5;" xml:space="preserve">
<style type="text/css">
	.st0{fill:#0066FF;}
	.st1{fill:#0066FF;stroke:#0066FF;stroke-miterlimit:10;}
	.st2{fill:none;stroke:#0066FF;stroke-width:2;stroke-miterlimit:10;}
	.st3{fill:#438BCA;}
	.st4{fill:#D9EDF7;}
	.st5{fill:#FFFFFF;}
	.st6{fill:none;stroke:#BE1E2D;stroke-width:0.5;stroke-miterlimit:10;}
	.st7{fill:#F6921E;}
	.st8{fill:none;stroke:#F6921E;stroke-linecap:round;stroke-linejoin:round;stroke-miterlimit:10;}
	.st9{fill:none;stroke:#000000;stroke-linecap:round;stroke-linejoin:round;stroke-miterlimit:10;}
	.st10{clip-path:url(#SVGID_2_);}
	.st11{fill:none;stroke:#FFFFFF;stroke-linecap:round;stroke-linejoin:round;stroke-miterlimit:10;}
	
		.st12{fill:none;stroke:#0066FF;stroke-width:1.5;stroke-linecap:round;stroke-linejoin:round;stroke-miterlimit:10;stroke-dasharray:1,2;}
	.st13{opacity:0.14;fill:#BBBDBF;}
</style>
<g>
	<defs>
		<polyline id="SVGID_1_" points="-72.1,-178.1 895.8,-178.1 895.8,475.2 -72.1,475.2 		"/>
	</defs>
	<clipPath id="SVGID_2_">
		<use xlink:href="#SVGID_1_"  style="overflow:visible;"/>
	</clipPath>
	<g class="st10">
		<defs>
			<rect id="SVGID_3_" x="43.6" y="-178.1" width="852.3" height="653.3"/>
		</defs>
		<clipPath id="SVGID_4_">
			<use xlink:href="#SVGID_3_"  style="overflow:visible;"/>
		</clipPath>
		<g style="clip-path:url(#SVGID_4_);">
			
				<image style="overflow:visible;" width="972" height="656" xlink:href="Screen Shot 2015-12-09 at 18.46.21.png"  transform="matrix(0.9958 0 0 0.9958 -72.114 -178.1037)">
			</image>
		</g>
	</g>
</g>
<g>
	<g>
		<g>
			<path class="st0" d="M12,6.1c-1.8-2.2-3.8-4-6-5.6c-0.3-0.2-0.7-0.2-1,0C3.5,1.3,0,3.2,0.1,5.2c0,1,1.1,1.8,1.7,2.4
				C3,8.7,4.2,9.8,5.5,10.8c1,0.8,2.4-0.6,1.4-1.4c-1.2-1-3.4-2.3-4.2-3.7C2.1,5.5,2,5.2,2.5,4.8c0.3-0.3,0.6-0.6,1-0.9
				C4.2,3.2,5.1,2.7,6,2.2c-0.3,0-0.7,0-1,0c2.1,1.5,4,3.3,5.6,5.3C11.4,8.5,12.8,7,12,6.1L12,6.1z"/>
		</g>
	</g>
	<g>
		<g>
			<path class="st0" d="M5.9,11.6c-1.8,1.5-4.1,3.3-5.3,5.4c-1,1.7,0.9,3.1,2.1,4.2c1.1,1,2,2.5,3.7,1.8c0.9-0.4,1.7-1.5,2.4-2.2
				c1.2-1.1,2.4-2.3,3.6-3.4c0.9-0.9-0.5-2.3-1.4-1.4c-0.8,0.8-1.6,1.5-2.4,2.3c-0.7,0.6-1.9,2.3-2.7,2.6c-0.7,0.2-0.2,0.2-0.8-0.2
				c-0.3-0.2-0.6-0.6-0.9-0.9c-0.8-0.7-1.6-1.3-2-2.2c0,0.3,0,0.7,0,1c1-2.2,3.4-4,5.2-5.5C8.3,12.2,6.9,10.8,5.9,11.6L5.9,11.6z"/>
		</g>
	</g>
	<g>
		<g>
			<path class="st0" d="M11.7,17.8c1.8,1.6,3.8,4,6,5c1.5,0.7,3.3-0.9,4.4-1.9c1.1-0.9,1.2-2,0.4-3.1c-1.7-2.4-4.2-4.5-6.3-6.6
				c-0.9-0.9-2.3,0.5-1.4,1.4c1.2,1.2,2.4,2.4,3.6,3.6c0.6,0.6,1.4,1.3,1.9,2c0.5,0.8,0.8,0.8-0.1,1.6c-0.2,0.2-1.5,1.1-1.7,1.1
				c-0.4,0-1.2-1-1.5-1.2c-1.3-1.1-2.6-2.2-3.8-3.4C12.2,15.6,10.8,17,11.7,17.8L11.7,17.8z"/>
		</g>
	</g>
	<g>
		<g>
			<path class="st0" d="M12.1,8c1.1-0.9,2-1.8,2.8-3c0.4-0.6,0.8-1.2,1.3-1.7c1-1.1,1.4-0.5,2.4,0.4c0.5,0.5,1.9,1.4,2.2,2.1
				c0.1,0,0.3,0.1,0.4,0.1c-0.4,0.3-0.8,0.7-1.2,1c-1.6,1.3-3.2,2.7-4.8,4c-1,0.8,0.4,2.2,1.4,1.4c1.2-1,2.4-2,3.6-3
				C21,8.7,22.4,7.9,23,6.9c0.9-1.6-1.6-3.5-2.7-4.4c-1.2-1.1-2.8-2.8-4.4-1.7c-2,1.3-2.8,3.9-4.8,5.4C10.1,7,11.1,8.7,12.1,8
				L12.1,8z"/>
		</g>
	</g>
</g>
</svg>
