<?xml version="1.0" encoding="utf-8"?>
<!-- Generator: Adobe Illustrator 19.1.0, SVG Export Plug-In . SVG Version: 6.00 Build 0)  -->
<svg version="1.1" id="Layer_1" xmlns="http://www.w3.org/2000/svg" xmlns:xlink="http://www.w3.org/1999/xlink" x="0px" y="0px"
	 viewBox="0 0 23.5 23.5" style="enable-background:new 0 0 23.5 23.5;" xml:space="preserve">
<style type="text/css">
	.st0{fill:#0066FF;}
	.st1{fill:#0066FF;stroke:#0066FF;stroke-miterlimit:10;}
	.st2{fill:none;stroke:#0066FF;stroke-width:2;stroke-miterlimit:10;}
	.st3{fill:#438BCA;}
	.st4{fill:#D9EDF7;}
	.st5{fill:#FFFFFF;}
	.st6{fill:none;stroke:#BE1E2D;stroke-width:0.5;stroke-miterlimit:10;}
	.st7{fill:#F6921E;}
	.st8{fill:none;stroke:#F6921E;stroke-linecap:round;stroke-linejoin:round;stroke-miterlimit:10;}
	.st9{fill:none;stroke:#000000;stroke-linecap:round;stroke-linejoin:round;stroke-miterlimit:10;}
	.st10{clip-path:url(#SVGID_2_);}
	.st11{fill:none;stroke:#FFFFFF;stroke-linecap:round;stroke-linejoin:round;stroke-miterlimit:10;}
	
		.st12{fill:none;stroke:#0066FF;stroke-width:1.5;stroke-linecap:round;stroke-linejoin:round;stroke-miterlimit:10;stroke-dasharray:1,2;}
	.st13{opacity:0.14;fill:#BBBDBF;}
</style>
<g>
	<defs>
		<polyline id="SVGID_1_" points="-72.1,-230.4 895.8,-230.4 895.8,422.9 -72.1,422.9 		"/>
	</defs>
	<clipPath id="SVGID_2_">
		<use xlink:href="#SVGID_1_"  style="overflow:visible;"/>
	</clipPath>
	<g class="st10">
		<defs>
			<rect id="SVGID_3_" x="43.6" y="-230.4" width="852.3" height="653.3"/>
		</defs>
		<clipPath id="SVGID_4_">
			<use xlink:href="#SVGID_3_"  style="overflow:visible;"/>
		</clipPath>
		<g style="clip-path:url(#SVGID_4_);">
			
				<image style="overflow:visible;" width="972" height="656" xlink:href="Screen Shot 2015-12-09 at 18.46.21.png"  transform="matrix(0.9958 0 0 0.9958 -72.114 -230.3537)">
			</image>
		</g>
	</g>
</g>
<g>
	<g>
		<g>
			<path class="st0" d="M19.2,1C12.6,0.2,1.7,1.1,1,9.9c-0.8,10,11.9,10,18.6,9.5c1.3-0.1,1.3-2.1,0-2c-5.3,0.4-18.5,0.9-16.5-8.1
				C4.6,2.3,13.8,2.3,19.2,3C20.5,3.1,20.5,1.1,19.2,1L19.2,1z"/>
		</g>
	</g>
	<g>
		<g>
			<path class="st0" d="M13.5,13.3c1.4,1.6,3,3,4.7,4.2c0.4,0.3,0.9,0.6,1.3,0.9c0-0.2,0-0.4-0.1-0.6c-0.2,0.3-0.5,0.5-0.7,0.8
				c-0.9,1-1.8,1.9-2.7,2.9c-0.9,0.9,0.5,2.3,1.4,1.4c1.1-1.2,2.5-2.3,3.5-3.6c0.5-0.6,0.8-1.2,0.4-1.9c-0.5-0.9-1.9-1.5-2.7-2.1
				c-1.3-1-2.5-2.2-3.6-3.4C14,10.9,12.6,12.3,13.5,13.3L13.5,13.3z"/>
		</g>
	</g>
</g>
</svg>
